<?xml version="1.0" encoding="utf-8"?>
<!-- Generator: Adobe Illustrator 20.1.0, SVG Export Plug-In . SVG Version: 6.00 Build 0)  -->
<svg version="1.1" xmlns="http://www.w3.org/2000/svg" xmlns:xlink="http://www.w3.org/1999/xlink" x="0px" y="0px"
	 viewBox="0 0 1000 1000" style="enable-background:new 0 0 1000 1000;" xml:space="preserve">
<style type="text/css">
	.st0{fill:#2A9DBC;}
	.st1{fill:#FFFFFF;}
	.st2{display:none;}
	.st3{display:inline;fill:#FFFFFF;}
	.st4{display:inline;fill:#1E1E1C;stroke:#FFFFFF;stroke-miterlimit:10;}
</style>
<g id="Calque_1">
	
		<image style="display:none;overflow:visible;" width="1200" height="1200" xlink:href="../water-drop-icon-black_299384.png"  transform="matrix(1 0 0 1 384 -542.9401)">
	</image>
	<g>
		<circle class="st0" cx="501" cy="657.1" r="316.8"/>
		<path class="st0" d="M811.9,690.1l-312,104.7l-290.7-262c0,0,53.3-117.3,68-132l21.3-36.7l43.3-66.7l32.7-52.7l34.7-53.3l30-50.7
			l21.3-38.7l18-36.7l8-20l13.3-42c0,0,15.3,69.3,58.7,134.7c43.3,65.3,59.3,94,59.3,94l41.3,63.3l22,35.3l24,38l19.3,32.7l44,80
			l16.7,40.7l11.3,32.7l9.3,34l2.7,17.3l3.3,29.3v16.7V690.1"/>
	</g>
</g>
<g id="Calque_3">
	<path class="st1" d="M308.5,697.4c0,0-1.3,56,32,98.7l9.3,11.6l15.3,15.7l11.3,8l13.3,8.7l15.3,8l20,6.7l14.7,4l8.9,1.2l14.5,1.2
		h11l4.8,1.8l6.5,3.6l4,4.4l3.2,5.8l1.8,4.2v11.2l-1.5,6.2l-4.8,6.2l-6.2,5.5l-7.2,4h-17.2l-30.2-2.8l-17.8-4.5l-37-15l-27.8-17
		L321,855.1l-20.2-22l-17.5-25.5l-9.2-19.5l-7-18.8l-4-14l-3.5-13.8l-1.8-12.5l-1.5-19v-12.8l2.5-7.8l5.2-6l6.8-5.2l7-3h6.5l10,2.8
		l8.2,5.5l4.2,7L308.5,697.4z"/>
</g>
<g id="Calque_2" class="st2">
	<path class="st3" d="M504,0"/>
	<path class="st4" d="M818.9,484.9c0,2.4,0,4.7,0,7.1c-2.5,264.6-142.6,477.9-315.1,477.9C331,969.9,190.7,756,188.6,491
		c0-2,0-4,0-6.1C188.6,217.1,503.7,0,503.7,0S818.9,217.1,818.9,484.9z"/>
</g>
</svg>
