<?xml version="1.0" encoding="utf-8"?>
<!-- Generator: Adobe Illustrator 20.1.0, SVG Export Plug-In . SVG Version: 6.00 Build 0)  -->
<svg version="1.1" id="Calque_2" xmlns="http://www.w3.org/2000/svg" xmlns:xlink="http://www.w3.org/1999/xlink" x="0px" y="0px"
	 viewBox="0 0 89 208" style="enable-background:new 0 0 89 208;display:none;" xml:space="preserve">
<style type="text/css">
	.st0{fill:#28357D;}
	.st1{fill:#E9E9EE;}
	.st2{fill:none;}
	.st3{fill:#D70C3D;stroke:#FCFEFF;stroke-miterlimit:10;}
	.st4{font-family:'FuturaBQ-DemiBold';}
	.st5{font-size:18px;}
	.st6{fill:#A27E13;}
	.st7{fill:#F08219;}
	.st8{fill:#C61D1B;}
	.st9{fill:#EDB80E;}
	.st10{clip-path:url(#SVGID_2_);fill:#D2A116;}
	.st11{fill:#FFFBF1;}
	.st12{fill:#161615;}
	.st13{fill:#CC6C14;}
	.st14{fill:#DA7510;}
	.st15{fill:#BC6317;}
	.st16{fill:#F7C32E;}
	.st17{fill:#CE2A28;}
</style>
<polygon style="display:inline;fill:#28357D;" points="0.3,13.3 0.3,108.3 43.3,108.3 65.8,5.3 0.3,5.3 "/>
<polygon style="display:inline;fill:#E9E9EE;" points="43.3,108.3 89.3,108.3 89.3,5.3 65.8,5.3 "/>
<polygon style="display:inline;fill:#28357D;" points="89.3,108.3 89.3,185.8 25.8,185.8 43.3,108.3 "/>
<polygon style="display:inline;fill:#E9E9EE;" points="0.3,108.3 0.3,185.8 25.8,185.8 43.3,108.3 "/>
<polygon style="display:inline;fill:#E9E9EE;" points="3.8,5.3 3.8,2.6 9.5,2.6 9.5,0.1 80,0.1 80,2.7 87,2.7 87,5.3 "/>
<rect x="0.3" y="185.8" style="display:inline;fill:#28357D;" width="25.5" height="10.2"/>
<rect x="25.8" y="185.8" style="display:inline;fill:#E9E9EE;" width="63.5" height="10.2"/>
<polygon style="display:inline;fill:#E9E9EE;" points="0.3,196.1 0.3,200.1 3.8,200.1 3.8,207.5 25.8,207.5 25.8,196.1 "/>
<polygon style="display:inline;fill:#28357D;" points="25.8,196.1 89.3,196.1 89.3,200.1 87,200.1 87,203.8 80.9,203.8 80.6,207.5 
	25.8,207.5 "/>
<g style="display:inline;">
	<rect x="6.8" y="129.2" class="st2" width="78.2" height="15.8"/>
	<text transform="matrix(1 0 0 1 6.7636 141.9785)" class="st3 st4 st5">Red Poule</text>
</g>
<g style="display:inline;">
	<g>
		<path class="st6" d="M31.8,107.4c1.8,0.5,2.6,5.3,2.6,5.3s-0.9,2.4-3.7,2.6s-4.7-1.6-5.4-2.5c-1.3-1.7-1.7-4.5-1.1-7.5
			c0.3-1.2,0.2-1.7,1.2-0.8S29.9,106.9,31.8,107.4z"/>
	</g>
	<g>
		<path class="st6" d="M58.4,107.4c-1.8,0.5-2.6,5.3-2.6,5.3s0.9,2.4,3.7,2.6c2.8,0.2,4.7-1.6,5.4-2.5c1.3-1.7,1.7-4.5,1.1-7.5
			c-0.3-1.2-0.2-1.7-1.2-0.8S60.3,106.9,58.4,107.4z"/>
	</g>
	<g>
		<path class="st7" d="M35.7,119.3c-0.7,0.5-1.1,1.3-1.3,1.7c-0.1,0.5,0.1,0.9,0.6,1.1c0.5,0.2,1.1,0.5,1.6-0.5
			c0.5-0.9,0.8-1.7,0.8-1.7L35.7,119.3z"/>
		<path class="st7" d="M37.7,120.1c-0.9,0.5-1.5,1.8-1.6,2.1c0,0.5,0.9,0.8,1.3,0.6c0.3-0.1,0.6-0.6,0.7-1.1
			c0.2-0.5,0.2-1.2,0.2-1.2L37.7,120.1z"/>
		<path class="st7" d="M39.7,121.1c-0.1,0.6,0.1,1.7-0.4,2c-0.3,0.2-0.8,0.3-1.3,0c-0.4-0.2-0.6-0.4-0.5-1.3c0.1-0.8,1-2.1,1-2.1
			l1,0.8L39.7,121.1z"/>
	</g>
	<g>
		<path class="st7" d="M54.6,119.3c0.7,0.5,1.1,1.3,1.3,1.7c0.1,0.5-0.1,0.9-0.6,1.1c-0.5,0.2-1.1,0.5-1.6-0.5
			c-0.5-0.9-0.8-1.7-0.8-1.7L54.6,119.3z"/>
		<path class="st7" d="M52.5,120.1c0.9,0.5,1.5,1.8,1.6,2.1c0,0.5-0.9,0.8-1.3,0.6c-0.3-0.1-0.6-0.6-0.7-1.1
			c-0.2-0.5-0.2-1.2-0.2-1.2L52.5,120.1z"/>
		<path class="st7" d="M50.5,121.1c0.1,0.6-0.1,1.7,0.4,2c0.3,0.2,0.8,0.3,1.3,0c0.4-0.2,0.6-0.4,0.5-1.3c-0.1-0.8-1-2.1-1-2.1
			l-1,0.8L50.5,121.1z"/>
	</g>
	<path class="st8" d="M38.1,89.5c-2.6-3.4-3.7-5.3-3-9.1c0.7-3.8,3.7-1.6,4.1,0.5c0.5,2.4,1.2,8.6,1.2,8.6H38.1z"/>
	<path class="st8" d="M41.2,76.1c-1.1,1.5-1.8,3.9-2.1,7.3c-0.3,3.4-0.2,5.1,0.1,5.8c0.3,0.8,2-0.4,2-0.4s1.9-3.9,2.4-5.7
		c0.6-1.8,1.1-4.7,1.1-5.5c0-0.8-0.3-1.6-1.2-2.2C43,75.2,42,75.1,41.2,76.1z"/>
	<path class="st8" d="M47.7,75.3c-2,0.8-3.3,1.9-4.3,4.6c-1.1,2.6-2.6,6.6-2.6,8.5c0,1.9,2.6-0.3,2.6-0.3s1.4-3.5,2.1-4.2
		c0.7-0.7,2.8-2.6,3.9-3.3c1.2-0.7,3.1-2.4,3.4-3.5c0.2-1.1-0.5-2-1.7-2.2C49.7,74.6,48.8,74.9,47.7,75.3z"/>
	<path class="st8" d="M47.4,87.7c1.4-1.2,2.8-2.2,5.3-2.6c1.1-0.1,4.2-0.8,4.8-1.7c0.7-1,0.3-2.8-1.6-3.7c-2.7-1.3-8.1,1.9-9,2.8
		c-0.9,0.8-2.8,1.5-3.6,5.6S47.4,87.7,47.4,87.7z"/>
	<path class="st8" d="M46,88.2c0.7-0.5,4.2-2.5,5.9-2.6c1.9-0.2,2.4,0,3,0.3c1.1,0.5,1.3,1.7,0.6,2.3c-0.7,0.6-2.1,0.4-3,0.5
		s-3.2,0.7-3.2,0.7L46,88.2z"/>
	<circle class="st9" cx="45.1" cy="105" r="17.8"/>
	<g>
		<defs>
			<circle id="SVGID_1_" cx="45.1" cy="105" r="17.8"/>
		</defs>
		<clipPath id="SVGID_2_">
			<use xlink:href="#SVGID_1_"  style="overflow:visible;"/>
		</clipPath>
		<ellipse class="st10" cx="45.1" cy="121.9" rx="13.1" ry="10.8"/>
	</g>
	<g>
		<circle class="st11" cx="52" cy="99.7" r="4.7"/>
		<circle class="st12" cx="51.4" cy="99.5" r="3.1"/>
		
			<ellipse transform="matrix(0.6662 -0.7458 0.7458 0.6662 -55.6059 71.9867)" class="st11" cx="52.6" cy="98.1" rx="0.5" ry="0.9"/>
	</g>
	<g>
		<circle class="st11" cx="38.6" cy="99.7" r="4.7"/>
		<circle class="st12" cx="39.2" cy="99.5" r="3.1"/>
		
			<ellipse transform="matrix(0.6662 -0.7458 0.7458 0.6662 -59.6958 62.8493)" class="st11" cx="40.4" cy="98.1" rx="0.5" ry="0.9"/>
	</g>
	<path class="st13" d="M45.1,106.6c0,0-2.7,0-3.4,0.1c0,0-1.1,0-1.1,0c0.5,0.4,2.2,2.1,4.5,2.1c2.2,0,4-1.7,4.5-2.1
		c0,0-0.8-0.1-0.9-0.1C48,106.6,45.1,106.6,45.1,106.6z"/>
	<ellipse class="st11" cx="45.1" cy="107.1" rx="2.4" ry="1.2"/>
	<path class="st14" d="M45.1,104.4c-1,1.5-4.4,1.8-5.1,1.8c0,0-0.1,0.1,0,0.1c0.5,0.4,2.9,2,5.1,2c2.2,0,4.6-1.6,5.1-2
		c0,0,0-0.1,0-0.1C49.5,106.2,46.2,105.9,45.1,104.4C45.1,104.4,45.1,104.4,45.1,104.4z"/>
	
		<ellipse transform="matrix(0.7071 -0.7071 0.7071 0.7071 -61.1833 63.0979)" class="st15" cx="45.6" cy="105.4" rx="0.1" ry="0.2"/>
	
		<ellipse transform="matrix(0.7071 -0.7071 0.7071 0.7071 -61.4571 62.4368)" class="st15" cx="44.6" cy="105.4" rx="0.2" ry="0.1"/>
	<ellipse transform="matrix(0.5 -0.866 0.866 0.5 -53.0751 91.3936)" class="st16" cx="52.6" cy="91.7" rx="1.4" ry="2.9"/>
	<path class="st17" d="M54.3,85.8c-0.1,0,0.1,0.2,0.4,0.4c0.2,0.1,0.3,0.3,0.4,0.5c0.1,0.2,0.1,0.4,0.1,0.5c0,0.1,0.2,0.4,0.3,0
		c0.1-0.4-0.1-0.7-0.3-0.9C55,86.1,54.5,85.9,54.3,85.8z"/>
	<path class="st17" d="M52.6,80c1-0.2,1.9-0.3,2.6-0.1c0.8,0.2,1.8,0.8,1.8,1.5c0,0.4-0.6,0.3-0.7,0c-0.2-0.6-0.8-1-1.6-1.1
		c-0.4-0.1-0.9-0.2-1.7-0.2C52.4,80.2,52.3,80.1,52.6,80z"/>
	<path class="st17" d="M47.4,75.8c0.6-0.4,1.3-0.6,2-0.7c0.6-0.1,1.1,0,1.6,0.1c0.4,0.1,0.9,0.3,1.1,0.5s-0.3,0.4-0.6,0.2
		c-0.3-0.2-0.8-0.5-1.4-0.5c-0.5,0-0.8,0-1.3,0c-0.2,0-0.8,0.2-1,0.3C47.1,76.1,47.2,75.9,47.4,75.8z"/>
	<path class="st17" d="M43.8,76.1c0.3,0.4,0.1,0.7-0.2,0.5s-0.5-0.6-1-0.6c-0.4,0-0.6,0.1-0.7,0.2c-0.1,0.1-0.3,0.1-0.1-0.1
		s0.4-0.4,0.8-0.5S43.5,75.8,43.8,76.1z"/>
	<path class="st17" d="M37.1,78.7c0.3,0.1,0.6,0.3,1,0.8c0.3,0.4,0.5,0.7,0.6,1.1c0,0.2-0.4,0.4-0.5,0.1c-0.2-0.3-0.2-0.9-0.4-1.2
		c-0.2-0.4-0.4-0.5-0.7-0.6C36.6,78.6,36.9,78.6,37.1,78.7z"/>
</g>
</svg>
