<?xml version="1.0" encoding="utf-8"?>
<!-- Generator: Adobe Illustrator 20.1.0, SVG Export Plug-In . SVG Version: 6.00 Build 0)  -->
<svg version="1.1" id="Calque_1" xmlns="http://www.w3.org/2000/svg" xmlns:xlink="http://www.w3.org/1999/xlink" x="0px" y="0px"
	 viewBox="0 0 514.4 430.7" style="enable-background:new 0 0 514.4 430.7;" xml:space="preserve">
<style type="text/css">
	.st0{display:none;}
	.st1{display:inline;fill:#FFC050;}
	.st2{display:inline;}
	.st3{fill:#5E3F02;}
	.st4{fill:#6D2903;}
	.st5{fill:#E74C3C;}
	.st6{fill:#FFFFFF;}
</style>
<g class="st0">
	<path class="st1" d="M390.6,48.3c0,0,2.3,1,8.4-4.4c5.4-4.8,6.5-8.1,4.5-11.1c-1.8-3.2-8.1-3.3-13.7-4.4
		c-10.7-2.3-63.5-0.5-71.5,0.4c-7.5,0.9-23.9-0.7-29.9,3.8s-44,9.5-57.5-7.5S186.8-22,148.3-22S52.8-3.9,44.8,75.1
		c6.5,100.5,97,101.5,97,101.5c45.5-0.5,64-23.5,80-38.5s14-18.5,44-19s62.8,6.2,72.6,8.8c9.8,2.6,57.3,1.8,67.7,0
		c10.4-1.8,7.5-11.3,4.6-15.5c-3-4.4-10.9-3.3-17.4-3.3c-8.7,0-76-0.5-76-0.5l1-60L390.6,48.3z M144.3,162.6
		c-47.1,0-85.3-38.2-85.3-85.3C59,30.1,97.2-8,144.3-8s85.3,38.2,85.3,85.3C229.6,124.4,191.4,162.6,144.3,162.6z"/>
	<g class="st2">
		<path class="st3" d="M390.6,48.3c0.5,0.1,0.9,0,1.4-0.1c0.5-0.1,0.9-0.3,1.3-0.5c0.4-0.2,0.8-0.4,1.2-0.7c0.4-0.2,0.8-0.5,1.2-0.8
			c0.8-0.6,1.5-1.2,2.2-1.8c0.7-0.6,1.4-1.3,2.1-1.9c0.7-0.7,1.3-1.4,1.9-2.1c0.6-0.7,1.1-1.5,1.5-2.3c0.4-0.8,0.6-1.7,0.6-2.6
			c0-0.4-0.1-0.9-0.3-1.3c-0.1-0.4-0.4-0.8-0.6-1.2l0,0l0,0c-0.5-0.9-1.4-1.5-2.4-2c-1-0.4-2.1-0.7-3.2-0.9c-2.2-0.4-4.4-0.7-6.7-1
			c-2.2-0.4-4.4-0.7-6.7-0.8c-2.2-0.1-4.5-0.2-6.8-0.3c-9-0.2-18.1,0-27.1,0.3c-9,0.3-18.1,0.7-27.1,1.2l-3.4,0.2
			c-1.1,0.1-2.2,0.2-3.4,0.3c-2.3,0.1-4.6,0.2-6.8,0.2c-4.5,0.1-9,0.1-13.4,0.8c-2.2,0.3-4.3,0.8-6.1,1.7c-0.2,0.1-0.4,0.2-0.7,0.4
			l-0.7,0.4c-0.2,0.1-0.6,0.4-0.8,0.5c-0.3,0.2-0.6,0.3-0.8,0.4c-1.1,0.5-2.2,0.9-3.3,1.2c-4.5,1.3-9,1.9-13.6,2.2
			c-4.6,0.3-9.2,0.3-13.8-0.2c-4.6-0.5-9.1-1.3-13.5-2.9c-4.4-1.6-8.6-4-11.9-7.5c-0.4-0.4-0.8-0.9-1.2-1.4l-1.1-1.3
			c-0.7-0.9-1.4-1.7-2.2-2.6c-1.5-1.7-3-3.4-4.5-5c-6.1-6.5-12.8-12.6-20-17.9c-7.2-5.3-14.9-9.9-23.2-13.3
			c-8.2-3.4-16.9-5.6-25.7-6.1c-1.1-0.1-2.2-0.1-3.3-0.1l-1.6,0l-1.7,0c-2.2,0-4.4,0.1-6.7,0.3c-4.4,0.3-8.9,0.9-13.3,1.7
			c-8.8,1.6-17.3,4.2-25.4,7.9C93.2-6.7,85.6-1.8,79,4.1C72.4,10,66.8,16.9,62.2,24.5c-4.5,7.6-8,15.9-10.5,24.4
			c-2.5,8.6-4.1,17.4-5,26.3l0-0.3c0.8,11.4,2.7,22.6,6.2,33.4c1.8,5.4,4,10.6,6.6,15.6c2.6,5,5.7,9.8,9.2,14.2
			c6.9,8.9,15.6,16.3,25.4,22.1c9.7,5.7,20.4,9.8,31.5,12.2c2.8,0.6,5.6,1.1,8.3,1.5c1.4,0.2,2.8,0.4,4.2,0.5
			c0.7,0.1,1.4,0.1,2.1,0.2c0.7,0,1.4,0.1,2,0.1c1.4,0,2.9-0.1,4.3-0.1c1.4-0.1,2.8-0.1,4.2-0.3c2.8-0.2,5.6-0.5,8.4-1
			c11.2-1.7,22-5.5,31.6-11.3c4.8-2.9,9.4-6.3,13.7-10c4.3-3.7,8.4-7.7,12.5-11.7l6.2-6l6.1-6.1c2.1-2,4.3-4.1,6.9-5.8
			c2.6-1.7,5.6-2.8,8.5-3.4c5.9-1.3,11.7-1.5,17.5-1.6c1.5,0,2.9-0.1,4.4-0.1l4.3,0c2.9,0.1,5.8,0.1,8.7,0.3
			c5.8,0.3,11.6,0.7,17.3,1.4c5.8,0.6,11.5,1.4,17.2,2.3c5.7,0.9,11.4,2,17.1,3.2c1.4,0.3,2.8,0.6,4.2,1c0.7,0.2,1.4,0.3,2.1,0.5
			l1.1,0.3l1,0.2c1.2,0.2,2.7,0.4,4.1,0.6c1.4,0.1,2.8,0.3,4.2,0.4c5.7,0.4,11.4,0.5,17.2,0.6c5.7,0.1,11.5,0,17.2-0.1
			c5.7-0.1,11.5-0.3,17.2-0.7c1.4-0.1,2.8-0.2,4.2-0.4c0.7-0.1,1.4-0.2,2-0.3c0.3-0.1,0.7-0.1,1-0.2c0.3-0.1,0.6-0.1,0.9-0.3
			c1.2-0.4,2.3-1,3-1.9c0.7-0.9,1.2-2,1.2-3.2c0.2-2.5-0.7-5.2-2.1-7.4c-0.1-0.1-0.2-0.3-0.3-0.4c-0.1-0.1,0,0,0-0.1l-0.1-0.1
			l-0.2-0.2l-0.3-0.3l-0.3-0.3c-0.4-0.4-0.9-0.7-1.5-0.9c-1.1-0.5-2.4-0.8-3.8-0.9c-2.7-0.3-5.6-0.1-8.5-0.1c-2.9,0-5.8,0-8.7-0.1
			l-69.1-0.8l-0.9,0l0-0.9l1.4-60l0-0.5l0.5,0L390.6,48.3z M390.6,48.3l-72.2,0.8l0.5-0.5l-0.6,60l-0.9-0.9l69.1,0.2
			c2.9,0,5.8,0.1,8.6,0c2.9-0.1,5.8-0.3,8.8,0c1.5,0.2,3.1,0.4,4.6,1.1c0.8,0.3,1.5,0.8,2.1,1.3c0.2,0.1,0.3,0.3,0.5,0.4
			c0.2,0.2,0.3,0.4,0.5,0.5l0.2,0.2l0.1,0.1l0.1,0.2c0.1,0.2,0.2,0.3,0.3,0.5c0.8,1.3,1.5,2.7,1.9,4.2c0.4,1.5,0.7,3.1,0.6,4.7
			c-0.1,1.6-0.7,3.4-1.8,4.7c-1.1,1.3-2.7,2.2-4.2,2.7c-0.4,0.1-0.8,0.2-1.2,0.3c-0.4,0.1-0.7,0.2-1.1,0.2c-0.8,0.1-1.5,0.2-2.2,0.3
			c-1.5,0.2-2.9,0.3-4.4,0.4c-5.8,0.5-11.5,0.7-17.3,0.9c-5.8,0.2-11.5,0.3-17.3,0.3c-5.8,0-11.6-0.1-17.4-0.4
			c-2.9-0.2-5.8-0.4-8.9-1l-1.1-0.3l-1-0.3c-0.7-0.2-1.4-0.3-2.1-0.5c-1.4-0.3-2.8-0.6-4.2-0.9c-5.6-1.2-11.2-2.2-16.9-3.1
			c-5.7-0.9-11.3-1.7-17-2.3c-5.7-0.6-11.4-1.1-17.1-1.3c-2.9-0.2-5.7-0.2-8.5-0.3l-4.3,0c-1.4,0-2.9,0-4.3,0.1
			c-5.7,0.2-11.5,0.4-16.8,1.6c-2.7,0.6-5.2,1.5-7.4,3c-2.2,1.4-4.3,3.3-6.3,5.3l-6.1,6.1l-6.2,6c-4.1,4-8.2,8.1-12.7,11.9
			c-4.4,3.8-9.1,7.3-14.2,10.4c-10.1,6.1-21.4,10.1-33,11.9c-2.9,0.5-5.8,0.8-8.7,1.1c-1.5,0.1-2.9,0.2-4.4,0.3
			c-1.5,0.1-2.9,0.1-4.3,0.1c-0.9,0-1.6,0-2.3-0.1c-0.7,0-1.5-0.1-2.2-0.2c-1.5-0.1-2.9-0.3-4.4-0.5c-2.9-0.4-5.8-0.9-8.7-1.5
			c-11.4-2.5-22.5-6.6-32.7-12.6c-10.1-5.9-19.2-13.8-26.4-23.1c-3.7-4.6-6.8-9.6-9.5-14.8c-2.7-5.2-4.9-10.7-6.8-16.2
			c-3.7-11.1-5.6-22.8-6.3-34.4l0-0.2l0-0.2c0.9-9.1,2.6-18.1,5.2-26.9c2.6-8.8,6.2-17.3,11-25.2c4.7-7.9,10.7-15.1,17.5-21.3
			c6.9-6.1,14.7-11.2,23.1-15c8.4-3.8,17.2-6.5,26.3-8.1c4.5-0.8,9.1-1.4,13.6-1.7c2.3-0.2,4.6-0.3,6.9-0.3l1.7,0l1.7,0
			c1.2,0,2.3,0.1,3.5,0.2c9.2,0.6,18.3,3,26.7,6.6c8.5,3.6,16.4,8.3,23.7,13.8c7.3,5.5,14.1,11.7,20.3,18.4c1.5,1.7,3.1,3.4,4.5,5.1
			c0.7,0.9,1.5,1.8,2.2,2.6l1.1,1.3c0.3,0.4,0.7,0.8,1,1.2c2.9,3.1,6.8,5.3,10.8,6.9c4.1,1.5,8.5,2.4,12.9,2.9
			c4.4,0.5,8.9,0.5,13.3,0.3c4.4-0.3,8.9-0.9,13.1-2c1.1-0.3,2.1-0.6,3-1.1c0.2-0.1,0.5-0.2,0.7-0.3c0.3-0.1,0.3-0.2,0.6-0.4
			l0.7-0.5c0.3-0.2,0.5-0.3,0.8-0.5c2.2-1.1,4.6-1.6,6.9-1.9c4.6-0.7,9.2-0.7,13.7-0.7c2.3,0,4.5,0,6.7-0.2c1.1-0.1,2.2-0.2,3.4-0.3
			l3.4-0.2c9.1-0.5,18.1-0.6,27.2-0.7c9.1-0.1,18.1-0.1,27.2,0.2c2.3,0.1,4.5,0.2,6.8,0.4c1.1,0.1,2.3,0.2,3.4,0.3
			c1.2,0.1,2.2,0.4,3.4,0.6c2.2,0.4,4.5,0.6,6.7,1.1c1.1,0.2,2.2,0.5,3.3,1c1.1,0.5,2.1,1.2,2.7,2.3l0,0c0.3,0.4,0.5,0.9,0.7,1.4
			c0.2,0.5,0.3,1,0.3,1.5c0,1-0.2,2-0.7,2.9c-0.4,0.9-1,1.7-1.6,2.5c-0.6,0.7-1.3,1.5-2,2.1c-0.3,0.3-0.7,0.7-1.1,1
			c-0.4,0.3-0.7,0.6-1.1,0.9c-0.8,0.6-1.5,1.2-2.3,1.7c-0.4,0.3-0.8,0.5-1.2,0.7c-0.4,0.2-0.9,0.4-1.3,0.6c-0.4,0.2-0.9,0.3-1.4,0.4
			C391.5,48.4,391,48.4,390.6,48.3z"/>
		<path class="st3" d="M144.3,162.6c0,0-0.5,0-1.5,0c-1,0-2.5,0-4.5-0.2c-3.9-0.2-9.7-0.9-16.7-2.8c-3.6-0.9-7.4-2.3-11.4-4
			c-4.1-1.7-8.3-4-12.6-6.7c-8.6-5.5-17.3-13.4-24.5-23.8c-3.6-5.2-6.7-11-9.2-17.4c-2.5-6.4-4.2-13.3-5.1-20.5
			c-0.3-1.8-0.4-3.6-0.5-5.5c0-0.9-0.1-1.8-0.1-2.8L58,77.4l0-1.4c0-0.9,0-1.8,0-2.8c0-0.9,0.1-1.9,0.2-2.8c0.1-1.9,0.3-3.8,0.6-5.7
			c0.6-3.8,1.3-7.6,2.3-11.4c0.5-1.9,1.1-3.8,1.7-5.6c0.3-0.9,0.7-1.9,1-2.8l0.5-1.4l0.6-1.4c3.1-7.3,7.4-14.3,12.6-20.7
			c2.6-3.2,5.5-6.2,8.6-9c3.1-2.8,6.4-5.4,9.9-7.8c13.9-9.5,31-14.7,48.2-14.7c17.1,0,34.3,5.2,48.2,14.7c3.5,2.4,6.8,4.9,9.9,7.8
			c3.1,2.8,6,5.8,8.6,9c5.2,6.4,9.5,13.4,12.6,20.7l0.6,1.4l0.5,1.4c0.4,0.9,0.7,1.8,1,2.8c0.6,1.9,1.3,3.7,1.7,5.6
			c1.1,3.8,1.8,7.6,2.3,11.4c0.2,1.9,0.5,3.8,0.6,5.7c0.1,0.9,0.1,1.9,0.2,2.8c0,0.9,0,1.9,0,2.8c0,0.5,0,0.9,0,1.4l-0.1,1.4
			c0,0.9-0.1,1.8-0.1,2.7c-0.2,1.8-0.3,3.7-0.5,5.5c-0.9,7.2-2.6,14.1-5.1,20.5c-2.5,6.4-5.6,12.2-9.2,17.4
			c-7.2,10.4-15.9,18.3-24.5,23.8c-4.3,2.8-8.5,5-12.6,6.7c-4.1,1.7-7.9,3.1-11.4,4c-7.1,2-12.8,2.6-16.7,2.8
			c-2,0.2-3.5,0.1-4.5,0.2C144.8,162.5,144.3,162.6,144.3,162.6z M144.3,162.6c0,0,0.5,0,1.5,0c1,0,2.5,0,4.5-0.2
			c3.9-0.3,9.7-0.9,16.7-2.9c7-2,15.4-5.3,23.9-10.9c8.5-5.6,17.1-13.6,23.9-24.1c3.4-5.2,6.4-11.1,8.7-17.4
			c2.3-6.3,3.9-13.1,4.6-20.2c0.2-1.8,0.3-3.5,0.4-5.3c0-0.9,0-1.8,0-2.7l0-1.4l0-1.3c0-0.9-0.1-1.8-0.1-2.7c0-0.9-0.2-1.8-0.2-2.8
			c-0.1-1.8-0.4-3.7-0.7-5.5c-0.6-3.7-1.4-7.4-2.5-11c-0.5-1.8-1.2-3.6-1.8-5.4c-0.3-0.9-0.7-1.8-1.1-2.7l-0.5-1.3l-0.6-1.3
			c-6.4-14-17-26.7-30.5-35.5c-6.8-4.4-14.2-7.9-22-10.2c-3.9-1.2-7.9-2-11.9-2.6c-2-0.3-4.1-0.5-6.1-0.6c-2-0.2-4.2-0.2-6.2-0.2
			c-4.1,0-8.2,0.3-12.2,0.9c-4,0.6-8,1.5-11.9,2.6c-7.8,2.4-15.2,5.8-22,10.2C84.7,16.6,74,29.2,67.6,43.3L67,44.6l-0.5,1.3
			c-0.4,0.9-0.7,1.8-1.1,2.7c-0.6,1.8-1.3,3.6-1.8,5.4c-1.1,3.6-1.9,7.3-2.5,11c-0.2,1.8-0.5,3.7-0.7,5.5c-0.1,0.9-0.2,1.8-0.2,2.7
			c0,0.9-0.1,1.9-0.1,2.8l0,1.4l0,1.4c0,0.9,0,1.8,0,2.7c0.1,1.8,0.2,3.6,0.4,5.4c0.8,7.1,2.3,13.9,4.6,20.2
			c2.3,6.3,5.3,12.1,8.7,17.4c6.8,10.5,15.5,18.4,23.9,24.1c8.5,5.7,16.9,9,23.9,10.9c7.1,2,12.8,2.6,16.7,2.9
			c2,0.2,3.5,0.2,4.5,0.2C143.8,162.5,144.3,162.6,144.3,162.6z"/>
	</g>
</g>
<g>
	<path class="st4" d="M235.6,115.8c0,0,9-87.9,31.5-115.8c18,9.7,13.9,0,28.3,0c-29.9,53.6-45,98.6-29.9,130.8
		S235.6,115.8,235.6,115.8z"/>
	<path class="st5" d="M480.6,341c25.5-63.7,79.3-197.5-44.9-290.2c-94.3-34.9-155.6,28.4-196,32.9c0,0-99.7-55.4-200.9-6
		s13.9,347.1,135.1,353.1C173.9,430.7,445.7,428.1,480.6,341z"/>
	<path class="st6" d="M368.4,67.7c0,0,89.8-11,109.7,86.8C439.9,87.8,389.4,67.7,368.4,67.7z"/>
</g>
</svg>
