<?xml version="1.0" encoding="utf-8"?>
<!-- Generator: Adobe Illustrator 20.1.0, SVG Export Plug-In . SVG Version: 6.00 Build 0)  -->
<svg version="1.1" id="Calque_1" xmlns="http://www.w3.org/2000/svg" xmlns:xlink="http://www.w3.org/1999/xlink" x="0px" y="0px"
	 viewBox="0 0 218 249.7" style="enable-background:new 0 0 218 249.7;" xml:space="preserve">
<style type="text/css">
	.st0{fill:#9B1327;}
	.st1{fill:#BCBCBC;}
	.st2{fill:#F90000;}
	.st3{fill:#F4BA5B;}
	.st4{fill:#7C7C7C;}
	.st5{fill:#7F4D05;}
	.st6{opacity:0.52;fill:#89520A;}
	.st7{fill:#89E0F4;}
	.st8{fill:#707070;}
	.st9{opacity:0.73;fill:#C10520;}
	.st10{opacity:0.1;fill:#494848;}
</style>
<g>
	<rect x="158.7" y="26.7" class="st0" width="26" height="84.7"/>
	<polygon class="st1" points="10.3,249.7 209.3,249.7 209.3,115.7 110.6,17 10.3,114.7 	"/>
	<polygon class="st2" points="10,114.7 0,104.7 109.5,0 218,106 209,115.7 110.2,16.9 	"/>
	<rect x="80.7" y="162.3" class="st3" width="55.3" height="86.3"/>
	<polygon class="st4" points="10,114.7 110.2,16.9 209,115.7 209,130 109.5,31.2 10,130 	"/>
	<circle class="st5" cx="127.2" cy="213.9" r="4.2"/>
	<rect x="80.7" y="162.3" class="st6" width="55.3" height="3.1"/>
	<circle class="st7" cx="109" cy="97.7" r="18"/>
	<path class="st8" d="M91,98.7c-0.6-24.1,36-26.6,36,0C125,80.5,98.6,72.9,91,98.7z"/>
	<polygon class="st9" points="109.5,0 109,18.5 209,115.4 218,106 	"/>
	<polygon class="st10" points="109,18.5 159.1,249.7 209.3,249.7 209,115.4 	"/>
</g>
</svg>
