<?xml version="1.0" encoding="utf-8"?>
<!-- Generator: Adobe Illustrator 20.1.0, SVG Export Plug-In . SVG Version: 6.00 Build 0)  -->
<svg version="1.1" id="Calque_1" xmlns="http://www.w3.org/2000/svg" xmlns:xlink="http://www.w3.org/1999/xlink" x="0px" y="0px"
	 viewBox="0 0 430 534" style="enable-background:new 0 0 430 534;" xml:space="preserve">
<style type="text/css">
	.st0{fill:#16327D;}
	.st1{fill:#405BA4;}
</style>
<g>
	<g>
		<polygon class="st0" points="116,534 292,534 292,372 430,372 216,0 		"/>
		<polygon class="st1" points="314,534 138,534 138,372 0,372 214,0 		"/>
	</g>
	<g>
		<polygon class="st0" points="365.2,169 392.1,169 392.1,144.2 413.2,144.2 380.5,87.4 		"/>
		<polygon class="st1" points="395.5,169 368.6,169 368.6,144.2 347.5,144.2 380.2,87.4 		"/>
	</g>
	<g>
		<polygon class="st0" points="116,87.4 131.1,87.4 131.1,73.5 143,73.5 124.6,41.5 		"/>
		<polygon class="st1" points="133,87.4 117.9,87.4 117.9,73.5 106,73.5 124.4,41.5 		"/>
	</g>
	<g>
		<polygon class="st0" points="55.7,440.4 89.4,440.4 89.4,409.4 115.8,409.4 74.9,338.2 		"/>
		<polygon class="st1" points="93.6,440.4 60,440.4 60,409.4 33.5,409.4 74.5,338.2 		"/>
	</g>
	<g>
		<polygon class="st0" points="382.6,343.1 405.5,343.1 405.5,322 423.5,322 395.6,273.5 		"/>
		<polygon class="st1" points="408.4,343.1 385.4,343.1 385.4,322 367.4,322 395.3,273.5 		"/>
	</g>
</g>
</svg>
