<?xml version="1.0" encoding="utf-8"?>
<!-- Generator: Adobe Illustrator 20.1.0, SVG Export Plug-In . SVG Version: 6.00 Build 0)  -->
<svg version="1.1" id="Calque_1" xmlns="http://www.w3.org/2000/svg" xmlns:xlink="http://www.w3.org/1999/xlink" x="0px" y="0px"
	 viewBox="0 0 314.3 325.5" style="enable-background:new 0 0 314.3 325.5;" xml:space="preserve">
<style type="text/css">
	.st0{fill:#939393;}
	.st1{fill:#686868;}
</style>
<path class="st0" d="M98.4,128.8c-9.5,4.9-24.4,3-32.4-7.5c0,0-62.8-68-65.5-69.9c-1.2-1.3,2.7-9.7,8.6-5.8
	c5.5,5.5,57.3,59.1,57.3,59.1s1.9,3.1,4.2,1c2.3-2.1,3.9-3.7,3.9-3.7s2.8-1.3,0.1-3.5C71.9,96.3,23,44.4,18,39.4
	c-1.2-4.4,3.1-8.2,7.8-6.2c5.5,5.2,55,57.1,55,57.1s2.2,3,3.9,1.4c1.7-1.6,4.9-4.5,4.9-4.5s3.1-1.2,0-4.8
	c-3.1-3.5-55.2-56.1-56.9-58c-0.5-1.4,0-10.5,8.2-6.1c8.9,6.6,56.2,57,56.2,57s1.6,2.6,3.5,0.8s4.8-4.2,4.8-4.2s2.9-1.5,0-3.9
	S45.8,7.6,45.8,7.6s0.1-10.5,7.7-6.9c6.5,6.4,74,74.6,74,74.6s10.9,13.5,0,27.8c0.4,1.6,0.5,2.9,0.5,2.9s176.1,183.8,182.8,191.8
	c9.7,5.7-16.3,39.3-31.7,22.3C258.5,300.1,98.4,128.8,98.4,128.8z"/>
<path class="st0" d="M126.2,165.1l28.4,29.5l-10.9,0.8c0,0-95.4,101.7-109.4,115.6c-14,13.9-44-11.3-31.2-25.2
	C23,266,126.2,165.1,126.2,165.1z"/>
<path class="st0" d="M158.8,131.6l30.2,32l96-80.8l17.8-21.3c0,0,16.2-30.2,10.1-49.5c-4.6-11-22.1-7.7-26.6,2
	C275.5,23.4,158.8,131.6,158.8,131.6z"/>
<path class="st1" d="M179.9,154l9.1,9.6l97.1-82.1l16.7-19.9c0,0,21.7-43.7,5.3-54.8C273.7,55.7,179.9,154,179.9,154z"/>
<path class="st1" d="M190.4,171.2V227c0,0,77.7,81.2,88.7,93.2c10.3,16.7,39-10,31.7-22.3C286.1,272.8,190.4,171.2,190.4,171.2z"/>
</svg>
