<?xml version="1.0" encoding="utf-8"?>
<!-- Generator: Adobe Illustrator 20.1.0, SVG Export Plug-In . SVG Version: 6.00 Build 0)  -->
<svg version="1.1" id="Calque_1" xmlns="http://www.w3.org/2000/svg" xmlns:xlink="http://www.w3.org/1999/xlink" x="0px" y="0px"
	 viewBox="0 0 347.7 303.2" style="enable-background:new 0 0 347.7 303.2;" xml:space="preserve">
<style type="text/css">
	.st0{fill:#FFDD36;stroke:#AD8E0B;stroke-miterlimit:10;}
	.st1{fill:#EFC825;}
	.st2{fill:#9B831C;}
	.st3{fill:#A17E13;}
	.st4{fill:#EF8118;}
	.st5{fill:#C61B1B;}
	.st6{fill:#ECB80C;}
	.st7{clip-path:url(#SVGID_2_);fill:#D2A015;}
	.st8{fill:#FFFAF0;}
	.st9{fill:#151615;}
	.st10{fill:#CB6C14;}
	.st11{fill:#D97410;}
	.st12{fill:#BB6317;}
	.st13{fill:#F6C22E;}
	.st14{fill:#CE2928;}
	.st15{fill:#FFDD36;stroke:#AD8E0B;stroke-width:2;stroke-miterlimit:10;}
	.st16{fill:#FFFFFF;}
	.st17{clip-path:url(#SVGID_4_);fill:#D2A015;}
</style>
<g>
	<circle class="st0" cx="210.4" cy="161.7" r="137.4"/>
	<circle class="st1" cx="210.4" cy="161.7" r="121.9"/>
	<g>
		<path class="st2" d="M332.3,163.3c0,0,0,0.7,0,2.2c-0.1,1.4,0,3.6-0.3,6.3c-0.3,5.5-1.2,13.6-4,23.6c-0.4,1.2-0.7,2.5-1.1,3.8
			c-0.4,1.3-0.9,2.6-1.3,4c-0.4,1.4-1,2.7-1.5,4.1c-0.6,1.4-1.1,2.8-1.7,4.2c-2.5,5.7-5.6,11.7-9.5,17.8
			c-7.8,12.1-18.9,24.4-33.6,34.5c-7.4,5-15.6,9.5-24.6,13c-9,3.5-18.7,6-28.9,7.3c-1.3,0.2-2.6,0.3-3.8,0.4
			c-1.3,0.1-2.6,0.2-3.9,0.3c-1.3,0-2.6,0.1-3.9,0.1l-2,0.1c-0.7,0-1.3,0-2,0c-1.3,0-2.6,0-3.9-0.1c-1.3,0-2.7-0.2-4-0.2
			c-2.7-0.1-5.3-0.5-8-0.8c-5.3-0.8-10.7-1.8-16.1-3.3c-2.7-0.7-5.3-1.6-8-2.5c-1.3-0.5-2.6-1-3.9-1.5l-2-0.8l-1.9-0.8
			c-10.4-4.4-20.3-10.4-29.3-17.8l-3.3-2.8c-1.1-1-2.1-2-3.2-3L125,250l-1.5-1.6c-1-1.1-2.1-2.1-3-3.2c-4-4.3-7.6-9.1-11-13.9
			c-3.3-4.9-6.3-10.1-8.9-15.5c-2.6-5.4-4.7-11.1-6.5-16.8c-1.8-5.8-3-11.7-4-17.6l-0.6-4.5c-0.2-1.5-0.3-3-0.4-4.5
			c-0.1-1.5-0.3-3-0.3-4.5l-0.1-4.6c0.1-3,0.1-5.8,0.4-8.9c0.1-1.5,0.2-3.1,0.4-4.6l0.6-4.5c1-6,2.2-11.9,4-17.6
			c1.8-5.7,3.9-11.4,6.5-16.8c2.6-5.4,5.6-10.6,8.9-15.5c3.4-4.9,7-9.6,11-14c4-4.3,8.2-8.4,12.7-12.1c9-7.4,18.9-13.4,29.3-17.8
			l1.9-0.8l2-0.8c1.3-0.5,2.6-1,3.9-1.5c2.7-0.8,5.3-1.8,8-2.5c5.3-1.5,10.7-2.5,16.1-3.3c2.7-0.3,5.3-0.7,8-0.8
			c1.3-0.1,2.7-0.2,4-0.2c1.3,0,2.6,0,4-0.1c0.7,0,1.3,0,2,0l1.9,0.1c1.3,0,2.6,0.1,3.9,0.1c1.3,0.1,2.6,0.2,3.9,0.3
			c1.3,0.1,2.6,0.2,3.9,0.4c10.2,1.3,19.9,3.8,28.9,7.3c9,3.5,17.2,8,24.6,13c14.7,10.1,25.8,22.4,33.6,34.6
			c3.9,6.1,7.1,12.1,9.5,17.8c0.7,1.4,1.2,2.8,1.7,4.2c0.5,1.4,1.1,2.7,1.5,4.1c0.5,1.4,0.9,2.7,1.3,4c0.4,1.3,0.7,2.6,1.1,3.8
			c2.8,10,3.6,18.1,4,23.6c0.3,2.8,0.2,4.9,0.3,6.3C332.3,162.5,332.3,163.3,332.3,163.3z M332.3,163.3c0,0,0-0.7-0.1-2.2
			c-0.1-1.4,0-3.6-0.3-6.3c-0.4-5.5-1.3-13.6-4.1-23.6c-2.8-9.9-7.4-21.8-15.4-33.7c-8-11.9-19.2-24.1-34-33.7
			c-7.4-4.8-15.6-9-24.5-12.2c-8.9-3.3-18.5-5.4-28.5-6.5c-1.2-0.2-2.5-0.2-3.7-0.3c-1.3-0.1-2.5-0.2-3.8-0.2c-1.3,0-2.6,0-3.9-0.1
			l-1.9,0l-1.9,0.1c-1.3,0-2.6,0.1-3.9,0.1c-1.3,0.1-2.6,0.2-3.9,0.3c-2.6,0.2-5.2,0.6-7.8,0.9c-5.2,0.9-10.4,2-15.5,3.6
			c-2.6,0.7-5.1,1.7-7.6,2.6c-1.3,0.5-2.5,1-3.8,1.5l-1.9,0.8l-1.8,0.9c-9.9,4.5-19.3,10.5-27.8,17.8c-4.3,3.6-8.2,7.6-12,11.8
			c-3.7,4.2-7.1,8.8-10.3,13.5c-6.2,9.5-11.1,20-14.4,31c-1.7,5.5-2.8,11.1-3.7,16.8c-0.8,5.7-1.2,11.3-1.2,17.3l0.1,4.2
			c0,1.4,0.1,2.9,0.2,4.3c0.1,1.4,0.2,2.9,0.4,4.3l0.5,4.3c0.9,5.7,2,11.3,3.7,16.8c3.3,11,8.2,21.4,14.4,31
			c12.5,19,30.3,34,50,43.1l1.8,0.9l1.9,0.8c1.3,0.5,2.5,1,3.8,1.5c2.6,0.9,5.1,1.9,7.6,2.6c5.1,1.6,10.3,2.7,15.5,3.6
			c2.6,0.3,5.2,0.8,7.8,0.9c1.3,0.1,2.6,0.3,3.9,0.3c1.3,0,2.6,0.1,3.9,0.1c0.6,0,1.3,0.1,1.9,0.1l1.9,0c1.3,0,2.6,0,3.8-0.1
			c1.3-0.1,2.5-0.2,3.8-0.2c1.3-0.1,2.5-0.1,3.8-0.3c10-1.1,19.6-3.2,28.5-6.5c8.9-3.3,17.1-7.4,24.5-12.2c14.8-9.6,26-21.8,34-33.7
			c8-11.9,12.7-23.8,15.4-33.7c2.8-10,3.7-18.1,4.1-23.6c0.3-2.8,0.2-4.9,0.3-6.3C332.3,164,332.3,163.3,332.3,163.3z"/>
	</g>
	<g>
		<g>
			<path class="st3" d="M163.3,191.4c6.2,1.7,9.3,18.9,9.3,18.9s-3.3,8.4-13.2,9.1s-16.7-5.6-19.2-8.9c-4.5-5.9-6.2-16.1-3.7-26.6
				c1-4.4,0.8-5.9,4.4-3C144.6,183.8,156.4,189.5,163.3,191.4z"/>
		</g>
		<g>
			<path class="st3" d="M257.5,191.4c-6.2,1.7-9.3,18.9-9.3,18.9s3.3,8.4,13.2,9.1s16.7-5.6,19.2-8.9c4.5-5.9,6.2-16.1,3.7-26.6
				c-1-4.4-0.8-5.9-4.4-3C276.2,183.8,264.4,189.5,257.5,191.4z"/>
		</g>
		<g>
			<path class="st4" d="M176.8,233.5c-2.3,1.9-4.1,4.5-4.5,6.1c-0.4,1.6,0.5,3.1,2.2,3.8c1.7,0.7,4.1,1.7,5.7-1.6
				c1.6-3.3,2.7-6.1,2.7-6.1L176.8,233.5z"/>
			<path class="st4" d="M184.1,236.5c-3.2,1.6-5.5,6.5-5.5,7.4c0,1.9,3,2.8,4.8,2.2c1.1-0.4,2-2,2.6-3.9c0.6-1.9,0.6-4.2,0.6-4.2
				L184.1,236.5z"/>
			<path class="st4" d="M191.3,240.1c-0.3,2.2,0.3,5.9-1.4,6.9c-0.9,0.5-2.9,0.9-4.6,0.2c-1.6-0.6-2.2-1.6-1.8-4.5
				c0.4-2.9,3.7-7.6,3.7-7.6l3.7,2.7L191.3,240.1z"/>
		</g>
		<g>
			<path class="st4" d="M243.9,233.5c2.3,1.9,4.1,4.5,4.5,6.1c0.4,1.6-0.5,3.1-2.2,3.8c-1.7,0.7-4.1,1.7-5.7-1.6
				c-1.6-3.3-2.7-6.1-2.7-6.1L243.9,233.5z"/>
			<path class="st4" d="M236.7,236.5c3.2,1.6,5.5,6.5,5.5,7.4c0,1.9-3,2.8-4.8,2.2c-1.1-0.4-2-2-2.6-3.9s-0.6-4.2-0.6-4.2
				L236.7,236.5z"/>
			<path class="st4" d="M229.5,240.1c0.3,2.2-0.3,5.9,1.4,6.9c0.9,0.5,2.9,0.9,4.6,0.2c1.6-0.6,2.2-1.6,1.8-4.5
				c-0.4-2.9-3.7-7.6-3.7-7.6l-3.7,2.7L229.5,240.1z"/>
		</g>
		<path class="st5" d="M185.4,128.1c-9.3-12-13.1-18.8-10.6-32.3c2.5-13.5,13-5.8,14.6,1.8c1.7,8.3,4.2,30.5,4.2,30.5H185.4z"/>
		<path class="st5" d="M196.5,80.5c-4,5.3-6.5,13.9-7.5,26c-1,12.1-0.9,18,0.2,20.7c1.1,2.7,7.2-1.4,7.2-1.4s6.6-13.9,8.7-20.3
			s3.9-16.6,3.9-19.6c0-3-1.1-5.7-4.3-7.7C202.9,77.1,199.3,76.8,196.5,80.5z"/>
		<path class="st5" d="M219.6,77.5c-7.2,3-11.5,6.8-15.3,16.1S195,117.2,195,124s9.3-1.1,9.3-1.1s4.9-12.3,7.3-14.8
			c2.4-2.5,9.9-9.1,14-11.6c4.1-2.5,11.1-8.4,11.9-12.3c0.9-3.8-1.6-7-6.1-7.9C226.5,75.1,223.5,75.9,219.6,77.5z"/>
		<path class="st5" d="M218.3,121.6c5-4.3,9.8-8,18.6-9c3.7-0.5,14.8-3,17.1-6.1c2.4-3.4,0.9-10.1-5.6-13.1
			c-9.4-4.4-28.7,6.9-31.9,9.8c-3.3,2.9-10,5.3-12.7,19.8S218.3,121.6,218.3,121.6z"/>
		<path class="st5" d="M213.6,123.1c2.4-1.7,14.9-8.8,20.8-9.4c6.6-0.6,8.7,0.1,10.7,1.2c3.7,1.9,4.5,6.2,2.1,8.2s-7.5,1.5-10.7,1.8
			s-11.3,2.6-11.3,2.6L213.6,123.1z"/>
		<circle class="st6" cx="210.4" cy="182.7" r="63.1"/>
		<g>
			<defs>
				<circle id="SVGID_1_" cx="210.4" cy="182.7" r="63.1"/>
			</defs>
			<clipPath id="SVGID_2_">
				<use xlink:href="#SVGID_1_"  style="overflow:visible;"/>
			</clipPath>
			<ellipse class="st7" cx="210.4" cy="243" rx="46.6" ry="38.3"/>
		</g>
		<g>
			<circle class="st8" cx="234.9" cy="164" r="16.5"/>
			<circle class="st9" cx="232.8" cy="163.5" r="11"/>
			
				<ellipse transform="matrix(0.6662 -0.7458 0.7458 0.6662 -39.0547 229.6173)" class="st8" cx="237" cy="158.4" rx="1.6" ry="3.2"/>
		</g>
		<g>
			<circle class="st8" cx="187.2" cy="164" r="16.5"/>
			<circle class="st9" cx="189.3" cy="163.5" r="11"/>
			
				<ellipse transform="matrix(0.6662 -0.7458 0.7458 0.6662 -53.5637 197.2022)" class="st8" cx="193.5" cy="158.4" rx="1.6" ry="3.2"/>
		</g>
		<path class="st10" d="M210.4,188.6c0,0-9.5,0.1-12.1,0.3c-0.2,0-4,0-3.9,0.1c1.9,1.4,8,7.6,15.9,7.5c8,0.1,14-6.1,15.9-7.5
			c0.1-0.1-2.9-0.4-3-0.4C220.7,188.4,210.4,188.6,210.4,188.6z"/>
		<ellipse class="st8" cx="210.4" cy="190.2" rx="8.7" ry="4.3"/>
		<path class="st11" d="M210.2,180.8c-3.6,5.3-15.4,6.2-18,6.4c-0.2,0-0.2,0.2-0.1,0.3c1.9,1.4,10.2,7.1,18.2,7
			c8,0.1,16.3-5.6,18.2-7c0.1-0.1,0.1-0.3-0.1-0.3c-2.5-0.1-14.4-1.1-18-6.4C210.4,180.7,210.3,180.7,210.2,180.8z"/>
		
			<ellipse transform="matrix(0.7071 -0.7071 0.7071 0.7071 -68.2334 203.8958)" class="st12" cx="212" cy="184.3" rx="0.3" ry="0.6"/>
		
			<ellipse transform="matrix(0.7071 -0.7071 0.7071 0.7071 -69.2048 201.5505)" class="st12" cx="208.7" cy="184.3" rx="0.6" ry="0.3"/>
		<ellipse transform="matrix(0.5 -0.866 0.866 0.5 1.0868 273.0045)" class="st13" cx="237" cy="135.6" rx="5.1" ry="10.2"/>
		<path class="st14" d="M243,114.9c-0.4-0.1,0.3,0.7,1.3,1.4c0.6,0.4,1.2,1.2,1.3,1.6c0.3,0.7,0.4,1.4,0.5,1.9
			c0.1,0.4,0.7,1.5,1.1,0c0.4-1.5-0.4-2.5-1.1-3.2C245.4,116,243.7,115.1,243,114.9z"/>
		<path class="st14" d="M237,94.2c3.4-0.8,6.8-0.9,9.3-0.2c2.8,0.7,6.4,2.9,6.4,5.5c0,1.6-2.2,1.1-2.5,0c-0.7-2-2.8-3.5-5.6-4
			c-1.5-0.3-3.1-0.7-5.9-0.6C236.1,94.9,236,94.5,237,94.2z"/>
		<path class="st14" d="M218.5,79.3c2.1-1.2,4.4-2.1,7-2.3c2.1-0.2,3.8-0.1,5.5,0.3c1.3,0.3,3.3,1.1,3.7,1.9
			c0.4,0.8-0.9,1.6-2.3,0.8c-1-0.6-2.7-1.9-4.8-1.9c-1.8,0-2.7-0.1-4.7,0.2c-0.6,0.1-2.9,0.8-3.7,1.2
			C217.3,80.4,217.7,79.7,218.5,79.3z"/>
		<path class="st14" d="M205.8,80.3c1.2,1.2,0.3,2.4-0.7,1.6c-1-0.8-1.8-2-3.5-2.1c-1.4-0.1-2.1,0.4-2.6,0.8
			c-0.5,0.4-0.9,0.3-0.5-0.3s1.4-1.6,2.9-1.8C203,78.3,204.8,79.2,205.8,80.3z"/>
		<path class="st14" d="M181.8,89.5c1.1,0.2,2.1,1,3.4,2.7c1.2,1.4,1.8,2.6,2,3.8c0.1,0.8-1.4,1.6-1.9,0.4c-0.5-1.2-0.8-3.2-1.3-4.3
			c-0.7-1.4-1.4-1.6-2.6-2.1C180.1,89.4,181.1,89.3,181.8,89.5z"/>
	</g>
</g>
<circle class="st15" cx="151" cy="151" r="151"/>
<circle class="st1" cx="151" cy="151" r="134"/>
<g>
	<path class="st2" d="M285,152.8c0,0,0,0.8-0.1,2.4c-0.1,1.6,0,3.9-0.3,6.9c-0.4,6.1-1.3,15-4.4,26c-0.4,1.4-0.8,2.8-1.2,4.2
		c-0.5,1.4-1,2.9-1.5,4.4c-0.5,1.5-1.1,3-1.7,4.5c-0.6,1.5-1.2,3.1-1.9,4.7c-2.7,6.3-6.1,12.9-10.5,19.5
		c-8.6,13.3-20.8,26.8-37,37.9c-8.1,5.5-17.1,10.4-27,14.2c-9.8,3.9-20.6,6.5-31.7,8c-1.4,0.2-2.8,0.3-4.2,0.4
		c-1.4,0.1-2.8,0.2-4.3,0.4c-1.4,0.1-2.9,0.1-4.3,0.2l-2.2,0.1c-0.8,0-1.5,0-2.2,0c-1.4,0-2.9,0-4.3-0.1c-1.4,0-2.9-0.2-4.4-0.3
		c-3-0.1-5.9-0.5-8.8-0.9c-5.9-0.9-11.8-1.9-17.6-3.6c-2.9-0.7-5.8-1.8-8.7-2.7c-1.4-0.5-2.9-1.1-4.3-1.6l-2.2-0.8l-2.1-0.9
		c-11.4-4.9-22.2-11.5-32.1-19.6c-1.2-1-2.4-2.1-3.7-3.1c-1.2-1.1-2.3-2.2-3.5-3.3l-1.7-1.7l-1.7-1.7c-1.1-1.2-2.3-2.3-3.3-3.5
		c-4.4-4.8-8.3-9.9-12-15.3c-14.7-21.6-22.8-48.1-22.8-74.7c0-26.6,8.1-53.1,22.8-74.7c3.7-5.4,7.6-10.5,12-15.3
		c1.1-1.2,2.2-2.3,3.3-3.5l1.7-1.7l1.7-1.7c1.2-1.1,2.3-2.2,3.5-3.3c1.2-1,2.4-2.1,3.7-3.1c9.9-8.1,20.7-14.7,32.1-19.6l2.1-0.9
		l2.2-0.8c1.4-0.5,2.9-1.1,4.3-1.6c2.9-0.9,5.8-2,8.7-2.7c5.8-1.7,11.8-2.8,17.6-3.6c2.9-0.3,5.9-0.7,8.8-0.9
		c1.5-0.1,2.9-0.2,4.4-0.3c1.5,0,2.9,0,4.4-0.1c0.7,0,1.4,0,2.2,0l2.1,0.1c1.4,0.1,2.8,0.1,4.3,0.2c1.4,0.1,2.9,0.2,4.3,0.4
		c1.4,0.1,2.8,0.2,4.2,0.4c11.2,1.4,21.9,4.1,31.7,8c9.9,3.9,18.9,8.7,27,14.2c16.1,11.1,28.4,24.6,37,37.9
		c4.3,6.7,7.8,13.2,10.5,19.5c0.7,1.5,1.3,3.1,1.9,4.7c0.6,1.5,1.2,3,1.7,4.5c0.5,1.5,1,2.9,1.5,4.4c0.4,1.4,0.8,2.8,1.2,4.2
		c3,11,4,19.9,4.4,26c0.3,3,0.2,5.4,0.3,6.9C285,151.9,285,152.8,285,152.8z M285,152.8c0,0,0-0.8-0.1-2.4c-0.1-1.6,0-3.9-0.3-6.9
		c-0.4-6.1-1.4-15-4.5-25.9c-3-10.9-8.1-23.9-17-37.1c-8.7-13.1-21-26.5-37.3-37.1c-8.1-5.3-17.2-9.9-26.9-13.5
		c-9.8-3.6-20.4-6-31.3-7.2c-1.4-0.2-2.7-0.2-4.1-0.3c-1.4-0.1-2.8-0.2-4.2-0.3c-1.4,0-2.8,0-4.3-0.1l-2.1,0c-0.6,0-1.4,0-2.1,0.1
		c-1.4,0.1-2.8,0.1-4.3,0.2c-1.4,0.1-2.8,0.2-4.3,0.3c-2.9,0.2-5.7,0.7-8.6,1c-5.7,1-11.4,2.1-17.1,3.9c-2.8,0.8-5.6,1.8-8.4,2.8
		c-1.4,0.5-2.8,1.1-4.1,1.7l-2.1,0.8l-2,0.9c-10.9,4.9-21.3,11.6-30.6,19.6c-4.7,4-9.1,8.4-13.2,13c-4.1,4.6-7.9,9.6-11.3,14.8
		c-6.8,10.5-12.2,22-15.9,34.1c-1.8,6.1-3.1,12.3-4.1,18.5l-0.6,4.7c-0.2,1.6-0.3,3.1-0.4,4.7c-0.3,3-0.3,6.5-0.4,9.6
		c0.1,6.3,0.4,12.7,1.4,19c1,6.3,2.3,12.5,4.1,18.5c3.7,12.1,9.1,23.6,15.9,34.1c13.7,21,33.4,37.5,55.2,47.4l2,0.9l2.1,0.8
		c1.4,0.6,2.8,1.1,4.1,1.7c2.8,1,5.6,2,8.4,2.8c5.6,1.8,11.4,2.9,17.1,3.9c2.9,0.4,5.7,0.9,8.5,1c1.4,0.1,2.8,0.3,4.3,0.3
		c1.4,0.1,2.9,0.1,4.3,0.2c0.7,0,1.5,0.1,2.1,0.1l2.1,0c1.4,0,2.8,0,4.2-0.1c1.4-0.1,2.8-0.2,4.2-0.3c1.4-0.1,2.8-0.2,4.1-0.3
		c11-1.2,21.6-3.6,31.3-7.2c9.8-3.6,18.8-8.2,26.9-13.5c16.3-10.6,28.6-24,37.3-37.1c4.4-6.6,7.9-13.1,10.6-19.4
		c0.7-1.5,1.3-3.1,1.9-4.6c0.6-1.5,1.2-3,1.7-4.5c0.5-1.5,1-2.9,1.5-4.3c0.4-1.4,0.8-2.8,1.2-4.2c3.1-10.9,4.1-19.9,4.5-25.9
		c0.3-3,0.2-5.4,0.3-6.9C285,153.6,285,152.8,285,152.8z"/>
</g>
<path class="st16" d="M179,43.6c0,0,24.6-4,23.8-31.8c1.3,26.7,18.6,31.2,24.4,31.8c-8.4,0.1-24.5,9.2-24.4,32.3
	C201,53.5,195.8,48.8,179,43.6z"/>
<path class="st16" d="M218.2,75.7c0,0,17.4-2.8,16.8-22.6c0.9,18.9,13.2,22.1,17.3,22.5c-6,0-17.3,6.6-17.3,22.9
	C233.8,82.7,230.1,79.4,218.2,75.7z"/>
<g>
	<g>
		<path class="st3" d="M99.2,183.7c6.9,1.9,10.3,20.8,10.3,20.8s-3.6,9.3-14.5,10s-18.4-6.2-21.1-9.8c-4.9-6.5-6.8-17.7-4.1-29.3
			c1.1-4.8,0.9-6.4,4.9-3.3C78.7,175.3,91.7,181.6,99.2,183.7z"/>
	</g>
	<g>
		<path class="st3" d="M202.8,183.7c-6.9,1.9-10.3,20.8-10.3,20.8s3.6,9.3,14.5,10s18.4-6.2,21.1-9.8c4.9-6.5,6.8-17.7,4.1-29.3
			c-1.1-4.8-0.9-6.4-4.9-3.3C223.3,175.3,210.3,181.6,202.8,183.7z"/>
	</g>
	<g>
		<path class="st4" d="M114.1,229.9c-2.6,2-4.5,4.9-4.9,6.7c-0.4,1.8,0.5,3.4,2.4,4.2c1.9,0.8,4.5,1.9,6.3-1.8c1.8-3.7,3-6.7,3-6.7
			L114.1,229.9z"/>
		<path class="st4" d="M122.1,233.2c-3.5,1.8-6,7.2-6,8.2c0,2.1,3.3,3.1,5.2,2.4c1.2-0.4,2.2-2.2,2.8-4.2s0.7-4.6,0.7-4.6
			L122.1,233.2z"/>
		<path class="st4" d="M130,237.2c-0.4,2.4,0.3,6.5-1.6,7.6c-1,0.6-3.1,1-5.1,0.2c-1.7-0.7-2.4-1.7-2-5s4.1-8.3,4.1-8.3l4.1,3
			L130,237.2z"/>
	</g>
	<g>
		<path class="st4" d="M187.9,229.9c2.6,2,4.5,4.9,4.9,6.7c0.4,1.8-0.5,3.4-2.4,4.2s-4.5,1.9-6.3-1.8c-1.8-3.7-3-6.7-3-6.7
			L187.9,229.9z"/>
		<path class="st4" d="M179.9,233.2c3.5,1.8,6,7.2,6,8.2c0,2.1-3.3,3.1-5.2,2.4c-1.2-0.4-2.2-2.2-2.8-4.2c-0.7-2-0.7-4.6-0.7-4.6
			L179.9,233.2z"/>
		<path class="st4" d="M172,237.2c0.4,2.4-0.3,6.5,1.6,7.6c1,0.6,3.1,1,5.1,0.2c1.7-0.7,2.4-1.7,2-5c-0.4-3.2-4.1-8.3-4.1-8.3
			l-4.1,3L172,237.2z"/>
	</g>
	<path class="st5" d="M123.5,114.1c-10.2-13.1-14.4-20.6-11.7-35.5c2.7-14.8,14.3-6.4,16,1.9c1.9,9.2,4.6,33.6,4.6,33.6H123.5z"/>
	<path class="st5" d="M135.8,61.7c-4.4,5.8-7.1,15.3-8.2,28.6c-1.1,13.3-0.9,19.8,0.3,22.8s7.9-1.5,7.9-1.5s7.3-15.3,9.5-22.3
		c2.3-7,4.3-18.3,4.3-21.5c0-3.3-1.2-6.3-4.8-8.5C142.8,58,138.8,57.7,135.8,61.7z"/>
	<path class="st5" d="M161.2,58.5c-7.9,3.3-12.7,7.5-16.9,17.7s-10.2,25.8-10.2,33.3s10.2-1.3,10.2-1.3s5.4-13.5,8-16.3
		c2.6-2.8,10.9-10,15.4-12.8c4.5-2.8,12.2-9.2,13.1-13.5c0.9-4.2-1.8-7.7-6.7-8.7C168.7,55.8,165.4,56.8,161.2,58.5z"/>
	<path class="st5" d="M159.7,106.9c5.5-4.8,10.8-8.8,20.5-9.9c4.1-0.5,16.3-3.3,18.7-6.8c2.6-3.7,1-11.1-6.2-14.5
		c-10.4-4.9-31.5,7.5-35.1,10.7s-11,5.9-14,21.8C140.7,124.3,159.7,106.9,159.7,106.9z"/>
	<path class="st5" d="M154.5,108.6c2.6-1.9,16.3-9.7,22.8-10.3c7.3-0.7,9.5,0.1,11.8,1.3c4.1,2.1,5,6.8,2.4,9
		c-2.6,2.3-8.2,1.6-11.8,2c-3.6,0.4-12.4,2.8-12.4,2.8L154.5,108.6z"/>
	<circle class="st6" cx="151" cy="174.1" r="69.3"/>
	<g>
		<defs>
			<circle id="SVGID_3_" cx="151" cy="174.1" r="69.3"/>
		</defs>
		<clipPath id="SVGID_4_">
			<use xlink:href="#SVGID_3_"  style="overflow:visible;"/>
		</clipPath>
		<ellipse class="st17" cx="151" cy="240.4" rx="51.2" ry="42.1"/>
	</g>
	<g>
		<circle class="st8" cx="177.9" cy="153.6" r="18.2"/>
		<circle class="st9" cx="175.6" cy="153" r="12.1"/>
		
			<ellipse transform="matrix(0.6662 -0.7458 0.7458 0.6662 -49.7958 183.6346)" class="st8" cx="180.2" cy="147.4" rx="1.8" ry="3.6"/>
	</g>
	<g>
		<circle class="st8" cx="125.6" cy="153.6" r="18.2"/>
		<circle class="st9" cx="127.8" cy="153" r="12.1"/>
		
			<ellipse transform="matrix(0.6662 -0.7458 0.7458 0.6662 -65.7441 148.0036)" class="st8" cx="132.5" cy="147.4" rx="1.8" ry="3.6"/>
	</g>
	<path class="st10" d="M151,180.6c0,0-10.5,0.1-13.2,0.3c-0.2,0-4.4,0-4.3,0.1c2.1,1.5,8.8,8.3,17.5,8.2c8.8,0.1,15.4-6.7,17.5-8.2
		c0.1-0.1-3.1-0.4-3.3-0.4C162.4,180.4,151,180.6,151,180.6z"/>
	<ellipse class="st8" cx="151" cy="182.3" rx="9.5" ry="4.7"/>
	<path class="st11" d="M150.8,172c-4,5.8-17,6.9-19.8,7c-0.2,0-0.2,0.2-0.1,0.3c2.1,1.5,11.3,7.8,20,7.7c8.8,0.1,18-6.2,20-7.7
		c0.1-0.1,0.1-0.3-0.1-0.3c-2.8-0.2-15.8-1.2-19.8-7C151.1,171.9,150.9,171.9,150.8,172z"/>
	
		<ellipse transform="matrix(0.7071 -0.7071 0.7071 0.7071 -79.6188 159.5578)" class="st12" cx="152.8" cy="175.9" rx="0.3" ry="0.6"/>
	
		<ellipse transform="matrix(0.7071 -0.7071 0.7071 0.7071 -80.6866 156.9799)" class="st12" cx="149.1" cy="175.9" rx="0.6" ry="0.3"/>
	<ellipse transform="matrix(0.5 -0.866 0.866 0.5 -15.7962 217.238)" class="st13" cx="180.2" cy="122.3" rx="5.6" ry="11.2"/>
	<path class="st14" d="M186.9,99.6c-0.5-0.1,0.3,0.8,1.4,1.5c0.6,0.4,1.3,1.3,1.5,1.8c0.3,0.8,0.4,1.6,0.5,2c0.1,0.4,0.8,1.7,1.2,0
		c0.4-1.7-0.5-2.7-1.2-3.5C189.5,100.8,187.7,99.8,186.9,99.6z"/>
	<path class="st14" d="M180.3,76.9c3.8-0.9,7.4-1,10.3-0.2c3.1,0.8,7,3.2,7,6c0,1.7-2.4,1.2-2.8,0c-0.7-2.2-3.1-3.9-6.2-4.4
		c-1.7-0.3-3.4-0.7-6.4-0.7C179.3,77.6,179.1,77.1,180.3,76.9z"/>
	<path class="st14" d="M159.9,60.4c2.3-1.4,4.9-2.3,7.7-2.5c2.3-0.2,4.2-0.1,6.1,0.4c1.4,0.3,3.6,1.3,4.1,2.1c0.5,0.9-1,1.8-2.5,0.9
		c-1-0.6-2.9-2.1-5.3-2.1c-1.9,0-2.9-0.1-5.2,0.2c-0.7,0.1-3.1,0.9-4.1,1.3C158.6,61.7,159,60.9,159.9,60.4z"/>
	<path class="st14" d="M145.9,61.6c1.3,1.4,0.3,2.7-0.8,1.8c-1.1-0.9-2-2.2-3.8-2.3c-1.5-0.1-2.3,0.5-2.9,0.9
		c-0.6,0.4-1,0.3-0.5-0.3s1.6-1.7,3.2-1.9C142.8,59.4,144.8,60.4,145.9,61.6z"/>
	<path class="st14" d="M119.6,71.6c1.2,0.2,2.3,1.2,3.8,2.9c1.3,1.6,2,2.8,2.2,4.2c0.1,0.9-1.5,1.7-2.1,0.5
		c-0.6-1.3-0.8-3.5-1.4-4.7c-0.8-1.5-1.6-1.8-2.8-2.4C117.7,71.5,118.8,71.5,119.6,71.6z"/>
</g>
</svg>
