<?xml version="1.0" encoding="utf-8"?>
<!-- Generator: Adobe Illustrator 20.1.0, SVG Export Plug-In . SVG Version: 6.00 Build 0)  -->
<svg version="1.1" xmlns="http://www.w3.org/2000/svg" xmlns:xlink="http://www.w3.org/1999/xlink" x="0px" y="0px"
	 viewBox="0 0 809.8 622.9" style="enable-background:new 0 0 809.8 622.9;" xml:space="preserve">
<style type="text/css">
	.st0{fill:#952016;}
	.st1{fill:none;stroke:#EFC881;stroke-width:15;stroke-linecap:round;stroke-miterlimit:10;}
	.st2{fill:none;stroke:#C7934F;stroke-width:15;stroke-linecap:round;stroke-miterlimit:10;}
	.st3{fill:none;stroke:#F0C97E;stroke-width:15;stroke-linecap:round;stroke-miterlimit:10;}
	.st4{fill:none;stroke:#EBD3AF;stroke-width:15;stroke-linecap:round;stroke-miterlimit:10;}
	.st5{fill:none;stroke:#C6934E;stroke-width:15;stroke-linecap:round;stroke-miterlimit:10;}
	.st6{fill:#EFC881;}
	.st7{fill:#231813;}
	.st8{fill:#F4D7A6;}
	.st9{fill:#DEB97B;}
</style>
<g id="Calque_5">
</g>
<g id="Calque_3">
	<path class="st0" d="M762.8,0c-38,4.5-506,47-520,49.5s-16,7,9.5,5.5s557.5-33,557.5-33L762.8,0z"/>
	<path class="st0" d="M775.3,48c-22.5,1.5-529.5,20.3-533.5,21c-6.7,1.2-23.5,3.5-3,7.5s566.5-7,566.5-7L775.3,48z"/>
	<path class="st1" d="M242.7,315.3c0-37.3,4.7-225.3,7.3-232.7c2.7-7.3,8.6-20.4,8.6-20.4"/>
	<path class="st1" d="M274.9,315.3c0-37.3,4.7-225.3,7.3-232.7c2.7-7.3,10.5-23,10.5-23"/>
	<path class="st1" d="M328.2,314.3c0-37.3,4.7-225.3,7.3-232.7C338.2,74.3,342,57,342,57"/>
	<path class="st2" d="M314.5,315.3c0-37.3,4.7-225.3,7.3-232.7c2.7-7.3,6.4-24.7,6.4-24.7"/>
	<path class="st3" d="M302.1,315.6c0-37.3,4.7-225.3,7.3-232.7c2.7-7.3,6.4-24.7,6.4-24.7"/>
	<path class="st4" d="M288.3,316.3c0-37.3,4.7-225.3,7.3-232.7c2.7-7.3,6.4-24.7,6.4-24.7"/>
	<path class="st4" d="M253.7,318.6c0-37.3,4.7-225.3,7.3-232.7c2.7-7.3,6.4-24.7,6.4-24.7"/>
	<path class="st5" d="M265.1,318.6c0-37.3,4.7-225.3,7.3-232.7c2.7-7.3,6.4-24.7,6.4-24.7"/>
</g>
<g id="Calque_4">
	<g id="Calque_2">
		<path class="st6" d="M86.8,518.3c20.4,26.9,90.7,65,121.7,76h196.7c75.3-28,118-70,160.7-135.3s43.3-166,43.3-166H1.1
			c0,0-0.7-0.1-0.7,1.3c0,13.3-3.3,24,8,80.7c11.3,56.7,45.3,100,66.7,131.3L86.8,518.3z"/>
		<polygon class="st7" points="208.7,602.3 400.5,603.4 400.5,622.9 208.7,623.4 		"/>
	</g>
</g>
<g id="Calque_6">
	<path class="st8" d="M22.4,321.8h26c13.5,84.8,38.9,182.8,143.9,243.8c-79.9-17.5-129.9-103-148.9-159S22.4,321.8,22.4,321.8z"/>
	<path class="st9" d="M593.3,321.8h-51c-13.5,84.8-29.9,192.2-135,253.2C487.3,557.5,551,464.3,570,408.3S593.3,321.8,593.3,321.8z"
		/>
</g>
</svg>
