<?xml version="1.0" encoding="utf-8"?>
<!-- Generator: Adobe Illustrator 20.1.0, SVG Export Plug-In . SVG Version: 6.00 Build 0)  -->
<svg version="1.1" xmlns="http://www.w3.org/2000/svg" xmlns:xlink="http://www.w3.org/1999/xlink" x="0px" y="0px"
	 viewBox="0 0 259.7 259.7" style="enable-background:new 0 0 259.7 259.7;" xml:space="preserve">
<style type="text/css">
	.st0{display:none;}
	.st1{fill:none;stroke:#DA9229;stroke-width:5;stroke-miterlimit:10;}
	.st2{fill:#FDD59C;}
	.st3{fill:#D24A4F;}
	.st4{fill:#E5696F;}
	.st5{fill:#D7686D;}
	.st6{fill:#E06B6F;}
	.st7{fill:#E06B71;}
	.st8{fill:#D96B6D;}
	.st9{fill:#D86165;}
	.st10{fill:#DB7375;}
	.st11{fill:#65A23B;}
	.st12{fill:#71B239;}
	.st13{fill:#7BAE3A;}
	.st14{fill:#649E32;}
	.st15{fill:#68A234;}
	.st16{fill:#85AE45;}
	.st17{fill:#7AA63E;}
	.st18{fill:#68A233;}
	.st19{fill:#6F9F32;}
	.st20{fill:#79AF3D;}
	.st21{fill:#7AA93E;}
	.st22{fill:#65A432;}
	.st23{fill:#A38950;}
	.st24{fill:none;stroke:#A26F32;stroke-width:3;stroke-miterlimit:10;}
</style>
<g id="Calque_1" class="st0">
</g>
<g id="Calque_2">
	<circle class="st1" cx="129.9" cy="129.3" r="125.4"/>
	<circle class="st2" cx="129.8" cy="129" r="123.2"/>
	<circle class="st3" cx="107.4" cy="61.6" r="25.2"/>
	<circle class="st4" cx="94.2" cy="54.2" r="7"/>
	<circle class="st5" cx="106.2" cy="76.3" r="6.3"/>
	<circle class="st6" cx="109.7" cy="45.5" r="4.7"/>
	<circle class="st7" cx="111.1" cy="60.9" r="6"/>
	<circle class="st8" cx="121.7" cy="52.6" r="5.2"/>
	<circle class="st9" cx="91.3" cy="70.2" r="4.7"/>
	<circle class="st10" cx="123" cy="70.4" r="3.9"/>
	<path class="st11" d="M109,36.5c0,0,6.8-10,17.9-6.1l-8.9,8.4C118,38.7,112.1,36.5,109,36.5z"/>
	<path class="st12" d="M126.9,30.4c0,0,4.8,2.8-0.2,15.1c0,0-5.6-5.5-8.7-6.7L126.9,30.4z"/>
	
		<ellipse transform="matrix(0.1299 -0.9915 0.9915 0.1299 79.5296 229.1142)" class="st3" cx="170.3" cy="69.2" rx="25.2" ry="25.2"/>
	<ellipse transform="matrix(0.1299 -0.9915 0.9915 0.1299 99.2828 227.5269)" class="st4" cx="179.3" cy="57.2" rx="7" ry="7"/>
	<ellipse transform="matrix(0.1299 -0.9915 0.9915 0.1299 69.9804 212.1159)" class="st5" cx="155.8" cy="66.2" rx="6.3" ry="6.3"/>
	<ellipse transform="matrix(0.1299 -0.9915 0.9915 0.1299 88.7864 248.4957)" class="st6" cx="186" cy="73.7" rx="4.7" ry="4.7"/>
	<ellipse transform="matrix(0.1299 -0.9915 0.9915 0.1299 75.9032 232.5856)" class="st7" cx="170.5" cy="73" rx="6" ry="6"/>
	<ellipse transform="matrix(0.1299 -0.9915 0.9915 0.1299 70.3788 249.5284)" class="st8" cx="177.4" cy="84.7" rx="5.2" ry="5.2"/>
	<ellipse transform="matrix(0.1299 -0.9915 0.9915 0.1299 90.8611 207.8697)" class="st9" cx="163.9" cy="52.2" rx="4.7" ry="4.7"/>
	
		<ellipse transform="matrix(0.1299 -0.9915 0.9915 0.1299 55.9004 230.9133)" class="st10" cx="159.5" cy="83.6" rx="3.9" ry="3.9"/>
	<path class="st11" d="M195,74.1c0,0,9,8.1,3.7,18.5l-7.1-10C191.6,82.7,194.6,77.3,195,74.1z"/>
	<path class="st12" d="M198.7,92.7c0,0-3.4,4.3-14.9-2.2c0,0,6.2-4.8,7.8-7.8L198.7,92.7z"/>
	
		<ellipse transform="matrix(0.4375 -0.8992 0.8992 0.4375 -43.6437 186.7095)" class="st3" cx="127.4" cy="128.2" rx="25.2" ry="25.2"/>
	<ellipse transform="matrix(0.4375 -0.8992 0.8992 0.4375 -28.9917 192.9686)" class="st4" cx="139.8" cy="119.7" rx="7" ry="7"/>
	
		<ellipse transform="matrix(0.4375 -0.8992 0.8992 0.4375 -44.0815 171.0401)" class="st5" cx="114.7" cy="120.8" rx="6.3" ry="6.3"/>
	
		<ellipse transform="matrix(0.4375 -0.8992 0.8992 0.4375 -44.3053 203.9658)" class="st6" cx="140.9" cy="137.4" rx="4.7" ry="4.7"/>
	<ellipse transform="matrix(0.4375 -0.8992 0.8992 0.4375 -47.523 187.8237)" class="st7" cx="126.4" cy="131.9" rx="6" ry="6"/>
	
		<ellipse transform="matrix(0.4375 -0.8992 0.8992 0.4375 -57.7922 197.8154)" class="st8" cx="129.2" cy="145.1" rx="5.2" ry="5.2"/>
	<ellipse transform="matrix(0.4375 -0.8992 0.8992 0.4375 -27.6325 175.8285)" class="st9" cx="126.7" cy="110" rx="4.7" ry="4.7"/>
	
		<ellipse transform="matrix(0.4375 -0.8992 0.8992 0.4375 -61.1334 179.1514)" class="st10" cx="112.6" cy="138.4" rx="3.9" ry="3.9"/>
	<path class="st11" d="M149.3,140.7c0,0,6,10.5-2.3,18.8l-3.6-11.7C143.3,147.8,147.9,143.5,149.3,140.7z"/>
	<path class="st12" d="M146.9,159.5c0,0-4.6,3-13.5-6.8c0,0,7.4-2.6,9.9-4.9L146.9,159.5z"/>
	<circle class="st3" cx="147.4" cy="198.6" r="25.2"/>
	<circle class="st4" cx="134.3" cy="191.2" r="7"/>
	<circle class="st5" cx="146.2" cy="213.3" r="6.3"/>
	<circle class="st6" cx="149.7" cy="182.4" r="4.7"/>
	<circle class="st7" cx="151.1" cy="197.9" r="6"/>
	<circle class="st8" cx="161.8" cy="189.6" r="5.2"/>
	<circle class="st9" cx="131.3" cy="207.2" r="4.7"/>
	<circle class="st10" cx="163" cy="207.4" r="3.9"/>
	<path class="st11" d="M149.1,173.4c0,0,6.8-10,17.9-6.1l-8.9,8.4C158,175.7,152.2,173.5,149.1,173.4z"/>
	<path class="st12" d="M167,167.3c0,0,4.8,2.8-0.2,15.1c0,0-5.6-5.5-8.7-6.7L167,167.3z"/>
	<circle class="st3" cx="58.9" cy="106.9" r="25.2"/>
	<circle class="st4" cx="45.8" cy="99.5" r="7"/>
	<circle class="st5" cx="57.7" cy="121.6" r="6.3"/>
	<circle class="st6" cx="61.2" cy="90.8" r="4.7"/>
	<circle class="st7" cx="62.6" cy="106.2" r="6"/>
	<circle class="st8" cx="73.3" cy="97.9" r="5.2"/>
	<circle class="st9" cx="42.8" cy="115.5" r="4.7"/>
	<circle class="st10" cx="74.5" cy="115.7" r="3.9"/>
	<path class="st11" d="M60.5,81.8c0,0,6.8-10,17.9-6.1L69.5,84C69.5,84,63.7,81.8,60.5,81.8z"/>
	<path class="st12" d="M78.4,75.7c0,0,4.8,2.8-0.2,15.1c0,0-5.6-5.5-8.7-6.7L78.4,75.7z"/>
	<ellipse transform="matrix(0.8966 -0.4428 0.4428 0.8966 -37.9476 105.4979)" class="st3" cx="207" cy="134" rx="25.2" ry="25.2"/>
	<ellipse transform="matrix(0.8966 -0.4428 0.4428 0.8966 -36.737 112.2199)" class="st4" cx="222" cy="134.8" rx="7" ry="7"/>
	
		<ellipse transform="matrix(0.8966 -0.4428 0.4428 0.8966 -32.4392 101.6492)" class="st5" cx="201.5" cy="120.3" rx="6.3" ry="6.3"/>
	<ellipse transform="matrix(0.8966 -0.4428 0.4428 0.8966 -44.2834 109.3268)" class="st6" cx="212" cy="149.5" rx="4.7" ry="4.7"/>
	<ellipse transform="matrix(0.8966 -0.4428 0.4428 0.8966 -39.2607 104.3711)" class="st7" cx="203.9" cy="136.3" rx="6" ry="6"/>
	
		<ellipse transform="matrix(0.8966 -0.4428 0.4428 0.8966 -45.2585 103.0477)" class="st8" cx="198.1" cy="148.5" rx="5.2" ry="5.2"/>
	
		<ellipse transform="matrix(0.8966 -0.4428 0.4428 0.8966 -30.2784 108.6682)" class="st9" cx="217.6" cy="119.2" rx="4.7" ry="4.7"/>
	<ellipse transform="matrix(0.8966 -0.4428 0.4428 0.8966 -39.3617 97.4536)" class="st10" cx="189" cy="133" rx="3.9" ry="3.9"/>
	<path class="st11" d="M216.6,157.3c0,0-1.7,12-13.3,13.4l4.3-11.5C207.6,159.2,213.8,158.7,216.6,157.3z"/>
	<path class="st12" d="M203.3,170.7c0,0-5.5-0.4-6.5-13.6c0,0,7.4,2.5,10.8,2.2L203.3,170.7z"/>
	
		<ellipse transform="matrix(0.9976 -6.926655e-02 6.926655e-02 0.9976 -12.9263 6.3794)" class="st3" cx="85.5" cy="189.6" rx="25.2" ry="25.2"/>
	
		<ellipse transform="matrix(0.9976 -6.926655e-02 6.926655e-02 0.9976 -13.8829 5.9684)" class="st4" cx="79.1" cy="203.2" rx="7" ry="7"/>
	
		<ellipse transform="matrix(0.9976 -6.926655e-02 6.926655e-02 0.9976 -12.8999 7.4034)" class="st5" cx="100.3" cy="189.7" rx="6.3" ry="6.3"/>
	
		<ellipse transform="matrix(0.9976 -6.926655e-02 6.926655e-02 0.9976 -12.8807 5.2518)" class="st6" cx="69.3" cy="188.4" rx="4.7" ry="4.7"/>
	
		<ellipse transform="matrix(0.9976 -6.926655e-02 6.926655e-02 0.9976 -12.6727 6.3071)" class="st7" cx="84.6" cy="185.9" rx="6" ry="6"/>
	
		<ellipse transform="matrix(0.9976 -6.926655e-02 6.926655e-02 0.9976 -12.0002 5.6556)" class="st8" cx="75.6" cy="175.9" rx="5.2" ry="5.2"/>
	
		<ellipse transform="matrix(0.9976 -6.926655e-02 6.926655e-02 0.9976 -13.9741 7.0882)" class="st9" cx="95.2" cy="205" rx="4.7" ry="4.7"/>
	
		<ellipse transform="matrix(0.9976 -6.926655e-02 6.926655e-02 0.9976 -11.7845 6.8757)" class="st10" cx="93.3" cy="173.4" rx="3.9" ry="3.9"/>
	<path class="st11" d="M60.4,189.7c0,0-10.4-6.1-7.3-17.4l9,8.3C62,180.6,60.2,186.5,60.4,189.7z"/>
	<path class="st12" d="M53,172.2c0,0,2.5-4.9,15.1-0.8c0,0-5.1,5.9-6.1,9.2L53,172.2z"/>
	<path class="st13" d="M28.2,164.4v-31.9C28.2,132.5,50,145.3,28.2,164.4z"/>
	<path class="st14" d="M28.2,132.5c0,0-17.1,10.9,0,31.9"/>
	<path class="st15" d="M89.3,143.3l21.8,23.2C111.1,166.5,82.7,166.3,89.3,143.3z"/>
	<path class="st16" d="M89.3,143.3c0,0,21.1-5.8,21.8,23.2L89.3,143.3z"/>
	<path class="st17" d="M154,109.4c0,0,11.7-21.1,31.5,0H154z"/>
	<path class="st18" d="M154,109.4c0,0,7.9,19.9,31.5,0H154z"/>
	<path class="st19" d="M212.6,82.7c0,0,22.7-6.4,20.4,20.3L212.6,82.7z"/>
	<path class="st20" d="M212.6,82.7c0,0-4.7,21.4,20.4,20.3L212.6,82.7z"/>
	<path class="st21" d="M197.9,207.6l0.4-31.6C198.3,176,218.6,186.1,197.9,207.6z"/>
	<path class="st22" d="M198.3,176l-0.4,31.6C197.9,207.6,177.9,186.1,198.3,176z"/>
	<path class="st22" d="M68.1,54.2"/>
	<g>
		<g>
			<path class="st23" d="M150.4,32.7c2.9,0,4.1-4,0.8-4C148.3,28.7,147.1,32.7,150.4,32.7L150.4,32.7z"/>
		</g>
	</g>
	<g>
		<g>
			<path class="st23" d="M59.6,49.4c3.2,0,2.7-4.4-0.2-4.4C56.1,45,56.7,49.4,59.6,49.4L59.6,49.4z"/>
		</g>
	</g>
	<g>
		<g>
			<path class="st23" d="M99.1,98.6c2.8,0,0.9-4.5-1.2-4.5C95.1,94.1,96.9,98.6,99.1,98.6L99.1,98.6z"/>
		</g>
	</g>
	<g>
		<g>
			<path class="st23" d="M137.4,92c3.2,0,2.3-4.7-0.6-4.7C133.6,87.4,134.5,92,137.4,92L137.4,92z"/>
		</g>
	</g>
	<g>
		<g>
			<path class="st23" d="M168.6,145.4c2.8,0,4.1-3.9,0.9-3.9C166.7,141.5,165.4,145.4,168.6,145.4L168.6,145.4z"/>
		</g>
	</g>
	<g>
		<g>
			<path class="st23" d="M233.3,167.2c2.4,0,0.9-4.7-1.3-4.7C229.6,162.5,231.1,167.2,233.3,167.2L233.3,167.2z"/>
		</g>
	</g>
	<g>
		<g>
			<path class="st23" d="M243.8,115.3c2.3,0,4.8-3.5,1.6-3.5C243.1,111.9,240.5,115.3,243.8,115.3L243.8,115.3z"/>
		</g>
	</g>
	<g>
		<g>
			<path class="st23" d="M212.7,62.6c3.1,0,2.6-4.8-0.1-4.8C209.5,57.8,209.9,62.6,212.7,62.6L212.7,62.6z"/>
		</g>
	</g>
	<g>
		<g>
			<path class="st23" d="M107.6,18.4c3,0,2.9-2.2,0-2.2C104.6,16.3,104.6,18.4,107.6,18.4L107.6,18.4z"/>
		</g>
	</g>
	<g>
		<g>
			<path class="st23" d="M137.8,28.1c3.1,0,3.2-3.8,0-3.8C134.7,24.2,134.6,28.1,137.8,28.1L137.8,28.1z"/>
		</g>
	</g>
	<g>
		<g>
			<path class="st23" d="M70.9,59.6c1.9,0,5-2.9,1.7-2.9C70.7,56.6,67.6,59.6,70.9,59.6L70.9,59.6z"/>
		</g>
	</g>
	<g>
		<g>
			<path class="st23" d="M31.6,93.7c2.1,0,0.1-4.5-1.9-4.5C27.6,89.2,29.6,93.7,31.6,93.7L31.6,93.7z"/>
		</g>
	</g>
	<g>
		<g>
			<path class="st23" d="M53.8,142.5c3.2,0,2.6-4.4-0.5-4.4C50.1,138.1,50.6,142.5,53.8,142.5L53.8,142.5z"/>
		</g>
	</g>
	<g>
		<g>
			<path class="st23" d="M37,173.2c3.2,0-0.3-2.6-2-2.6C31.7,170.6,35.2,173.2,37,173.2L37,173.2z"/>
		</g>
	</g>
	<g>
		<g>
			<path class="st23" d="M46.8,164c2.6,0,4.1-3.2,0.8-3.2C45,160.8,43.5,164,46.8,164L46.8,164z"/>
		</g>
	</g>
	<g>
		<g>
			<path class="st23" d="M78.6,135.5c3.1,0,2.7-3.7-0.3-3.7C75.1,131.8,75.5,135.5,78.6,135.5L78.6,135.5z"/>
		</g>
	</g>
	<g>
		<g>
			<path class="st23" d="M99.5,109.3c2.5,0-0.1-4.1-2-4.1C94.9,105.2,97.6,109.3,99.5,109.3L99.5,109.3z"/>
		</g>
	</g>
	<g>
		<g>
			<path class="st23" d="M73.8,154.4c1.9,0-1.2-3.6-2.6-3.6C69.2,150.8,72.4,154.4,73.8,154.4L73.8,154.4z"/>
		</g>
	</g>
	<g>
		<g>
			<path class="st23" d="M88.1,235.7c2.2,0,4.9-3.3,1.7-3.3C87.6,232.4,84.9,235.7,88.1,235.7L88.1,235.7z"/>
		</g>
	</g>
	<g>
		<g>
			<path class="st23" d="M111.9,215.7c2.9,0-0.5-3.3-2.3-3.3C106.7,212.4,110.1,215.7,111.9,215.7L111.9,215.7z"/>
		</g>
	</g>
	<g>
		<g>
			<path class="st23" d="M57.4,207.7c1.8,0,4.7-1.3,1.3-1.3C56.9,206.4,54,207.7,57.4,207.7L57.4,207.7z"/>
		</g>
	</g>
	<g>
		<g>
			<path class="st23" d="M70,221.7c2.3,0,0.7-4.7-1.4-4.7C66.3,217,67.9,221.7,70,221.7L70,221.7z"/>
		</g>
	</g>
	<g>
		<g>
			<path class="st23" d="M36,192.1c3,0,0.4-3.9-1.5-3.9C31.5,188.2,34,192.1,36,192.1L36,192.1z"/>
		</g>
	</g>
	<g>
		<g>
			<path class="st23" d="M49.2,199.8c2,0,4.6-3.8,1.6-3.8C48.8,196,46.2,199.8,49.2,199.8L49.2,199.8z"/>
		</g>
	</g>
	<g>
		<g>
			<path class="st23" d="M123.7,165.6c2.1,0-1.2-3.6-2.7-3.6C118.9,162.1,122.2,165.6,123.7,165.6L123.7,165.6z"/>
		</g>
	</g>
	<g>
		<g>
			<path class="st23" d="M121.2,177.9c1.2,0,5.5-1.5,2.3-1.5C122.3,176.4,118,177.9,121.2,177.9L121.2,177.9z"/>
		</g>
	</g>
	<g>
		<g>
			<path class="st23" d="M119.3,193c2.4,0-2-2.1-3-2.1C113.9,190.9,118.2,193,119.3,193L119.3,193z"/>
		</g>
	</g>
	<g>
		<g>
			<path class="st23" d="M143.7,58.9c1.9,0-0.2-4.4-2-4.4C139.8,54.5,141.9,58.9,143.7,58.9L143.7,58.9z"/>
		</g>
	</g>
	<g>
		<g>
			<path class="st23" d="M87.4,28.2c2.7,0,1.4-4.8-1.1-4.8C83.6,23.4,84.9,28.2,87.4,28.2L87.4,28.2z"/>
		</g>
	</g>
	<g>
		<g>
			<path class="st23" d="M78.4,39.5c2.5,0,4.6-4.3,1.5-4.3C77.4,35.2,75.3,39.5,78.4,39.5L78.4,39.5z"/>
		</g>
	</g>
	<g>
		<g>
			<path class="st23" d="M35.6,68.7c3.1,0,3.1-3.6,0-3.6C32.5,65.1,32.5,68.7,35.6,68.7L35.6,68.7z"/>
		</g>
	</g>
	<g>
		<g>
			<path class="st23" d="M26.5,118.4c2.2,0-0.6-3.9-2.1-3.9C22.2,114.4,25,118.4,26.5,118.4L26.5,118.4z"/>
		</g>
	</g>
	<g>
		<g>
			<path class="st23" d="M173.6,28.8c1.3,0,5.3-1.9,2.2-1.9C174.5,27,170.4,28.8,173.6,28.8L173.6,28.8z"/>
		</g>
	</g>
	<g>
		<g>
			<path class="st23" d="M203,49.3c2.8,0,1.4-4.8-1.1-4.8C199.1,44.5,200.4,49.3,203,49.3L203,49.3z"/>
		</g>
	</g>
	<g>
		<g>
			<path class="st23" d="M179.6,38.3c1.2,0-1.3-3.9-2.9-3.9C175.5,34.4,178.1,38.3,179.6,38.3L179.6,38.3z"/>
		</g>
	</g>
	<g>
		<g>
			<path class="st23" d="M203.5,102.7c2.1,0-1.2-3.5-2.8-3.5C198.6,99.2,201.9,102.7,203.5,102.7L203.5,102.7z"/>
		</g>
	</g>
	<g>
		<g>
			<path class="st23" d="M236.7,129.7c2.6,0,4.3-3.4,1-3.4C235.1,126.3,233.4,129.7,236.7,129.7L236.7,129.7z"/>
		</g>
	</g>
	<g>
		<g>
			<path class="st23" d="M242.5,149.4c1.7,0,4.9-3.5,2-3.5C242.9,145.9,239.7,149.4,242.5,149.4L242.5,149.4z"/>
		</g>
	</g>
	<g>
		<g>
			<path class="st23" d="M222.5,172.8c3,0,0.4-3.8-1.5-3.8C218,168.9,220.6,172.8,222.5,172.8L222.5,172.8z"/>
		</g>
	</g>
	<g>
		<g>
			<path class="st23" d="M226.9,193.7c2.7,0,4.2-4.2,1-4.2C225.1,189.5,223.6,193.7,226.9,193.7L226.9,193.7z"/>
		</g>
	</g>
	<g>
		<g>
			<path class="st23" d="M205.1,214.1c3.1,0,3.5-4.3,0.3-4.3C202.3,209.8,201.9,214.1,205.1,214.1L205.1,214.1z"/>
		</g>
	</g>
	<g>
		<g>
			<path class="st23" d="M218.3,205c3.3,0,1.9-3.6-0.8-3.6C214.2,201.4,215.5,205,218.3,205L218.3,205z"/>
		</g>
	</g>
	<g>
		<g>
			<path class="st23" d="M184.2,171.9c1.3,0-0.8-4.3-2.2-4.3C180.7,167.7,182.8,171.9,184.2,171.9L184.2,171.9z"/>
		</g>
	</g>
	<g>
		<g>
			<path class="st23" d="M171,127.8c3.2,0,3.5-4.5,0.3-4.5C168.2,123.3,167.8,127.8,171,127.8L171,127.8z"/>
		</g>
	</g>
	<g>
		<g>
			<path class="st23" d="M116.9,235.9c3.3,0,0.1-2.9-1.7-2.9C111.9,233,115,235.9,116.9,235.9L116.9,235.9z"/>
		</g>
	</g>
	<g>
		<g>
			<path class="st23" d="M117.6,246.9c2.4,0,4.4-3.8,1.1-3.8C116.3,243.1,114.3,246.9,117.6,246.9L117.6,246.9z"/>
		</g>
	</g>
	<g>
		<g>
			<path class="st23" d="M136.7,234.1c2.9,0,3-1.5,0-1.5C133.9,232.6,133.8,234.1,136.7,234.1L136.7,234.1z"/>
		</g>
	</g>
	<g>
		<g>
			<path class="st23" d="M138.4,242.7c1.3,0,4.8-3.2,3.1-3.2C140.2,239.5,136.6,242.7,138.4,242.7L138.4,242.7z"/>
		</g>
	</g>
	<g>
		<g>
			<path class="st23" d="M181,214.6c2.5,0-1.7-2.4-2.9-2.4C175.7,212.2,179.9,214.6,181,214.6L181,214.6z"/>
		</g>
	</g>
	<g>
		<g>
			<path class="st23" d="M158.3,228.5c1.4,0-0.8-4.2-2.4-4.2C154.5,224.3,156.7,228.5,158.3,228.5L158.3,228.5z"/>
		</g>
	</g>
	<g>
		<g>
			<path class="st23" d="M184,234.5c2.2,0,4.5-2.2,1.1-2.2C182.8,232.3,180.6,234.5,184,234.5L184,234.5z"/>
		</g>
	</g>
	<g>
		<g>
			<path class="st23" d="M182.8,188.3c2.2,0-0.6-4-2.1-4C178.5,184.3,181.2,188.3,182.8,188.3L182.8,188.3z"/>
		</g>
	</g>
	<g>
		<g>
			<path class="st23" d="M237.3,82.5c3.2,0-1.1-1.7-2.3-1.7C231.8,80.8,236.1,82.5,237.3,82.5L237.3,82.5z"/>
		</g>
	</g>
	<g>
		<g>
			<path class="st23" d="M141.3,16.4c1.7,0-0.4-4.4-2.1-4.4C137.5,12,139.6,16.4,141.3,16.4L141.3,16.4z"/>
		</g>
	</g>
	<circle class="st24" cx="129.8" cy="129" r="123.2"/>
</g>
</svg>
