<?xml version="1.0" encoding="utf-8"?>
<!-- Generator: Adobe Illustrator 20.1.0, SVG Export Plug-In . SVG Version: 6.00 Build 0)  -->
<svg version="1.1" xmlns="http://www.w3.org/2000/svg" xmlns:xlink="http://www.w3.org/1999/xlink" x="0px" y="0px"
	 viewBox="0 0 375.4 313" style="enable-background:new 0 0 375.4 313;" xml:space="preserve">
<style type="text/css">
	.st0{fill:#FFE66B;stroke:#342320;stroke-miterlimit:10;}
	.st1{opacity:0.2;}
	.st2{fill:#D6940D;}
</style>
<g id="Calque_1">
</g>
<g id="Calque_3">
	<path class="st0" d="M61.2,6.8c4.2-2.3,8-4,12.3-4.8c4.3-0.8,13.8-0.7,16.2-0.7c2.3,0,15.5-0.4,18.2,0s12.3,2.2,16.2,6.5
		c3.8,4.3,5.7,8.2,5.7,13.8s-1.5,9.7-5.7,13.2s-11.5,6.8-13.3,7.5c-1.8,0.7-11.8,2.3-13.5,2.7c-1.7,0.3-19,2.7-23.8,2.2
		s-14-0.7-19.2-5.5s-9.7-7.7-9.5-11.3c0.2-3.7,2.3-9.2,4.8-12s7.2-8.7,8.8-10S61.2,6.8,61.2,6.8z"/>
	<path class="st0" d="M214.9,12.4c14.5-0.7,30.8,0,35.7,0.8c4.8,0.8,14.3,3,16.7,5.3c2.3,2.3,6.2,8,6.5,12.8c0.3,4.8,1,9.8,0,12.7
		c-1,2.8-8.3,8-10.3,9.3c-2,1.3-8.8,4.3-11.2,5.2c-2.3,0.8-10.8,2.5-12,2.7c-1.2,0.2-33-2.2-35.5-4s-20.5-5.5-21.3-11.3
		s-1.7-12.7,2.7-18.7c4.3-6,12.8-10.7,17-12C207.2,13.9,214.9,12.4,214.9,12.4z"/>
	<path class="st0" d="M188.5,34.8c-4,1-17,4-23.3,6c-6.3,2-13.3,5.5-15.7,6.4c-2.3,0.9-8.3,5.3-9.3,9.6s-2.7,14.7-2,19.7
		c0.7,5,3,10.3,10.3,11.3c7.3,1,37.3,6,49.8,3.5s23.5-10,25-16s6-16.5,0-24.5s-16.5-15.5-23.5-16S188.5,34.8,188.5,34.8z"/>
	<path class="st0" d="M282.4,55.8c10-4,23-8.5,33.5-7s22,4,25,10s5.5,10,5.5,15s-11,13.5-13.5,16s-14,7-18.5,8.5s-10,2-18.5,2
		s-20.5-1.5-24.5-4s-12-10.5-12.5-15s-3-9,0-12.5s11.7-8.5,15.4-10.5S282.4,55.8,282.4,55.8z"/>
	<path class="st0" d="M81.4,86.8c7-0.5,12.5-1.5,19.5,0s19,4,23.5,10s10.5,15.5,10.5,20s-6.5,13-10,16.5s-22.5,7-27.5,7
		s-32.5-2.5-37-4.5s-11.8-4.5-15.7-10s-7.3-13-5.3-20s4-11.1,12-14.3S81.4,86.8,81.4,86.8z"/>
	<path class="st0" d="M239.9,59.8c5,0,9.5,1,16,3.5s15,6,19,8s11.5,6.5,11.5,13.5s0,17-3.5,19s-19,5.5-23.5,4.5s-20,0.5-30-3
		s-22-10-26.5-18.5s4-16,7-19s14-7.5,20-8S239.9,59.8,239.9,59.8z"/>
	<path class="st0" d="M208.4,84c-10-5.2-23.1-8.2-33.6-7.7c-10.4,0.5-28.9,4.5-33.9,7.7s-12.5,9.8-9,19.8s9.5,17,17,20.5
		s20,5,37.5,3s25.1-6.7,30-16s3.5-17.5,0-21.5S208.4,84,208.4,84z"/>
	<path class="st0" d="M258.4,114.6c11,1.1,25,5.1,27.5,9.6s5.5,9.6,5.5,13.8s-2.5,12.5-9,17.6c-6.5,5.1-15,9.1-24,11.1
		s-17.8,4-27.4,3s-16.2-5.5-20.2-9s-5.5-14.2-5.4-18.4s6.5-17.1,15.5-19.6s21-7.7,25-7.1S258.4,114.6,258.4,114.6z"/>
	<path class="st0" d="M18.4,153.2c8-5.5,23-10.4,31-10.9s33.5,6.4,35,10.9s4,29,0,34.5s-26.8,13.5-31.9,14s-30.6,3.5-38.6-1.5
		s-14-14.6-13-23.6C1.9,167.8,18.4,153.2,18.4,153.2z"/>
	<path class="st0" d="M169.3,269.2c12.6,0,20.1-1.5,26.6,0s12.9,6,14.9,12s1.4,15,0,18s-17.9,11.5-24.4,12s-18.1,2-26.6,0
		c-8.4-2-14.9-1-20.9-9.5s-3-19.5,3.5-24S169.3,269.2,169.3,269.2z"/>
	<path class="st0" d="M291.4,248.8c15-1,33-3,39,3s10.5,15.5,8.5,22.5s-14.5,12.8-23.5,16.2c-9,3.3-29,2.7-41,1
		c-12-1.7-20-8.7-17-18.7c3-10,9-16,15-18.5S291.4,248.8,291.4,248.8z"/>
	<path class="st0" d="M221,212.8c5.8-3.5,18.3-8.8,26.8-9.7c8.5-0.8,28-1.8,32.5,2.7s18.5,3,16.5,17.5s-10,15.5-16,20
		s-21.5,11.5-31,12s-31,2.5-36.2,0c-5.3-2.5-13.8-4.5-13.8-18.5S221,212.8,221,212.8z"/>
	<path class="st0" d="M145.2,172.4c8.2,0,18.5,0.8,22.7,1.3s16.2,2.8,18.3,4.7c2.2,1.8,7.3,6,9.3,9s6.7,7.3,7.5,12.2
		c0.8,4.8-3,14-7,17.3c-4,3.3-19.8,7.7-28.7,8c-8.8,0.3-33-3-38.5-6s-17.8-9.4-18.2-15.6c-0.3-6.2,1-20.2,10.2-25.2
		S142.7,172.4,145.2,172.4z"/>
	<path class="st0" d="M315.9,128.1c8.2,0,18.5,0.8,22.7,1.3s16.2,2.8,18.3,4.7c2.2,1.8,7.3,6,9.3,9s6.7,7.3,7.5,12.2
		c0.8,4.8-3,14-7,17.3c-4,3.3-19.8,7.7-28.7,8c-8.8,0.3-33-3-38.5-6s-17.8-9.4-18.2-15.6c-0.3-6.2,1-20.2,10.2-25.2
		S313.4,128.2,315.9,128.1z"/>
	<path class="st0" d="M264.4,174.2c9.5-4,23.5-6.5,37.5-6c14,0.5,29,5.5,33.5,12.5s10,10,10,19s-12.5,18-21,18s-27,2.5-33,0
		s-22.5-4-27-8s-7.4-12-7-18.5C257.9,184.8,264.4,174.2,264.4,174.2z"/>
	<path class="st0" d="M257.4,170.2c6.5,6.4,12.5,14,10,19.5s-11.4,13.5-20.2,13.5s-28.3,1-41.8-5s-22.8-12.5-22.7-18
		c0.2-5.5,2.7-18.8,13.2-21.1C224.5,153,249.6,162.6,257.4,170.2z"/>
	<path class="st0" d="M213.9,93.2c7,0,21,0,26,2.5s9,4.5,10.5,10s3.5,12.5,0,18s-16.9,10.5-24,12s-19,3-30.5,2s-17.1-1.5-21.1-7.5
		c-3.9-6-10.1-13,0-22c10.1-9,23.1-15,28.6-15S213.9,93.2,213.9,93.2z"/>
	<path class="st0" d="M89.4,203.1c16.5,0.7,33.7,1.2,41.6,10.2s14.4,15,13.9,24s-13.6,20-21,21.5s-39-2.5-47-5.5s-19.5-5.5-23-9.5
		s-7-14-3-22.5s14.6-14.5,21-15.5S89.4,203.1,89.4,203.1z"/>
	<path class="st0" d="M87.9,135.2c14-7.5,32.9-17.7,43.1-17s29.4,4.5,35.9,12s10.3,16,8.4,22s-8,14.5-15.5,20.5
		c-7.4,6-31.4,12-37.9,11.5s-28-2-38-11.5s-14-19-11-24.5S87.9,135.2,87.9,135.2z"/>
</g>
<g id="Calque_4">
	<g class="st1">
		<g>
			<path class="st2" d="M168.9,286c0.1,0,0.1,0,0.2,0c1.1,0,2.3-0.5,3.2-1.3c0.3-0.3,0.7-0.6,0.7-1.1c0-0.3-0.3-0.6-0.6-0.6
				c-0.1,0-0.1,0-0.2,0c-1.1,0-2.3,0.5-3.2,1.3c-0.3,0.3-0.7,0.6-0.7,1.1C168.3,285.8,168.5,286,168.9,286L168.9,286z"/>
		</g>
	</g>
	<g class="st1">
		<g>
			<path class="st2" d="M206.7,300.3c3.1,0,1.8-4.8-1-4.8C202.7,295.5,203.9,300.3,206.7,300.3L206.7,300.3z"/>
		</g>
	</g>
	<g class="st1">
		<g>
			<path class="st2" d="M147.7,305.7c2.9,0,1.1-4.6-1.4-4.6C143.4,301.1,145.2,305.7,147.7,305.7L147.7,305.7z"/>
		</g>
	</g>
	<g class="st1">
		<g>
			<path class="st2" d="M150.4,285.1c2.8,0,4.3-4.3,1-4.3C148.6,280.8,147.1,285.1,150.4,285.1L150.4,285.1z"/>
		</g>
	</g>
	<g class="st1">
		<g>
			<path class="st2" d="M203.9,279.4c3.1,0,1-4.2-1.5-4.2C199.4,275.1,201.5,279.4,203.9,279.4L203.9,279.4z"/>
		</g>
	</g>
	<g class="st1">
		<g>
			<path class="st2" d="M219.6,240.9c0.3,0-2.1-3.3-3.5-3.3C215.9,237.6,218.2,240.9,219.6,240.9L219.6,240.9z"/>
		</g>
	</g>
	<g class="st1">
		<g>
			<path class="st2" d="M238.1,221.8c3.3,0,0.5-3.1-1.5-3.1C233.4,218.7,236.1,221.8,238.1,221.8L238.1,221.8z"/>
		</g>
	</g>
	<g class="st1">
		<g>
			<path class="st2" d="M208.4,166.4c2.6,0,4.3-3.2,1-3.2C206.8,163.1,205.1,166.4,208.4,166.4L208.4,166.4z"/>
		</g>
	</g>
	<g class="st1">
		<g>
			<path class="st2" d="M126.1,151.6c3.3,0,1-3.7-1.4-3.7C121.4,147.9,123.6,151.6,126.1,151.6L126.1,151.6z"/>
		</g>
	</g>
	<g class="st1">
		<g>
			<path class="st2" d="M171.6,98c1.1,0-2.4-2.6-3.5-2.6C167,95.5,170.6,98,171.6,98L171.6,98z"/>
		</g>
	</g>
	<g class="st1">
		<g>
			<path class="st2" d="M234.6,86.7c2.6,0-1.2-2.9-2.5-2.9C229.5,83.8,233.3,86.7,234.6,86.7L234.6,86.7z"/>
		</g>
	</g>
	<g class="st1">
		<g>
			<path class="st2" d="M160.6,60.5c2.8,0,0.8-4.5-1.5-4.5C156.3,56,158.3,60.5,160.6,60.5L160.6,60.5z"/>
		</g>
	</g>
	<g class="st1">
		<g>
			<path class="st2" d="M259.3,37.5c2.7,0,4.4-4.5,1.2-4.5C257.8,33,256.1,37.5,259.3,37.5L259.3,37.5z"/>
		</g>
	</g>
	<g class="st1">
		<g>
			<path class="st2" d="M85.1,24.5c0.7,0-1.9-3.5-3.4-3.5C81,21,83.6,24.5,85.1,24.5L85.1,24.5z"/>
		</g>
	</g>
	<g class="st1">
		<g>
			<path class="st2" d="M123.6,25.5c1.4,0-2.3-2.6-3.5-2.6C118.7,23,122.4,25.5,123.6,25.5L123.6,25.5z"/>
		</g>
	</g>
	<g class="st1">
		<g>
			<path class="st2" d="M60.2,107.8c0.4,0-1.5-4-2.6-4C57.1,103.7,59,107.8,60.2,107.8L60.2,107.8z"/>
		</g>
	</g>
	<g class="st1">
		<g>
			<path class="st2" d="M104.4,122.3c3,0,3.1-3.1,0-3.1C101.4,119.2,101.3,122.3,104.4,122.3L104.4,122.3z"/>
		</g>
	</g>
	<g class="st1">
		<g>
			<path class="st2" d="M112.6,108.5c0.2,0-1-4.4-2.4-4.4C110,104,111.2,108.5,112.6,108.5L112.6,108.5z"/>
		</g>
	</g>
	<g class="st1">
		<g>
			<path class="st2" d="M45.2,152.1c3,0,3.6-4.6,0.4-4.6C42.6,147.4,41.9,152.1,45.2,152.1L45.2,152.1z"/>
		</g>
	</g>
	<g class="st1">
		<g>
			<path class="st2" d="M11.7,177.9c3.3,0,2.1-3.3-0.6-3.3C7.8,174.6,9,177.9,11.7,177.9L11.7,177.9z"/>
		</g>
	</g>
	<g class="st1">
		<g>
			<path class="st2" d="M51.1,199.9c0.9,0-1.1-4.2-2.4-4.2C47.8,195.6,49.8,199.9,51.1,199.9L51.1,199.9z"/>
		</g>
	</g>
	<g class="st1">
		<g>
			<path class="st2" d="M50.4,177.4c3,0,2.9-2.2-0.1-2.2C47.4,175.1,47.4,177.4,50.4,177.4L50.4,177.4z"/>
		</g>
	</g>
	<g class="st1">
		<g>
			<path class="st2" d="M250.8,147c2,0,0.1-4.5-1.8-4.5C246.9,142.5,248.9,147,250.8,147L250.8,147z"/>
		</g>
	</g>
	<g class="st1">
		<g>
			<path class="st2" d="M225.4,122.9c3.1,0,3.1-3.3,0-3.3C222.3,119.6,222.3,122.9,225.4,122.9L225.4,122.9z"/>
		</g>
	</g>
	<g class="st1">
		<g>
			<path class="st2" d="M181.4,115.7c2.5,0,4.4-3,1-3C179.9,112.8,178,115.7,181.4,115.7L181.4,115.7z"/>
		</g>
	</g>
	<g class="st1">
		<g>
			<path class="st2" d="M297.8,84c2,0,0-4.5-1.9-4.5C293.9,79.5,295.9,84,297.8,84L297.8,84z"/>
		</g>
	</g>
	<g class="st1">
		<g>
			<path class="st2" d="M304.9,56.4c3.1,0,3-3.4-0.1-3.4C301.7,53.1,301.8,56.4,304.9,56.4L304.9,56.4z"/>
		</g>
	</g>
	<g class="st1">
		<g>
			<path class="st2" d="M335.9,70.2c3.3,0,1.5-2.9-1-2.9C331.5,67.3,333.4,70.2,335.9,70.2L335.9,70.2z"/>
		</g>
	</g>
	<g class="st1">
		<g>
			<path class="st2" d="M297.9,194.9c3.4,0,1.2-2.4-1.1-2.4C293.4,192.6,295.7,194.9,297.9,194.9L297.9,194.9z"/>
		</g>
	</g>
	<g class="st1">
		<g>
			<path class="st2" d="M173.3,198.7c1,0,5.4-1.9,3.1-1.9C175.5,196.8,171,198.7,173.3,198.7L173.3,198.7z"/>
		</g>
	</g>
	<g class="st1">
		<g>
			<path class="st2" d="M118.4,203c1.6,0-0.5-4.4-2-4.4C114.8,198.5,116.8,203,118.4,203L118.4,203z"/>
		</g>
	</g>
	<g class="st1">
		<g>
			<path class="st2" d="M163.1,221.5c2.9,0,1.1-4.5-1.4-4.5C158.8,217,160.6,221.5,163.1,221.5L163.1,221.5z"/>
		</g>
	</g>
	<g class="st1">
		<g>
			<path class="st2" d="M103.7,234.5c3.2,0,2.3-4.5-0.6-4.5C99.8,230,100.8,234.5,103.7,234.5L103.7,234.5z"/>
		</g>
	</g>
	<g class="st1">
		<g>
			<path class="st2" d="M70.1,216c3.2,0,2.4-4.4-0.5-4.4C66.4,211.5,67.2,216,70.1,216L70.1,216z"/>
		</g>
	</g>
	<g class="st1">
		<g>
			<path class="st2" d="M71.3,250.7c0.3,0-1.7-3.8-2.9-3.8C68.1,246.8,70.1,250.7,71.3,250.7L71.3,250.7z"/>
		</g>
	</g>
	<g class="st1">
		<g>
			<path class="st2" d="M262.8,248.4c1.8,0,4.7-1.2,1.2-1.2C262.2,247.1,259.3,248.4,262.8,248.4L262.8,248.4z"/>
		</g>
	</g>
	<g class="st1">
		<g>
			<path class="st2" d="M279.4,273.1c1,0,4.7-1.8,4-1.8C282.3,271.4,278.7,273.1,279.4,273.1L279.4,273.1z"/>
		</g>
	</g>
	<g class="st1">
		<g>
			<path class="st2" d="M303.8,266.3c2.9,0,3.4-4,0.1-4C301,262.2,300.6,266.3,303.8,266.3L303.8,266.3z"/>
		</g>
	</g>
	<g class="st1">
		<g>
			<path class="st2" d="M314.6,284.7c2.7,0-1-3-2.5-3C309.4,281.8,313.2,284.7,314.6,284.7L314.6,284.7z"/>
		</g>
	</g>
</g>
</svg>
