<?xml version="1.0" encoding="utf-8"?>
<!-- Generator: Adobe Illustrator 20.1.0, SVG Export Plug-In . SVG Version: 6.00 Build 0)  -->
<svg version="1.1" xmlns="http://www.w3.org/2000/svg" xmlns:xlink="http://www.w3.org/1999/xlink" x="0px" y="0px"
	 viewBox="0 0 285 411" style="enable-background:new 0 0 285 411;" xml:space="preserve">
<style type="text/css">
	.st0{fill:#F7F8F9;}
	.st1{fill:#3861AB;}
	.st2{fill:none;stroke:#251813;stroke-width:4;stroke-linecap:round;stroke-miterlimit:10;}
	.st3{fill:none;stroke:#18140F;stroke-width:3;stroke-linecap:round;stroke-miterlimit:10;}
</style>
<g id="Calque_5">
	<path class="st0" d="M280.1,38c0,0-1.2-8-5.2-11.3s-33.2-14.1-39-15.1c-5.8-1-34-6-42.7-7c-8.7-1-28.4-1.8-35.7-1.8
		S111.5,3.7,107,4.1S64.9,8.2,58.7,9.5S30,16.1,25.1,18.2s-16.9,4.7-18,8.4S3.6,37.3,3.6,38c0,0.6,0,3,0,3l23.4,309.8l2.6,23l18,8.2
		l43.4,14l68.9,6.6l29.5-4.4l23.8-7.3l13.6-9.7l8.2-10.3l11.2-62.6l14.2-94.6L280.1,38"/>
</g>
<g id="Calque_4">
	<path class="st1" d="M7.3,86.1c0,0,36.6-16.9,54.1-16.4s34.9,0.9,50,8.2c15.1,7.2,31.8,16.5,31.8,16.5s14.2,10,19,9.8
		c4.7-0.3,29.6,12.7,41.5,13.5c13.7,0.9,36.3-1.7,45.5-3.7c3.2-0.7,22.6-3.8,22.5-0.8c-0.1,6.9-20.2,161.7-20.2,161.7l-7.6,48.6
		l-3.6,23.4l-2.3,12.5l-4.1,13.9c0,0-13.3,13-17.8,16c-3.8,2.5-26.5,8.7-26.5,8.7l-20.6,3.5l-18.1,0.9l-29.4-2L91,395.9l-31.4-8.8
		l-30-13.5L27.9,363L15.6,202.7L7.3,86.1z"/>
</g>
<g id="Calque_2">
	<path class="st2" d="M3.6,43c0,0,23.3,308.8,24.3,320c1,11.2,4.2,10.8,6.2,12.7c2,1.8,7.3,3.3,25.5,11.5
		c18.2,8.2,61.8,14.8,91.2,15.3s57.8-9.5,62.5-11.7c4.7-2.2,20.5-13.2,22.5-22c0.7-3,3.2-13.7,3.7-16.7s14.5-93.7,15.3-97.2
		s7.9-55.5,8.9-66.5S279.2,59.2,280.2,44s-7-18.3-9.3-20.7c-2.3-2.3-26.7-10.3-36.3-12c-8.7-1.5-29.2-5.3-45.4-7.3s-64-1.2-72.5-0.7
		s-45.6,3.9-53,5.2c-16.8,3.1-44.5,11.1-48.6,12.9C9.8,23.9,4.6,29.7,3.6,34.7V43z"/>
</g>
<g id="Calque_3">
	<path class="st3" d="M272.1,112.2c-9.4,0.2-52.9,8.5-66.9,5.8c-14-2.7-34.7-9.7-48-16c-13.3-6.3-32.3-19.3-50-25.7
		S75.6,70,63.6,69.7s-24.3,4-40.4,10c0,0-16.3,7.3-16.2,8.8"/>
</g>
</svg>
