<?xml version="1.0" encoding="utf-8"?>
<!-- Generator: Adobe Illustrator 21.0.0, SVG Export Plug-In . SVG Version: 6.00 Build 0)  -->
<svg version="1.1" id="Calque_1" xmlns="http://www.w3.org/2000/svg" xmlns:xlink="http://www.w3.org/1999/xlink" x="0px" y="0px"
	 viewBox="0 0 1000 1000" style="enable-background:new 0 0 1000 1000;" xml:space="preserve">
<style type="text/css">
	.st0{display:none;fill:none;stroke:url(#SVGID_1_);stroke-miterlimit:10;}
	.st1{display:none;fill:#997034;}
	.st2{display:none;fill:#B2823B;}
	.st3{display:none;fill:#AD8036;}
	.st4{fill:#262635;}
	.st5{fill:#F9F7AA;}
	.st6{opacity:0.18;fill:url(#SVGID_2_);}
	
		.st7{display:none;opacity:0.44;fill:#F9BF3E;stroke:#EAB03D;stroke-width:4;stroke-linecap:round;stroke-linejoin:round;stroke-miterlimit:10;}
	.st8{display:none;fill:#DDA83E;stroke:#C1913D;stroke-width:4;stroke-linecap:round;stroke-linejoin:round;stroke-miterlimit:10;}
</style>
<linearGradient id="SVGID_1_" gradientUnits="userSpaceOnUse" x1="462.6788" y1="793.4171" x2="462.6788" y2="343.5992">
	<stop  offset="0" style="stop-color:#050039"/>
	<stop  offset="8.213538e-02" style="stop-color:#030025"/>
	<stop  offset="0.1859" style="stop-color:#020014"/>
	<stop  offset="0.3152" style="stop-color:#010009"/>
	<stop  offset="0.4965" style="stop-color:#000002"/>
	<stop  offset="1" style="stop-color:#000000"/>
</linearGradient>
<rect x="188.4" y="344.1" class="st0" width="548.6" height="448.8"/>
<polygon class="st1" points="462.7,578.6 963.4,577.3 963.4,182.4 462.7,182.4 "/>
<polygon class="st2" points="188.4,792.9 462.7,578.6 963.4,577.3 737,792.9 "/>
<polygon class="st3" points="188.4,792.9 462.7,578.6 462.7,182.4 188.4,344.1 "/>
<g>
	<g>
		<path class="st4" d="M547.3,374.2h8.7c0,0,3,4.3,0.9,4.5c2.4,2,0,4.9,0,4.9c2.8,2.3-0.3,3.9-0.3,3.9s10.5,5.5,10.5,16.1
			c0,17-29.7,20-29.7,0c0-10.7,6.2-12.7,9-15.7c-2.8-0.7-1.2-3.1-0.3-3.1c-2.8-3.2-1.6-4.1,0-4.1c-3.1-3.6-2.9-6.5-0.8-6.5
			C547.3,374.2,547.3,374.2,547.3,374.2z"/>
		<ellipse class="st5" cx="551.7" cy="402.8" rx="15.5" ry="16.5"/>
		<rect x="549" y="346.1" class="st4" width="2.9" height="30.8"/>
	</g>
	<linearGradient id="SVGID_2_" gradientUnits="userSpaceOnUse" x1="570.0204" y1="653.0895" x2="570.0204" y2="407.0558">
		<stop  offset="0" style="stop-color:#000000;stop-opacity:0"/>
		<stop  offset="1" style="stop-color:#FFF76A"/>
	</linearGradient>
	<path class="st6" d="M547.6,386.8L333.6,594c-3,2.9-5.3,6.6-6.6,10.6l-3.4,10.4c-7.1,21.8-1.9,45.7,13.7,62.5l1.1,1.2
		c0.2,0.2,0.4,0.3,0.6,0.4l1,0.4c0.3,0.1,0.6,0.2,0.9,0.2c5.7,0.5,58.8,4.7,61.7,3.9c3.1-0.9,89.2,2.2,103,2.2
		c13.2,0,126.6-5.3,136.6-5.8c0.5,0,0.9,0,1.4,0c7.8,0.3,77.2,2.7,81.8,3.1c4.9,0.4,60.6,4.5,64.7,4c4-0.4,22.5-0.7,25.4-3.6
		c4.1-4.1,4-20.1,4-20.1s-3.4-19.7-6.5-25.1s-17-20.1-22-24.9c-4.4-4.1-236.5-226.2-236.5-226.2L547.6,386.8z"/>
</g>
<polygon class="st7" points="737,344.1 737,792.9 963.4,577.3 963.4,188.6 963.4,182 "/>
<polygon class="st8" points="729.9,344.1 188.4,344.1 462.7,182.4 954.4,182.4 963.4,182.4 737,344.1 "/>
<polygon class="st8" points="188.4,792.9 23.9,875.1 23.9,412.8 188.4,344.1 "/>
<polygon class="st7" points="737.7,792.9 573.3,875.1 573.3,412.8 737.7,344.1 "/>
</svg>
