<?xml version="1.0" encoding="utf-8"?>
<!-- Generator: Adobe Illustrator 21.0.0, SVG Export Plug-In . SVG Version: 6.00 Build 0)  -->
<svg version="1.1" id="Calque_1" xmlns="http://www.w3.org/2000/svg" xmlns:xlink="http://www.w3.org/1999/xlink" x="0px" y="0px"
	 viewBox="0 0 226.6 310.9" style="enable-background:new 0 0 226.6 310.9;" xml:space="preserve">
<style type="text/css">
	.st0{fill:#4BDADD;}
	.st1{fill:#349393;}
	.st2{fill:#B0E2E0;}
	.st3{fill:none;stroke:#B0E2E0;stroke-width:18;stroke-linecap:round;stroke-miterlimit:10;}
</style>
<title>diamond-egg</title>
<g>
	<path class="st0" d="M113.6,82c8.7,0,17.1,3.7,25.7,12.9c8.7,9.2,17.2,27.6,20.9,38.8s3.5,33.3,3.3,37.8
		c-0.3,4.5-9.7,31.2-9.7,31.2l-31,14.4l-43.3-6.6l-15.2-12.9c-2.6-5.8-4.9-16.3-4.5-28.1c0.6-15.1,6.4-36.2,9.5-43.8
		C72.8,117,78,106,84.5,99.1c6.6-7,13.3-11.5,15.2-12.6C102.4,85,107,82,113.6,82z"/>
	<path class="st1" d="M155.6,121.5c2.6,5.6,8.7,21.5,10.6,37.1c1.3,13.2,0.5,24.9-3,36.5c-3.4,11-8.4,19.4-22.7,27.5
		c-14,7.9-31.5,6.6-39.1,5.3s-16.6-4.6-23.9-10.8c-6.7-5.7-12.4-16.4-13.4-18.9c-0.6-1.6-1.1-3.3-1.6-5c8.7,8.4,14.2,15.2,30.7,17.6
		s33.6,0.8,43-5c11.3-7,17.3-15.7,20.5-26S160.3,134.7,155.6,121.5z"/>
	<circle class="st2" cx="74.3" cy="177.9" r="4.4"/>
	<path class="st3" d="M74.8,163.4c3.7-19.8,5.5-55.2,34-68.8"/>
</g>
</svg>
