<svg id="Calque_1" data-name="Calque 1" xmlns="http://www.w3.org/2000/svg" viewBox="0 0 369.1 354.84"><defs><style>.cls-1{fill:#ddd8d0;opacity:0.61;}.cls-2{fill:#fce372;stroke:#2d1c1c;stroke-width:0.5px;}.cls-2,.cls-4{stroke-miterlimit:10;}.cls-3{fill:#ae8864;}.cls-4{fill:none;stroke:#8b6c42;stroke-width:4px;}.cls-5{fill:#c9ad7f;}.cls-6{fill:#947f60;}.cls-7{fill:#3fbbec;}.cls-8{fill:#cd2027;}</style></defs><title>Distributeur_niveau_1</title><rect class="cls-1" x="70.4" y="77.45" width="56.91" height="166.25" rx="16.79" ry="16.79"/><path class="cls-2" d="M101,247.42a1.72,1.72,0,0,1,.52-0.21,4.91,4.91,0,0,1,.69,0c0.1,0,.66,0,0.77,0a1.33,1.33,0,0,1,.69.28,0.81,0.81,0,0,1,.24.59,0.66,0.66,0,0,1-.24.56,2.45,2.45,0,0,1-.57.32c-0.08,0-.5.1-0.57,0.11a7.22,7.22,0,0,1-1,.09,1.41,1.41,0,0,1-.82-0.23,0.91,0.91,0,0,1-.4-0.48,1,1,0,0,1,.21-0.51c0.11-.12.31-0.37,0.38-0.43A0.28,0.28,0,0,1,101,247.42Z" transform="translate(-28.05 -35.17)"/><path class="cls-2" d="M114.72,246.91a1.72,1.72,0,0,1,.52-0.21,4.91,4.91,0,0,1,.69,0c0.1,0,.66,0,0.77,0a1.33,1.33,0,0,1,.69.28,0.81,0.81,0,0,1,.24.59,0.66,0.66,0,0,1-.24.56,2.45,2.45,0,0,1-.57.32c-0.08,0-.5.1-0.57,0.11a7.22,7.22,0,0,1-1,.09,1.41,1.41,0,0,1-.82-0.23,0.91,0.91,0,0,1-.4-0.48,1,1,0,0,1,.21-0.51c0.11-.12.31-0.37,0.38-0.43A0.28,0.28,0,0,1,114.72,246.91Z" transform="translate(-28.05 -35.17)"/><path class="cls-2" d="M107.56,247.66a10.05,10.05,0,0,1,1.52,0,2,2,0,0,1,.71.23,1,1,0,0,1,.28.55,1.69,1.69,0,0,1,0,.54,1.56,1.56,0,0,1-.44.4,3.62,3.62,0,0,1-.48.22c-0.1,0-.46.11-0.51,0.11a9.85,9.85,0,0,1-1.51-.17,2,2,0,0,1-.91-0.48,1,1,0,0,1,.11-0.79,1.67,1.67,0,0,1,.72-0.51C107.23,247.73,107.56,247.66,107.56,247.66Z" transform="translate(-28.05 -35.17)"/><path class="cls-2" d="M119.64,249.59a10.05,10.05,0,0,1,1.52,0,2,2,0,0,1,.71.23,1,1,0,0,1,.28.55,1.69,1.69,0,0,1,0,.54,1.56,1.56,0,0,1-.44.4,3.62,3.62,0,0,1-.48.22c-0.1,0-.46.11-0.51,0.11a9.85,9.85,0,0,1-1.51-.17,2,2,0,0,1-.91-0.48,1,1,0,0,1,.11-0.79,1.67,1.67,0,0,1,.72-0.51C119.31,249.65,119.64,249.59,119.64,249.59Z" transform="translate(-28.05 -35.17)"/><path class="cls-2" d="M123.48,251.67a10.05,10.05,0,0,1,1.52,0,2,2,0,0,1,.71.23,1,1,0,0,1,.28.55,1.69,1.69,0,0,1,0,.54,1.56,1.56,0,0,1-.44.4,3.62,3.62,0,0,1-.48.22c-0.1,0-.46.11-0.51,0.11a9.85,9.85,0,0,1-1.51-.17,2,2,0,0,1-.91-0.48,1,1,0,0,1,.11-0.79,1.67,1.67,0,0,1,.72-0.51C123.15,251.74,123.48,251.67,123.48,251.67Z" transform="translate(-28.05 -35.17)"/><path class="cls-2" d="M106.44,248.61c-0.17,0-.72.17-1,0.26s-0.57.23-.67,0.27a0.79,0.79,0,0,0-.4.41,3.23,3.23,0,0,0-.09.84,0.5,0.5,0,0,0,.44.48,9.17,9.17,0,0,0,2.12.15,1.43,1.43,0,0,0,1.06-.68,1.19,1.19,0,0,0,0-1,1.74,1.74,0,0,0-1-.68A2.87,2.87,0,0,0,106.44,248.61Z" transform="translate(-28.05 -35.17)"/><path class="cls-2" d="M110.43,249.51a3.07,3.07,0,0,1,1.43-.3,1.5,1.5,0,0,1,1.06.43,1.47,1.47,0,0,1,.23.64,1.79,1.79,0,0,1-.57.68,3.38,3.38,0,0,1-.79.36,2.51,2.51,0,0,1-.79.09,2.72,2.72,0,0,1-1-.17,1.39,1.39,0,0,1-.53-0.64,0.66,0.66,0,0,1,0-.53,3.08,3.08,0,0,1,.65-0.45A1.07,1.07,0,0,1,110.43,249.51Z" transform="translate(-28.05 -35.17)"/><path class="cls-2" d="M113.13,251a3.07,3.07,0,0,1,1.4-.39,1.5,1.5,0,0,1,1.09.36,1.47,1.47,0,0,1,.28.62,1.79,1.79,0,0,1-.53.72,3.38,3.38,0,0,1-.76.41,2.51,2.51,0,0,1-.78.14,2.72,2.72,0,0,1-1.05-.1,1.39,1.39,0,0,1-.57-0.6,0.66,0.66,0,0,1,0-.53,3.08,3.08,0,0,1,.62-0.49A1.07,1.07,0,0,1,113.13,251Z" transform="translate(-28.05 -35.17)"/><path class="cls-2" d="M119.34,247.87a3.07,3.07,0,0,1,1.4-.39,1.5,1.5,0,0,1,1.09.36,1.47,1.47,0,0,1,.28.62,1.79,1.79,0,0,1-.53.72,3.38,3.38,0,0,1-.76.41,2.51,2.51,0,0,1-.78.14,2.72,2.72,0,0,1-1.05-.1,1.39,1.39,0,0,1-.57-0.6,0.66,0.66,0,0,1,0-.53A3.08,3.08,0,0,1,119,248,1.07,1.07,0,0,1,119.34,247.87Z" transform="translate(-28.05 -35.17)"/><path class="cls-2" d="M114.17,256.68a3.07,3.07,0,0,1,1.43-.3,1.5,1.5,0,0,1,1.06.43,1.47,1.47,0,0,1,.23.64,1.79,1.79,0,0,1-.57.68,3.38,3.38,0,0,1-.79.36,2.51,2.51,0,0,1-.79.09,2.72,2.72,0,0,1-1-.17,1.39,1.39,0,0,1-.53-0.64,0.66,0.66,0,0,1,0-.53,3.08,3.08,0,0,1,.65-0.45A1.07,1.07,0,0,1,114.17,256.68Z" transform="translate(-28.05 -35.17)"/><path class="cls-2" d="M101.88,250.83a2.71,2.71,0,0,1,.83,0,1.85,1.85,0,0,1,1,.43,2.2,2.2,0,0,1,.45.85,1.53,1.53,0,0,1-.43.7,3.07,3.07,0,0,1-1.17.3,9.65,9.65,0,0,1-1.57-.19,1.5,1.5,0,0,1-.67-0.43,1.06,1.06,0,0,1-.23-0.85,0.76,0.76,0,0,1,.51-0.61A6.54,6.54,0,0,1,101.88,250.83Z" transform="translate(-28.05 -35.17)"/><path class="cls-2" d="M108.62,249.68a1.8,1.8,0,0,1,.68.15c0.28,0.11.64,0.26,0.81,0.34a0.76,0.76,0,0,1,.49.57,1.22,1.22,0,0,1-.15.81,2.62,2.62,0,0,1-1,.19,6.53,6.53,0,0,1-1.28-.13,2.1,2.1,0,0,1-1.13-.79,0.72,0.72,0,0,1,.3-0.81,1.94,1.94,0,0,1,.85-0.34A2.27,2.27,0,0,1,108.62,249.68Z" transform="translate(-28.05 -35.17)"/><path class="cls-2" d="M130.5,254a10.05,10.05,0,0,1,1.52,0,2,2,0,0,1,.71.23,1,1,0,0,1,.28.55,1.69,1.69,0,0,1,0,.54,1.56,1.56,0,0,1-.44.4,3.62,3.62,0,0,1-.48.22c-0.1,0-.46.11-0.51,0.11a9.85,9.85,0,0,1-1.51-.17,2,2,0,0,1-.91-0.48,1,1,0,0,1,.11-0.79,1.67,1.67,0,0,1,.72-0.51C130.17,254.08,130.5,254,130.5,254Z" transform="translate(-28.05 -35.17)"/><path class="cls-2" d="M129.38,255c-0.17,0-.72.17-1,0.26s-0.57.23-.67,0.27a0.79,0.79,0,0,0-.4.41,3.23,3.23,0,0,0-.09.84,0.5,0.5,0,0,0,.44.48,9.17,9.17,0,0,0,2.12.15,1.43,1.43,0,0,0,1.06-.68,1.19,1.19,0,0,0,0-1,1.74,1.74,0,0,0-1-.68A2.87,2.87,0,0,0,129.38,255Z" transform="translate(-28.05 -35.17)"/><path class="cls-2" d="M133.37,255.86a3.07,3.07,0,0,1,1.43-.3,1.5,1.5,0,0,1,1.06.43,1.47,1.47,0,0,1,.23.64,1.79,1.79,0,0,1-.57.68,3.38,3.38,0,0,1-.79.36,2.51,2.51,0,0,1-.79.09,2.72,2.72,0,0,1-1-.17,1.39,1.39,0,0,1-.53-0.64,0.66,0.66,0,0,1,0-.53A3.08,3.08,0,0,1,133,256,1.07,1.07,0,0,1,133.37,255.86Z" transform="translate(-28.05 -35.17)"/><path class="cls-2" d="M131.56,256a1.8,1.8,0,0,1,.68.15c0.28,0.11.64,0.26,0.81,0.34a0.76,0.76,0,0,1,.49.57,1.22,1.22,0,0,1-.15.81,2.62,2.62,0,0,1-1,.19,6.53,6.53,0,0,1-1.28-.13,2.1,2.1,0,0,1-1.13-.79,0.72,0.72,0,0,1,.3-0.81,1.94,1.94,0,0,1,.85-0.34A2.27,2.27,0,0,1,131.56,256Z" transform="translate(-28.05 -35.17)"/><path class="cls-2" d="M128.53,252.14a1.8,1.8,0,0,1,.68.15c0.28,0.11.64,0.26,0.81,0.34a0.76,0.76,0,0,1,.49.57,1.22,1.22,0,0,1-.15.81,2.62,2.62,0,0,1-1,.19,6.53,6.53,0,0,1-1.28-.13,2.1,2.1,0,0,1-1.13-.79,0.72,0.72,0,0,1,.3-0.81,1.94,1.94,0,0,1,.85-0.34A2.27,2.27,0,0,1,128.53,252.14Z" transform="translate(-28.05 -35.17)"/><path class="cls-2" d="M107.28,250.71a3,3,0,0,0-1.43-.33,4.38,4.38,0,0,0-1.44.33,0.72,0.72,0,0,0-.38.84,1.44,1.44,0,0,0,.72.87,3.14,3.14,0,0,0,1.6.13,1.39,1.39,0,0,0,1.28-.68,0.82,0.82,0,0,0,0-.92A1,1,0,0,0,107.28,250.71Z" transform="translate(-28.05 -35.17)"/><path class="cls-2" d="M147.59,236.64a3,3,0,0,0-1.43-.33,4.38,4.38,0,0,0-1.44.33,0.72,0.72,0,0,0-.38.84,1.44,1.44,0,0,0,.72.87,3.14,3.14,0,0,0,1.6.13,1.39,1.39,0,0,0,1.28-.68,0.82,0.82,0,0,0,0-.92A1,1,0,0,0,147.59,236.64Z" transform="translate(-28.05 -35.17)"/><path class="cls-2" d="M109.41,252a2,2,0,0,1,1.17.41,1.44,1.44,0,0,1,.23.59,1.05,1.05,0,0,1-.38.75,2.61,2.61,0,0,1-1,.47,3.56,3.56,0,0,1-1.17.13,1.51,1.51,0,0,1-.86-0.38,1.34,1.34,0,0,1-.23-0.78,1.14,1.14,0,0,1,.66-0.83,5.82,5.82,0,0,1,1.06-.3A2.29,2.29,0,0,0,109.41,252Z" transform="translate(-28.05 -35.17)"/><path class="cls-2" d="M99.2,253.66a3.32,3.32,0,0,1,1.32-.47,2.85,2.85,0,0,1,1.49.47,3.11,3.11,0,0,1,0,1.47,3.48,3.48,0,0,1-1.36.6,4,4,0,0,1-1.64-.06,1.13,1.13,0,0,1-.55-1A2.6,2.6,0,0,1,99.2,253.66Z" transform="translate(-28.05 -35.17)"/><path class="cls-2" d="M105.62,258.59a6.49,6.49,0,0,1,1.13,0,0.88,0.88,0,0,1,.64.51,1.32,1.32,0,0,1,0,.77,2.37,2.37,0,0,1-1,.51,4,4,0,0,1-1.13,0,1.14,1.14,0,0,1-.89-0.4,0.75,0.75,0,0,1,.15-1A4.67,4.67,0,0,1,105.62,258.59Z" transform="translate(-28.05 -35.17)"/><path class="cls-2" d="M110.81,257.72a2.82,2.82,0,0,1,1.66.13,1.11,1.11,0,0,1,.36,1,1.69,1.69,0,0,1-1,.69,4.73,4.73,0,0,1-1.74,0c-0.51-.07-0.85-0.37-0.72-0.79A1.18,1.18,0,0,1,110,258,7.12,7.12,0,0,1,110.81,257.72Z" transform="translate(-28.05 -35.17)"/><path class="cls-2" d="M107.82,256.19a3.41,3.41,0,0,1,1.14-.41,2.69,2.69,0,0,1,1.38.11c0.19,0.19.79,0.13,0.7,0.74a1,1,0,0,1-.68.85A3.17,3.17,0,0,1,109,258a6.18,6.18,0,0,1-1.54,0,0.75,0.75,0,0,1-.59-0.79A1.56,1.56,0,0,1,107.82,256.19Z" transform="translate(-28.05 -35.17)"/><path class="cls-2" d="M104.59,254.47a9.48,9.48,0,0,1,1,.06,2.85,2.85,0,0,1,.78.2,2.5,2.5,0,0,1,.4.38,1.49,1.49,0,0,1,.32.52,1,1,0,0,1-.3.74,3,3,0,0,1-1.22.34,5.67,5.67,0,0,1-1.64-.26,1.44,1.44,0,0,1-.77-0.66,1.2,1.2,0,0,1,.43-1.07A2.53,2.53,0,0,1,104.59,254.47Z" transform="translate(-28.05 -35.17)"/><path class="cls-2" d="M111.86,252.59a9.48,9.48,0,0,1,1,.06,2.85,2.85,0,0,1,.78.2,2.5,2.5,0,0,1,.4.38,1.49,1.49,0,0,1,.32.52,1,1,0,0,1-.3.74,3,3,0,0,1-1.22.34,5.67,5.67,0,0,1-1.64-.26,1.44,1.44,0,0,1-.77-0.66,1.2,1.2,0,0,1,.43-1.07A2.53,2.53,0,0,1,111.86,252.59Z" transform="translate(-28.05 -35.17)"/><path class="cls-2" d="M125.5,253.17a9.48,9.48,0,0,1,1,.06,2.85,2.85,0,0,1,.78.2,2.5,2.5,0,0,1,.4.38,1.49,1.49,0,0,1,.32.52,1,1,0,0,1-.3.74,3,3,0,0,1-1.22.34,5.67,5.67,0,0,1-1.64-.26,1.44,1.44,0,0,1-.77-0.66,1.2,1.2,0,0,1,.43-1.07A2.53,2.53,0,0,1,125.5,253.17Z" transform="translate(-28.05 -35.17)"/><path class="cls-2" d="M117.14,252.71a9.48,9.48,0,0,1,1,.06,2.85,2.85,0,0,1,.78.2,2.5,2.5,0,0,1,.4.38,1.49,1.49,0,0,1,.32.52,1,1,0,0,1-.3.74,3,3,0,0,1-1.22.34,5.67,5.67,0,0,1-1.64-.26,1.44,1.44,0,0,1-.77-0.66,1.2,1.2,0,0,1,.43-1.07A2.53,2.53,0,0,1,117.14,252.71Z" transform="translate(-28.05 -35.17)"/><path class="cls-2" d="M122,255.75a9.48,9.48,0,0,1,.89.38,2.85,2.85,0,0,1,.67.45,2.5,2.5,0,0,1,.25.49,1.49,1.49,0,0,1,.13.59,1,1,0,0,1-.53.6,3,3,0,0,1-1.26-.09,5.67,5.67,0,0,1-1.46-.79,1.44,1.44,0,0,1-.51-0.88,1.2,1.2,0,0,1,.77-0.87A2.53,2.53,0,0,1,122,255.75Z" transform="translate(-28.05 -35.17)"/><path class="cls-2" d="M117.83,255.59a9.48,9.48,0,0,1,1,.06,2.85,2.85,0,0,1,.78.2,2.5,2.5,0,0,1,.4.38,1.49,1.49,0,0,1,.32.52,1,1,0,0,1-.3.74,3,3,0,0,1-1.22.34,5.67,5.67,0,0,1-1.64-.26,1.44,1.44,0,0,1-.77-0.66,1.2,1.2,0,0,1,.43-1.07A2.53,2.53,0,0,1,117.83,255.59Z" transform="translate(-28.05 -35.17)"/><path class="cls-2" d="M117.14,250.1a9.48,9.48,0,0,1,1,.06,2.85,2.85,0,0,1,.78.2,2.5,2.5,0,0,1,.4.38,1.49,1.49,0,0,1,.32.52,1,1,0,0,1-.3.74,3,3,0,0,1-1.22.34,5.67,5.67,0,0,1-1.64-.26,1.44,1.44,0,0,1-.77-0.66,1.2,1.2,0,0,1,.43-1.07A2.53,2.53,0,0,1,117.14,250.1Z" transform="translate(-28.05 -35.17)"/><path class="cls-2" d="M109.66,254.55a4,4,0,0,1,1.6-.26,2,2,0,0,1,1.42.53,1.37,1.37,0,0,1,.43.81,1,1,0,0,1-.89.77,6.18,6.18,0,0,1-1.4,0,6,6,0,0,1-1.15-.34,1,1,0,0,1-.3-0.79A2.21,2.21,0,0,1,109.66,254.55Z" transform="translate(-28.05 -35.17)"/><path class="cls-2" d="M144.35,252.74a3.07,3.07,0,0,1,1.43-.3,1.5,1.5,0,0,1,1.06.43,1.47,1.47,0,0,1,.23.64,1.79,1.79,0,0,1-.57.68,3.38,3.38,0,0,1-.79.36,2.51,2.51,0,0,1-.79.09,2.72,2.72,0,0,1-1-.17,1.39,1.39,0,0,1-.53-0.64,0.66,0.66,0,0,1,0-.53,3.08,3.08,0,0,1,.65-0.45A1.07,1.07,0,0,1,144.35,252.74Z" transform="translate(-28.05 -35.17)"/><path class="cls-2" d="M141,253.78a2.82,2.82,0,0,1,1.66.13,1.11,1.11,0,0,1,.36,1,1.69,1.69,0,0,1-1,.69,4.73,4.73,0,0,1-1.74,0c-0.51-.07-0.85-0.37-0.72-0.79a1.18,1.18,0,0,1,.64-0.79A7.12,7.12,0,0,1,141,253.78Z" transform="translate(-28.05 -35.17)"/><path class="cls-2" d="M142,248.65a9.48,9.48,0,0,1,1,.06,2.85,2.85,0,0,1,.78.2,2.5,2.5,0,0,1,.4.38,1.49,1.49,0,0,1,.32.52,1,1,0,0,1-.3.74,3,3,0,0,1-1.22.34,5.67,5.67,0,0,1-1.64-.26,1.44,1.44,0,0,1-.77-0.66,1.2,1.2,0,0,1,.43-1.07A2.53,2.53,0,0,1,142,248.65Z" transform="translate(-28.05 -35.17)"/><path class="cls-2" d="M147.31,248.77a9.48,9.48,0,0,1,1,.06,2.85,2.85,0,0,1,.78.2,2.5,2.5,0,0,1,.4.38,1.49,1.49,0,0,1,.32.52,1,1,0,0,1-.3.74,3,3,0,0,1-1.22.34,5.67,5.67,0,0,1-1.64-.26,1.44,1.44,0,0,1-.77-0.66,1.2,1.2,0,0,1,.43-1.07A2.53,2.53,0,0,1,147.31,248.77Z" transform="translate(-28.05 -35.17)"/><path class="cls-2" d="M152.18,251.81a9.48,9.48,0,0,1,.89.38,2.85,2.85,0,0,1,.67.45,2.5,2.5,0,0,1,.25.49,1.49,1.49,0,0,1,.13.59,1,1,0,0,1-.53.6,3,3,0,0,1-1.26-.09,5.67,5.67,0,0,1-1.46-.79,1.44,1.44,0,0,1-.51-0.88,1.2,1.2,0,0,1,.77-0.87A2.53,2.53,0,0,1,152.18,251.81Z" transform="translate(-28.05 -35.17)"/><path class="cls-2" d="M148,251.65a9.48,9.48,0,0,1,1,.06,2.85,2.85,0,0,1,.78.2,2.5,2.5,0,0,1,.4.38,1.49,1.49,0,0,1,.32.52,1,1,0,0,1-.3.74,3,3,0,0,1-1.22.34,5.67,5.67,0,0,1-1.64-.26,1.44,1.44,0,0,1-.77-0.66,1.2,1.2,0,0,1,.43-1.07A2.53,2.53,0,0,1,148,251.65Z" transform="translate(-28.05 -35.17)"/><path class="cls-2" d="M139.84,250.61a4,4,0,0,1,1.6-.26,2,2,0,0,1,1.42.53,1.37,1.37,0,0,1,.43.81,1,1,0,0,1-.89.77,6.18,6.18,0,0,1-1.4,0,6,6,0,0,1-1.15-.34,1,1,0,0,1-.3-0.79A2.21,2.21,0,0,1,139.84,250.61Z" transform="translate(-28.05 -35.17)"/><path class="cls-2" d="M121.37,254.16a4,4,0,0,1,1.6-.26,2,2,0,0,1,1.42.53,1.37,1.37,0,0,1,.43.81,1,1,0,0,1-.89.77,6.18,6.18,0,0,1-1.4,0,6,6,0,0,1-1.15-.34,1,1,0,0,1-.3-0.79A2.21,2.21,0,0,1,121.37,254.16Z" transform="translate(-28.05 -35.17)"/><path class="cls-2" d="M125.33,256.08a4,4,0,0,1,1.6-.26,2,2,0,0,1,1.42.53,1.37,1.37,0,0,1,.43.81,1,1,0,0,1-.89.77,6.18,6.18,0,0,1-1.4,0,6,6,0,0,1-1.15-.34,1,1,0,0,1-.3-0.79A2.21,2.21,0,0,1,125.33,256.08Z" transform="translate(-28.05 -35.17)"/><path class="cls-2" d="M109.37,254.38a0.93,0.93,0,0,1,.42.83,1.1,1.1,0,0,1-.86.57,4.66,4.66,0,0,1-1.78-.21,1.42,1.42,0,0,1-1-.77,0.92,0.92,0,0,1,.56-0.9A3.21,3.21,0,0,1,109.37,254.38Z" transform="translate(-28.05 -35.17)"/><path class="cls-2" d="M140.3,240.73a3.62,3.62,0,0,1,1.11.11,0.69,0.69,0,0,1,.45.43,1,1,0,0,1,0,.77,2,2,0,0,1-1,.51,4.74,4.74,0,0,1-1.3.09,1,1,0,0,1-.9-0.32,0.6,0.6,0,0,1,0-.94,2.49,2.49,0,0,1,1.22-.64h0.45Z" transform="translate(-28.05 -35.17)"/><path class="cls-2" d="M143.9,252.76a1.72,1.72,0,0,1,.52-0.21,4.91,4.91,0,0,1,.69,0c0.1,0,.66,0,0.77,0a1.33,1.33,0,0,1,.69.28,0.81,0.81,0,0,1,.24.59,0.66,0.66,0,0,1-.24.56,2.45,2.45,0,0,1-.57.32c-0.08,0-.5.1-0.57,0.11a7.22,7.22,0,0,1-1,.09,1.41,1.41,0,0,1-.82-0.23,0.91,0.91,0,0,1-.4-0.48,1,1,0,0,1,.21-0.51c0.11-.12.31-0.37,0.38-0.43A0.28,0.28,0,0,1,143.9,252.76Z" transform="translate(-28.05 -35.17)"/><path class="cls-2" d="M136.74,253.52a10.05,10.05,0,0,1,1.52,0,2,2,0,0,1,.71.23,1,1,0,0,1,.28.55,1.69,1.69,0,0,1,0,.54,1.56,1.56,0,0,1-.44.4,3.62,3.62,0,0,1-.48.22c-0.1,0-.46.11-0.51,0.11a9.85,9.85,0,0,1-1.51-.17,2,2,0,0,1-.91-0.48,1,1,0,0,1,.11-0.79,1.67,1.67,0,0,1,.72-0.51C136.42,253.58,136.74,253.52,136.74,253.52Z" transform="translate(-28.05 -35.17)"/><path class="cls-2" d="M135.62,254.47c-0.17,0-.72.17-1,0.26s-0.57.23-.67,0.27a0.79,0.79,0,0,0-.4.41,3.23,3.23,0,0,0-.09.84,0.5,0.5,0,0,0,.44.48,9.17,9.17,0,0,0,2.12.15,1.43,1.43,0,0,0,1.06-.68,1.19,1.19,0,0,0,0-1,1.74,1.74,0,0,0-1-.68A2.87,2.87,0,0,0,135.62,254.47Z" transform="translate(-28.05 -35.17)"/><path class="cls-2" d="M139.61,255.36a3.07,3.07,0,0,1,1.43-.3,1.5,1.5,0,0,1,1.06.43,1.47,1.47,0,0,1,.23.64,1.79,1.79,0,0,1-.57.68,3.38,3.38,0,0,1-.79.36,2.51,2.51,0,0,1-.79.09,2.72,2.72,0,0,1-1-.17,1.39,1.39,0,0,1-.53-0.64,0.66,0.66,0,0,1,0-.53,3.08,3.08,0,0,1,.65-0.45A1.07,1.07,0,0,1,139.61,255.36Z" transform="translate(-28.05 -35.17)"/><path class="cls-2" d="M142.32,256.87a3.07,3.07,0,0,1,1.4-.39,1.5,1.5,0,0,1,1.09.36,1.47,1.47,0,0,1,.28.62,1.79,1.79,0,0,1-.53.72,3.38,3.38,0,0,1-.76.41,2.51,2.51,0,0,1-.78.14,2.72,2.72,0,0,1-1.05-.1,1.39,1.39,0,0,1-.57-0.6,0.66,0.66,0,0,1,0-.53A3.08,3.08,0,0,1,142,257,1.07,1.07,0,0,1,142.32,256.87Z" transform="translate(-28.05 -35.17)"/><path class="cls-2" d="M137.81,255.53a1.8,1.8,0,0,1,.68.15c0.28,0.11.64,0.26,0.81,0.34a0.76,0.76,0,0,1,.49.57,1.22,1.22,0,0,1-.15.81,2.62,2.62,0,0,1-1,.19,6.53,6.53,0,0,1-1.28-.13,2.1,2.1,0,0,1-1.13-.79,0.72,0.72,0,0,1,.3-0.81,1.94,1.94,0,0,1,.85-0.34A2.27,2.27,0,0,1,137.81,255.53Z" transform="translate(-28.05 -35.17)"/><path class="cls-2" d="M136.47,256.56a3,3,0,0,0-1.43-.33,4.38,4.38,0,0,0-1.44.33,0.72,0.72,0,0,0-.38.84,1.44,1.44,0,0,0,.72.87,3.14,3.14,0,0,0,1.6.13,1.39,1.39,0,0,0,1.28-.68,0.82,0.82,0,0,0,0-.92A1,1,0,0,0,136.47,256.56Z" transform="translate(-28.05 -35.17)"/><path class="cls-2" d="M138.59,257.86a2,2,0,0,1,1.17.41,1.44,1.44,0,0,1,.23.59,1.05,1.05,0,0,1-.38.75,2.61,2.61,0,0,1-1,.47,3.56,3.56,0,0,1-1.17.13,1.51,1.51,0,0,1-.86-0.38,1.34,1.34,0,0,1-.23-0.78,1.14,1.14,0,0,1,.66-0.83,5.82,5.82,0,0,1,1.06-.3A2.29,2.29,0,0,0,138.59,257.86Z" transform="translate(-28.05 -35.17)"/><path class="cls-2" d="M136.7,257a3.62,3.62,0,0,1,1.11.11,0.69,0.69,0,0,1,.45.43,1,1,0,0,1,0,.77,2,2,0,0,1-1,.51,4.74,4.74,0,0,1-1.3.09,1,1,0,0,1-.9-0.32,0.6,0.6,0,0,1,0-.94,2.49,2.49,0,0,1,1.22-.64h0.45Z" transform="translate(-28.05 -35.17)"/><path class="cls-2" d="M102.22,255.78a2.61,2.61,0,0,1,1.77.43,1.54,1.54,0,0,1,.59,1,1.34,1.34,0,0,1-.9.92,7.23,7.23,0,0,1-2-.23,3.3,3.3,0,0,1-1-.4,1,1,0,0,1-.13-1,1.34,1.34,0,0,1,.89-0.66Z" transform="translate(-28.05 -35.17)"/><path class="cls-2" d="M102.15,252.89a4.9,4.9,0,0,1,1.83-.72,2.71,2.71,0,0,1,1.53.51,1.12,1.12,0,0,1,.36.94,2.13,2.13,0,0,1-.66.87,3.78,3.78,0,0,1-1.61.49,3,3,0,0,1-1.62-.49,1,1,0,0,1-.47-1A2.44,2.44,0,0,1,102.15,252.89Z" transform="translate(-28.05 -35.17)"/><path class="cls-2" d="M145.44,239.81c-0.17,0-.72.17-1,0.26s-0.57.23-.67,0.27a0.79,0.79,0,0,0-.4.41,3.23,3.23,0,0,0-.09.84,0.5,0.5,0,0,0,.44.48,9.17,9.17,0,0,0,2.12.15,1.43,1.43,0,0,0,1.06-.68,1.19,1.19,0,0,0,0-1,1.74,1.74,0,0,0-1-.68A2.87,2.87,0,0,0,145.44,239.81Z" transform="translate(-28.05 -35.17)"/><path class="cls-2" d="M147.56,254.61a2.71,2.71,0,0,1,.83,0,1.85,1.85,0,0,1,1,.43,2.2,2.2,0,0,1,.45.85,1.53,1.53,0,0,1-.43.7,3.07,3.07,0,0,1-1.17.3,9.65,9.65,0,0,1-1.57-.19,1.5,1.5,0,0,1-.67-0.43,1.06,1.06,0,0,1-.23-0.85,0.76,0.76,0,0,1,.51-0.61A6.54,6.54,0,0,1,147.56,254.61Z" transform="translate(-28.05 -35.17)"/><path class="cls-2" d="M144.88,257.44a3.32,3.32,0,0,1,1.32-.47,2.85,2.85,0,0,1,1.49.47,3.11,3.11,0,0,1,0,1.47,3.48,3.48,0,0,1-1.36.6,4,4,0,0,1-1.64-.06,1.13,1.13,0,0,1-.55-1A2.6,2.6,0,0,1,144.88,257.44Z" transform="translate(-28.05 -35.17)"/><path class="cls-2" d="M151.3,262.37a6.49,6.49,0,0,1,1.13,0,0.88,0.88,0,0,1,.64.51,1.32,1.32,0,0,1,0,.77,2.37,2.37,0,0,1-1,.51,4,4,0,0,1-1.13,0,1.14,1.14,0,0,1-.89-0.4,0.75,0.75,0,0,1,.15-1A4.67,4.67,0,0,1,151.3,262.37Z" transform="translate(-28.05 -35.17)"/><path class="cls-2" d="M150.28,258.25a9.48,9.48,0,0,1,1,.06,2.85,2.85,0,0,1,.78.2,2.5,2.5,0,0,1,.4.38,1.49,1.49,0,0,1,.32.52,1,1,0,0,1-.3.74,3,3,0,0,1-1.22.34,5.67,5.67,0,0,1-1.64-.26,1.44,1.44,0,0,1-.77-0.66,1.2,1.2,0,0,1,.43-1.07A2.53,2.53,0,0,1,150.28,258.25Z" transform="translate(-28.05 -35.17)"/><path class="cls-2" d="M147.9,259.56a2.61,2.61,0,0,1,1.77.43,1.54,1.54,0,0,1,.59,1,1.34,1.34,0,0,1-.9.92,7.23,7.23,0,0,1-2-.23,3.3,3.3,0,0,1-1-.4,1,1,0,0,1-.13-1,1.34,1.34,0,0,1,.89-0.66Z" transform="translate(-28.05 -35.17)"/><path class="cls-2" d="M147.84,256.67a4.9,4.9,0,0,1,1.83-.72,2.71,2.71,0,0,1,1.53.51,1.12,1.12,0,0,1,.36.94,2.13,2.13,0,0,1-.66.87,3.78,3.78,0,0,1-1.61.49,3,3,0,0,1-1.62-.49,1,1,0,0,1-.47-1A2.44,2.44,0,0,1,147.84,256.67Z" transform="translate(-28.05 -35.17)"/><path class="cls-2" d="M138.2,247.19a2,2,0,0,1,1.17.41,1.44,1.44,0,0,1,.23.59,1.05,1.05,0,0,1-.38.75,2.61,2.61,0,0,1-1,.47,3.56,3.56,0,0,1-1.17.13,1.51,1.51,0,0,1-.86-0.38,1.34,1.34,0,0,1-.23-0.78,1.14,1.14,0,0,1,.66-0.83,5.82,5.82,0,0,1,1.06-.3A2.29,2.29,0,0,0,138.2,247.19Z" transform="translate(-28.05 -35.17)"/><path class="cls-2" d="M128,248.84a3.32,3.32,0,0,1,1.32-.47,2.85,2.85,0,0,1,1.49.47,3.11,3.11,0,0,1,0,1.47,3.48,3.48,0,0,1-1.36.6,4,4,0,0,1-1.64-.06,1.13,1.13,0,0,1-.55-1A2.6,2.6,0,0,1,128,248.84Z" transform="translate(-28.05 -35.17)"/><path class="cls-2" d="M134.41,253.78a6.49,6.49,0,0,1,1.13,0,0.88,0.88,0,0,1,.64.51,1.32,1.32,0,0,1,0,.77,2.37,2.37,0,0,1-1,.51,4,4,0,0,1-1.13,0,1.14,1.14,0,0,1-.89-0.4,0.75,0.75,0,0,1,.15-1A4.67,4.67,0,0,1,134.41,253.78Z" transform="translate(-28.05 -35.17)"/><path class="cls-2" d="M134.47,246.86a3.07,3.07,0,0,1,1.43-.3A1.5,1.5,0,0,1,137,247a1.47,1.47,0,0,1,.23.64,1.79,1.79,0,0,1-.57.68,3.38,3.38,0,0,1-.79.36,2.51,2.51,0,0,1-.79.09,2.72,2.72,0,0,1-1-.17,1.39,1.39,0,0,1-.53-0.64,0.66,0.66,0,0,1,0-.53,3.08,3.08,0,0,1,.65-0.45A1.07,1.07,0,0,1,134.47,246.86Z" transform="translate(-28.05 -35.17)"/><path class="cls-2" d="M150.8,244.19a10.05,10.05,0,0,1,1.52,0,2,2,0,0,1,.71.23,1,1,0,0,1,.28.55,1.69,1.69,0,0,1,0,.54,1.56,1.56,0,0,1-.44.4,3.62,3.62,0,0,1-.48.22c-0.1,0-.46.11-0.51,0.11a9.85,9.85,0,0,1-1.51-.17,2,2,0,0,1-.91-0.48,1,1,0,0,1,.11-0.79,1.67,1.67,0,0,1,.72-0.51C150.47,244.26,150.8,244.19,150.8,244.19Z" transform="translate(-28.05 -35.17)"/><path class="cls-2" d="M149.68,245.15c-0.17,0-.72.17-1,0.26s-0.57.23-.67,0.27a0.79,0.79,0,0,0-.4.41,3.23,3.23,0,0,0-.09.84,0.5,0.5,0,0,0,.44.48,9.17,9.17,0,0,0,2.12.15,1.43,1.43,0,0,0,1.06-.68,1.19,1.19,0,0,0,0-1,1.74,1.74,0,0,0-1-.68A2.87,2.87,0,0,0,149.68,245.15Z" transform="translate(-28.05 -35.17)"/><path class="cls-2" d="M151.86,246.21a1.8,1.8,0,0,1,.68.15c0.28,0.11.64,0.26,0.81,0.34a0.76,0.76,0,0,1,.49.57,1.22,1.22,0,0,1-.15.81,2.62,2.62,0,0,1-1,.19,6.53,6.53,0,0,1-1.28-.13,2.1,2.1,0,0,1-1.13-.79,0.72,0.72,0,0,1,.3-0.81,1.94,1.94,0,0,1,.85-0.34A2.27,2.27,0,0,1,151.86,246.21Z" transform="translate(-28.05 -35.17)"/><path class="cls-2" d="M148.83,242.32a1.8,1.8,0,0,1,.68.15c0.28,0.11.64,0.26,0.81,0.34a0.76,0.76,0,0,1,.49.57,1.22,1.22,0,0,1-.15.81,2.62,2.62,0,0,1-1,.19,6.53,6.53,0,0,1-1.28-.13,2.1,2.1,0,0,1-1.13-.79,0.72,0.72,0,0,1,.3-0.81,1.94,1.94,0,0,1,.85-0.34A2.27,2.27,0,0,1,148.83,242.32Z" transform="translate(-28.05 -35.17)"/><path class="cls-2" d="M129.71,242.19a2,2,0,0,1,1.17.41,1.44,1.44,0,0,1,.23.59,1.05,1.05,0,0,1-.38.75,2.61,2.61,0,0,1-1,.47,3.56,3.56,0,0,1-1.17.13,1.51,1.51,0,0,1-.86-0.38,1.34,1.34,0,0,1-.23-0.78,1.14,1.14,0,0,1,.66-0.83,5.82,5.82,0,0,1,1.06-.3A2.29,2.29,0,0,0,129.71,242.19Z" transform="translate(-28.05 -35.17)"/><path class="cls-2" d="M131.11,247.9a2.82,2.82,0,0,1,1.66.13,1.11,1.11,0,0,1,.36,1,1.69,1.69,0,0,1-1,.69,4.73,4.73,0,0,1-1.74,0c-0.51-.07-0.85-0.37-0.72-0.79a1.18,1.18,0,0,1,.64-0.79A7.12,7.12,0,0,1,131.11,247.9Z" transform="translate(-28.05 -35.17)"/><path class="cls-2" d="M128.12,246.37a3.41,3.41,0,0,1,1.14-.41,2.69,2.69,0,0,1,1.38.11c0.19,0.19.79,0.13,0.7,0.74a1,1,0,0,1-.68.85,3.17,3.17,0,0,1-1.32.51,6.18,6.18,0,0,1-1.54,0,0.75,0.75,0,0,1-.59-0.79A1.56,1.56,0,0,1,128.12,246.37Z" transform="translate(-28.05 -35.17)"/><path class="cls-2" d="M132.16,242.76a9.48,9.48,0,0,1,1,.06,2.85,2.85,0,0,1,.78.2,2.5,2.5,0,0,1,.4.38,1.49,1.49,0,0,1,.32.52,1,1,0,0,1-.3.74,3,3,0,0,1-1.22.34,5.67,5.67,0,0,1-1.64-.26,1.44,1.44,0,0,1-.77-0.66,1.2,1.2,0,0,1,.43-1.07A2.53,2.53,0,0,1,132.16,242.76Z" transform="translate(-28.05 -35.17)"/><path class="cls-2" d="M145.8,243.35a9.48,9.48,0,0,1,1,.06,2.85,2.85,0,0,1,.78.2,2.5,2.5,0,0,1,.4.38,1.49,1.49,0,0,1,.32.52,1,1,0,0,1-.3.74,3,3,0,0,1-1.22.34,5.67,5.67,0,0,1-1.64-.26,1.44,1.44,0,0,1-.77-0.66,1.2,1.2,0,0,1,.43-1.07A2.53,2.53,0,0,1,145.8,243.35Z" transform="translate(-28.05 -35.17)"/><path class="cls-2" d="M137.44,242.88a9.48,9.48,0,0,1,1,.06,2.85,2.85,0,0,1,.78.2,2.5,2.5,0,0,1,.4.38,1.49,1.49,0,0,1,.32.52,1,1,0,0,1-.3.74,3,3,0,0,1-1.22.34,5.67,5.67,0,0,1-1.64-.26,1.44,1.44,0,0,1-.77-0.66,1.2,1.2,0,0,1,.43-1.07A2.53,2.53,0,0,1,137.44,242.88Z" transform="translate(-28.05 -35.17)"/><path class="cls-2" d="M142.31,245.93a9.48,9.48,0,0,1,.89.38,2.85,2.85,0,0,1,.67.45,2.5,2.5,0,0,1,.25.49,1.49,1.49,0,0,1,.13.59,1,1,0,0,1-.53.6,3,3,0,0,1-1.26-.09,5.67,5.67,0,0,1-1.46-.79,1.44,1.44,0,0,1-.51-0.88,1.2,1.2,0,0,1,.77-0.87A2.53,2.53,0,0,1,142.31,245.93Z" transform="translate(-28.05 -35.17)"/><path class="cls-2" d="M138.13,245.77a9.48,9.48,0,0,1,1,.06,2.85,2.85,0,0,1,.78.2,2.5,2.5,0,0,1,.4.38,1.49,1.49,0,0,1,.32.52,1,1,0,0,1-.3.74,3,3,0,0,1-1.22.34,5.67,5.67,0,0,1-1.64-.26,1.44,1.44,0,0,1-.77-0.66,1.2,1.2,0,0,1,.43-1.07A2.53,2.53,0,0,1,138.13,245.77Z" transform="translate(-28.05 -35.17)"/><path class="cls-2" d="M130,244.73a4,4,0,0,1,1.6-.26A2,2,0,0,1,133,245a1.37,1.37,0,0,1,.43.81,1,1,0,0,1-.89.77,6.18,6.18,0,0,1-1.4,0,6,6,0,0,1-1.15-.34,1,1,0,0,1-.3-0.79A2.21,2.21,0,0,1,130,244.73Z" transform="translate(-28.05 -35.17)"/><path class="cls-2" d="M141.67,244.33a4,4,0,0,1,1.6-.26,2,2,0,0,1,1.42.53,1.37,1.37,0,0,1,.43.81,1,1,0,0,1-.89.77,6.18,6.18,0,0,1-1.4,0,6,6,0,0,1-1.15-.34,1,1,0,0,1-.3-0.79A2.21,2.21,0,0,1,141.67,244.33Z" transform="translate(-28.05 -35.17)"/><path class="cls-2" d="M145.63,246.25a4,4,0,0,1,1.6-.26,2,2,0,0,1,1.42.53,1.37,1.37,0,0,1,.43.81,1,1,0,0,1-.89.77,6.18,6.18,0,0,1-1.4,0,6,6,0,0,1-1.15-.34,1,1,0,0,1-.3-0.79A2.21,2.21,0,0,1,145.63,246.25Z" transform="translate(-28.05 -35.17)"/><path class="cls-2" d="M129.67,244.56a0.93,0.93,0,0,1,.42.83,1.1,1.1,0,0,1-.86.57,4.66,4.66,0,0,1-1.78-.21,1.42,1.42,0,0,1-1-.77,0.92,0.92,0,0,1,.56-0.9A3.21,3.21,0,0,1,129.67,244.56Z" transform="translate(-28.05 -35.17)"/><path class="cls-2" d="M136.61,251.37a3.41,3.41,0,0,1,1.14-.41,2.69,2.69,0,0,1,1.38.11c0.19,0.19.79,0.13,0.7,0.74a1,1,0,0,1-.68.85,3.17,3.17,0,0,1-1.32.51,6.18,6.18,0,0,1-1.54,0,0.75,0.75,0,0,1-.59-0.79A1.56,1.56,0,0,1,136.61,251.37Z" transform="translate(-28.05 -35.17)"/><path class="cls-2" d="M133.39,249.66a9.48,9.48,0,0,1,1,.06,2.85,2.85,0,0,1,.78.2,2.5,2.5,0,0,1,.4.38,1.49,1.49,0,0,1,.32.52,1,1,0,0,1-.3.74,3,3,0,0,1-1.22.34,5.67,5.67,0,0,1-1.64-.26,1.44,1.44,0,0,1-.77-0.66,1.2,1.2,0,0,1,.43-1.07A2.53,2.53,0,0,1,133.39,249.66Z" transform="translate(-28.05 -35.17)"/><path class="cls-2" d="M138.16,249.56a0.93,0.93,0,0,1,.42.83,1.1,1.1,0,0,1-.86.57,4.66,4.66,0,0,1-1.78-.21,1.42,1.42,0,0,1-1-.77,0.92,0.92,0,0,1,.56-0.9A3.21,3.21,0,0,1,138.16,249.56Z" transform="translate(-28.05 -35.17)"/><path class="cls-2" d="M131,251a2.61,2.61,0,0,1,1.77.43,1.54,1.54,0,0,1,.59,1,1.34,1.34,0,0,1-.9.92,7.23,7.23,0,0,1-2-.23,3.3,3.3,0,0,1-1-.4,1,1,0,0,1-.13-1,1.34,1.34,0,0,1,.89-0.66Z" transform="translate(-28.05 -35.17)"/><path class="cls-2" d="M120.39,245.16a3.32,3.32,0,0,1,1.32-.47,2.85,2.85,0,0,1,1.49.47,3.11,3.11,0,0,1,0,1.47,3.48,3.48,0,0,1-1.36.6,4,4,0,0,1-1.64-.06,1.13,1.13,0,0,1-.55-1A2.6,2.6,0,0,1,120.39,245.16Z" transform="translate(-28.05 -35.17)"/><path class="cls-2" d="M125.79,246a9.48,9.48,0,0,1,1,.06,2.85,2.85,0,0,1,.78.2,2.5,2.5,0,0,1,.4.38,1.49,1.49,0,0,1,.32.52,1,1,0,0,1-.3.74,3,3,0,0,1-1.22.34,5.67,5.67,0,0,1-1.64-.26,1.44,1.44,0,0,1-.77-0.66,1.2,1.2,0,0,1,.43-1.07A2.53,2.53,0,0,1,125.79,246Z" transform="translate(-28.05 -35.17)"/><path class="cls-2" d="M123.41,247.29a2.61,2.61,0,0,1,1.77.43,1.54,1.54,0,0,1,.59,1,1.34,1.34,0,0,1-.9.92,7.23,7.23,0,0,1-2-.23,3.3,3.3,0,0,1-1-.4,1,1,0,0,1-.13-1,1.34,1.34,0,0,1,.89-0.66Z" transform="translate(-28.05 -35.17)"/><path class="cls-2" d="M123.35,244.4a4.9,4.9,0,0,1,1.83-.72,2.71,2.71,0,0,1,1.53.51,1.12,1.12,0,0,1,.36.94,2.13,2.13,0,0,1-.66.87,3.78,3.78,0,0,1-1.61.49,3,3,0,0,1-1.62-.49,1,1,0,0,1-.47-1A2.44,2.44,0,0,1,123.35,244.4Z" transform="translate(-28.05 -35.17)"/><path class="cls-2" d="M123.5,249.42a4.9,4.9,0,0,1,1.83-.72,2.71,2.71,0,0,1,1.53.51,1.12,1.12,0,0,1,.36.94,2.13,2.13,0,0,1-.66.87,3.78,3.78,0,0,1-1.61.49,3,3,0,0,1-1.62-.49,1,1,0,0,1-.47-1A2.44,2.44,0,0,1,123.5,249.42Z" transform="translate(-28.05 -35.17)"/><path class="cls-2" d="M143.45,241.56a2.82,2.82,0,0,1,1.66.13,1.11,1.11,0,0,1,.36,1,1.69,1.69,0,0,1-1,.69,4.73,4.73,0,0,1-1.74,0c-0.51-.07-0.85-0.37-0.72-0.79a1.18,1.18,0,0,1,.64-0.79A7.12,7.12,0,0,1,143.45,241.56Z" transform="translate(-28.05 -35.17)"/><path class="cls-2" d="M127.65,237.72a1.72,1.72,0,0,1,.52-0.21,4.91,4.91,0,0,1,.69,0c0.1,0,.66,0,0.77,0a1.33,1.33,0,0,1,.69.28,0.81,0.81,0,0,1,.24.59,0.66,0.66,0,0,1-.24.56,2.45,2.45,0,0,1-.57.32c-0.08,0-.5.1-0.57,0.11a7.22,7.22,0,0,1-1,.09,1.41,1.41,0,0,1-.82-0.23,0.91,0.91,0,0,1-.4-0.48,1,1,0,0,1,.21-0.51c0.11-.12.31-0.37,0.38-0.43A0.28,0.28,0,0,1,127.65,237.72Z" transform="translate(-28.05 -35.17)"/><path class="cls-2" d="M136.88,241.55a6.49,6.49,0,0,1,1.13,0,0.88,0.88,0,0,1,.64.51,1.32,1.32,0,0,1,0,.77,2.37,2.37,0,0,1-1,.51,4,4,0,0,1-1.13,0,1.14,1.14,0,0,1-.89-0.4,0.75,0.75,0,0,1,.15-1A4.67,4.67,0,0,1,136.88,241.55Z" transform="translate(-28.05 -35.17)"/><path class="cls-2" d="M121.4,237.5a9.48,9.48,0,0,1,.89.38,2.85,2.85,0,0,1,.67.45,2.5,2.5,0,0,1,.25.49,1.49,1.49,0,0,1,.13.59,1,1,0,0,1-.53.6,3,3,0,0,1-1.26-.09,5.67,5.67,0,0,1-1.46-.79,1.44,1.44,0,0,1-.51-0.88,1.2,1.2,0,0,1,.77-0.87A2.53,2.53,0,0,1,121.4,237.5Z" transform="translate(-28.05 -35.17)"/><path class="cls-2" d="M128.58,240.2a4.9,4.9,0,0,1,1.83-.72,2.71,2.71,0,0,1,1.53.51,1.12,1.12,0,0,1,.36.94,2.13,2.13,0,0,1-.66.87,3.78,3.78,0,0,1-1.61.49,3,3,0,0,1-1.62-.49,1,1,0,0,1-.47-1A2.44,2.44,0,0,1,128.58,240.2Z" transform="translate(-28.05 -35.17)"/><path class="cls-2" d="M128.58,235.19a4.9,4.9,0,0,1,1.83-.72,2.71,2.71,0,0,1,1.53.51,1.12,1.12,0,0,1,.36.94,2.13,2.13,0,0,1-.66.87,3.78,3.78,0,0,1-1.61.49,3,3,0,0,1-1.62-.49,1,1,0,0,1-.47-1A2.44,2.44,0,0,1,128.58,235.19Z" transform="translate(-28.05 -35.17)"/><path class="cls-2" d="M118.41,238a1.72,1.72,0,0,0-.52-0.21,4.91,4.91,0,0,0-.69,0c-0.1,0-.66,0-0.77,0a1.33,1.33,0,0,0-.69.28,0.81,0.81,0,0,0-.24.59,0.66,0.66,0,0,0,.24.56,2.45,2.45,0,0,0,.57.32c0.08,0,.5.1,0.57,0.11a7.22,7.22,0,0,0,1,.09,1.41,1.41,0,0,0,.82-0.23,0.91,0.91,0,0,0,.4-0.48,1,1,0,0,0-.21-0.51c-0.11-.12-0.31-0.37-0.38-0.43A0.28,0.28,0,0,0,118.41,238Z" transform="translate(-28.05 -35.17)"/><path class="cls-2" d="M120.12,242.35a10.05,10.05,0,0,0-1.52,0,2,2,0,0,0-.71.23,1,1,0,0,0-.28.55,1.69,1.69,0,0,0,0,.54,1.56,1.56,0,0,0,.44.4,3.62,3.62,0,0,0,.48.22c0.1,0,.46.11,0.51,0.11a9.85,9.85,0,0,0,1.51-.17,2,2,0,0,0,.91-0.48,1,1,0,0,0-.11-0.79,1.67,1.67,0,0,0-.72-0.51C120.44,242.41,120.12,242.35,120.12,242.35Z" transform="translate(-28.05 -35.17)"/><path class="cls-2" d="M133.62,240.66a1.8,1.8,0,0,0-.68.15c-0.28.11-.64,0.26-0.81,0.34a0.76,0.76,0,0,0-.49.57,1.22,1.22,0,0,0,.15.81,2.62,2.62,0,0,0,1,.19,6.53,6.53,0,0,0,1.28-.13,2.1,2.1,0,0,0,1.13-.79,0.72,0.72,0,0,0-.3-0.81,1.94,1.94,0,0,0-.85-0.34A2.27,2.27,0,0,0,133.62,240.66Z" transform="translate(-28.05 -35.17)"/><path class="cls-2" d="M112.25,246.32a10.05,10.05,0,0,0-1.52,0,2,2,0,0,0-.71.23,1,1,0,0,0-.28.55,1.69,1.69,0,0,0,0,.54,1.56,1.56,0,0,0,.44.4,3.62,3.62,0,0,0,.48.22c0.1,0,.46.11,0.51,0.11a9.85,9.85,0,0,0,1.51-.17,2,2,0,0,0,.91-0.48,1,1,0,0,0-.11-0.79,1.67,1.67,0,0,0-.72-0.51C112.58,246.38,112.25,246.32,112.25,246.32Z" transform="translate(-28.05 -35.17)"/><path class="cls-2" d="M115.06,242.82a1.8,1.8,0,0,0-.68.15c-0.28.11-.64,0.26-0.81,0.34a0.76,0.76,0,0,0-.49.57,1.22,1.22,0,0,0,.15.81,2.62,2.62,0,0,0,1,.19,6.53,6.53,0,0,0,1.28-.13,2.1,2.1,0,0,0,1.13-.79,0.72,0.72,0,0,0-.3-0.81,1.94,1.94,0,0,0-.85-0.34A2.27,2.27,0,0,0,115.06,242.82Z" transform="translate(-28.05 -35.17)"/><path class="cls-2" d="M134.18,242.69a2,2,0,0,0-1.17.41,1.44,1.44,0,0,0-.23.59,1.05,1.05,0,0,0,.38.75,2.61,2.61,0,0,0,1,.47,3.56,3.56,0,0,0,1.17.13,1.51,1.51,0,0,0,.86-0.38,1.34,1.34,0,0,0,.23-0.78,1.14,1.14,0,0,0-.66-0.83,5.82,5.82,0,0,0-1.06-.3A2.29,2.29,0,0,1,134.18,242.69Z" transform="translate(-28.05 -35.17)"/><path class="cls-2" d="M131.73,243.27a9.48,9.48,0,0,0-1,.06,2.85,2.85,0,0,0-.78.2,2.5,2.5,0,0,0-.4.38,1.49,1.49,0,0,0-.32.52,1,1,0,0,0,.3.74,3,3,0,0,0,1.22.34,5.67,5.67,0,0,0,1.64-.26,1.44,1.44,0,0,0,.77-0.66,1.2,1.2,0,0,0-.43-1.07A2.53,2.53,0,0,0,131.73,243.27Z" transform="translate(-28.05 -35.17)"/><path class="cls-2" d="M118.09,243.85a9.48,9.48,0,0,0-1,.06,2.85,2.85,0,0,0-.78.2,2.5,2.5,0,0,0-.4.38,1.49,1.49,0,0,0-.32.52,1,1,0,0,0,.3.74,3,3,0,0,0,1.22.34,5.67,5.67,0,0,0,1.64-.26,1.44,1.44,0,0,0,.77-0.66,1.2,1.2,0,0,0-.43-1.07A2.53,2.53,0,0,0,118.09,243.85Z" transform="translate(-28.05 -35.17)"/><path class="cls-2" d="M102.61,244.46a2.82,2.82,0,0,0-1.66.13,1.11,1.11,0,0,0-.36,1,1.69,1.69,0,0,0,1,.69,4.73,4.73,0,0,0,1.74,0c0.51-.07.85-0.37,0.72-0.79a1.18,1.18,0,0,0-.64-0.79A7.12,7.12,0,0,0,102.61,244.46Z" transform="translate(-28.05 -35.17)"/><path class="cls-2" d="M122.22,244.83a4,4,0,0,0-1.6-.26,2,2,0,0,0-1.42.53,1.37,1.37,0,0,0-.43.81,1,1,0,0,0,.89.77,6.18,6.18,0,0,0,1.4,0,6,6,0,0,0,1.15-.34,1,1,0,0,0,.3-0.79A2.21,2.21,0,0,0,122.22,244.83Z" transform="translate(-28.05 -35.17)"/><path class="cls-2" d="M134.22,245.06a0.93,0.93,0,0,0-.42.83,1.1,1.1,0,0,0,.86.57,4.66,4.66,0,0,0,1.78-.21,1.42,1.42,0,0,0,1-.77,0.92,0.92,0,0,0-.56-0.9A3.21,3.21,0,0,0,134.22,245.06Z" transform="translate(-28.05 -35.17)"/><path class="cls-2" d="M106.85,244.19a10.05,10.05,0,0,0-1.52,0,2,2,0,0,0-.71.23,1,1,0,0,0-.28.55,1.69,1.69,0,0,0,0,.54,1.56,1.56,0,0,0,.44.4,3.62,3.62,0,0,0,.48.22c0.1,0,.46.11,0.51,0.11a9.85,9.85,0,0,0,1.51-.17,2,2,0,0,0,.91-0.48,1,1,0,0,0-.11-0.79,1.67,1.67,0,0,0-.72-0.51C107.18,244.26,106.85,244.19,106.85,244.19Z" transform="translate(-28.05 -35.17)"/><path class="cls-2" d="M141.44,243.57a4.9,4.9,0,0,0-1.83-.72,2.71,2.71,0,0,0-1.53.51,1.12,1.12,0,0,0-.36.94,2.13,2.13,0,0,0,.66.87,3.78,3.78,0,0,0,1.61.49,3,3,0,0,0,1.62-.49,1,1,0,0,0,.47-1A2.44,2.44,0,0,0,141.44,243.57Z" transform="translate(-28.05 -35.17)"/><path class="cls-2" d="M109.18,244.45a6.49,6.49,0,0,0-1.13,0,0.88,0.88,0,0,0-.64.51,1.32,1.32,0,0,0,0,.77,2.37,2.37,0,0,0,1,.51,4,4,0,0,0,1.13,0,1.14,1.14,0,0,0,.89-0.4,0.75,0.75,0,0,0-.15-1A4.67,4.67,0,0,0,109.18,244.45Z" transform="translate(-28.05 -35.17)"/><path class="cls-2" d="M107,242a3.41,3.41,0,0,0-1.14-.41,2.69,2.69,0,0,0-1.38.11c-0.19.19-.79,0.13-0.7,0.74a1,1,0,0,0,.68.85,3.17,3.17,0,0,0,1.32.51,6.18,6.18,0,0,0,1.54,0,0.75,0.75,0,0,0,.59-0.79A1.56,1.56,0,0,0,107,242Z" transform="translate(-28.05 -35.17)"/><path class="cls-2" d="M112.58,241.64a2.61,2.61,0,0,0-1.77.43,1.54,1.54,0,0,0-.59,1,1.34,1.34,0,0,0,.9.92,7.23,7.23,0,0,0,2-.23,3.3,3.3,0,0,0,1-.4,1,1,0,0,0,.13-1,1.34,1.34,0,0,0-.89-0.66Z" transform="translate(-28.05 -35.17)"/><path class="cls-2" d="M124.8,238.46a9.48,9.48,0,0,1,1,.06,2.85,2.85,0,0,1,.78.2,2.5,2.5,0,0,1,.4.38,1.49,1.49,0,0,1,.32.52,1,1,0,0,1-.3.74,3,3,0,0,1-1.22.34,5.67,5.67,0,0,1-1.64-.26,1.44,1.44,0,0,1-.77-0.66,1.2,1.2,0,0,1,.43-1.07A2.53,2.53,0,0,1,124.8,238.46Z" transform="translate(-28.05 -35.17)"/><path class="cls-2" d="M104.68,239.9a9.48,9.48,0,0,1,1,.06,2.85,2.85,0,0,1,.78.2,2.5,2.5,0,0,1,.4.38,1.49,1.49,0,0,1,.32.52,1,1,0,0,1-.3.74,3,3,0,0,1-1.22.34,5.67,5.67,0,0,1-1.64-.26,1.44,1.44,0,0,1-.77-0.66,1.2,1.2,0,0,1,.43-1.07A2.53,2.53,0,0,1,104.68,239.9Z" transform="translate(-28.05 -35.17)"/><path class="cls-2" d="M134.69,240.06a4,4,0,0,1,1.6-.26,2,2,0,0,1,1.42.53,1.37,1.37,0,0,1,.43.81,1,1,0,0,1-.89.77,6.18,6.18,0,0,1-1.4,0,6,6,0,0,1-1.15-.34,1,1,0,0,1-.3-0.79A2.21,2.21,0,0,1,134.69,240.06Z" transform="translate(-28.05 -35.17)"/><path class="cls-2" d="M124.11,241.12a1.72,1.72,0,0,0-.52-0.21,4.91,4.91,0,0,0-.69,0c-0.1,0-.66,0-0.77,0a1.33,1.33,0,0,0-.69.28,0.81,0.81,0,0,0-.24.59,0.66,0.66,0,0,0,.24.56,2.45,2.45,0,0,0,.57.32c0.08,0,.5.1,0.57,0.11a7.22,7.22,0,0,0,1,.09,1.41,1.41,0,0,0,.82-0.23,0.91,0.91,0,0,0,.4-0.48,1,1,0,0,0-.21-0.51c-0.11-.12-0.31-0.37-0.38-0.43A0.28,0.28,0,0,0,124.11,241.12Z" transform="translate(-28.05 -35.17)"/><path class="cls-2" d="M135.5,235.88a10.05,10.05,0,0,0-1.52,0,2,2,0,0,0-.71.23,1,1,0,0,0-.28.55,1.69,1.69,0,0,0,0,.54,1.56,1.56,0,0,0,.44.4,3.62,3.62,0,0,0,.48.22c0.1,0,.46.11,0.51,0.11a9.85,9.85,0,0,0,1.51-.17,2,2,0,0,0,.91-0.48,1,1,0,0,0-.11-0.79A1.67,1.67,0,0,0,136,236C135.83,235.94,135.5,235.88,135.5,235.88Z" transform="translate(-28.05 -35.17)"/><path class="cls-2" d="M131.51,238.14a4.9,4.9,0,0,1,1.83-.72,2.71,2.71,0,0,1,1.53.51,1.12,1.12,0,0,1,.36.94,2.13,2.13,0,0,1-.66.87,3.78,3.78,0,0,1-1.61.49,3,3,0,0,1-1.62-.49,1,1,0,0,1-.47-1A2.44,2.44,0,0,1,131.51,238.14Z" transform="translate(-28.05 -35.17)"/><path class="cls-2" d="M143.23,240a4.9,4.9,0,0,1,1.83-.72,2.71,2.71,0,0,1,1.53.51,1.12,1.12,0,0,1,.36.94,2.13,2.13,0,0,1-.66.87,3.78,3.78,0,0,1-1.61.49,3,3,0,0,1-1.62-.49,1,1,0,0,1-.47-1A2.44,2.44,0,0,1,143.23,240Z" transform="translate(-28.05 -35.17)"/><path class="cls-2" d="M140.05,238.32a10.05,10.05,0,0,1,1.52,0,2,2,0,0,1,.71.23,1,1,0,0,1,.28.55,1.69,1.69,0,0,1,0,.54,1.56,1.56,0,0,1-.44.4,3.62,3.62,0,0,1-.48.22c-0.1,0-.46.11-0.51,0.11a9.85,9.85,0,0,1-1.51-.17,2,2,0,0,1-.91-0.48,1,1,0,0,1,.11-0.79,1.67,1.67,0,0,1,.72-0.51C139.73,238.38,140.05,238.32,140.05,238.32Z" transform="translate(-28.05 -35.17)"/><path class="cls-2" d="M127,240a10.05,10.05,0,0,0-1.52,0,2,2,0,0,0-.71.23,1,1,0,0,0-.28.55,1.69,1.69,0,0,0,0,.54,1.56,1.56,0,0,0,.44.4,3.62,3.62,0,0,0,.48.22c0.1,0,.46.11,0.51,0.11a9.85,9.85,0,0,0,1.51-.17,2,2,0,0,0,.91-0.48,1,1,0,0,0-.11-0.79,1.67,1.67,0,0,0-.72-0.51C127.32,240,127,240,127,240Z" transform="translate(-28.05 -35.17)"/><path class="cls-2" d="M138,238.64a3.07,3.07,0,0,0-1.4-.39,1.5,1.5,0,0,0-1.09.36,1.47,1.47,0,0,0-.28.62,1.79,1.79,0,0,0,.53.72,3.38,3.38,0,0,0,.76.41,2.51,2.51,0,0,0,.78.14,2.72,2.72,0,0,0,1.05-.1,1.39,1.39,0,0,0,.57-0.6,0.66,0.66,0,0,0,0-.53,3.08,3.08,0,0,0-.62-0.49A1.07,1.07,0,0,0,138,238.64Z" transform="translate(-28.05 -35.17)"/><path class="cls-2" d="M134.35,233.35a9.48,9.48,0,0,0-1,.06,2.85,2.85,0,0,0-.78.2,2.5,2.5,0,0,0-.4.38,1.49,1.49,0,0,0-.32.52,1,1,0,0,0,.3.74,3,3,0,0,0,1.22.34,5.67,5.67,0,0,0,1.64-.26,1.44,1.44,0,0,0,.77-0.66,1.2,1.2,0,0,0-.43-1.07A2.53,2.53,0,0,0,134.35,233.35Z" transform="translate(-28.05 -35.17)"/><path class="cls-2" d="M125.51,236.39a4,4,0,0,0-1.6-.26,2,2,0,0,0-1.42.53,1.37,1.37,0,0,0-.43.81,1,1,0,0,0,.89.77,6.18,6.18,0,0,0,1.4,0,6,6,0,0,0,1.15-.34,1,1,0,0,0,.3-0.79A2.21,2.21,0,0,0,125.51,236.39Z" transform="translate(-28.05 -35.17)"/><path class="cls-2" d="M112.21,240.34a4.9,4.9,0,0,0-1.83-.72,2.71,2.71,0,0,0-1.53.51,1.12,1.12,0,0,0-.36.94,2.13,2.13,0,0,0,.66.87,3.78,3.78,0,0,0,1.61.49,3,3,0,0,0,1.62-.49,1,1,0,0,0,.47-1A2.44,2.44,0,0,0,112.21,240.34Z" transform="translate(-28.05 -35.17)"/><path class="cls-2" d="M115.87,240a1.72,1.72,0,0,0-.52-0.21,4.91,4.91,0,0,0-.69,0c-0.1,0-.66,0-0.77,0a1.33,1.33,0,0,0-.69.28,0.81,0.81,0,0,0-.24.59,0.66,0.66,0,0,0,.24.56,2.45,2.45,0,0,0,.57.32c0.08,0,.5.1,0.57,0.11a7.22,7.22,0,0,0,1,.09,1.41,1.41,0,0,0,.82-0.23,0.91,0.91,0,0,0,.4-0.48,1,1,0,0,0-.21-0.51c-0.11-.12-0.31-0.37-0.38-0.43A0.28,0.28,0,0,0,115.87,240Z" transform="translate(-28.05 -35.17)"/><path class="cls-2" d="M123.15,233.76a3.07,3.07,0,0,1,1.4-.39,1.5,1.5,0,0,1,1.09.36,1.47,1.47,0,0,1,.28.62,1.79,1.79,0,0,1-.53.72,3.38,3.38,0,0,1-.76.41,2.51,2.51,0,0,1-.78.14,2.72,2.72,0,0,1-1.05-.1,1.39,1.39,0,0,1-.57-0.6,0.66,0.66,0,0,1,0-.53,3.08,3.08,0,0,1,.62-0.49A1.07,1.07,0,0,1,123.15,233.76Z" transform="translate(-28.05 -35.17)"/><path class="cls-2" d="M109.11,234.29a9.48,9.48,0,0,0-1,.06,2.85,2.85,0,0,0-.78.2,2.5,2.5,0,0,0-.4.38,1.49,1.49,0,0,0-.32.52,1,1,0,0,0,.3.74,3,3,0,0,0,1.22.34,5.67,5.67,0,0,0,1.64-.26,1.44,1.44,0,0,0,.77-0.66,1.2,1.2,0,0,0-.43-1.07A2.53,2.53,0,0,0,109.11,234.29Z" transform="translate(-28.05 -35.17)"/><path class="cls-2" d="M109.83,239.41a4,4,0,0,0-1.6-.26,2,2,0,0,0-1.42.53,1.37,1.37,0,0,0-.43.81,1,1,0,0,0,.89.77,6.18,6.18,0,0,0,1.4,0,6,6,0,0,0,1.15-.34,1,1,0,0,0,.3-0.79A2.21,2.21,0,0,0,109.83,239.41Z" transform="translate(-28.05 -35.17)"/><path class="cls-2" d="M112.94,232.84a2,2,0,0,0-1.17.41,1.44,1.44,0,0,0-.23.59,1.05,1.05,0,0,0,.38.75,2.61,2.61,0,0,0,1,.47,3.56,3.56,0,0,0,1.17.13,1.51,1.51,0,0,0,.86-0.38,1.34,1.34,0,0,0,.23-0.78,1.14,1.14,0,0,0-.66-0.83,5.82,5.82,0,0,0-1.06-.3A2.29,2.29,0,0,1,112.94,232.84Z" transform="translate(-28.05 -35.17)"/><path class="cls-2" d="M123.15,234.49a3.32,3.32,0,0,0-1.32-.47,2.85,2.85,0,0,0-1.49.47,3.11,3.11,0,0,0,0,1.47,3.48,3.48,0,0,0,1.36.6,4,4,0,0,0,1.64-.06,1.13,1.13,0,0,0,.55-1A2.6,2.6,0,0,0,123.15,234.49Z" transform="translate(-28.05 -35.17)"/><path class="cls-2" d="M116.67,232.51a3.07,3.07,0,0,0-1.43-.3,1.5,1.5,0,0,0-1.06.43,1.47,1.47,0,0,0-.23.64,1.79,1.79,0,0,0,.57.68,3.38,3.38,0,0,0,.79.36,2.51,2.51,0,0,0,.79.09,2.72,2.72,0,0,0,1-.17,1.39,1.39,0,0,0,.53-0.64,0.66,0.66,0,0,0,0-.53,3.08,3.08,0,0,0-.65-0.45A1.07,1.07,0,0,0,116.67,232.51Z" transform="translate(-28.05 -35.17)"/><path class="cls-2" d="M120,233.54a2.82,2.82,0,0,0-1.66.13,1.11,1.11,0,0,0-.36,1,1.69,1.69,0,0,0,1,.69,4.73,4.73,0,0,0,1.74,0c0.51-.07.85-0.37,0.72-0.79a1.18,1.18,0,0,0-.64-0.79A7.12,7.12,0,0,0,120,233.54Z" transform="translate(-28.05 -35.17)"/><path class="cls-2" d="M123,232a3.41,3.41,0,0,0-1.14-.41,2.69,2.69,0,0,0-1.38.11c-0.19.19-.79,0.13-0.7,0.74a1,1,0,0,0,.68.85,3.17,3.17,0,0,0,1.32.51,6.18,6.18,0,0,0,1.54,0,0.75,0.75,0,0,0,.59-0.79A1.56,1.56,0,0,0,123,232Z" transform="translate(-28.05 -35.17)"/><path class="cls-2" d="M105.36,235.22a9.48,9.48,0,0,0-.89.38,2.85,2.85,0,0,0-.67.45,2.5,2.5,0,0,0-.25.49,1.49,1.49,0,0,0-.13.59,1,1,0,0,0,.53.6,3,3,0,0,0,1.26-.09,5.67,5.67,0,0,0,1.46-.79,1.44,1.44,0,0,0,.51-0.88,1.2,1.2,0,0,0-.77-0.87A2.53,2.53,0,0,0,105.36,235.22Z" transform="translate(-28.05 -35.17)"/><path class="cls-2" d="M111.46,234.75a9.48,9.48,0,0,0-1,.06,2.85,2.85,0,0,0-.78.2,2.5,2.5,0,0,0-.4.38,1.49,1.49,0,0,0-.32.52,1,1,0,0,0,.3.74,3,3,0,0,0,1.22.34,5.67,5.67,0,0,0,1.64-.26,1.44,1.44,0,0,0,.77-0.66,1.2,1.2,0,0,0-.43-1.07A2.53,2.53,0,0,0,111.46,234.75Z" transform="translate(-28.05 -35.17)"/><path class="cls-2" d="M111.72,237.62a3.41,3.41,0,0,0-1.14-.41,2.69,2.69,0,0,0-1.38.11c-0.19.19-.79,0.13-0.7,0.74a1,1,0,0,0,.68.85,3.17,3.17,0,0,0,1.32.51,6.18,6.18,0,0,0,1.54,0,0.75,0.75,0,0,0,.59-0.79A1.56,1.56,0,0,0,111.72,237.62Z" transform="translate(-28.05 -35.17)"/><path class="cls-2" d="M117.75,235.3a9.48,9.48,0,0,0-1,.06,2.85,2.85,0,0,0-.78.2,2.5,2.5,0,0,0-.4.38,1.49,1.49,0,0,0-.32.52,1,1,0,0,0,.3.74,3,3,0,0,0,1.22.34,5.67,5.67,0,0,0,1.64-.26,1.44,1.44,0,0,0,.77-0.66,1.2,1.2,0,0,0-.43-1.07A2.53,2.53,0,0,0,117.75,235.3Z" transform="translate(-28.05 -35.17)"/><path class="cls-2" d="M113,235.21a0.93,0.93,0,0,0-.42.83,1.1,1.1,0,0,0,.86.57,4.66,4.66,0,0,0,1.78-.21,1.42,1.42,0,0,0,1-.77,0.92,0.92,0,0,0-.56-0.9A3.21,3.21,0,0,0,113,235.21Z" transform="translate(-28.05 -35.17)"/><path class="cls-2" d="M120.13,236.61a2.61,2.61,0,0,0-1.77.43,1.54,1.54,0,0,0-.59,1,1.34,1.34,0,0,0,.9.92,7.23,7.23,0,0,0,2-.23,3.3,3.3,0,0,0,1-.4,1,1,0,0,0,.13-1,1.34,1.34,0,0,0-.89-0.66Z" transform="translate(-28.05 -35.17)"/><path class="cls-2" d="M125.35,231.63a9.48,9.48,0,0,0-1,.06,2.85,2.85,0,0,0-.78.2,2.5,2.5,0,0,0-.4.38,1.49,1.49,0,0,0-.32.52,1,1,0,0,0,.3.74,3,3,0,0,0,1.22.34,5.67,5.67,0,0,0,1.64-.26,1.44,1.44,0,0,0,.77-0.66,1.2,1.2,0,0,0-.43-1.07A2.53,2.53,0,0,0,125.35,231.63Z" transform="translate(-28.05 -35.17)"/><path class="cls-2" d="M126.55,232.13a1.72,1.72,0,0,1,.52-0.21,4.91,4.91,0,0,1,.69,0c0.1,0,.66,0,0.77,0a1.33,1.33,0,0,1,.69.28,0.81,0.81,0,0,1,.24.59,0.66,0.66,0,0,1-.24.56,2.45,2.45,0,0,1-.57.32c-0.08,0-.5.1-0.57,0.11a7.22,7.22,0,0,1-1,.09,1.41,1.41,0,0,1-.82-0.23,0.91,0.91,0,0,1-.4-0.48,1,1,0,0,1,.21-0.51c0.11-.12.31-0.37,0.38-0.43A0.28,0.28,0,0,1,126.55,232.13Z" transform="translate(-28.05 -35.17)"/><path class="cls-2" d="M120.79,229.75a3.07,3.07,0,0,1,1.4-.39,1.5,1.5,0,0,1,1.09.36,1.47,1.47,0,0,1,.28.62,1.79,1.79,0,0,1-.53.72,3.38,3.38,0,0,1-.76.41,2.51,2.51,0,0,1-.78.14,2.72,2.72,0,0,1-1.05-.1,1.39,1.39,0,0,1-.57-0.6,0.66,0.66,0,0,1,0-.53,3.08,3.08,0,0,1,.62-0.49A1.07,1.07,0,0,1,120.79,229.75Z" transform="translate(-28.05 -35.17)"/><path class="cls-2" d="M104.48,237.79a3.07,3.07,0,0,0-1.4-.39,1.5,1.5,0,0,0-1.09.36,1.47,1.47,0,0,0-.28.62,1.79,1.79,0,0,0,.53.72,3.38,3.38,0,0,0,.76.41,2.51,2.51,0,0,0,.78.14,2.72,2.72,0,0,0,1.05-.1,1.39,1.39,0,0,0,.57-0.6,0.66,0.66,0,0,0,0-.53,3.08,3.08,0,0,0-.62-0.49A1.07,1.07,0,0,0,104.48,237.79Z" transform="translate(-28.05 -35.17)"/><path class="cls-2" d="M121.72,230.8a1.8,1.8,0,0,0-.68.15c-0.28.11-.64,0.26-0.81,0.34a0.76,0.76,0,0,0-.49.57,1.22,1.22,0,0,0,.15.81,2.62,2.62,0,0,0,1,.19,6.53,6.53,0,0,0,1.28-.13,2.1,2.1,0,0,0,1.13-.79,0.72,0.72,0,0,0-.3-0.81,1.94,1.94,0,0,0-.85-0.34A2.27,2.27,0,0,0,121.72,230.8Z" transform="translate(-28.05 -35.17)"/><path class="cls-2" d="M132.23,230.25a3,3,0,0,1,1.43-.33,4.38,4.38,0,0,1,1.44.33,0.72,0.72,0,0,1,.38.84,1.44,1.44,0,0,1-.72.87,3.14,3.14,0,0,1-1.6.13,1.39,1.39,0,0,1-1.28-.68,0.82,0.82,0,0,1,0-.92A1,1,0,0,1,132.23,230.25Z" transform="translate(-28.05 -35.17)"/><path class="cls-2" d="M130.53,231.84a9.48,9.48,0,0,0-1,.06,2.85,2.85,0,0,0-.78.2,2.5,2.5,0,0,0-.4.38,1.49,1.49,0,0,0-.32.52,1,1,0,0,0,.3.74,3,3,0,0,0,1.22.34,5.67,5.67,0,0,0,1.64-.26,1.44,1.44,0,0,0,.77-0.66,1.2,1.2,0,0,0-.43-1.07A2.53,2.53,0,0,0,130.53,231.84Z" transform="translate(-28.05 -35.17)"/><path class="cls-2" d="M103,239.58a9.48,9.48,0,0,0-1,.06,2.85,2.85,0,0,0-.78.2,2.5,2.5,0,0,0-.4.38,1.49,1.49,0,0,0-.32.52,1,1,0,0,0,.3.74,3,3,0,0,0,1.22.34,5.67,5.67,0,0,0,1.64-.26,1.44,1.44,0,0,0,.77-0.66,1.2,1.2,0,0,0-.43-1.07A2.53,2.53,0,0,0,103,239.58Z" transform="translate(-28.05 -35.17)"/><path class="cls-2" d="M109.09,237.25a4,4,0,0,0-1.6-.26,2,2,0,0,0-1.42.53,1.37,1.37,0,0,0-.43.81,1,1,0,0,0,.89.77,6.18,6.18,0,0,0,1.4,0,6,6,0,0,0,1.15-.34,1,1,0,0,0,.3-0.79A2.21,2.21,0,0,0,109.09,237.25Z" transform="translate(-28.05 -35.17)"/><path class="cls-2" d="M110.57,228.83a2,2,0,0,0-1.17.41,1.44,1.44,0,0,0-.23.59,1.05,1.05,0,0,0,.38.75,2.61,2.61,0,0,0,1,.47,3.56,3.56,0,0,0,1.17.13,1.51,1.51,0,0,0,.86-0.38,1.34,1.34,0,0,0,.23-0.78,1.14,1.14,0,0,0-.66-0.83,5.82,5.82,0,0,0-1.06-.3A2.29,2.29,0,0,1,110.57,228.83Z" transform="translate(-28.05 -35.17)"/><path class="cls-2" d="M120.79,230.47a3.32,3.32,0,0,0-1.32-.47,2.85,2.85,0,0,0-1.49.47,3.11,3.11,0,0,0,0,1.47,3.48,3.48,0,0,0,1.36.6,4,4,0,0,0,1.64-.06,1.13,1.13,0,0,0,.55-1A2.6,2.6,0,0,0,120.79,230.47Z" transform="translate(-28.05 -35.17)"/><path class="cls-2" d="M114.31,228.49a3.07,3.07,0,0,0-1.43-.3,1.5,1.5,0,0,0-1.06.43,1.47,1.47,0,0,0-.23.64,1.79,1.79,0,0,0,.57.68,3.38,3.38,0,0,0,.79.36,2.51,2.51,0,0,0,.79.09,2.72,2.72,0,0,0,1-.17,1.39,1.39,0,0,0,.53-0.64,0.66,0.66,0,0,0,0-.53,3.08,3.08,0,0,0-.65-0.45A1.07,1.07,0,0,0,114.31,228.49Z" transform="translate(-28.05 -35.17)"/><path class="cls-2" d="M117.67,229.53a2.82,2.82,0,0,0-1.66.13,1.11,1.11,0,0,0-.36,1,1.69,1.69,0,0,0,1,.69,4.73,4.73,0,0,0,1.74,0c0.51-.07.85-0.37,0.72-0.79a1.18,1.18,0,0,0-.64-0.79A7.12,7.12,0,0,0,117.67,229.53Z" transform="translate(-28.05 -35.17)"/><path class="cls-2" d="M120.66,228a3.41,3.41,0,0,0-1.14-.41,2.69,2.69,0,0,0-1.38.11c-0.19.19-.79,0.13-0.7,0.74a1,1,0,0,0,.68.85,3.17,3.17,0,0,0,1.32.51,6.18,6.18,0,0,0,1.54,0,0.75,0.75,0,0,0,.59-0.79A1.56,1.56,0,0,0,120.66,228Z" transform="translate(-28.05 -35.17)"/><path class="cls-2" d="M109.91,232.08a9.48,9.48,0,0,0-.89.38,2.85,2.85,0,0,0-.67.45,2.5,2.5,0,0,0-.25.49,1.49,1.49,0,0,0-.13.59,1,1,0,0,0,.53.6,3,3,0,0,0,1.26-.09,5.67,5.67,0,0,0,1.46-.79,1.44,1.44,0,0,0,.51-0.88A1.2,1.2,0,0,0,111,232,2.53,2.53,0,0,0,109.91,232.08Z" transform="translate(-28.05 -35.17)"/><path class="cls-2" d="M114.28,236.84a9.48,9.48,0,0,0-1,.06,2.85,2.85,0,0,0-.78.2,2.5,2.5,0,0,0-.4.38,1.49,1.49,0,0,0-.32.52,1,1,0,0,0,.3.74,3,3,0,0,0,1.22.34,5.67,5.67,0,0,0,1.64-.26,1.44,1.44,0,0,0,.77-0.66,1.2,1.2,0,0,0-.43-1.07A2.53,2.53,0,0,0,114.28,236.84Z" transform="translate(-28.05 -35.17)"/><path class="cls-2" d="M134.76,232a4,4,0,0,0-1.6-.26,2,2,0,0,0-1.42.53,1.37,1.37,0,0,0-.43.81,1,1,0,0,0,.89.77,6.18,6.18,0,0,0,1.4,0,6,6,0,0,0,1.15-.34,1,1,0,0,0,.3-0.79A2.21,2.21,0,0,0,134.76,232Z" transform="translate(-28.05 -35.17)"/><path class="cls-2" d="M137.32,233.87a0.93,0.93,0,0,0-.42.83,1.1,1.1,0,0,0,.86.57,4.66,4.66,0,0,0,1.78-.21,1.42,1.42,0,0,0,1-.77,0.92,0.92,0,0,0-.56-0.9A3.21,3.21,0,0,0,137.32,233.87Z" transform="translate(-28.05 -35.17)"/><path class="cls-2" d="M113.64,230a3.41,3.41,0,0,0-1.14-.41,2.69,2.69,0,0,0-1.38.11c-0.19.19-.79,0.13-0.7,0.74a1,1,0,0,0,.68.85,3.17,3.17,0,0,0,1.32.51,6.18,6.18,0,0,0,1.54,0,0.75,0.75,0,0,0,.59-0.79A1.56,1.56,0,0,0,113.64,230Z" transform="translate(-28.05 -35.17)"/><path class="cls-2" d="M115.39,231.29a9.48,9.48,0,0,0-1,.06,2.85,2.85,0,0,0-.78.2,2.5,2.5,0,0,0-.4.38,1.49,1.49,0,0,0-.32.52,1,1,0,0,0,.3.74,3,3,0,0,0,1.22.34,5.67,5.67,0,0,0,1.64-.26,1.44,1.44,0,0,0,.77-0.66,1.2,1.2,0,0,0-.43-1.07A2.53,2.53,0,0,0,115.39,231.29Z" transform="translate(-28.05 -35.17)"/><path class="cls-2" d="M109.95,231.23a0.93,0.93,0,0,0-.42.83,1.1,1.1,0,0,0,.86.57,4.66,4.66,0,0,0,1.78-.21,1.42,1.42,0,0,0,1-.77,0.92,0.92,0,0,0-.56-0.9A3.21,3.21,0,0,0,109.95,231.23Z" transform="translate(-28.05 -35.17)"/><path class="cls-2" d="M119.24,229.61a2.61,2.61,0,0,0-1.77.43,1.54,1.54,0,0,0-.59,1,1.34,1.34,0,0,0,.9.92,7.23,7.23,0,0,0,2-.23,3.3,3.3,0,0,0,1-.4,1,1,0,0,0,.13-1,1.34,1.34,0,0,0-.89-0.66Z" transform="translate(-28.05 -35.17)"/><path class="cls-2" d="M125.64,229.43a9.48,9.48,0,0,0-1,.06,2.85,2.85,0,0,0-.78.2,2.5,2.5,0,0,0-.4.38,1.49,1.49,0,0,0-.32.52,1,1,0,0,0,.3.74,3,3,0,0,0,1.22.34,5.67,5.67,0,0,0,1.64-.26,1.44,1.44,0,0,0,.77-0.66,1.2,1.2,0,0,0-.43-1.07A2.53,2.53,0,0,0,125.64,229.43Z" transform="translate(-28.05 -35.17)"/><path class="cls-2" d="M130.15,233.34a4.9,4.9,0,0,0-1.83-.72,2.71,2.71,0,0,0-1.53.51,1.12,1.12,0,0,0-.36.94,2.13,2.13,0,0,0,.66.87,3.78,3.78,0,0,0,1.61.49,3,3,0,0,0,1.62-.49,1,1,0,0,0,.47-1A2.44,2.44,0,0,0,130.15,233.34Z" transform="translate(-28.05 -35.17)"/><path class="cls-2" d="M136.72,235.45a4.9,4.9,0,0,1,1.83-.72,2.71,2.71,0,0,1,1.53.51,1.12,1.12,0,0,1,.36.94,2.13,2.13,0,0,1-.66.87,3.78,3.78,0,0,1-1.61.49,3,3,0,0,1-1.62-.49,1,1,0,0,1-.47-1A2.44,2.44,0,0,1,136.72,235.45Z" transform="translate(-28.05 -35.17)"/><path class="cls-2" d="M141.6,236.33a10.05,10.05,0,0,0-1.52,0,2,2,0,0,0-.71.23,1,1,0,0,0-.28.55,1.69,1.69,0,0,0,0,.54,1.56,1.56,0,0,0,.44.4,3.62,3.62,0,0,0,.48.22c0.1,0,.46.11,0.51,0.11a9.85,9.85,0,0,0,1.51-.17,2,2,0,0,0,.91-0.48,1,1,0,0,0-.11-0.79,1.67,1.67,0,0,0-.72-0.51C141.92,236.4,141.6,236.33,141.6,236.33Z" transform="translate(-28.05 -35.17)"/><path class="cls-2" d="M145,238.74a3.07,3.07,0,0,0-1.4-.39,1.5,1.5,0,0,0-1.09.36,1.47,1.47,0,0,0-.28.62,1.79,1.79,0,0,0,.53.72,3.38,3.38,0,0,0,.76.41,2.51,2.51,0,0,0,.78.14,2.72,2.72,0,0,0,1.05-.1,1.39,1.39,0,0,0,.57-0.6,0.66,0.66,0,0,0,0-.53,3.08,3.08,0,0,0-.62-0.49A1.07,1.07,0,0,0,145,238.74Z" transform="translate(-28.05 -35.17)"/><path class="cls-2" d="M119.83,239.83a2.61,2.61,0,0,0-1.77.43,1.54,1.54,0,0,0-.59,1,1.34,1.34,0,0,0,.9.92,7.23,7.23,0,0,0,2-.23,3.3,3.3,0,0,0,1-.4,1,1,0,0,0,.13-1,1.34,1.34,0,0,0-.89-0.66Z" transform="translate(-28.05 -35.17)"/><path class="cls-2" d="M127.67,235.19a4.9,4.9,0,0,0-1.83-.72,2.71,2.71,0,0,0-1.53.51,1.12,1.12,0,0,0-.36.94,2.13,2.13,0,0,0,.66.87,3.78,3.78,0,0,0,1.61.49,3,3,0,0,0,1.62-.49,1,1,0,0,0,.47-1A2.44,2.44,0,0,0,127.67,235.19Z" transform="translate(-28.05 -35.17)"/><path class="cls-3" d="M55.63,296.1c6.49,4.61,28.81,11.14,38.66,13h62.49c23.94-4.8,37.49-12,51-23.2s13.77-28.46,13.77-28.46H28.41a0.2,0.2,0,0,0-.21.23c0,2.29-1.06,4.11,2.54,13.83S45.14,288.67,51.92,294Z" transform="translate(-28.05 -35.17)"/><line class="cls-4" x1="99.44" y1="0.02" x2="98.85" y2="77.45"/><path class="cls-5" d="M35.15,262.41h8.26c4.29,14.53,12.35,31.33,45.73,41.78-25.4-3-41.28-17.66-47.32-27.26S35.15,262.41,35.15,262.41Z" transform="translate(-28.05 -35.17)"/><path class="cls-6" d="M216.57,262.41h-16.2c-4.29,14.53-9.51,32.95-42.89,43.41,25.4-3,45.65-19,51.68-28.57S216.57,262.41,216.57,262.41Z" transform="translate(-28.05 -35.17)"/><path class="cls-7" d="M348.85,235.28c2.19,3.19,8.8,14.15,9.69,16.09s2.9,5.48,3.31,9.35a8,8,0,0,1-.56,4.27,12.5,12.5,0,0,1-6.41,7c-4,2.1-11.25,1.13-14.15-1.45s-3.39-3-4.43-5.48-0.73-4.92.56-8.31C338.62,252,345.37,239.75,348.85,235.28Z" transform="translate(-28.05 -35.17)"/><path class="cls-7" d="M357.64,385.47c0.26,0.38,1.05,1.7,1.16,1.93a3.54,3.54,0,0,1,.4,1.12,1,1,0,0,1-.07.51,1.5,1.5,0,0,1-.77.84,1.8,1.8,0,0,1-1.7-.17,1.44,1.44,0,0,1-.53-0.66,1.26,1.26,0,0,1,.07-1A14.88,14.88,0,0,1,357.64,385.47Z" transform="translate(-28.05 -35.17)"/><path class="cls-5" d="M344.53,127v9.4a3.68,3.68,0,0,0,.2,1.15,18.08,18.08,0,0,1,7.14-.18,3.68,3.68,0,0,0,.15-1v-9.22a16.86,16.86,0,0,1-3.36.33A16.58,16.58,0,0,1,344.53,127Z" transform="translate(-28.05 -35.17)"/><path class="cls-5" d="M351.93,113.4a3.74,3.74,0,0,0-7.35.18,16.59,16.59,0,0,1,4.07-.5A16.88,16.88,0,0,1,351.93,113.4Z" transform="translate(-28.05 -35.17)"/><path class="cls-6" d="M348.27,140.1a3.74,3.74,0,0,1-3.54-2.6,19.13,19.13,0,0,0-15,18.61v21.59a19,19,0,0,0,5,12.85V168.11a13.68,13.68,0,0,1,27.36,0v23.17a19,19,0,0,0,5.72-13.57V156.12a19.12,19.12,0,0,0-16-18.79A3.75,3.75,0,0,1,348.27,140.1Z" transform="translate(-28.05 -35.17)"/><path class="cls-6" d="M344.73,137.51a3.72,3.72,0,0,0,7.14-.18A18.08,18.08,0,0,0,344.73,137.51Z" transform="translate(-28.05 -35.17)"/><path class="cls-5" d="M334.77,190.56v12.1a13.57,13.57,0,0,0,.16,2h27a13.57,13.57,0,0,0,.16-2V191.28A18.94,18.94,0,0,1,334.77,190.56Z" transform="translate(-28.05 -35.17)"/><path class="cls-5" d="M348.45,154.43a13.72,13.72,0,0,0-13.68,13.68v22.45a18.94,18.94,0,0,0,27.36.72V168.11A13.72,13.72,0,0,0,348.45,154.43Z" transform="translate(-28.05 -35.17)"/><path class="cls-3" d="M348.45,216.34a13.72,13.72,0,0,1-13.52-11.68h-3.09a3.61,3.61,0,0,0-3.59,3.59v11.58a3.61,3.61,0,0,0,3.59,3.59H365.1a3.61,3.61,0,0,0,3.59-3.59V208.25a3.61,3.61,0,0,0-3.59-3.59H362A13.72,13.72,0,0,1,348.45,216.34Z" transform="translate(-28.05 -35.17)"/><path class="cls-3" d="M348.45,216.34A13.72,13.72,0,0,0,362,204.66h-27A13.72,13.72,0,0,0,348.45,216.34Z" transform="translate(-28.05 -35.17)"/><path class="cls-8" d="M337.5,120.28a5,5,0,0,1,.73-2.55v-2s0-.1,0-0.14l-0.41-.16c-5.19-.8-30-4.67-31.2-5s-1.87-.46-2.62,0a7.65,7.65,0,0,0-3.67,5.18c-0.52,3.15-.67,8.16,1,11.08s1.87,2.86,3.07,3.26,4.63-.27,6.89-0.72c3.45-.67,26-4.42,26-4.42l1,0.12v-2.12A5,5,0,0,1,337.5,120.28Z" transform="translate(-28.05 -35.17)"/><path class="cls-8" d="M396.15,113.74c-0.8-1.7-1.9-3.19-3.3-3.59-0.9,0-2.5.2-3.45,0.3s-29.76,4.89-29.76,4.89l-0.48.06a1.59,1.59,0,0,1,0,.3V118a4.76,4.76,0,0,1,0,4.62v2.1l0.55,0.18,31.65,5.21s0.7,0.43,2-.37a7.14,7.14,0,0,0,2.85-3.45,22.65,22.65,0,0,0,.9-5.14C397.15,119.58,397,115.44,396.15,113.74Z" transform="translate(-28.05 -35.17)"/><path class="cls-8" d="M341.23,114.93a1.59,1.59,0,0,0-3,.62l1.36,0.53A9.67,9.67,0,0,1,341.23,114.93Z" transform="translate(-28.05 -35.17)"/><path class="cls-8" d="M340.26,125.12c-0.71,0-1.45-.11-2-0.18v0.23a1.59,1.59,0,0,0,3.1.52,10.48,10.48,0,0,1-.9-0.57h-0.18Z" transform="translate(-28.05 -35.17)"/><path class="cls-8" d="M340.44,125.13a7.56,7.56,0,0,1-2.2-2.3v2.12c0.57,0.07,1.31.14,2,.18h0.18Z" transform="translate(-28.05 -35.17)"/><path class="cls-8" d="M338.24,117.73a7,7,0,0,1,1.38-1.65l-1.36-.53s0,0.09,0,.14v2Z" transform="translate(-28.05 -35.17)"/><path class="cls-8" d="M359.18,115.39a1.6,1.6,0,0,0-1.57-1.3h0a1.6,1.6,0,0,0-1.42.89,10.15,10.15,0,0,1,1,.65Z" transform="translate(-28.05 -35.17)"/><path class="cls-8" d="M356.09,125.63a1.6,1.6,0,0,0,1.52,1.14h0a1.6,1.6,0,0,0,1.6-1.6v-0.48l-1.28-.42A9.49,9.49,0,0,1,356.09,125.63Z" transform="translate(-28.05 -35.17)"/><path class="cls-8" d="M357.93,124.27l1.28,0.42v-2.1A6.64,6.64,0,0,1,357.93,124.27Z" transform="translate(-28.05 -35.17)"/><path class="cls-8" d="M359.21,118v-2.27a1.59,1.59,0,0,0,0-.3l-2,.24A7.19,7.19,0,0,1,359.21,118Z" transform="translate(-28.05 -35.17)"/><path class="cls-8" d="M352,116.24l4-.47v-0.08a1.57,1.57,0,0,1,.17-0.71,13.52,13.52,0,0,0-4.25-1.58,3.72,3.72,0,0,1,.08.78v2.07Z" transform="translate(-28.05 -35.17)"/><path class="cls-8" d="M356,123.64l0,0-3.94.43v3.09a13.56,13.56,0,0,0,4.07-1.51,1.57,1.57,0,0,1-.07-0.46v-1.53Z" transform="translate(-28.05 -35.17)"/><path class="cls-8" d="M341.43,125.07v0.1a1.57,1.57,0,0,1-.1.52,13.26,13.26,0,0,0,3.19,1.26v-2.15C343.3,124.93,342.22,125,341.43,125.07Z" transform="translate(-28.05 -35.17)"/><path class="cls-8" d="M341.43,116.79l1.4,0.55,1.7-.2v-3a3.69,3.69,0,0,1,.06-0.59,13.2,13.2,0,0,0-3.36,1.34,1.57,1.57,0,0,1,.21.77v1.1Z" transform="translate(-28.05 -35.17)"/><path class="cls-8" d="M344.53,124.81V127a16.58,16.58,0,0,0,4.13.52,16.86,16.86,0,0,0,3.36-.33v-3.09C349.74,124.29,346.87,124.59,344.53,124.81Z" transform="translate(-28.05 -35.17)"/><path class="cls-8" d="M344.53,117.13l7.49-.89v-2.07a3.72,3.72,0,0,0-.08-0.78,16.88,16.88,0,0,0-3.28-.32,16.59,16.59,0,0,0-4.07.5,3.69,3.69,0,0,0-.06.59v3Z" transform="translate(-28.05 -35.17)"/><path class="cls-8" d="M337.5,120.28a5,5,0,0,0,.73,2.55v-5.09A5,5,0,0,0,337.5,120.28Z" transform="translate(-28.05 -35.17)"/><path class="cls-8" d="M359.81,120.28a4.93,4.93,0,0,0-.6-2.31v4.62A4.93,4.93,0,0,0,359.81,120.28Z" transform="translate(-28.05 -35.17)"/><path class="cls-8" d="M342.83,117.33l-1.4-.55v8.28c0.78-.05,1.87-0.15,3.1-0.26v-7.68Z" transform="translate(-28.05 -35.17)"/><path class="cls-8" d="M352,116.24v7.81l3.94-.43,0,0v-7.87Z" transform="translate(-28.05 -35.17)"/><path class="cls-8" d="M344.53,117.13v7.68c2.35-.22,5.21-0.52,7.49-0.76v-7.81Z" transform="translate(-28.05 -35.17)"/><path class="cls-8" d="M341.43,116.79v-1.1a1.57,1.57,0,0,0-.21-0.77,9.67,9.67,0,0,0-1.61,1.16Z" transform="translate(-28.05 -35.17)"/><path class="cls-8" d="M341.43,125.07l-1,.05a10.48,10.48,0,0,0,.9.57,1.57,1.57,0,0,0,.1-0.52v-0.1Z" transform="translate(-28.05 -35.17)"/><path class="cls-8" d="M339.61,116.08a7,7,0,0,0-1.38,1.65v5.09a7.56,7.56,0,0,0,2.2,2.3l1-.05v-8.28Z" transform="translate(-28.05 -35.17)"/><path class="cls-8" d="M356,115.77l1.15-.14a10.15,10.15,0,0,0-1-.65,1.57,1.57,0,0,0-.17.71v0.08Z" transform="translate(-28.05 -35.17)"/><path class="cls-8" d="M357.93,124.27l-1.92-.63v1.53a1.57,1.57,0,0,0,.07.46A9.49,9.49,0,0,0,357.93,124.27Z" transform="translate(-28.05 -35.17)"/><path class="cls-8" d="M357.16,115.63l-1.15.14v7.87l1.92,0.63a6.64,6.64,0,0,0,1.28-1.68V118A7.19,7.19,0,0,0,357.16,115.63Z" transform="translate(-28.05 -35.17)"/></svg>