<?xml version="1.0" encoding="utf-8"?>
<!-- Generator: Adobe Illustrator 21.0.0, SVG Export Plug-In . SVG Version: 6.00 Build 0)  -->
<svg version="1.1" xmlns="http://www.w3.org/2000/svg" xmlns:xlink="http://www.w3.org/1999/xlink" x="0px" y="0px"
	 viewBox="0 0 1133.9 1133.9" style="enable-background:new 0 0 1133.9 1133.9;" xml:space="preserve">
<style type="text/css">
	.st0{fill:#F7F8F9;}
	.st1{fill:#465687;}
	.st2{fill:#38456D;}
	.st3{fill:#FEFBE3;}
	.st4{fill:none;stroke:#251813;stroke-width:4;stroke-linecap:round;stroke-miterlimit:10;}
	.st5{fill:none;stroke:#18140F;stroke-width:3;stroke-linecap:round;stroke-miterlimit:10;}
</style>
<g id="Calque_5">
</g>
<g id="Calque_6">
</g>
<g id="Calque_4">
</g>
<g id="Calque_2">
</g>
<g id="Calque_3">
	<g>
		<path class="st0" d="M782.6,343.7c0,0-1.9-12.5-8.2-17.7c-6.2-5.2-51.9-21.9-60.9-23.5c-9-1.6-53-9.4-66.7-10.9
			s-44.3-2.8-55.8-2.8s-71.6,1.4-78.7,2c-7,0.6-65.7,6.4-75.4,8.5s-44.8,10.2-52.5,13.5c-7.7,3.4-26.4,7.3-28.2,13.1
			c-1.8,5.9-5.5,16.7-5.5,17.7c0,1,0,4.6,0,4.6l36.5,483.4l4.1,35.8l28.1,12.9l67.7,21.9L595,912.6l46.1-6.9l37.1-11.3l21.2-15.1
			l12.9-16l17.5-97.7l22.2-147.7L782.6,343.7"/>
		<path class="st1" d="M590.8,446.6L606,246.3v-7.4h4.7v-6.2h3.5v-4.7h3.9v-3.1h7v-3.5h11.7l132.7,26.1v23.4l-125.6-16.8
			c0,0-12.9-1.6-12.9,12.1l-17.2,190.8L590.8,446.6z"/>
		<path class="st2" d="M638.3,254.6l-1.4-33.4h-11.7v3.5h-7v3.1h-3.9v4.7h-3.5v6.2h-4.7l25.7,22.3
			C631.7,261.1,632.6,255.3,638.3,254.6z"/>
		<path class="st3" d="M356.8,418.9c0,0,57.1-26.4,84.4-25.6c27.2,0.9,54.4,1.5,78,12.7s49.6,25.8,49.6,25.8s22.2,15.7,29.6,15.3
			c7.4-0.4,46.2,19.9,64.8,21c21.3,1.3,56.6-2.6,71.1-5.7c5-1.1,35.3-5.9,35.2-1.2c-0.2,10.7-31.6,252.4-31.6,252.4L726,789.3
			l-5.7,36.5l-3.7,19.5l-6.5,21.7c0,0-20.8,20.3-27.8,25c-5.9,4-41.3,13.6-41.3,13.6l-32.1,5.5l-28.3,1.4l-45.9-3.1l-47.4-7.1
			l-49-13.7l-46.8-21l-2.6-16.7l-19.1-250.2L356.8,418.9z"/>
		<path class="st4" d="M351,351.6c0,0,36.4,482,38,499.4c1.6,17.4,6.5,16.9,9.6,19.8c3.1,2.9,11.4,5.2,39.8,17.9
			c28.4,12.7,96.5,23.1,142.3,23.9c45.8,0.8,90.3-14.8,97.5-18.2c7.3-3.4,32-20.5,35.1-34.3c1.1-4.7,4.9-21.3,5.7-26
			c0.8-4.7,22.7-146.2,23.9-151.6c1.2-5.5,12.3-86.6,13.9-103.8s24.4-201.8,26-225.5s-10.9-28.6-14.6-32.3s-41.6-16.1-56.7-18.7
			c-13.6-2.3-45.6-8.2-70.8-11.3c-25.2-3.1-99.8-1.9-113.1-1.2c-13.3,0.8-71.1,6-82.7,8.2c-26.3,4.8-69.5,17.3-75.8,20.2
			c-8.4,3.8-16.6,12.7-18.1,20.5V351.6z"/>
		<path class="st5" d="M770.1,459.6c-14.6,0.3-82.5,13.2-104.4,9c-21.8-4.2-54.1-15.1-74.9-25s-50.5-30.2-78-40.1
			s-49.4-9.9-68.1-10.4c-18.7-0.5-38,6.2-63.1,15.6c0,0-25.4,11.4-25.2,13.7"/>
	</g>
</g>
</svg>
