<?xml version="1.0" encoding="utf-8"?>
<!-- Generator: Adobe Illustrator 21.0.0, SVG Export Plug-In . SVG Version: 6.00 Build 0)  -->
<svg version="1.1" id="Calque_1" xmlns="http://www.w3.org/2000/svg" xmlns:xlink="http://www.w3.org/1999/xlink" x="0px" y="0px"
	 viewBox="0 0 425.2 425.2" style="enable-background:new 0 0 425.2 425.2;" xml:space="preserve">
<style type="text/css">
	.st0{fill:#FFCE32;}
	.st1{fill:#EFBF3A;}
	.st2{fill:#F5F5E4;}
	.st3{fill:none;stroke:#F5F5E4;stroke-width:18;stroke-linecap:round;stroke-miterlimit:10;}
</style>
<g>
	<path class="st0" d="M213.2,57.1c18.5,0,36.2,7.8,54.5,27.2s36.4,58.3,44.1,82.2s7.5,70.5,6.9,80s-20.5,66.1-20.5,66.1l-65.5,30.5
		l-91.6-13.9L108.9,302c-5.6-12.2-10.4-34.4-9.4-59.4c1.3-31.9,13.5-76.6,20-92.7c7.6-18.6,18.5-42,32.2-56.6
		c14-14.9,28.1-24.4,32.2-26.7C189.5,63.4,199.2,57.1,213.2,57.1z"/>
	<path class="st1" d="M302.1,140.8c5.6,11.9,18.4,45.4,22.5,78.6c2.8,28,1,52.8-6.4,77.3c-7.1,23.4-17.8,41.1-48,58.2
		c-29.6,16.8-66.6,13.9-82.7,11.1s-35.2-9.8-50.5-22.8c-14.3-12.1-26.3-34.6-28.3-40c-2-5.4-3.3-10.6-3.3-10.6
		c18.3,17.8,30,32.2,65,37.2s71,1.7,91.1-10.6c24-14.7,36.6-33.3,43.3-55S312,168.7,302.1,140.8z"/>
	<circle class="st2" cx="130.1" cy="260" r="9.2"/>
	<path class="st3" d="M131.1,229.3c7.8-41.9,11.7-116.9,71.9-145.5"/>
</g>
</svg>
