<?xml version="1.0" encoding="utf-8"?>
<!-- Generator: Adobe Illustrator 21.0.0, SVG Export Plug-In . SVG Version: 6.00 Build 0)  -->
<svg version="1.1" id="Calque_1" xmlns="http://www.w3.org/2000/svg" xmlns:xlink="http://www.w3.org/1999/xlink" x="0px" y="0px"
	 viewBox="0 0 425.2 425.2" style="enable-background:new 0 0 425.2 425.2;" xml:space="preserve">
<style type="text/css">
	.st0{fill:#A5855B;}
	.st1{fill:#91221E;}
	.st2{fill:none;stroke:#EBC180;stroke-width:15;stroke-linecap:round;stroke-miterlimit:10;}
	.st3{fill:none;stroke:#E5CCA7;stroke-width:15;stroke-linecap:round;stroke-miterlimit:10;}
	.st4{fill:none;stroke:#BE8E55;stroke-width:15;stroke-linecap:round;stroke-miterlimit:10;}
	.st5{fill:none;stroke:#ECC37E;stroke-width:15;stroke-linecap:round;stroke-miterlimit:10;}
	.st6{fill:none;stroke:#BE8E56;stroke-width:15;stroke-linecap:round;stroke-miterlimit:10;}
	.st7{fill:#EBC180;}
	.st8{fill:#EFD09F;}
	.st9{fill:#D7B27C;}
</style>
<g>
	<polygon class="st0" points="137.5,321.3 211.2,321.7 211.2,329.2 137.5,329.4 	"/>
	<path class="st1" d="M355.3,112.2c-8.6,0.6-203.5,7.8-205,8.1c-2.6,0.5-9,1.3-1.2,2.9c7.9,1.5,217.7-2.7,217.7-2.7L355.3,112.2z"/>
	<path class="st2" d="M150.6,215c0-14.3,1.8-86.6,2.8-89.4c1-2.8,3.3-7.8,3.3-7.8"/>
	<path class="st3" d="M154.8,216.3c0-14.3,1.8-86.6,2.8-89.4c1-2.8,2.5-9.5,2.5-9.5"/>
	<path class="st4" d="M159.2,216.2c0-14.3,1.8-86.6,2.8-89.4c1-2.8,2.5-9.5,2.5-9.5"/>
	<path class="st2" d="M163,215c0-14.3,1.8-86.6,2.8-89.4c1-2.8,4-8.8,4-8.8"/>
	<path class="st3" d="M168.1,215.4c0-14.3,1.8-86.6,2.8-89.4c1-2.8,2.5-9.5,2.5-9.5"/>
	<path class="st5" d="M173.4,215.1c0-14.3,1.8-86.6,2.8-89.4c1-2.8,2.5-9.5,2.5-9.5"/>
	<path class="st6" d="M178.2,215c0-14.3,1.8-86.6,2.8-89.4c1-2.8,2.5-9.5,2.5-9.5"/>
	<path class="st2" d="M183.5,214.6c0-14.3,1.8-86.6,2.8-89.4c1-2.8,2.5-9.5,2.5-9.5"/>
	<path class="st7" d="M90.7,293c7.9,10.3,34.8,25,46.8,29.2H213c29-10.8,45.3-26.9,61.7-52s16.7-63.8,16.7-63.8H57.8
		c0,0-0.3,0-0.3,0.5c0,5.1-1.3,9.2,3.1,31c4.4,21.8,17.4,38.4,25.6,50.5L90.7,293z"/>
	<path class="st8" d="M65.9,217.5h10c5.2,32.6,14.9,70.2,55.3,93.7c-30.7-6.7-49.9-39.6-57.2-61.1C66.7,228.5,65.9,217.5,65.9,217.5
		z"/>
	<path class="st9" d="M285.3,217.5h-19.6c-5.2,32.6-11.5,73.9-51.9,97.3c30.7-6.7,55.2-42.5,62.5-64.1S285.3,217.5,285.3,217.5z"/>
	<path class="st1" d="M349.8,91.8c-14.6,1.7-194.5,18.1-199.8,19c-5.4,1-6.1,2.7,3.7,2.1c9.8-0.6,214.3-12.7,214.3-12.7L349.8,91.8z
		"/>
</g>
</svg>
