<svg id="Calque_1" data-name="Calque 1" xmlns="http://www.w3.org/2000/svg" viewBox="0 0 381.03 403.25"><defs><style>.cls-1{fill:#999796;}.cls-2{fill:#f4d4ba;}.cls-3{fill:#d3ae92;}.cls-4{fill:#f5f5e4;}.cls-5{fill:none;stroke:#f5f5e4;stroke-linecap:round;stroke-miterlimit:10;stroke-width:18px;}.cls-6{fill:#efa867;}.cls-7{fill:#ad7c50;}</style></defs><title>panier_oeuf</title><path class="cls-1" d="M344,653.33H666.67s22.67,7.33,0,13.33H344S335.33,662.67,344,653.33Z" transform="translate(-316.43 -263.41)"/><path class="cls-2" d="M624.59,383.44c5.87,1.83,10.71,6.06,14.6,14S645,419.62,645.05,428s-4.62,23.14-5.73,26.09S626.23,473,626.23,473l-23.84,3.2-27.72-13.5-7.53-11.84c-0.55-4.43.1-12,2.9-19.81,3.57-10,11.88-23,15.55-27.47,4.25-5.17,10-11.5,15.85-14.79a51.89,51.89,0,0,1,12.87-5.27C616.44,383.09,620.14,382,624.59,383.44Z" transform="translate(-316.43 -263.41)"/><path class="cls-3" d="M644.53,418.84a99.42,99.42,0,0,1-.65,27.19,64.27,64.27,0,0,1-9.72,23.91c-4.58,6.72-9.75,11.29-21,13.72-11.07,2.39-22.54-2.21-27.38-4.69A35.9,35.9,0,0,1,572,466.72c-3.33-5.25-4.92-13.61-5-15.51a36.77,36.77,0,0,1,0-3.68c4.06,7.46,6.33,13.21,16.94,18.27s22.37,7.6,30,5.69a31.3,31.3,0,0,0,19.21-13.16C637.33,452.11,644.89,428.68,644.53,418.84Z" transform="translate(-316.43 -263.41)"/><circle class="cls-4" cx="578.05" cy="439.63" r="3.07" transform="translate(-330.44 596.79) rotate(-72.64)"/><path class="cls-5" d="M581.42,430c6.63-12.54,15.31-36,37.28-39.07" transform="translate(-316.43 -263.41)"/><path class="cls-2" d="M486,308.35c6-1.4,12.3-.22,19.71,4.69s16.2,16.14,20.52,23.29,7.77,22.28,8.3,25.38-1.66,23-1.66,23l-18.92,14.86L483.17,402l-12.5-6.38c-2.72-3.54-6-10.35-7.56-18.54-2-10.42-1.44-25.85-.54-31.56,1-6.61,2.8-15,6.15-20.79a51.89,51.89,0,0,1,8.42-11.07C478.75,312.19,481.41,309.41,486,308.35Z" transform="translate(-316.43 -263.41)"/><path class="cls-3" d="M521.1,328.73a99.42,99.42,0,0,1,13.24,23.75A64.27,64.27,0,0,1,538.11,378c-0.53,8.11-2.67,14.67-11.14,22.49s-20.54,9.54-26,9.86a35.9,35.9,0,0,1-18.1-3.55c-5.53-2.83-11.15-9.23-12.2-10.81a36.77,36.77,0,0,1-1.88-3.17C476.1,397.2,481,401,492.69,400s23.13-4.8,28.71-10.31a31.3,31.3,0,0,0,9.87-21.09C531.79,361,526.41,337,521.1,328.73Z" transform="translate(-316.43 -263.41)"/><circle class="cls-4" cx="474.37" cy="380.39" r="3.07" transform="translate(-390.52 -145.54) rotate(-13.15)"/><path class="cls-5" d="M472.37,370.35c-0.65-14.17-5.07-38.76,12.29-52.58" transform="translate(-316.43 -263.41)"/><path class="cls-2" d="M547.78,359.66c6-1.4,12.3-.22,19.71,4.69s16.2,16.14,20.52,23.29,7.77,22.28,8.3,25.38-1.66,23-1.66,23l-18.92,14.86L545,453.29l-12.5-6.38c-2.72-3.54-6-10.35-7.56-18.54-2-10.42-1.44-25.85-.54-31.56,1-6.61,2.8-15,6.15-20.79A51.89,51.89,0,0,1,539,364.95C540.58,363.5,543.24,360.72,547.78,359.66Z" transform="translate(-316.43 -263.41)"/><path class="cls-3" d="M582.93,380a99.42,99.42,0,0,1,13.24,23.75,64.27,64.27,0,0,1,3.76,25.53c-0.53,8.11-2.67,14.67-11.14,22.49s-20.54,9.54-26,9.86a35.9,35.9,0,0,1-18.1-3.55c-5.53-2.83-11.15-9.23-12.2-10.81a36.77,36.77,0,0,1-1.88-3.17c7.28,4.37,12.15,8.17,23.87,7.14s23.13-4.8,28.71-10.31a31.3,31.3,0,0,0,9.87-21.09C593.62,412.36,588.23,388.33,582.93,380Z" transform="translate(-316.43 -263.41)"/><circle class="cls-4" cx="536.2" cy="431.7" r="3.07" transform="translate(-400.57 -130.14) rotate(-13.15)"/><path class="cls-5" d="M534.2,421.66c-0.65-14.17-5.07-38.76,12.29-52.58" transform="translate(-316.43 -263.41)"/><path class="cls-2" d="M460.84,345.5c5.87,1.83,10.71,6.06,14.6,14s5.76,22.13,5.86,30.48-4.62,23.14-5.73,26.09-13.08,18.95-13.08,18.95l-23.84,3.2-27.72-13.5-7.53-11.84c-0.55-4.43.1-12,2.9-19.81,3.57-10,11.88-23,15.55-27.47,4.25-5.17,10-11.5,15.85-14.79a51.89,51.89,0,0,1,12.87-5.27C452.68,345.15,456.38,344.11,460.84,345.5Z" transform="translate(-316.43 -263.41)"/><path class="cls-3" d="M480.78,380.89a99.42,99.42,0,0,1-.65,27.19A64.27,64.27,0,0,1,470.41,432c-4.58,6.72-9.75,11.29-21,13.72C438.33,448.1,426.85,443.5,422,441a35.9,35.9,0,0,1-13.79-12.25c-3.33-5.25-4.92-13.61-5-15.51a36.77,36.77,0,0,1,0-3.68c4.06,7.46,6.33,13.21,16.94,18.27s22.37,7.6,30,5.69a31.3,31.3,0,0,0,19.21-13.16C473.58,414.16,481.14,390.73,480.78,380.89Z" transform="translate(-316.43 -263.41)"/><circle class="cls-4" cx="414.29" cy="401.68" r="3.07" transform="translate(-409.13 413.87) rotate(-72.64)"/><path class="cls-5" d="M417.66,392c6.63-12.54,15.31-36,37.28-39.07" transform="translate(-316.43 -263.41)"/><path class="cls-2" d="M512.63,396.29c5.87,1.83,10.71,6.06,14.6,14s5.76,22.13,5.86,30.48-4.62,23.14-5.73,26.09-13.08,18.95-13.08,18.95L490.43,489l-27.72-13.5-7.53-11.84c-0.55-4.43.1-12,2.9-19.81,3.57-10,11.88-23,15.55-27.47,4.25-5.17,10-11.5,15.85-14.79a51.89,51.89,0,0,1,12.87-5.27C504.48,395.94,508.18,394.9,512.63,396.29Z" transform="translate(-316.43 -263.41)"/><path class="cls-3" d="M532.57,431.68a99.42,99.42,0,0,1-.65,27.19,64.27,64.27,0,0,1-9.72,23.91c-4.58,6.72-9.75,11.29-21,13.72-11.07,2.39-22.54-2.21-27.38-4.69A35.9,35.9,0,0,1,460,479.57c-3.33-5.25-4.92-13.61-5-15.51a36.77,36.77,0,0,1,0-3.68c4.06,7.46,6.33,13.21,16.94,18.27s22.37,7.6,30,5.69a31.3,31.3,0,0,0,19.21-13.16C525.38,465,532.93,441.52,532.57,431.68Z" transform="translate(-316.43 -263.41)"/><circle class="cls-4" cx="466.09" cy="452.47" r="3.07" transform="translate(-421.26 498.94) rotate(-72.64)"/><path class="cls-5" d="M469.46,442.81c6.63-12.54,15.31-36,37.28-39.07" transform="translate(-316.43 -263.41)"/><path class="cls-2" d="M411,395.83c5.89-.92,11.92.68,18.73,6s14.5,16.8,18.17,24,5.9,22.13,6.19,25.17-3.27,22.1-3.27,22.1l-19.39,13-29.92.12-11.63-7.08c-2.38-3.62-5-10.45-6-18.49-1.17-10.23.48-25.12,1.77-30.58,1.49-6.32,3.8-14.31,7.46-19.67a50.35,50.35,0,0,1,9-10.1C403.8,399,406.57,396.53,411,395.83Z" transform="translate(-316.43 -263.41)"/><path class="cls-3" d="M443.58,418.1A96.48,96.48,0,0,1,454.66,442a62.37,62.37,0,0,1,1.78,25c-1.1,7.81-3.65,14-12.41,21-8.61,6.82-20.57,7.74-25.85,7.66a34.83,34.83,0,0,1-17.25-4.75c-5.15-3.14-10.12-9.74-11-11.35a35.69,35.69,0,0,1-1.59-3.2c6.73,4.76,11.17,8.79,22.58,8.64s22.73-3,28.53-7.89a30.37,30.37,0,0,0,11.09-19.69C451.57,450.15,448.11,426.51,443.58,418.1Z" transform="translate(-316.43 -263.41)"/><circle class="cls-4" cx="394.6" cy="464.7" r="2.98" transform="translate(-383.25 -197.14) rotate(-8.85)"/><path class="cls-5" d="M393.39,454.84c0.4-13.76-2.09-37.87,15.71-50" transform="translate(-316.43 -263.41)"/><polygon class="cls-6" points="16.9 213.25 62.23 397.25 317.57 397.25 366.9 213.25 16.9 213.25"/><path class="cls-6" d="M333.33,458.67V337.33s7.33-61.33,67.33-68.67,178-6.67,220.67,0S680,325.33,680.67,340s3.33,124.44,2.67,123.55-22-.55-22-0.55l-2-122.33s4-28.67-40-49.33c-44-12.67-208.67-3.33-220.67-.67S360,307.33,356,339.33s-2.67,124.23-2.67,124.23Z" transform="translate(-316.43 -263.41)"/><path class="cls-7" d="M333.33,449.33h350c8,0,27.33,18,0,27.33h-350C322.67,476.67,301.33,460.67,333.33,449.33Z" transform="translate(-316.43 -263.41)"/></svg>