<?xml version="1.0" encoding="utf-8"?>
<!-- Generator: Adobe Illustrator 21.0.0, SVG Export Plug-In . SVG Version: 6.00 Build 0)  -->
<svg version="1.1" xmlns="http://www.w3.org/2000/svg" xmlns:xlink="http://www.w3.org/1999/xlink" x="0px" y="0px"
	 viewBox="0 0 425.2 425.2" style="enable-background:new 0 0 425.2 425.2;" xml:space="preserve">
<style type="text/css">
	.st0{fill:none;stroke:#DA9229;stroke-width:5;stroke-miterlimit:10;}
	.st1{fill:#FDD59C;}
	.st2{fill:#D24A4F;}
	.st3{fill:#E5696F;}
	.st4{fill:#D7686D;}
	.st5{fill:#E06B6F;}
	.st6{fill:#E06B71;}
	.st7{fill:#D96B6D;}
	.st8{fill:#D86165;}
	.st9{fill:#DB7375;}
	.st10{fill:#65A23B;}
	.st11{fill:#71B239;}
	.st12{fill:#7BAE3A;}
	.st13{fill:#649E32;}
	.st14{fill:#68A234;}
	.st15{fill:#85AE45;}
	.st16{fill:#7AA63E;}
	.st17{fill:#68A233;}
	.st18{fill:#6F9F32;}
	.st19{fill:#79AF3D;}
	.st20{fill:#7AA93E;}
	.st21{fill:#65A432;}
	.st22{fill:#A38950;}
	.st23{fill:none;stroke:#A26F32;stroke-width:3;stroke-miterlimit:10;}
</style>
<g id="Calque_1">
</g>
<g id="Calque_2">
	<g>
		<circle class="st0" cx="212.6" cy="212.6" r="125.4"/>
		<circle class="st1" cx="212.6" cy="212.4" r="123.2"/>
		<circle class="st2" cx="190.1" cy="144.9" r="25.2"/>
		<circle class="st3" cx="177" cy="137.6" r="7"/>
		<circle class="st4" cx="188.9" cy="159.6" r="6.3"/>
		<circle class="st5" cx="192.4" cy="128.8" r="4.7"/>
		<circle class="st6" cx="193.8" cy="144.2" r="6"/>
		<circle class="st7" cx="204.4" cy="135.9" r="5.2"/>
		<circle class="st8" cx="174" cy="153.5" r="4.7"/>
		<circle class="st9" cx="205.7" cy="153.7" r="3.9"/>
		<path class="st10" d="M191.7,119.8c0,0,6.8-10,17.9-6.1l-8.9,8.4C200.7,122.1,194.9,119.8,191.7,119.8z"/>
		<path class="st11" d="M209.6,113.7c0,0,4.8,2.8-0.2,15.1c0,0-5.6-5.5-8.7-6.7L209.6,113.7z"/>
		
			<ellipse transform="matrix(0.1299 -0.9915 0.9915 0.1299 68.8691 383.631)" class="st2" cx="253" cy="152.6" rx="25.2" ry="25.2"/>
		<ellipse transform="matrix(0.1299 -0.9915 0.9915 0.1299 88.6223 382.0437)" class="st3" cx="262" cy="140.5" rx="7" ry="7"/>
		<ellipse transform="matrix(0.1299 -0.9915 0.9915 0.1299 59.32 366.6327)" class="st4" cx="238.6" cy="149.5" rx="6.3" ry="6.3"/>
		<ellipse transform="matrix(0.1299 -0.9915 0.9915 0.1299 78.1259 403.0125)" class="st5" cx="268.7" cy="157" rx="4.7" ry="4.7"/>
		<ellipse transform="matrix(0.1299 -0.9915 0.9915 0.1299 65.2428 387.1024)" class="st6" cx="253.2" cy="156.4" rx="6" ry="6"/>
		<ellipse transform="matrix(0.1299 -0.9915 0.9915 0.1299 59.7183 404.0452)" class="st7" cx="260.1" cy="168" rx="5.2" ry="5.2"/>
		
			<ellipse transform="matrix(0.1299 -0.9915 0.9915 0.1299 80.2007 362.3864)" class="st8" cx="246.6" cy="135.5" rx="4.7" ry="4.7"/>
		<ellipse transform="matrix(0.1299 -0.9915 0.9915 0.1299 45.2399 385.43)" class="st9" cx="242.2" cy="166.9" rx="3.9" ry="3.9"/>
		<path class="st10" d="M277.7,157.5c0,0,9,8.1,3.7,18.5l-7.1-10C274.3,166.1,277.3,160.6,277.7,157.5z"/>
		<path class="st11" d="M281.4,176c0,0-3.4,4.3-14.9-2.2c0,0,6.2-4.8,7.8-7.8L281.4,176z"/>
		
			<ellipse transform="matrix(0.4375 -0.8992 0.8992 0.4375 -72.0553 307.9528)" class="st2" cx="210.1" cy="211.6" rx="25.2" ry="25.2"/>
		<ellipse transform="matrix(0.4375 -0.8992 0.8992 0.4375 -57.4033 314.2118)" class="st3" cx="222.5" cy="203" rx="7" ry="7"/>
		
			<ellipse transform="matrix(0.4375 -0.8992 0.8992 0.4375 -72.4932 292.2833)" class="st4" cx="197.4" cy="204.1" rx="6.3" ry="6.3"/>
		
			<ellipse transform="matrix(0.4375 -0.8992 0.8992 0.4375 -72.7169 325.209)" class="st5" cx="223.6" cy="220.7" rx="4.7" ry="4.7"/>
		<ellipse transform="matrix(0.4375 -0.8992 0.8992 0.4375 -75.9347 309.0669)" class="st6" cx="209.1" cy="215.2" rx="6" ry="6"/>
		
			<ellipse transform="matrix(0.4375 -0.8992 0.8992 0.4375 -86.2039 319.0586)" class="st7" cx="211.9" cy="228.4" rx="5.2" ry="5.2"/>
		
			<ellipse transform="matrix(0.4375 -0.8992 0.8992 0.4375 -56.0442 297.0717)" class="st8" cx="209.4" cy="193.3" rx="4.7" ry="4.7"/>
		
			<ellipse transform="matrix(0.4375 -0.8992 0.8992 0.4375 -89.5451 300.3946)" class="st9" cx="195.3" cy="221.8" rx="3.9" ry="3.9"/>
		<path class="st10" d="M232,224.1c0,0,6,10.5-2.3,18.8l-3.6-11.7C226,231.1,230.6,226.9,232,224.1z"/>
		<path class="st11" d="M229.6,242.8c0,0-4.6,3-13.5-6.8c0,0,7.4-2.6,9.9-4.9L229.6,242.8z"/>
		<circle class="st2" cx="230.1" cy="281.9" r="25.2"/>
		<circle class="st3" cx="217" cy="274.6" r="7"/>
		<circle class="st4" cx="229" cy="296.6" r="6.3"/>
		<circle class="st5" cx="232.5" cy="265.8" r="4.7"/>
		<circle class="st6" cx="233.9" cy="281.2" r="6"/>
		<circle class="st7" cx="244.5" cy="272.9" r="5.2"/>
		<circle class="st8" cx="214" cy="290.5" r="4.7"/>
		<circle class="st9" cx="245.8" cy="290.7" r="3.9"/>
		<path class="st10" d="M231.8,256.8c0,0,6.8-10,17.9-6.1l-8.9,8.4C240.7,259.1,234.9,256.8,231.8,256.8z"/>
		<path class="st11" d="M249.7,250.7c0,0,4.8,2.8-0.2,15.1c0,0-5.6-5.5-8.7-6.7L249.7,250.7z"/>
		<circle class="st2" cx="141.6" cy="190.2" r="25.2"/>
		<circle class="st3" cx="128.5" cy="182.9" r="7"/>
		<circle class="st4" cx="140.4" cy="204.9" r="6.3"/>
		<circle class="st5" cx="143.9" cy="174.1" r="4.7"/>
		<circle class="st6" cx="145.3" cy="189.6" r="6"/>
		<circle class="st7" cx="156" cy="181.2" r="5.2"/>
		<circle class="st8" cx="125.5" cy="198.8" r="4.7"/>
		<circle class="st9" cx="157.2" cy="199" r="3.9"/>
		<path class="st10" d="M143.3,165.1c0,0,6.8-10,17.9-6.1l-8.9,8.4C152.2,167.4,146.4,165.1,143.3,165.1z"/>
		<path class="st11" d="M161.1,159c0,0,4.8,2.8-0.2,15.1c0,0-5.6-5.5-8.7-6.7L161.1,159z"/>
		
			<ellipse transform="matrix(0.8966 -0.4428 0.4428 0.8966 -66.2951 150.7319)" class="st2" cx="289.7" cy="217.4" rx="25.2" ry="25.2"/>
		<ellipse transform="matrix(0.8966 -0.4428 0.4428 0.8966 -65.0844 157.4538)" class="st3" cx="304.7" cy="218.1" rx="7" ry="7"/>
		
			<ellipse transform="matrix(0.8966 -0.4428 0.4428 0.8966 -60.7866 146.8831)" class="st4" cx="284.2" cy="203.6" rx="6.3" ry="6.3"/>
		
			<ellipse transform="matrix(0.8966 -0.4428 0.4428 0.8966 -72.6309 154.5607)" class="st5" cx="294.7" cy="232.8" rx="4.7" ry="4.7"/>
		<ellipse transform="matrix(0.8966 -0.4428 0.4428 0.8966 -67.6081 149.6051)" class="st6" cx="286.6" cy="219.6" rx="6" ry="6"/>
		
			<ellipse transform="matrix(0.8966 -0.4428 0.4428 0.8966 -73.6059 148.2816)" class="st7" cx="280.8" cy="231.8" rx="5.2" ry="5.2"/>
		
			<ellipse transform="matrix(0.8966 -0.4428 0.4428 0.8966 -58.6259 153.9021)" class="st8" cx="300.3" cy="202.5" rx="4.7" ry="4.7"/>
		
			<ellipse transform="matrix(0.8966 -0.4428 0.4428 0.8966 -67.7091 142.6876)" class="st9" cx="271.8" cy="216.4" rx="3.9" ry="3.9"/>
		<path class="st10" d="M299.3,240.6c0,0-1.7,12-13.3,13.4l4.3-11.5C290.3,242.5,296.5,242,299.3,240.6z"/>
		<path class="st11" d="M286,254c0,0-5.5-0.4-6.5-13.6c0,0,7.4,2.5,10.8,2.2L286,254z"/>
		
			<ellipse transform="matrix(0.9976 -6.926655e-02 6.926655e-02 0.9976 -18.4998 12.3086)" class="st2" cx="168.2" cy="272.9" rx="25.2" ry="25.2"/>
		
			<ellipse transform="matrix(0.9976 -6.926655e-02 6.926655e-02 0.9976 -19.4564 11.8975)" class="st3" cx="161.8" cy="286.5" rx="7" ry="7"/>
		
			<ellipse transform="matrix(0.9976 -6.926655e-02 6.926655e-02 0.9976 -18.4734 13.3326)" class="st4" cx="183" cy="273" rx="6.3" ry="6.3"/>
		
			<ellipse transform="matrix(0.9976 -6.926655e-02 6.926655e-02 0.9976 -18.4542 11.181)" class="st5" cx="152" cy="271.7" rx="4.7" ry="4.7"/>
		
			<ellipse transform="matrix(0.9976 -6.926655e-02 6.926655e-02 0.9976 -18.2462 12.2363)" class="st6" cx="167.3" cy="269.2" rx="6" ry="6"/>
		
			<ellipse transform="matrix(0.9976 -6.926655e-02 6.926655e-02 0.9976 -17.5737 11.5848)" class="st7" cx="158.3" cy="259.2" rx="5.2" ry="5.2"/>
		
			<ellipse transform="matrix(0.9976 -6.926655e-02 6.926655e-02 0.9976 -19.5476 13.0174)" class="st8" cx="177.9" cy="288.4" rx="4.7" ry="4.7"/>
		
			<ellipse transform="matrix(0.9976 -6.926655e-02 6.926655e-02 0.9976 -17.358 12.8049)" class="st9" cx="176" cy="256.7" rx="3.9" ry="3.9"/>
		<path class="st10" d="M143.1,273c0,0-10.4-6.1-7.3-17.4l9,8.3C144.7,263.9,142.9,269.9,143.1,273z"/>
		<path class="st11" d="M135.7,255.6c0,0,2.5-4.9,15.1-0.8c0,0-5.1,5.9-6.1,9.2L135.7,255.6z"/>
		<path class="st12" d="M110.9,247.7v-31.9C110.9,215.9,132.7,228.6,110.9,247.7z"/>
		<path class="st13" d="M110.9,215.9c0,0-17.1,10.9,0,31.9"/>
		<path class="st14" d="M172.1,226.6l21.8,23.2C193.8,249.8,165.4,249.6,172.1,226.6z"/>
		<path class="st15" d="M172.1,226.6c0,0,21.1-5.8,21.8,23.2L172.1,226.6z"/>
		<path class="st16" d="M236.7,192.7c0,0,11.7-21.1,31.5,0H236.7z"/>
		<path class="st17" d="M236.7,192.7c0,0,7.9,19.9,31.5,0H236.7z"/>
		<path class="st18" d="M295.4,166.1c0,0,22.7-6.4,20.4,20.3L295.4,166.1z"/>
		<path class="st19" d="M295.4,166.1c0,0-4.7,21.4,20.4,20.3L295.4,166.1z"/>
		<path class="st20" d="M280.6,290.9l0.4-31.6C281,259.3,301.3,269.4,280.6,290.9z"/>
		<path class="st21" d="M281,259.3l-0.4,31.6C280.6,290.9,260.6,269.4,281,259.3z"/>
		<path class="st21" d="M150.8,137.6"/>
		<g>
			<g>
				<path class="st22" d="M233.1,116c2.9,0,4.1-4,0.8-4C231,112,229.8,116,233.1,116L233.1,116z"/>
			</g>
		</g>
		<g>
			<g>
				<path class="st22" d="M142.3,132.8c3.2,0,2.7-4.4-0.2-4.4C138.8,128.3,139.4,132.8,142.3,132.8L142.3,132.8z"/>
			</g>
		</g>
		<g>
			<g>
				<path class="st22" d="M181.8,182c2.8,0,0.9-4.5-1.2-4.5C177.8,177.5,179.6,182,181.8,182L181.8,182z"/>
			</g>
		</g>
		<g>
			<g>
				<path class="st22" d="M220.1,175.4c3.2,0,2.3-4.7-0.6-4.7C216.3,170.7,217.2,175.4,220.1,175.4L220.1,175.4z"/>
			</g>
		</g>
		<g>
			<g>
				<path class="st22" d="M251.3,228.7c2.8,0,4.1-3.9,0.9-3.9C249.4,224.8,248.1,228.7,251.3,228.7L251.3,228.7z"/>
			</g>
		</g>
		<g>
			<g>
				<path class="st22" d="M316,250.6c2.4,0,0.9-4.7-1.3-4.7C312.3,245.9,313.8,250.6,316,250.6L316,250.6z"/>
			</g>
		</g>
		<g>
			<g>
				<path class="st22" d="M326.5,198.7c2.3,0,4.8-3.5,1.6-3.5C325.8,195.2,323.2,198.7,326.5,198.7L326.5,198.7z"/>
			</g>
		</g>
		<g>
			<g>
				<path class="st22" d="M295.4,146c3.1,0,2.6-4.8-0.1-4.8C292.2,141.1,292.6,146,295.4,146L295.4,146z"/>
			</g>
		</g>
		<g>
			<g>
				<path class="st22" d="M190.3,101.8c3,0,2.9-2.2,0-2.2C187.3,99.6,187.3,101.8,190.3,101.8L190.3,101.8z"/>
			</g>
		</g>
		<g>
			<g>
				<path class="st22" d="M220.5,111.4c3.1,0,3.2-3.8,0-3.8C217.4,107.6,217.4,111.4,220.5,111.4L220.5,111.4z"/>
			</g>
		</g>
		<g>
			<g>
				<path class="st22" d="M153.6,142.9c1.9,0,5-2.9,1.7-2.9C153.4,140,150.4,142.9,153.6,142.9L153.6,142.9z"/>
			</g>
		</g>
		<g>
			<g>
				<path class="st22" d="M114.3,177.1c2.1,0,0.1-4.5-1.9-4.5C110.3,172.5,112.3,177.1,114.3,177.1L114.3,177.1z"/>
			</g>
		</g>
		<g>
			<g>
				<path class="st22" d="M136.5,225.8c3.2,0,2.6-4.4-0.5-4.4C132.8,221.4,133.3,225.8,136.5,225.8L136.5,225.8z"/>
			</g>
		</g>
		<g>
			<g>
				<path class="st22" d="M119.7,256.5c3.2,0-0.3-2.6-2-2.6C114.4,254,117.9,256.5,119.7,256.5L119.7,256.5z"/>
			</g>
		</g>
		<g>
			<g>
				<path class="st22" d="M129.5,247.4c2.6,0,4.1-3.2,0.8-3.2C127.7,244.2,126.2,247.4,129.5,247.4L129.5,247.4z"/>
			</g>
		</g>
		<g>
			<g>
				<path class="st22" d="M161.3,218.8c3.1,0,2.7-3.7-0.3-3.7C157.9,215.1,158.2,218.8,161.3,218.8L161.3,218.8z"/>
			</g>
		</g>
		<g>
			<g>
				<path class="st22" d="M182.2,192.7c2.5,0-0.1-4.1-2-4.1C177.6,188.5,180.3,192.7,182.2,192.7L182.2,192.7z"/>
			</g>
		</g>
		<g>
			<g>
				<path class="st22" d="M156.5,237.7c1.9,0-1.2-3.6-2.6-3.6C151.9,234.1,155.1,237.7,156.5,237.7L156.5,237.7z"/>
			</g>
		</g>
		<g>
			<g>
				<path class="st22" d="M170.9,319.1c2.2,0,4.9-3.3,1.7-3.3C170.3,315.8,167.6,319.1,170.9,319.1L170.9,319.1z"/>
			</g>
		</g>
		<g>
			<g>
				<path class="st22" d="M194.6,299.1c2.9,0-0.5-3.3-2.3-3.3C189.4,295.7,192.8,299.1,194.6,299.1L194.6,299.1z"/>
			</g>
		</g>
		<g>
			<g>
				<path class="st22" d="M140.1,291c1.8,0,4.7-1.3,1.3-1.3C139.6,289.7,136.7,291,140.1,291L140.1,291z"/>
			</g>
		</g>
		<g>
			<g>
				<path class="st22" d="M152.7,305c2.3,0,0.7-4.7-1.4-4.7C149,300.3,150.6,305,152.7,305L152.7,305z"/>
			</g>
		</g>
		<g>
			<g>
				<path class="st22" d="M118.7,275.4c3,0,0.4-3.9-1.5-3.9C114.2,271.6,116.7,275.4,118.7,275.4L118.7,275.4z"/>
			</g>
		</g>
		<g>
			<g>
				<path class="st22" d="M131.9,283.1c2,0,4.6-3.8,1.6-3.8C131.5,279.3,128.9,283.1,131.9,283.1L131.9,283.1z"/>
			</g>
		</g>
		<g>
			<g>
				<path class="st22" d="M206.4,248.9c2.1,0-1.2-3.6-2.7-3.6C201.6,245.4,204.9,248.9,206.4,248.9L206.4,248.9z"/>
			</g>
		</g>
		<g>
			<g>
				<path class="st22" d="M203.9,261.3c1.2,0,5.5-1.5,2.3-1.5C205.1,259.8,200.8,261.3,203.9,261.3L203.9,261.3z"/>
			</g>
		</g>
		<g>
			<g>
				<path class="st22" d="M202,276.3c2.4,0-2-2.1-3-2.1C196.6,274.2,201,276.3,202,276.3L202,276.3z"/>
			</g>
		</g>
		<g>
			<g>
				<path class="st22" d="M226.4,142.2c1.9,0-0.2-4.4-2-4.4C222.6,137.8,224.6,142.2,226.4,142.2L226.4,142.2z"/>
			</g>
		</g>
		<g>
			<g>
				<path class="st22" d="M170.1,111.5c2.7,0,1.4-4.8-1.1-4.8C166.3,106.7,167.6,111.5,170.1,111.5L170.1,111.5z"/>
			</g>
		</g>
		<g>
			<g>
				<path class="st22" d="M161.1,122.8c2.5,0,4.6-4.3,1.5-4.3C160.1,118.6,158,122.8,161.1,122.8L161.1,122.8z"/>
			</g>
		</g>
		<g>
			<g>
				<path class="st22" d="M118.3,152c3.1,0,3.1-3.6,0-3.6C115.2,148.4,115.2,152,118.3,152L118.3,152z"/>
			</g>
		</g>
		<g>
			<g>
				<path class="st22" d="M109.2,201.7c2.2,0-0.6-3.9-2.1-3.9C104.9,197.8,107.7,201.7,109.2,201.7L109.2,201.7z"/>
			</g>
		</g>
		<g>
			<g>
				<path class="st22" d="M256.3,112.2c1.3,0,5.3-1.9,2.2-1.9C257.2,110.3,253.1,112.2,256.3,112.2L256.3,112.2z"/>
			</g>
		</g>
		<g>
			<g>
				<path class="st22" d="M285.7,132.6c2.8,0,1.4-4.8-1.1-4.8C281.8,127.8,283.1,132.6,285.7,132.6L285.7,132.6z"/>
			</g>
		</g>
		<g>
			<g>
				<path class="st22" d="M262.4,121.6c1.2,0-1.3-3.9-2.9-3.9C258.2,117.7,260.8,121.6,262.4,121.6L262.4,121.6z"/>
			</g>
		</g>
		<g>
			<g>
				<path class="st22" d="M286.2,186.1c2.1,0-1.2-3.5-2.8-3.5C281.4,182.5,284.7,186.1,286.2,186.1L286.2,186.1z"/>
			</g>
		</g>
		<g>
			<g>
				<path class="st22" d="M319.4,213c2.6,0,4.3-3.4,1-3.4C317.8,209.7,316.1,213,319.4,213L319.4,213z"/>
			</g>
		</g>
		<g>
			<g>
				<path class="st22" d="M325.2,232.7c1.7,0,4.9-3.5,2-3.5C325.6,229.3,322.4,232.7,325.2,232.7L325.2,232.7z"/>
			</g>
		</g>
		<g>
			<g>
				<path class="st22" d="M305.2,256.1c3,0,0.4-3.8-1.5-3.8C300.7,252.3,303.3,256.1,305.2,256.1L305.2,256.1z"/>
			</g>
		</g>
		<g>
			<g>
				<path class="st22" d="M309.6,277c2.7,0,4.2-4.2,1-4.2C307.8,272.8,306.3,277,309.6,277L309.6,277z"/>
			</g>
		</g>
		<g>
			<g>
				<path class="st22" d="M287.8,297.4c3.1,0,3.5-4.3,0.3-4.3C285,293.2,284.6,297.4,287.8,297.4L287.8,297.4z"/>
			</g>
		</g>
		<g>
			<g>
				<path class="st22" d="M301,288.3c3.3,0,1.9-3.6-0.8-3.6C296.9,284.7,298.3,288.3,301,288.3L301,288.3z"/>
			</g>
		</g>
		<g>
			<g>
				<path class="st22" d="M266.9,255.3c1.3,0-0.8-4.3-2.2-4.3C263.4,251,265.5,255.3,266.9,255.3L266.9,255.3z"/>
			</g>
		</g>
		<g>
			<g>
				<path class="st22" d="M253.7,211.1c3.2,0,3.5-4.5,0.3-4.5C250.9,206.6,250.6,211.1,253.7,211.1L253.7,211.1z"/>
			</g>
		</g>
		<g>
			<g>
				<path class="st22" d="M199.6,319.2c3.3,0,0.1-2.9-1.7-2.9C194.6,316.3,197.7,319.2,199.6,319.2L199.6,319.2z"/>
			</g>
		</g>
		<g>
			<g>
				<path class="st22" d="M200.3,330.2c2.4,0,4.4-3.8,1.1-3.8C199,326.4,197,330.2,200.3,330.2L200.3,330.2z"/>
			</g>
		</g>
		<g>
			<g>
				<path class="st22" d="M219.5,317.5c2.9,0,3-1.5,0-1.5C216.6,316,216.5,317.5,219.5,317.5L219.5,317.5z"/>
			</g>
		</g>
		<g>
			<g>
				<path class="st22" d="M221.1,326c1.3,0,4.8-3.2,3.1-3.2C222.9,322.9,219.3,326,221.1,326L221.1,326z"/>
			</g>
		</g>
		<g>
			<g>
				<path class="st22" d="M263.8,297.9c2.5,0-1.7-2.4-2.9-2.4C258.4,295.5,262.6,297.9,263.8,297.9L263.8,297.9z"/>
			</g>
		</g>
		<g>
			<g>
				<path class="st22" d="M241.1,311.8c1.4,0-0.8-4.2-2.4-4.2C237.2,307.6,239.5,311.8,241.1,311.8L241.1,311.8z"/>
			</g>
		</g>
		<g>
			<g>
				<path class="st22" d="M266.7,317.8c2.2,0,4.5-2.2,1.1-2.2C265.6,315.6,263.3,317.8,266.7,317.8L266.7,317.8z"/>
			</g>
		</g>
		<g>
			<g>
				<path class="st22" d="M265.5,271.6c2.2,0-0.6-4-2.1-4C261.2,267.7,263.9,271.6,265.5,271.6L265.5,271.6z"/>
			</g>
		</g>
		<g>
			<g>
				<path class="st22" d="M320,165.8c3.2,0-1.1-1.7-2.3-1.7C314.5,164.1,318.8,165.8,320,165.8L320,165.8z"/>
			</g>
		</g>
		<g>
			<g>
				<path class="st22" d="M224,99.7c1.7,0-0.4-4.4-2.1-4.4C220.2,95.3,222.3,99.7,224,99.7L224,99.7z"/>
			</g>
		</g>
		<circle class="st23" cx="212.6" cy="212.4" r="123.2"/>
	</g>
</g>
</svg>
