<?xml version="1.0" encoding="utf-8"?>
<!-- Generator: Adobe Illustrator 21.0.0, SVG Export Plug-In . SVG Version: 6.00 Build 0)  -->
<svg version="1.1" id="Calque_1" xmlns="http://www.w3.org/2000/svg" xmlns:xlink="http://www.w3.org/1999/xlink" x="0px" y="0px"
	 viewBox="0 0 226.6 310.9" style="enable-background:new 0 0 226.6 310.9;" xml:space="preserve">
<style type="text/css">
	.st0{fill:#B7B7B7;}
	.st1{fill:#A8A8A8;}
	.st2{fill:#E8E8E8;}
	.st3{fill:none;stroke:#F4F4F4;stroke-width:18;stroke-linecap:round;stroke-miterlimit:10;}
</style>
<title>platine-egg</title>
<g>
	<path class="st0" d="M113.6,76.3c9.4,0,18.4,4,27.7,13.9s18.5,29.7,22.5,41.8c4,12.1,3.8,35.9,3.5,40.7s-10.5,33.6-10.5,33.6
		l-33.4,15.6l-46.7-7.1L60.5,201c-2.8-6.2-5.3-17.5-4.8-30.3c0.7-16.2,6.8-39,10.2-47.2c3.8-9.5,9.4-21.4,16.4-28.8
		c7.1-7.6,14.3-12.4,16.4-13.6C101.5,79.5,106.5,76.3,113.6,76.3z"/>
	<path class="st1" d="M158.9,118.9c2.9,6.1,9.3,23.1,11.5,40c1.4,14.3,0.5,26.9-3.3,39.4c-3.6,11.9-9.1,20.9-24.4,29.6
		c-15.1,8.5-33.9,7.1-42.1,5.7c-8.2-1.4-17.9-5-25.7-11.6c-7.3-6.1-13.4-17.6-14.4-20.4c-0.7-1.8-1.2-3.6-1.7-5.4
		c9.3,9,15.3,16.4,33.1,18.9s36.2,0.9,46.4-5.4c12.2-7.5,18.7-17,22.1-28C163.6,170.7,163.9,133.1,158.9,118.9z"/>
	<circle class="st2" cx="71.3" cy="179.6" r="4.7"/>
	<path class="st3" d="M71.8,164c4-21.3,5.9-59.5,36.6-74.1"/>
</g>
</svg>
