<svg id="Calque_1" data-name="Calque 1" xmlns="http://www.w3.org/2000/svg" viewBox="0 0 226.61 310.94"><defs><style>.cls-1{fill:#b7b7b7;}.cls-2{fill:#a8a8a8;}.cls-3{fill:#e8e8e8;}.cls-4{fill:none;stroke:#f4f4f4;stroke-linecap:round;stroke-miterlimit:10;stroke-width:18px;}</style></defs><title>platine-egg</title><path class="cls-1" d="M209.34,52.63c18.47,0,36.15,7.77,54.48,27.21S300.19,138.15,308,162s7.5,70.52,6.94,80-20.55,66.08-20.55,66.08l-65.53,30.54-91.62-13.88L105,297.52c-5.55-12.22-10.45-34.39-9.44-59.42,1.28-31.85,13.45-76.63,20-92.73,7.56-18.64,18.46-42,32.21-56.64,14-14.91,28.05-24.36,32.21-26.65C185.64,58.94,195.33,52.63,209.34,52.63Z" transform="translate(-95.43 -52.63)"/><path class="cls-2" d="M298.28,136.28c5.6,11.95,18.36,45.4,22.51,78.57,2.78,28,1,52.77-6.45,77.3-7.1,23.38-17.84,41.12-48,58.2-29.6,16.78-66.64,13.88-82.74,11.11s-35.18-9.76-50.53-22.77c-14.26-12.07-26.31-34.64-28.32-40a110.52,110.52,0,0,1-3.33-10.55c18.32,17.77,30,32.21,65,37.2s71,1.75,91.07-10.55c24-14.71,36.65-33.32,43.31-55S308.14,164.18,298.28,136.28Z" transform="translate(-95.43 -52.63)"/><circle class="cls-3" cx="30.78" cy="202.89" r="9.23"/><path class="cls-4" d="M127.22,224.77c7.77-41.92,11.66-116.89,71.91-145.49" transform="translate(-95.43 -52.63)"/></svg>