<?xml version="1.0" encoding="utf-8"?>
<!-- Generator: Adobe Illustrator 21.0.0, SVG Export Plug-In . SVG Version: 6.00 Build 0)  -->
<svg version="1.1" id="Calque_1" xmlns="http://www.w3.org/2000/svg" xmlns:xlink="http://www.w3.org/1999/xlink" x="0px" y="0px"
	 viewBox="0 0 425.2 425.2" style="enable-background:new 0 0 425.2 425.2;" xml:space="preserve">
<style type="text/css">
	.st0{fill:#253E86;}
	.st1{fill:#E0E1E5;}
	.st2{fill:none;}
	.st3{fill:#D91C48;stroke:#F7FBFF;stroke-miterlimit:10;}
	.st4{font-family:'FuturaBQ-DemiBold';}
	.st5{font-size:25.4389px;}
	.st6{fill:#987926;}
	.st7{fill:#F58529;}
	.st8{fill:#C72528;}
	.st9{fill:#E9B52B;}
	.st10{clip-path:url(#SVGID_2_);fill:#CB9C2C;}
	.st11{fill:#FFF7EA;}
	.st12{fill:#050A0E;}
	.st13{fill:#C87028;}
	.st14{fill:#D87826;}
	.st15{fill:#B76627;}
	.st16{fill:#F4BF3D;}
	.st17{fill:#CF3334;}
</style>
<g>
	<path class="st0" d="M149.7,84.8V219h60.8l31.8-145.6h-91c-0.9,0-1.6,0.7-1.6,1.6V84.8z"/>
	<path class="st1" d="M210.5,219h65V74.5c0-0.6-0.4-1-1-1h-32.2L210.5,219z"/>
	<polygon class="st0" points="275.5,219 275.5,328.5 185.7,328.5 210.5,219 	"/>
	<polygon class="st1" points="149.7,219 149.7,328.5 185.7,328.5 210.5,219 	"/>
	<path class="st1" d="M154.7,73.2v-3.3c0-0.2,0.1-0.3,0.3-0.3h7.5c0.2,0,0.3-0.1,0.3-0.3v-2.9c0-0.2,0.1-0.3,0.3-0.3h99
		c0.2,0,0.3,0.1,0.3,0.3v3.1c0,0.2,0.1,0.3,0.3,0.3h9.3c0.2,0,0.3,0.1,0.3,0.3v3.1c0,0.2-0.1,0.3-0.3,0.3H155
		C154.8,73.5,154.7,73.3,154.7,73.2z"/>
	<rect x="149.7" y="328.5" class="st0" width="36" height="14.5"/>
	<rect x="185.7" y="328.5" class="st1" width="89.7" height="14.5"/>
	<path class="st1" d="M149.7,343v4.8c0,0.5,0.4,0.9,0.9,0.9h3.2c0.5,0,0.9,0.4,0.9,0.9v8.7c0,0.5,0.4,0.9,0.9,0.9h30.2V343H149.7z"
		/>
	<path class="st0" d="M185.7,343h89.7v5c0,0.4-0.3,0.6-0.6,0.6h-1.9c-0.4,0-0.6,0.3-0.6,0.6v4c0,0.4-0.3,0.6-0.6,0.6h-7.4
		c-0.3,0-0.6,0.3-0.6,0.6l-0.4,4.1c0,0.3-0.3,0.6-0.6,0.6h-76.9V343z"/>
	<g>
		<rect x="158.9" y="248.5" class="st2" width="110.6" height="22.4"/>
		<text transform="matrix(1 0 0 1 158.9077 266.6055)" class="st3 st4 st5">Red Poule</text>
	</g>
	<g>
		<g>
			<path class="st6" d="M194.3,217.7c2.5,0.7,3.7,7.5,3.7,7.5s-1.3,3.4-5.3,3.6s-6.7-2.2-7.6-3.5c-1.8-2.4-2.5-6.4-1.5-10.6
				c0.4-1.7,0.3-2.3,1.8-1.2C186.9,214.7,191.6,217,194.3,217.7z"/>
		</g>
		<g>
			<path class="st6" d="M231.9,217.7c-2.5,0.7-3.7,7.5-3.7,7.5s1.3,3.4,5.3,3.6c4,0.3,6.7-2.2,7.6-3.5c1.8-2.4,2.5-6.4,1.5-10.6
				c-0.4-1.7-0.3-2.3-1.8-1.2C239.3,214.7,234.6,217,231.9,217.7z"/>
		</g>
		<g>
			<path class="st7" d="M199.7,234.5c-0.9,0.7-1.6,1.8-1.8,2.4c-0.1,0.6,0.2,1.2,0.9,1.5c0.7,0.3,1.6,0.7,2.3-0.6
				c0.6-1.3,1.1-2.4,1.1-2.4L199.7,234.5z"/>
			<path class="st7" d="M202.6,235.7c-1.3,0.6-2.2,2.6-2.2,3c0,0.8,1.2,1.1,1.9,0.9c0.4-0.2,0.8-0.8,1-1.5c0.2-0.7,0.2-1.7,0.2-1.7
				L202.6,235.7z"/>
			<path class="st7" d="M205.5,237.2c-0.1,0.9,0.1,2.4-0.6,2.8c-0.4,0.2-1.1,0.4-1.8,0.1c-0.6-0.3-0.9-0.6-0.7-1.8
				c0.2-1.2,1.5-3,1.5-3l1.5,1.1L205.5,237.2z"/>
		</g>
		<g>
			<path class="st7" d="M226.5,234.5c0.9,0.7,1.6,1.8,1.8,2.4c0.1,0.6-0.2,1.2-0.9,1.5c-0.7,0.3-1.6,0.7-2.3-0.6
				c-0.6-1.3-1.1-2.4-1.1-2.4L226.5,234.5z"/>
			<path class="st7" d="M223.6,235.7c1.3,0.6,2.2,2.6,2.2,3c0,0.8-1.2,1.1-1.9,0.9c-0.4-0.2-0.8-0.8-1-1.5c-0.2-0.7-0.2-1.7-0.2-1.7
				L223.6,235.7z"/>
			<path class="st7" d="M220.7,237.2c0.1,0.9-0.1,2.4,0.6,2.8c0.4,0.2,1.1,0.4,1.8,0.1c0.6-0.3,0.9-0.6,0.7-1.8
				c-0.2-1.2-1.5-3-1.5-3l-1.5,1.1L220.7,237.2z"/>
		</g>
		<path class="st8" d="M203.1,192.5c-3.7-4.8-5.2-7.5-4.2-12.9c1-5.4,5.2-2.3,5.8,0.7c0.7,3.3,1.7,12.2,1.7,12.2H203.1z"/>
		<path class="st8" d="M207.6,173.5c-1.6,2.1-2.6,5.5-3,10.3s-0.3,7.2,0.1,8.3c0.4,1.1,2.9-0.5,2.9-0.5s2.6-5.5,3.4-8.1
			c0.8-2.5,1.5-6.6,1.5-7.8c0-1.2-0.4-2.3-1.7-3.1C210.1,172.2,208.7,172.1,207.6,173.5z"/>
		<path class="st8" d="M216.8,172.4c-2.9,1.2-4.6,2.7-6.1,6.4c-1.5,3.7-3.7,9.4-3.7,12.1c0,2.7,3.7-0.5,3.7-0.5s2-4.9,2.9-5.9
			s3.9-3.6,5.6-4.6c1.6-1,4.4-3.3,4.8-4.9c0.3-1.5-0.6-2.8-2.4-3.2C219.5,171.4,218.3,171.7,216.8,172.4z"/>
		<path class="st8" d="M216.3,189.9c2-1.7,3.9-3.2,7.4-3.6c1.5-0.2,5.9-1.2,6.8-2.4c1-1.3,0.4-4-2.2-5.2c-3.8-1.8-11.4,2.7-12.7,3.9
			c-1.3,1.2-4,2.1-5.1,7.9S216.3,189.9,216.3,189.9z"/>
		<path class="st8" d="M214.4,190.5c1-0.7,5.9-3.5,8.3-3.7c2.6-0.3,3.5,0,4.3,0.5c1.5,0.8,1.8,2.5,0.9,3.3c-1,0.8-3,0.6-4.3,0.7
			c-1.3,0.1-4.5,1-4.5,1L214.4,190.5z"/>
		<circle class="st9" cx="213.1" cy="214.3" r="25.1"/>
		<g>
			<defs>
				<circle id="SVGID_1_" cx="213.1" cy="214.3" r="25.1"/>
			</defs>
			<clipPath id="SVGID_2_">
				<use xlink:href="#SVGID_1_"  style="overflow:visible;"/>
			</clipPath>
			<ellipse class="st10" cx="213.1" cy="238.3" rx="18.6" ry="15.3"/>
		</g>
		<g>
			<circle class="st11" cx="222.9" cy="206.8" r="6.6"/>
			<circle class="st12" cx="222" cy="206.6" r="4.4"/>
			
				<ellipse transform="matrix(0.6662 -0.7458 0.7458 0.6662 -77.9182 235.1342)" class="st11" cx="223.7" cy="204.6" rx="0.6" ry="1.3"/>
		</g>
		<g>
			<circle class="st11" cx="203.9" cy="206.8" r="6.6"/>
			<circle class="st12" cx="204.7" cy="206.6" r="4.4"/>
			
				<ellipse transform="matrix(0.6662 -0.7458 0.7458 0.6662 -83.6982 222.2206)" class="st11" cx="206.4" cy="204.6" rx="0.6" ry="1.3"/>
		</g>
		<path class="st13" d="M213.1,216.6c0,0-3.8,0-4.8,0.1c-0.1,0-1.6,0-1.5,0c0.7,0.5,3.2,3,6.3,3c3.2,0,5.6-2.4,6.3-3
			c0.1,0-1.1-0.2-1.2-0.2C217.2,216.6,213.1,216.6,213.1,216.6z"/>
		<ellipse class="st11" cx="213.1" cy="217.2" rx="3.4" ry="1.7"/>
		<path class="st14" d="M213.1,213.5c-1.4,2.1-6.2,2.5-7.2,2.5c-0.1,0-0.1,0.1,0,0.1c0.7,0.5,4.1,2.8,7.3,2.8c3.2,0,6.5-2.2,7.3-2.8
			c0.1,0,0-0.1,0-0.1c-1-0.1-5.7-0.4-7.2-2.5C213.1,213.5,213.1,213.5,213.1,213.5z"/>
		
			<ellipse transform="matrix(0.7071 -0.7071 0.7071 0.7071 -89.3607 214.0971)" class="st15" cx="213.8" cy="214.9" rx="0.1" ry="0.2"/>
		
			<ellipse transform="matrix(0.7071 -0.7071 0.7071 0.7071 -89.7477 213.1628)" class="st15" cx="212.4" cy="214.9" rx="0.2" ry="0.1"/>
		<ellipse transform="matrix(0.5 -0.866 0.866 0.5 -57.4516 291.48)" class="st16" cx="223.7" cy="195.5" rx="2" ry="4.1"/>
		<path class="st17" d="M226.1,187.3c-0.2,0,0.1,0.3,0.5,0.5c0.2,0.1,0.5,0.5,0.5,0.7c0.1,0.3,0.2,0.6,0.2,0.7c0,0.2,0.3,0.6,0.4,0
			c0.2-0.6-0.2-1-0.4-1.3C227.1,187.7,226.4,187.3,226.1,187.3z"/>
		<path class="st17" d="M223.7,179c1.4-0.3,2.7-0.4,3.7-0.1c1.1,0.3,2.5,1.2,2.5,2.2c0,0.6-0.9,0.4-1,0c-0.3-0.8-1.1-1.4-2.2-1.6
			c-0.6-0.1-1.2-0.3-2.3-0.2C223.4,179.3,223.3,179.1,223.7,179z"/>
		<path class="st17" d="M216.3,173.1c0.8-0.5,1.8-0.8,2.8-0.9c0.8-0.1,1.5,0,2.2,0.1c0.5,0.1,1.3,0.5,1.5,0.8s-0.4,0.6-0.9,0.3
			c-0.4-0.2-1.1-0.7-1.9-0.8c-0.7,0-1.1,0-1.9,0.1c-0.2,0-1.1,0.3-1.5,0.5C215.9,173.5,216,173.3,216.3,173.1z"/>
		<path class="st17" d="M211.3,173.5c0.5,0.5,0.1,1-0.3,0.6c-0.4-0.3-0.7-0.8-1.4-0.9c-0.5,0-0.8,0.2-1.1,0.3
			c-0.2,0.1-0.4,0.1-0.2-0.1s0.6-0.6,1.2-0.7C210.2,172.7,210.9,173,211.3,173.5z"/>
		<path class="st17" d="M201.7,177.1c0.4,0.1,0.8,0.4,1.4,1.1c0.5,0.6,0.7,1,0.8,1.5c0,0.3-0.6,0.6-0.8,0.2
			c-0.2-0.5-0.3-1.3-0.5-1.7c-0.3-0.6-0.6-0.7-1-0.9C201.1,177.1,201.5,177.1,201.7,177.1z"/>
	</g>
</g>
</svg>
