<?xml version="1.0" encoding="utf-8"?>
<!-- Generator: Adobe Illustrator 21.0.0, SVG Export Plug-In . SVG Version: 6.00 Build 0)  -->
<svg version="1.1" id="Calque_1" xmlns="http://www.w3.org/2000/svg" xmlns:xlink="http://www.w3.org/1999/xlink" x="0px" y="0px"
	 viewBox="0 0 425.2 425.2" style="enable-background:new 0 0 425.2 425.2;" xml:space="preserve">
<style type="text/css">
	.st0{opacity:0.2;}
	.st1{fill:#D3922A;}
	.st2{fill:#FCE372;stroke:#2D1C1C;stroke-miterlimit:10;}
</style>
<g class="st0">
	<g>
		<path class="st1" d="M205.8,315.4c0,0,0.1,0,0.1,0c1.1,0,2.3-0.5,3.2-1.3c0.3-0.3,0.7-0.6,0.7-1.1c0-0.3-0.3-0.6-0.6-0.6
			c0,0-0.1,0-0.1,0c-1.1,0-2.3,0.5-3.2,1.3c-0.3,0.3-0.7,0.6-0.7,1.1C205.2,315.1,205.5,315.4,205.8,315.4L205.8,315.4z"/>
	</g>
</g>
<g class="st0">
	<g>
		<path class="st1" d="M237,327.1c3.1,0,1.8-4.8-1-4.8C232.9,322.4,234.2,327.1,237,327.1L237,327.1z"/>
	</g>
</g>
<g class="st0">
	<g>
		<path class="st1" d="M189.1,331.5c2.9,0,1.1-4.6-1.4-4.6C184.8,327,186.6,331.5,189.1,331.5L189.1,331.5z"/>
	</g>
</g>
<g class="st0">
	<g>
		<path class="st1" d="M191,314.7c2.8,0,4.3-4.3,1-4.3C189.2,310.4,187.7,314.7,191,314.7L191,314.7z"/>
	</g>
</g>
<g>
	<path class="st2" d="M110.1,90.7c3.4-1.9,6.5-3.3,10-3.9c3.5-0.7,11.2-0.5,13.1-0.5s12.6-0.3,14.8,0c2.2,0.3,10,1.8,13.1,5.3
		c3.1,3.5,4.6,6.6,4.6,11.2c0,4.6-1.2,7.9-4.6,10.7c-3.4,2.8-9.4,5.6-10.8,6.1c-1.5,0.5-9.6,1.9-11,2.2c-1.4,0.3-15.4,2.2-19.4,1.8
		c-3.9-0.4-11.4-0.5-15.6-4.5s-7.9-6.2-7.7-9.2s1.9-7.5,3.9-9.8c2-2.3,5.8-7,7.2-8.1C109.1,90.8,110.1,90.7,110.1,90.7z"/>
	<path class="st2" d="M235,95.3c11.8-0.5,25.1,0,29,0.7s11.7,2.4,13.6,4.3c1.9,1.9,5,6.5,5.3,10.4c0.3,3.9,0.8,8,0,10.3
		c-0.8,2.3-6.8,6.5-8.4,7.6c-1.6,1.1-7.2,3.5-9.1,4.2c-1.9,0.7-8.8,2-9.8,2.2c-0.9,0.1-26.8-1.8-28.9-3.3c-2-1.5-16.7-4.5-17.3-9.2
		c-0.7-4.7-1.4-10.3,2.2-15.2c3.5-4.9,10.4-8.7,13.8-9.8C228.8,96.5,235,95.3,235,95.3z"/>
	<path class="st2" d="M213.6,113.5c-3.3,0.8-13.8,3.3-19,4.9c-5.1,1.6-10.8,4.4-12.7,5.2s-6.8,4.3-7.6,7.8c-0.8,3.5-2.2,11.9-1.6,16
		c0.5,4.1,2.4,8.4,8.4,9.2s30.4,4.9,40.5,2.8c10.2-2,19.1-8.1,20.3-13s4.9-13.4,0-19.9c-4.9-6.5-13.4-12.6-19.1-13
		C217.1,113.1,213.6,113.5,213.6,113.5z"/>
	<path class="st2" d="M289.9,130.5c8.1-3.3,18.7-6.9,27.2-5.7c8.5,1.2,17.9,3.3,20.3,8.1c2.4,4.9,4.5,8.1,4.5,12.2s-8.9,11-11,13
		c-2,2-11.4,5.7-15,6.9c-3.7,1.2-8.1,1.6-15,1.6s-16.7-1.2-19.9-3.3c-3.3-2-9.8-8.5-10.2-12.2c-0.4-3.7-2.4-7.3,0-10.2
		c2.4-2.8,9.5-6.9,12.5-8.5C286.2,131,289.9,130.5,289.9,130.5z"/>
	<path class="st2" d="M126.5,155.7c5.7-0.4,10.2-1.2,15.9,0s15.4,3.3,19.1,8.1s8.5,12.6,8.5,16.3c0,3.7-5.3,10.6-8.1,13.4
		c-2.8,2.8-18.3,5.7-22.4,5.7s-26.4-2-30.1-3.7c-3.7-1.6-9.6-3.7-12.7-8.1c-3.1-4.5-6-10.6-4.3-16.3s3.3-9,9.8-11.6
		C108.6,157,126.5,155.7,126.5,155.7z"/>
	<path class="st2" d="M255.3,133.8c4.1,0,7.7,0.8,13,2.8c5.3,2,12.2,4.9,15.4,6.5c3.3,1.6,9.4,5.3,9.4,11s0,13.8-2.8,15.4
		c-2.8,1.6-15.4,4.5-19.1,3.7s-16.3,0.4-24.4-2.4c-8.1-2.8-17.9-8.1-21.5-15c-3.7-6.9,3.3-13,5.7-15.4c2.4-2.4,11.4-6.1,16.3-6.5
		S255.3,133.8,255.3,133.8z"/>
	<path class="st2" d="M229.7,153.5c-8.1-4.2-18.8-6.7-27.3-6.3c-8.5,0.4-23.5,3.6-27.6,6.3c-4.1,2.7-10.2,7.9-7.3,16.1
		c2.8,8.1,7.7,13.8,13.8,16.7c6.1,2.8,16.3,4.1,30.5,2.4c14.2-1.6,20.4-5.4,24.4-13c4-7.6,2.8-14.2,0-17.5
		C233.4,154.9,229.7,153.5,229.7,153.5z"/>
	<path class="st2" d="M270.4,178.4c8.9,0.9,20.3,4.2,22.4,7.8c2,3.7,4.5,7.8,4.5,11.2s-2,10.2-7.3,14.3c-5.3,4.1-12.2,7.4-19.5,9
		s-14.5,3.3-22.3,2.4c-7.8-0.8-13.2-4.5-16.4-7.3c-3.2-2.8-4.4-11.5-4.4-15s5.3-13.9,12.6-15.9c7.3-2,17.1-6.2,20.3-5.8
		C263.5,179.7,270.4,178.4,270.4,178.4z"/>
	<path class="st2" d="M75.2,209.8c6.5-4.5,18.7-8.4,25.2-8.9c6.5-0.5,27.2,5.2,28.5,8.9c1.2,3.7,3.3,23.6,0,28.1
		c-3.3,4.5-21.8,11-26,11.4c-4.1,0.4-24.9,2.8-31.4-1.2c-6.5-4.1-11.4-11.9-10.6-19.2C61.8,221.6,75.2,209.8,75.2,209.8z"/>
	<path class="st2" d="M198,304.1c10.2,0,16.3-1.2,21.6,0s10.5,4.9,12.2,9.8c1.7,4.9,1.2,12.2,0,14.6s-14.6,9.4-19.9,9.8
		s-14.7,1.6-21.6,0s-12.1-0.8-17-7.7c-4.9-6.9-2.4-15.9,2.8-19.5C181.3,307.4,198,304.1,198,304.1z"/>
	<path class="st2" d="M297.2,287.5c12.2-0.8,26.8-2.4,31.7,2.4c4.9,4.9,8.5,12.6,6.9,18.3c-1.6,5.7-11.8,10.4-19.1,13.1
		s-23.6,2.2-33.3,0.8c-9.8-1.4-16.3-7.1-13.8-15.2c2.4-8.1,7.3-13,12.2-15C286.6,289.9,297.2,287.5,297.2,287.5z"/>
	<path class="st2" d="M240,258.2c4.7-2.8,14.9-7.2,21.8-7.8c6.9-0.7,22.8-1.5,26.4,2.2c3.7,3.7,15,2.4,13.4,14.2
		c-1.6,11.8-8.1,12.6-13,16.3c-4.9,3.7-17.5,9.4-25.2,9.8c-7.7,0.4-25.2,2-29.5,0s-11.2-3.7-11.2-15S240,258.2,240,258.2z"/>
	<path class="st2" d="M178.4,225.4c6.6,0,15,0.7,18.4,1.1s13.1,2.3,14.9,3.8s6,4.9,7.6,7.3c1.6,2.4,5.4,6,6.1,9.9
		c0.7,3.9-2.4,11.4-5.7,14.1c-3.3,2.7-16.1,6.2-23.3,6.5s-26.8-2.4-31.3-4.9c-4.5-2.4-14.5-7.6-14.8-12.7
		c-0.3-5.1,0.8-16.4,8.3-20.5C166,225.9,176.3,225.4,178.4,225.4z"/>
	<path class="st2" d="M317.2,189.4c6.6,0,15,0.7,18.4,1.1s13.1,2.3,14.9,3.8c1.8,1.5,6,4.9,7.6,7.3c1.6,2.4,5.4,6,6.1,9.9
		c0.7,3.9-2.4,11.4-5.7,14.1s-16.1,6.2-23.3,6.5c-7.2,0.3-26.8-2.4-31.3-4.9c-4.5-2.4-14.5-7.6-14.8-12.7
		c-0.3-5.1,0.8-16.4,8.3-20.5C304.8,189.9,315.1,189.4,317.2,189.4z"/>
	<path class="st2" d="M275.3,226.9c7.7-3.3,19.1-5.3,30.5-4.9s23.6,4.5,27.2,10.2s8.1,8.1,8.1,15.4c0,7.3-10.2,14.6-17.1,14.6
		s-22,2-26.8,0c-4.9-2-18.3-3.3-22-6.5c-3.7-3.3-6-9.8-5.7-15C270,235.4,275.3,226.9,275.3,226.9z"/>
	<path class="st2" d="M269.6,223.6c5.3,5.2,10.1,11.4,8.1,15.9c-2,4.5-9.3,11-16.4,11c-7.2,0-23,0.8-34-4.1s-18.6-10.2-18.4-14.6
		c0.1-4.5,2.2-15.3,10.7-17.1C242.8,209.6,263.3,217.4,269.6,223.6z"/>
	<path class="st2" d="M234.2,161c5.7,0,17.1,0,21.1,2c4.1,2,7.3,3.7,8.5,8.1c1.2,4.5,2.8,10.2,0,14.6c-2.8,4.5-13.8,8.5-19.5,9.8
		c-5.7,1.2-15.5,2.4-24.8,1.6c-9.4-0.8-13.9-1.2-17.1-6.1s-8.2-10.6,0-17.9c8.2-7.3,18.8-12.2,23.2-12.2S234.2,161,234.2,161z"/>
	<path class="st2" d="M133,250.3c13.4,0.5,27.4,0.9,33.8,8.3c6.4,7.3,11.7,12.2,11.3,19.5c-0.4,7.3-11.1,16.3-17.1,17.5
		c-6.1,1.2-31.7-2-38.2-4.5c-6.5-2.4-15.9-4.5-18.7-7.7c-2.8-3.3-5.7-11.4-2.4-18.3c3.3-6.9,11.8-11.8,17.1-12.6
		C124,251.7,133,250.3,133,250.3z"/>
	<path class="st2" d="M131.7,195.2c11.4-6.1,26.7-14.4,35-13.8c8.3,0.5,23.9,3.7,29.2,9.8s8.4,13,6.8,17.9
		c-1.5,4.9-6.5,11.8-12.6,16.7s-25.6,9.8-30.8,9.4c-5.3-0.4-22.8-1.6-30.9-9.4c-8.1-7.7-11.4-15.4-8.9-19.9
		C122,201.3,131.7,195.2,131.7,195.2z"/>
	<g class="st0">
		<g>
			<path class="st1" d="M226.3,312.7c3.1,0,1-4.2-1.5-4.2C221.7,308.5,223.8,312.7,226.3,312.7L226.3,312.7z"/>
		</g>
	</g>
	<g class="st0">
		<g>
			<path class="st1" d="M239.2,281.4c0.3,0-2.1-3.3-3.5-3.3C235.4,278.1,237.8,281.4,239.2,281.4L239.2,281.4z"/>
		</g>
	</g>
	<g class="st0">
		<g>
			<path class="st1" d="M254,265.8c3.3,0,0.5-3.1-1.5-3.1C249.3,262.7,252,265.8,254,265.8L254,265.8z"/>
		</g>
	</g>
	<g class="st0">
		<g>
			<path class="st1" d="M229.6,220.8c2.6,0,4.3-3.2,1-3.2C228,217.6,226.3,220.8,229.6,220.8L229.6,220.8z"/>
		</g>
	</g>
	<g class="st0">
		<g>
			<path class="st1" d="M163,208.8c3.3,0,1-3.7-1.4-3.7C158.3,205.1,160.5,208.8,163,208.8L163,208.8z"/>
		</g>
	</g>
	<g class="st0">
		<g>
			<path class="st1" d="M200.2,165.2c1.1,0-2.4-2.6-3.5-2.6C195.6,162.6,199.1,165.2,200.2,165.2L200.2,165.2z"/>
		</g>
	</g>
	<g class="st0">
		<g>
			<path class="st1" d="M251.3,156c2.6,0-1.2-2.9-2.5-2.9C246.2,153.1,250,156,251.3,156L251.3,156z"/>
		</g>
	</g>
	<g class="st0">
		<g>
			<path class="st1" d="M191.1,134.8c2.8,0,0.8-4.5-1.5-4.5C186.7,130.4,188.7,134.8,191.1,134.8L191.1,134.8z"/>
		</g>
	</g>
	<g class="st0">
		<g>
			<path class="st1" d="M271,116.1c2.7,0,4.4-4.5,1.2-4.5C269.5,111.6,267.8,116.1,271,116.1L271,116.1z"/>
		</g>
	</g>
	<g class="st0">
		<g>
			<path class="st1" d="M129.8,105.5c0.7,0-1.9-3.5-3.4-3.5C125.7,102,128.3,105.5,129.8,105.5L129.8,105.5z"/>
		</g>
	</g>
	<g class="st0">
		<g>
			<path class="st1" d="M161.2,106.2c1.4,0-2.3-2.6-3.5-2.6C156.2,103.6,160,106.2,161.2,106.2L161.2,106.2z"/>
		</g>
	</g>
	<g class="st0">
		<g>
			<path class="st1" d="M109.5,173.2c0.4,0-1.5-4-2.6-4C106.4,169.2,108.3,173.2,109.5,173.2L109.5,173.2z"/>
		</g>
	</g>
	<g class="st0">
		<g>
			<path class="st1" d="M145.1,184.9c3,0,3.1-3.1,0-3.1C142.1,181.9,142.1,184.9,145.1,184.9L145.1,184.9z"/>
		</g>
	</g>
	<g class="st0">
		<g>
			<path class="st1" d="M152,173.8c0.2,0-1-4.4-2.4-4.4C149.5,169.4,150.6,173.8,152,173.8L152,173.8z"/>
		</g>
	</g>
	<g class="st0">
		<g>
			<path class="st1" d="M97,209.3c3,0,3.6-4.6,0.4-4.6C94.4,204.7,93.8,209.3,97,209.3L97,209.3z"/>
		</g>
	</g>
	<g class="st0">
		<g>
			<path class="st1" d="M69.8,230.2c3.3,0,2.1-3.3-0.6-3.3C66,226.9,67.2,230.2,69.8,230.2L69.8,230.2z"/>
		</g>
	</g>
	<g class="st0">
		<g>
			<path class="st1" d="M102,248.1c0.9,0-1.1-4.2-2.4-4.2C98.8,243.9,100.8,248.1,102,248.1L102,248.1z"/>
		</g>
	</g>
	<g class="st0">
		<g>
			<path class="st1" d="M101.3,229.6c3,0,2.9-2.2-0.1-2.2C98.2,227.4,98.3,229.6,101.3,229.6L101.3,229.6z"/>
		</g>
	</g>
	<g class="st0">
		<g>
			<path class="st1" d="M264.4,205.2c2,0,0.1-4.5-1.8-4.5C260.5,200.6,262.5,205.2,264.4,205.2L264.4,205.2z"/>
		</g>
	</g>
	<g class="st0">
		<g>
			<path class="st1" d="M243.5,185.4c3.1,0,3.1-3.3,0-3.3C240.5,182.2,240.5,185.4,243.5,185.4L243.5,185.4z"/>
		</g>
	</g>
	<g class="st0">
		<g>
			<path class="st1" d="M207.7,179.6c2.5,0,4.4-3,1-3C206.2,176.6,204.3,179.6,207.7,179.6L207.7,179.6z"/>
		</g>
	</g>
	<g class="st0">
		<g>
			<path class="st1" d="M302.6,153.9c2,0,0-4.5-1.9-4.5C298.7,149.4,300.7,153.9,302.6,153.9L302.6,153.9z"/>
		</g>
	</g>
	<g class="st0">
		<g>
			<path class="st1" d="M308.2,131.4c3.1,0,3-3.4-0.1-3.4C305.1,128,305.1,131.4,308.2,131.4L308.2,131.4z"/>
		</g>
	</g>
	<g class="st0">
		<g>
			<path class="st1" d="M333.5,142.6c3.3,0,1.5-2.9-1-2.9C329.1,139.7,331,142.6,333.5,142.6L333.5,142.6z"/>
		</g>
	</g>
	<g class="st0">
		<g>
			<path class="st1" d="M302.6,243.9c3.4,0,1.2-2.4-1.1-2.4C298.1,241.6,300.4,243.9,302.6,243.9L302.6,243.9z"/>
		</g>
	</g>
	<g class="st0">
		<g>
			<path class="st1" d="M200.9,246.9c1,0,5.4-1.9,3.1-1.9C203.1,245.1,198.6,246.9,200.9,246.9L200.9,246.9z"/>
		</g>
	</g>
	<g class="st0">
		<g>
			<path class="st1" d="M156.8,250.6c1.6,0-0.5-4.4-2-4.4C153.2,246.2,155.2,250.6,156.8,250.6L156.8,250.6z"/>
		</g>
	</g>
	<g class="st0">
		<g>
			<path class="st1" d="M193,265.8c2.9,0,1.1-4.5-1.4-4.5C188.7,261.2,190.6,265.8,193,265.8L193,265.8z"/>
		</g>
	</g>
	<g class="st0">
		<g>
			<path class="st1" d="M144.7,276.3c3.2,0,2.3-4.5-0.6-4.5C140.8,271.8,141.7,276.3,144.7,276.3L144.7,276.3z"/>
		</g>
	</g>
	<g class="st0">
		<g>
			<path class="st1" d="M117.3,261.2c3.2,0,2.4-4.4-0.5-4.4C113.6,256.8,114.5,261.2,117.3,261.2L117.3,261.2z"/>
		</g>
	</g>
	<g class="st0">
		<g>
			<path class="st1" d="M118.6,289.4c0.3,0-1.7-3.8-2.9-3.8C115.4,285.5,117.3,289.4,118.6,289.4L118.6,289.4z"/>
		</g>
	</g>
	<g class="st0">
		<g>
			<path class="st1" d="M273.8,287.3c1.8,0,4.7-1.2,1.2-1.2C273.3,286,270.3,287.3,273.8,287.3L273.8,287.3z"/>
		</g>
	</g>
	<g class="st0">
		<g>
			<path class="st1" d="M287.1,307.5c1,0,4.7-1.8,4-1.8C290,305.7,286.4,307.5,287.1,307.5L287.1,307.5z"/>
		</g>
	</g>
	<g class="st0">
		<g>
			<path class="st1" d="M307.3,302.1c2.9,0,3.4-4,0.1-4C304.5,298,304.1,302.1,307.3,302.1L307.3,302.1z"/>
		</g>
	</g>
</g>
<g class="st0">
	<g>
		<path class="st1" d="M324.9,314.3c2.7,0-1-3-2.5-3C319.7,311.4,323.4,314.3,324.9,314.3L324.9,314.3z"/>
	</g>
</g>
</svg>
