<?xml version="1.0" encoding="utf-8"?>
<!-- Generator: Adobe Illustrator 21.0.0, SVG Export Plug-In . SVG Version: 6.00 Build 0)  -->
<svg version="1.1" id="Calque_1" xmlns="http://www.w3.org/2000/svg" xmlns:xlink="http://www.w3.org/1999/xlink" x="0px" y="0px"
	 viewBox="0 0 425.2 425.2" style="enable-background:new 0 0 425.2 425.2;" xml:space="preserve">
<style type="text/css">
	.st0{fill:#F2F3F3;}
	.st1{fill:#3567B1;}
	.st2{fill:none;stroke:#1D0C0B;stroke-width:4;stroke-linecap:round;stroke-miterlimit:10;}
	.st3{fill:none;stroke:#0B0606;stroke-width:3;stroke-linecap:round;stroke-miterlimit:10;}
</style>
<g>
	<path class="st0" d="M309.7,96.9c0,0-0.9-5.6-3.7-8c-2.8-2.3-23.3-9.9-27.4-10.6c-4.1-0.7-23.9-4.2-30-4.9s-19.9-1.2-25.1-1.3
		c-5.2,0-32.2,0.6-35.4,0.9c-3.2,0.3-29.6,2.9-33.9,3.8c-4.4,1-20.2,4.6-23.6,6.1c-3.5,1.5-11.9,3.3-12.7,5.9
		c-0.8,2.6-2.5,7.5-2.5,8s0,2.1,0,2.1l16.4,217.6l1.9,16.1l12.7,5.8l30.5,9.8l48.4,4.6l20.7-3.1l16.7-5.1l9.5-6.8l5.8-7.2l7.9-44
		l10-66.5L309.7,96.9"/>
	<path class="st1" d="M118,130.8c0,0,25.7-11.9,38-11.5c12.3,0.4,24.5,0.7,35.1,5.7c10.6,5.1,22.3,11.6,22.3,11.6s10,7,13.3,6.9
		s20.8,8.9,29.2,9.5c9.6,0.6,25.5-1.2,32-2.6c2.2-0.5,15.9-2.7,15.8-0.5c-0.1,4.8-14.2,113.6-14.2,113.6l-5.3,34.1l-2.6,16.4
		l-1.6,8.8l-2.9,9.8c0,0-9.3,9.1-12.5,11.3c-2.7,1.8-18.6,6.1-18.6,6.1l-14.5,2.5l-12.7,0.6l-20.6-1.4l-21.3-3.2l-22.1-6.2
		l-21.1-9.5l-1.2-7.5l-8.6-112.6L118,130.8z"/>
	<path class="st2" d="M115.4,100.5c0,0,16.4,216.9,17.1,224.8c0.7,7.8,2.9,7.6,4.3,8.9s5.2,2.3,17.9,8.1c12.8,5.7,43.4,10.4,64,10.8
		s40.6-6.7,43.9-8.2s14.4-9.2,15.8-15.5c0.5-2.1,2.2-9.6,2.6-11.7c0.4-2.1,10.2-65.8,10.7-68.3c0.5-2.5,5.5-39,6.2-46.7
		c0.7-7.7,11-90.8,11.7-101.5c0.7-10.7-4.9-12.9-6.6-14.5c-1.6-1.6-18.7-7.3-25.5-8.4c-6.1-1.1-20.5-3.7-31.9-5.1
		c-11.4-1.4-44.9-0.9-50.9-0.5c-6,0.4-32,2.7-37.2,3.7c-11.8,2.2-31.3,7.8-34.1,9.1c-3.8,1.7-7.5,5.7-8.2,9.2V100.5z"/>
	<path class="st3" d="M304,149.1c-6.6,0.1-37.1,5.9-47,4.1c-9.8-1.9-24.4-6.8-33.7-11.2c-9.4-4.4-22.7-13.6-35.1-18
		s-22.2-4.4-30.7-4.7s-17.1,2.8-28.4,7c0,0-11.4,5.1-11.4,6.2"/>
</g>
</svg>
