<?xml version="1.0" encoding="utf-8"?>
<!-- Generator: Adobe Illustrator 20.1.0, SVG Export Plug-In . SVG Version: 6.00 Build 0)  -->
<svg version="1.1" id="Calque_1" xmlns="http://www.w3.org/2000/svg" xmlns:xlink="http://www.w3.org/1999/xlink" x="0px" y="0px"
	 viewBox="0 0 336.5 395" style="enable-background:new 0 0 336.5 395;" xml:space="preserve">
<style type="text/css">
	.st0{fill:#4A4E5E;}
	.st1{fill:#808184;}
	.st2{fill:#EFC660;}
	.st3{fill:#EAB549;}
	.st4{fill:#9E8143;}
	.st5{fill:#555656;}
	.st6{fill:#393C47;}
</style>
<g>
	<path class="st0" d="M70.3,395l0.5-18.3l8.7-0.8l0.1-82c0,0-0.6-2.5,4.4-2.7s9.5,0,9.5,0l158.1-0.6c0,0,3.8,0.9,4.7,5.7
		c0,4.8,0,78.4,0,78.4l7.2,0.2l0.2,20.1H70.3z"/>
	<path class="st1" d="M93.4,291.2c0,0-1-11.7,7.2-11.7s129.7,0,129.7,0s5.2,1.8,5.5,11C225.3,291.2,93.4,291.2,93.4,291.2z"/>
	<path class="st2" d="M336.4,40.7c-11.7-1-46.3-1.7-54.3-1.7c0.3-8,0-15,0.3-16c0.3-1,6-5,6-6.7c0-1.7,1-11,1-11s-4-5.3-6-5.3
		s-232,0-232,0s-6.7,0-6.7,6.7c0,6.7,0,13.3,0,13.3s3.3,2,8,2c0.1,3.5,1.1,17.1,1.1,17.1l-53,1.4c0,0-17.6,137.5,103.9,154.5
		c15,20,29,22.4,29,22.4l0.3,11.1l14.2,0.5l0.2,18.4l-12.8,0.2c0,0-2.2-1.2-2.3,2.7c-0.2,3.8,0.3,7.7,0.3,7.7l3.2,0.3l-0.2,3.2
		c0,0-4.2,3.3-4.7,6.5s-1.7,10.2-3.3,11l79.7,1c0,0-4.3-6.4-5.4-10.5s-2.2-6.4-5.5-8.5c0-1.5,0-3.6,0-3.6h2.2l0.1-7.2
		c0,0,0.1-2.5-3.1-2.6s-11.6,0-11.6,0l0.6-17.8h13.5l0.2-10.9c0,0,24-9.9,30.5-24.1C246.3,194.8,338.5,179,336.4,40.7z M10.8,51.3
		h34.7c0,0,16,115.3,49.3,124C52.8,166,13.5,130.7,10.8,51.3z M240.4,178c33.3-8.7,49.3-124,49.3-124h34.7
		C321.8,133.3,282.4,168.7,240.4,178z"/>
	<path class="st3" d="M336.4,40.7c-28.2-1.2-54.3-1.7-54.3-1.7l0.1-2h-2.7l-111.8-9L167,279.5h41.1c0,0-3.9-6.2-4.9-9.3
		c-1-3.1-1.1-5.8-5.7-9.2c0-1.8,0-3.6,0-3.6h2.2l0.1-6.9c0,0,0.2-3-3.1-3s-11.6,0-11.6,0l0.6-17.8h13.5l0.2-10.9
		c0,0,26.1-11.9,30.5-24.1C240.6,195.3,338.1,186.3,336.4,40.7z M240.1,178c33.3-8.7,49.3-124,49.3-124h34.7
		C321.4,133.3,282.1,168.7,240.1,178z"/>
	<polygon class="st4" points="282.4,23 52.8,23 116.5,24 282.2,37 	"/>
	<path class="st5" d="M167,279.5v11.7l68.8-0.6c0,0-0.5-11-5.5-11S167,279.5,167,279.5z"/>
	<path class="st6" d="M167,291.2V395h96.8l-0.2-20.1l-7.2-0.2l0-78.4c0,0-0.1-4.8-5.2-5.7C245.1,290.5,167,291.2,167,291.2z"/>
</g>
</svg>
