<?xml version="1.0" encoding="utf-8"?>
<!-- Generator: Adobe Illustrator 20.1.0, SVG Export Plug-In . SVG Version: 6.00 Build 0)  -->
<svg version="1.1" xmlns="http://www.w3.org/2000/svg" xmlns:xlink="http://www.w3.org/1999/xlink" x="0px" y="0px"
	 viewBox="0 0 841.5 792" style="enable-background:new 0 0 841.5 792;" xml:space="preserve">
<style type="text/css">
	.st0{display:none;}
	.st1{display:inline;}
	.st2{fill:#3A3A51;}
	.st3{fill:#212535;}
	.st4{display:none;fill:#1E1E1D;}
	.st5{display:none;fill:#8E8E8E;}
	.st6{display:none;fill:#282828;}
	.st7{display:none;fill:#3F3220;}
	.st8{fill:#282828;}
	.st9{fill:#CCA292;}
	.st10{fill:#DBB19A;}
	.st11{fill:#9B6C6B;}
	.st12{fill:#BC9176;}
	.st13{clip-path:url(#SVGID_2_);}
	.st14{fill:#916464;}
	.st15{opacity:0.5;fill:#9B6C6B;}
	.st16{opacity:0.5;fill:#D2A182;}
	.st17{fill:#865C5C;}
	.st18{fill:none;stroke:#865C5C;stroke-width:17;stroke-miterlimit:10;}
	.st19{display:none;fill:#865C5C;}
	.st20{fill:#AF836B;}
	.st21{fill:#FDCD97;}
	.st22{display:inline;fill:#916464;}
	.st23{display:inline;fill:#834D17;}
	.st24{display:inline;fill:#1D1D1B;}
</style>
<g id="Calque_1" class="st0">
	
		<image style="display:inline;overflow:visible;opacity:0.2;" width="999" height="1776" xlink:href="../Downloads/15536974_649605138551111_481197459_o.jpg"  transform="matrix(0.7137 0 0 0.7137 -3003.9585 -142.3915)">
	</image>
</g>
<g id="Calque_15">
</g>
<g id="Calque_2">
</g>
<g id="Calque_3">
</g>
<g id="bordure_sol">
</g>
<g id="Calque_4">
</g>
<g id="Calque_5">
</g>
<g id="bande_frontale">
</g>
<g id="sol">
</g>
<g id="front_grille">
</g>
<g id="right_grille">
</g>
<g id="bg_droite">
</g>
<g id="boulons" class="st0">
	<g class="st1">
		<polygon class="st2" points="-2921.8,319.3 -2933.2,312.3 -2933.2,312.3 -2933.3,312.3 -2933.3,312.3 -2933.3,312.3 
			-2944.7,319.3 -2944.7,332.4 -2933.3,339.1 -2933.3,339.1 -2933.3,339.1 -2933.2,339.1 -2933.2,339.1 -2921.8,332.4 		"/>
		<circle class="st3" cx="-2933.3" cy="325.7" r="5.9"/>
	</g>
	<g class="st1">
		<polygon class="st2" points="-2884.6,319.3 -2896,312.3 -2896,312.3 -2896.1,312.3 -2896.1,312.3 -2896.1,312.3 -2907.5,319.3 
			-2907.5,332.4 -2896.1,339.1 -2896.1,339.1 -2896.1,339.1 -2896,339.1 -2896,339.1 -2884.6,332.4 		"/>
		<circle class="st3" cx="-2896.1" cy="325.7" r="5.9"/>
	</g>
	<g class="st1">
		<polygon class="st2" points="-2847.4,319.3 -2858.9,312.3 -2858.9,312.3 -2858.9,312.3 -2858.9,312.3 -2858.9,312.3 
			-2870.3,319.3 -2870.3,332.4 -2858.9,339.1 -2858.9,339.1 -2858.9,339.1 -2858.9,339.1 -2858.9,339.1 -2847.4,332.4 		"/>
		<circle class="st3" cx="-2858.9" cy="325.7" r="5.9"/>
	</g>
	<g class="st1">
		<polygon class="st2" points="-2810.3,319.3 -2821.7,312.3 -2821.7,312.3 -2821.7,312.3 -2821.7,312.3 -2821.7,312.3 
			-2833.1,319.3 -2833.1,332.4 -2821.7,339.1 -2821.7,339.1 -2821.7,339.1 -2821.7,339.1 -2821.7,339.1 -2810.3,332.4 		"/>
		<circle class="st3" cx="-2821.7" cy="325.7" r="5.9"/>
	</g>
	<g class="st1">
		<polygon class="st2" points="-2773.1,319.3 -2784.5,312.3 -2784.5,312.3 -2784.5,312.3 -2784.5,312.3 -2784.5,312.3 
			-2795.9,319.3 -2795.9,332.4 -2784.5,339.1 -2784.5,339.1 -2784.5,339.1 -2784.5,339.1 -2784.5,339.1 -2773.1,332.4 		"/>
		<circle class="st3" cx="-2784.5" cy="325.7" r="5.9"/>
	</g>
	<g class="st1">
		<polygon class="st2" points="-2735.9,319.3 -2747.3,312.3 -2747.3,312.3 -2747.3,312.3 -2747.3,312.3 -2747.3,312.3 
			-2758.7,319.3 -2758.7,332.4 -2747.3,339.1 -2747.3,339.1 -2747.3,339.1 -2747.3,339.1 -2747.3,339.1 -2735.9,332.4 		"/>
		<circle class="st3" cx="-2747.3" cy="325.7" r="5.9"/>
	</g>
	<g class="st1">
		<polygon class="st2" points="-2698.7,319.3 -2710.1,312.3 -2710.1,312.3 -2710.1,312.3 -2710.1,312.3 -2710.1,312.3 
			-2721.5,319.3 -2721.5,332.4 -2710.1,339.1 -2710.1,339.1 -2710.1,339.1 -2710.1,339.1 -2710.1,339.1 -2698.7,332.4 		"/>
		<circle class="st3" cx="-2710.1" cy="325.7" r="5.9"/>
	</g>
	<g class="st1">
		<polygon class="st2" points="-2661.5,319.3 -2672.9,312.3 -2672.9,312.3 -2672.9,312.3 -2672.9,312.3 -2672.9,312.3 
			-2684.3,319.3 -2684.3,332.4 -2672.9,339.1 -2672.9,339.1 -2672.9,339.1 -2672.9,339.1 -2672.9,339.1 -2661.5,332.4 		"/>
		<circle class="st3" cx="-2672.9" cy="325.7" r="5.9"/>
	</g>
	<g class="st1">
		<polygon class="st2" points="-2624.3,319.3 -2635.7,312.3 -2635.7,312.3 -2635.7,312.3 -2635.7,312.3 -2635.7,312.3 
			-2647.1,319.3 -2647.1,332.4 -2635.7,339.1 -2635.7,339.1 -2635.7,339.1 -2635.7,339.1 -2635.7,339.1 -2624.3,332.4 		"/>
		<circle class="st3" cx="-2635.7" cy="325.7" r="5.9"/>
	</g>
	<g class="st1">
		<polygon class="st2" points="-2587.1,319.3 -2598.5,312.3 -2598.5,312.3 -2598.5,312.3 -2598.5,312.3 -2598.5,312.3 
			-2609.9,319.3 -2609.9,332.4 -2598.5,339.1 -2598.5,339.1 -2598.5,339.1 -2598.5,339.1 -2598.5,339.1 -2587.1,332.4 		"/>
		<circle class="st3" cx="-2598.5" cy="325.7" r="5.9"/>
	</g>
	<g class="st1">
		<polygon class="st2" points="-2549.9,319.3 -2561.3,312.3 -2561.3,312.3 -2561.3,312.3 -2561.3,312.3 -2561.3,312.3 
			-2572.7,319.3 -2572.7,332.4 -2561.3,339.1 -2561.3,339.1 -2561.3,339.1 -2561.3,339.1 -2561.3,339.1 -2549.9,332.4 		"/>
		<circle class="st3" cx="-2561.3" cy="325.7" r="5.9"/>
	</g>
	<g class="st1">
		<polygon class="st2" points="-2512.7,319.3 -2524.1,312.3 -2524.1,312.3 -2524.1,312.3 -2524.1,312.3 -2524.1,312.3 
			-2535.5,319.3 -2535.5,332.4 -2524.1,339.1 -2524.1,339.1 -2524.1,339.1 -2524.1,339.1 -2524.1,339.1 -2512.7,332.4 		"/>
		<circle class="st3" cx="-2524.1" cy="325.7" r="5.9"/>
	</g>
	<g class="st1">
		<polygon class="st2" points="-2473,296.9 -2486.3,298.3 -2486.3,298.3 -2486.4,298.3 -2486.4,298.3 -2486.4,298.3 -2491.2,310.8 
			-2483.2,321.2 -2470.1,319.5 -2470.1,319.6 -2470.1,319.5 -2470,319.5 -2470,319.5 -2465.1,307.3 		"/>
		
			<ellipse transform="matrix(0.7936 -0.6084 0.6084 0.7936 -699.4323 -1444.0498)" class="st3" cx="-2478.2" cy="308.9" rx="5.9" ry="5.9"/>
	</g>
	<g class="st1">
		<polygon class="st2" points="-2443.8,274.9 -2456.4,276.2 -2456.4,276.2 -2456.4,276.2 -2456.4,276.2 -2456.4,276.2 
			-2460.9,288.1 -2453.4,297.9 -2441,296.3 -2441,296.4 -2441,296.3 -2440.9,296.3 -2441,296.3 -2436.2,284.7 		"/>
		
			<ellipse transform="matrix(0.7936 -0.6084 0.6084 0.7936 -679.5705 -1430.7603)" class="st3" cx="-2448.7" cy="286.3" rx="5.6" ry="5.6"/>
	</g>
	<g class="st1">
		<polygon class="st2" points="-2414.3,252.3 -2426.8,253.7 -2426.8,253.6 -2426.8,253.7 -2426.9,253.7 -2426.8,253.7 
			-2431.3,265.4 -2423.9,275.2 -2411.5,273.6 -2411.5,273.7 -2411.5,273.6 -2411.5,273.6 -2411.5,273.6 -2406.8,262.1 		"/>
		
			<ellipse transform="matrix(0.7936 -0.6084 0.6084 0.7936 -659.7094 -1417.4712)" class="st3" cx="-2419.2" cy="263.7" rx="5.5" ry="5.5"/>
	</g>
	<g class="st1">
		<polygon class="st2" points="-2385,230.2 -2397,231.4 -2397,231.4 -2397,231.4 -2397,231.4 -2397,231.5 -2401.3,242.7 
			-2394.1,252.1 -2382.3,250.6 -2382.3,250.6 -2382.3,250.6 -2382.3,250.6 -2382.3,250.6 -2377.8,239.5 		"/>
		
			<ellipse transform="matrix(0.7936 -0.6084 0.6084 0.7936 -639.8478 -1404.1818)" class="st3" cx="-2389.7" cy="241" rx="5.3" ry="5.3"/>
	</g>
	<g class="st1">
		<polygon class="st2" points="-2355.6,207.9 -2367.2,209.1 -2367.2,209.1 -2367.3,209.1 -2367.3,209.1 -2367.3,209.1 -2371.5,220 
			-2364.5,229.1 -2353,227.7 -2353,227.7 -2353,227.7 -2353,227.7 -2353,227.7 -2348.6,217 		"/>
		
			<ellipse transform="matrix(0.7936 -0.6084 0.6084 0.7936 -619.9864 -1390.8925)" class="st3" cx="-2360.1" cy="218.4" rx="5.1" ry="5.1"/>
	</g>
	<g class="st1">
		<polygon class="st2" points="-2329.1,190.7 -2339.7,191.8 -2339.7,191.8 -2339.7,191.8 -2339.7,191.8 -2339.7,191.8 
			-2343.5,201.8 -2337.2,210.1 -2326.7,208.8 -2326.7,208.8 -2326.7,208.8 -2326.7,208.8 -2326.7,208.7 -2322.7,199 		"/>
		
			<ellipse transform="matrix(0.7936 -0.6084 0.6084 0.7936 -603.4136 -1378.2542)" class="st3" cx="-2333.2" cy="200.3" rx="4.7" ry="4.7"/>
	</g>
</g>
<g id="toiture">
</g>
<g id="Calque_14">
</g>
<g id="béré">
</g>
<g id="cage">
	<polygon class="st4" points="-219.7,554.2 -766.2,554.2 -766.2,154.2 -219.9,154.2 	"/>
	<polygon class="st5" points="-984.8,789.8 -984.8,389.8 -766.2,154.2 -766.2,554.2 	"/>
	<polygon class="st6" points="-219.7,554.2 -766.2,554.2 -984.8,789.8 -438.3,789.8 	"/>
	<polygon class="st5" points="-219.7,154.2 -438.3,389.8 -438.3,789.8 -219.7,554.2 	"/>
	<path class="st7" d="M-894.6,885l35.5-12.7c0,0-38-7.6-33-7.6c5.1,0,53.2-27.9,53.2-27.9l71,10.1l-58.3,12.7l-5.1,38
		C-831.2,897.7-871.8,879.9-894.6,885z"/>
	<path class="st7" d="M-237.8,718.9l-37.6,29.2l23,20.9l50.1-14.6l-23-6.3l27.1-58.4C-198.1,689.7-233.6,704.3-237.8,718.9z"/>
</g>
<g id="Calque_19" class="st0">
</g>
<g id="cabane">
	<path class="st8" d="M745.1,605.5L745.1,605.5c5.1,0,9.3-4.2,9.3-9.3V233.9c0-5.1-4.2-9.3-9.3-9.3l0,0c-5.1,0-9.3,4.2-9.3,9.3
		v362.3C735.9,601.3,740,605.5,745.1,605.5z"/>
	<path class="st9" d="M174.1,662.6l13.3-15.2c5.1,0,79.7-97.4,79.7-102.4l-7.3-379.3c0-5.1-103,118.1-108.1,118.1h0
		c-5.1,0-101.4,108.2-101.4,113.3l7.1,372.7C57.5,774.9,169,662.6,174.1,662.6z"/>
	<path class="st10" d="M268,557.5h520.7c5.1,0,9.3-4.2,9.3-9.3V175.5c0-5.1-4.2-9.3-9.3-9.3H268c-5.1,0-9.3,4.2-9.3,9.3v372.8
		C258.7,553.4,262.9,557.5,268,557.5z"/>
	<path class="st9" d="M249,558L249,558c5.1,0,9.3-4.2,9.3-9.3V174.9c0-5.1-4.2-9.3-9.3-9.3h0c-5.1,0-9.3,4.2-9.3,9.3v373.8
		C239.8,553.8,243.9,558,249,558z"/>
	<polygon class="st11" points="805.1,548.3 258.6,548.3 40,783.8 586.5,783.8 	"/>
	<path class="st12" d="M811.6,165.7v-7.5c0-5.1-4.2-9.3-9.3-9.3H259.8c-5.1,0-9.3,4.2-9.3,9.3v7.5c0,5.1,4.2,9.3,9.3,9.3h542.6
		C807.5,174.9,811.6,170.8,811.6,165.7z"/>
	<g>
		<defs>
			<polygon id="SVGID_1_" points="805.1,548.3 258.6,548.3 40,783.8 586.5,783.8 			"/>
		</defs>
		<clipPath id="SVGID_2_">
			<use xlink:href="#SVGID_1_"  style="overflow:visible;"/>
		</clipPath>
		<g class="st13">
			<path class="st14" d="M757.7,596.6V579c0-3.6-2.9-6.5-6.5-6.5H203.1c-3.6,0-6.5,2.9-6.5,6.5v17.6c0,3.6,2.9,6.5,6.5,6.5h548.2
				C754.8,603.1,757.7,600.2,757.7,596.6z"/>
			<path class="st14" d="M685.4,653.8v-17.6c0-3.6-2.9-6.5-6.5-6.5H130.7c-3.6,0-6.5,2.9-6.5,6.5v17.6c0,3.6,2.9,6.5,6.5,6.5h548.2
				C682.4,660.3,685.4,657.4,685.4,653.8z"/>
			<path class="st14" d="M640.5,713.8v-17.6c0-3.6-2.9-6.5-6.5-6.5H85.9c-3.6,0-6.5,2.9-6.5,6.5v17.6c0,3.6,2.9,6.5,6.5,6.5H634
				C637.6,720.3,640.5,717.4,640.5,713.8z"/>
		</g>
	</g>
	<path class="st12" d="M266.7,154l-2.7-2.4c-3.7-3.4-9.6-3.2-13.1,0.6L35.9,386.2c-3.4,3.7-3.2,9.6,0.6,13.1l2.7,2.4
		c3.7,3.4,9.6,3.2,13.1-0.6l215.1-234.1C270.7,163.3,270.4,157.4,266.7,154z"/>
	<polygon class="st15" points="581.5,397.7 806.5,157 806.5,533.7 585.2,772 	"/>
	<path class="st16" d="M578.6,397.1L314.9,247.2L50.4,397.1c-5.1,0-9.3,4.2-9.3,9.3v355.7c0,5.1,4.2,9.3,9.3,9.3h135.9l0.2-0.5
		V616.7c0-65.8,57.4-119.1,128.1-119.1c70.8,0,128.1,53.3,128.1,119.1v154.7h135.8c5.1,0,9.3-4.2,9.3-9.3V406.4
		C587.9,401.3,583.7,397.1,578.6,397.1z"/>
	<path class="st17" d="M595.1,774.3v-7.5c0-5.1-4.2-9.3-9.3-9.3H43.2c-5.1,0-9.3,4.2-9.3,9.3v7.5c0,5.1,4.2,9.3,9.3,9.3h542.6
		C590.9,783.6,595.1,779.4,595.1,774.3z"/>
	<path class="st18" d="M186.6,771.8V616.7c0-65.8,57.4-119.1,128.1-119.1s128.1,53.3,128.1,119.1v154.9"/>
	<path class="st17" d="M817.4,519.4L817.4,519.4c-3.7-3.4-9.6-3.2-13.1,0.6L579.6,764.6c-3.4,3.7-3.2,9.6,0.6,13.1l2.7,2.4
		c3.7,3.4,9.6,3.2,13.1-0.6l222.3-242C823,532.4,822.6,524.2,817.4,519.4z"/>
	<path class="st19" d="M42.5,783.7L42.5,783.7c5.1,0,9.3-4.2,9.3-9.3V392.9c0-5.1-4.2-9.3-9.3-9.3h0c-5.1,0-9.3,4.2-9.3,9.3v381.5
		C33.3,779.5,37.4,783.7,42.5,783.7z"/>
	<path class="st19" d="M587.7,783.7L587.7,783.7c5.1,0,9.3-4.2,9.3-9.3V392.9c0-5.1-4.2-9.3-9.3-9.3l0,0c-5.1,0-9.3,4.2-9.3,9.3
		v381.5C578.4,779.5,582.6,783.7,587.7,783.7z"/>
	<path class="st20" d="M588,438.7c2.9,1.2,6.3,1.8,10.5,1.8c3.7,0,10.7-1.3,13.6-4.2l194.5-209.6v-52c-5.2,0.3-10.3,2.5-14.1,6.6
		L574,416.9l13.9,21.7"/>
	<path class="st12" d="M588,387.1L328.5,227.7c-3.3-2-8-5.2-13.6-5.2c-5.8,0-7.9,1.6-12.7,4.6L41.1,387.6V439
		c1.5-0.5,3.1-1.2,4.5-2.1l269.3-165.5l269.3,165.5c1.2,0.7,2.5,1.3,3.7,1.8V387.1z"/>
	<path class="st21" d="M607.4,387.7L328.5,216.3c-3.3-2-8-5.2-13.6-5.2c-5.8,0-7.9,1.6-12.7,4.6L22.4,387.7
		c-10.4,6.4-13.7,20.1-7.3,30.5v0c6.4,10.4,20.1,13.7,30.5,7.3L314.9,260l269.3,165.5c10.4,6.4,24.1,3.1,30.5-7.3v0
		C621.1,407.8,617.8,394.1,607.4,387.7z"/>
	<path class="st21" d="M820.5,152.4L541.6,12.1c-3.3-2-8-5.2-13.6-5.2c-5.8,0-7.9,1.6-12.7,4.6L248.5,152.4l-224.5,243l155.4-87.6
		c6.4,10.4,112.5-74.3,122.9-80.7l296.6,165.6l198.4-202.6c10.4,6.4,24.1,3.1,30.5-7.3v0C834.1,172.5,830.9,158.8,820.5,152.4z"/>
	<path class="st21" d="M827.2,157.8L827.2,157.8c-8.3-7.6-21.4-7.1-29,1.2L582.8,393.5c-7.6,8.3-7.1,21.4,1.2,29l0,0
		c8.3,7.6,21.4,7.1,29-1.2l215.4-234.5C836.1,178.5,835.6,165.4,827.2,157.8z"/>
</g>
<g id="Calque_20">
</g>
<g id="sol_1_">
</g>
<g id="Calque_32">
</g>
<g id="Calque_31">
</g>
<g id="mur_front">
</g>
<g id="front_toit">
</g>
<g id="Calque_34_-_copie_8">
</g>
<g id="Calque_34_-_copie_9">
</g>
<g id="Calque_34_-_copie_10">
	<g id="Calque_34_-_copie_11" class="st0">
		<circle class="st22" cx="1228.8" cy="293.9" r="83.6"/>
	</g>
</g>
<g id="Calque_34_-_copie_12">
</g>
<g id="Calque_34_-_copie_13">
	<g id="Calque_34_-_copie_13_1_" class="st0">
		<circle class="st22" cx="1228.8" cy="293.9" r="83.6"/>
	</g>
</g>
<g id="Calque_34_-_copie_14">
</g>
<g id="Calque_34_-_copie_7">
</g>
<g id="Calque_34_-_copie_6">
</g>
<g id="Calque_34_-_copie">
</g>
<g id="Calque_34_-_copie_2">
</g>
<g id="Calque_34_-_copie_3">
</g>
<g id="Calque_34_-_copie_4">
</g>
<g id="Calque_34_-_copie_5">
</g>
<g id="Calque_29" class="st0">
	
		<image style="display:inline;overflow:visible;" width="1300" height="1300" xlink:href="37024341-Cartoon-illustration-du-paysage-forestier-d-t-avec-cabane-en-bois--Banque-d&apos;images.jpg"  transform="matrix(0.4667 0 0 0.4667 1254.708 455.5066)">
	</image>
</g>
<g id="mur_left">
</g>
<g id="Calque_24" class="st0">
	<path class="st23" d="M1346,285.9h-142L985.4,521.5h546.5L1346,285.9z M1258.7,483.1c-43.8,0-79.4-35.5-79.4-79.4
		s35.5-79.4,79.4-79.4s79.4,35.5,79.4,79.4S1302.5,483.1,1258.7,483.1z"/>
</g>
<g id="Calque_25" class="st0">
	<polygon class="st24" points="1204,285.9 1458,33.4 1586,33.4 1346,285.9 	"/>
</g>
<g id="Calque_26">
</g>
<g id="Calque_28">
</g>
<g id="Calque_33">
</g>
<g id="Calque_27">
</g>
</svg>
