<?xml version="1.0" encoding="utf-8"?>
<!-- Generator: Adobe Illustrator 21.0.0, SVG Export Plug-In . SVG Version: 6.00 Build 0)  -->
<svg version="1.1" id="Calque_1" xmlns="http://www.w3.org/2000/svg" xmlns:xlink="http://www.w3.org/1999/xlink" x="0px" y="0px"
	 viewBox="0 0 1000 1000" style="enable-background:new 0 0 1000 1000;" xml:space="preserve">
<style type="text/css">
	.st0{display:none;}
	.st1{display:none;fill:#1E1E1D;}
	.st2{display:none;fill:#8E8E8E;}
	.st3{display:none;fill:#282828;}
	.st4{display:none;clip-path:url(#SVGID_2_);fill:#0D0D38;}
	.st5{display:none;clip-path:url(#SVGID_4_);fill:#2D2312;}
	.st6{clip-path:url(#SVGID_6_);}
	.st7{fill:#3A3A3A;}
	.st8{fill:#444444;}
	.st9{fill:#474747;}
	.st10{fill:#282828;}
	.st11{fill:#2B2B2B;}
	.st12{display:none;fill:#3F3220;}
</style>
<g id="Calque_1_1_" class="st0">
</g>
<g id="Calque_15">
</g>
<g id="Calque_2">
</g>
<g id="Calque_3">
</g>
<g id="bordure_sol">
</g>
<g id="Calque_4">
</g>
<g id="Calque_5">
</g>
<g id="bande_frontale">
</g>
<g id="sol">
</g>
<g id="front_grille">
</g>
<g id="right_grille">
</g>
<g id="bg_droite">
</g>
<g id="boulons" class="st0">
</g>
<g id="toiture">
</g>
<g id="Calque_14">
</g>
<g id="béré">
</g>
<g id="cage">
	<polygon class="st1" points="877.3,587.9 330.8,587.9 330.8,187.8 877,187.8 	"/>
	<polygon class="st2" points="112.2,823.4 112.2,423.4 330.8,187.8 330.8,587.9 	"/>
	<polygon class="st3" points="877.3,587.9 330.8,587.9 112.2,823.4 658.7,823.4 	"/>
	<polygon class="st2" points="877.3,187.8 658.7,423.4 658.7,823.4 877.3,587.9 	"/>
	<g>
		<g>
			<defs>
				<rect id="SVGID_1_" x="-10.5" y="-10.5" width="1021" height="1021"/>
			</defs>
			<clipPath id="SVGID_2_">
				<use xlink:href="#SVGID_1_"  style="overflow:visible;"/>
			</clipPath>
			<rect x="-24.3" y="-31.8" class="st4" width="1137.4" height="1128"/>
		</g>
		<g>
			<defs>
				<rect id="SVGID_3_" x="-10.5" y="-10.5" width="1021" height="1021"/>
			</defs>
			<clipPath id="SVGID_4_">
				<use xlink:href="#SVGID_3_"  style="overflow:visible;"/>
			</clipPath>
			<rect x="-72.9" y="529.4" class="st5" width="1274.7" height="603.1"/>
		</g>
		<g>
			<defs>
				<rect id="SVGID_5_" x="-10.5" y="-10.5" width="1021" height="1021"/>
			</defs>
			<clipPath id="SVGID_6_">
				<use xlink:href="#SVGID_5_"  style="overflow:visible;"/>
			</clipPath>
			<g class="st6">
				<g>
					<path class="st7" d="M542.1,574.1L542.1,574.1c5.1,0,9.3-4.2,9.3-9.3V141.6c0-5.1-4.2-9.3-9.3-9.3l0,0c-5.1,0-9.3,4.2-9.3,9.3
						v423.3C532.8,570,537,574.1,542.1,574.1z"/>
					<path class="st7" d="M621.4,565.7L621.4,565.7c5.1,0,9.3-4.2,9.3-9.3V141.6c0-5.1-4.2-9.3-9.3-9.3l0,0c-5.1,0-9.3,4.2-9.3,9.3
						v414.9C612.2,561.5,616.4,565.7,621.4,565.7z"/>
					<path class="st7" d="M444.2,574.1L444.2,574.1c5.1,0,9.3-4.2,9.3-9.3V141.6c0-5.1-4.2-9.3-9.3-9.3l0,0c-5.1,0-9.3,4.2-9.3,9.3
						v423.3C435,570,439.1,574.1,444.2,574.1z"/>
					<path class="st7" d="M797.2,574.1L797.2,574.1c5.1,0,9.3-4.2,9.3-9.3V141.6c0-5.1-4.2-9.3-9.3-9.3l0,0c-5.1,0-9.3,4.2-9.3,9.3
						v423.3C788,570,792.2,574.1,797.2,574.1z"/>
					<path class="st7" d="M702.3,574.1L702.3,574.1c5.1,0,9.3-4.2,9.3-9.3V141.6c0-5.1-4.2-9.3-9.3-9.3l0,0c-5.1,0-9.3,4.2-9.3,9.3
						v423.3C693,570,697.2,574.1,702.3,574.1z"/>
					<path class="st7" d="M176,752.4L176,752.4c5.1,0,9.3-4.2,9.3-9.3V315.3c0-5.1-4.2-9.3-9.3-9.3l0,0c-5.1,0-9.3,4.2-9.3,9.3
						v427.9C166.8,748.3,171,752.4,176,752.4z"/>
					<path class="st7" d="M282.3,632.1L282.3,632.1c5.1,0,9.3-4.2,9.3-9.3V227.7c0-5.1-4.2-9.3-9.3-9.3l0,0c-5.1,0-9.3,4.2-9.3,9.3
						v395.1C273.1,627.9,277.2,632.1,282.3,632.1z"/>
					<path class="st7" d="M228.7,691.7L228.7,691.7c5.1,0,9.3-4.2,9.3-9.3V266.1c0-5.1-4.2-9.3-9.3-9.3l0,0c-5.1,0-9.3,4.2-9.3,9.3
						v416.4C219.5,687.5,223.6,691.7,228.7,691.7z"/>
					<polygon class="st8" points="882.1,581.9 335.6,581.9 117,817.4 663.5,817.4 					"/>
					<path class="st7" d="M336,582.7L336,582.7c5.1,0,9.3-4.2,9.3-9.3V168c0-5.1-4.2-9.3-9.3-9.3l0,0c-5.1,0-9.3,4.2-9.3,9.3v405.4
						C326.7,578.6,330.9,582.7,336,582.7z"/>
					<path class="st7" d="M888.6,573.5V566c0-5.1-4.2-9.3-9.3-9.3H336.7c-5.1,0-9.3,4.2-9.3,9.3v7.5c0,5.1,4.2,9.3,9.3,9.3h542.6
						C884.4,582.8,888.6,578.6,888.6,573.5z"/>
					<path class="st9" d="M834.7,630.2L834.7,630.2c0-3.6-2.9-6.5-6.5-6.5H280c-3.6,0-6.5,2.9-6.5,6.5l0,0c0,3.6,2.9,6.5,6.5,6.5
						h548.2C831.8,636.7,834.7,633.8,834.7,630.2z"/>
					<path class="st9" d="M779.4,689.5L779.4,689.5c0-3.6-2.9-6.5-6.5-6.5H224.8c-3.6,0-6.5,2.9-6.5,6.5l0,0c0,3.6,2.9,6.5,6.5,6.5
						H773C776.5,696,779.4,693.1,779.4,689.5z"/>
					<path class="st9" d="M725.1,748.8L725.1,748.8c0-3.6-2.9-6.5-6.5-6.5H170.5c-3.6,0-6.5,2.9-6.5,6.5l0,0c0,3.6,2.9,6.5,6.5,6.5
						h548.2C722.2,755.3,725.1,752.3,725.1,748.8z"/>
					<path class="st7" d="M341.8,567.3l-2.7-2.4c-3.7-3.4-9.6-3.2-13.1,0.6L117.6,792.3c-3.4,3.7-3.2,9.6,0.6,13.1l2.7,2.4
						c3.7,3.4,9.6,3.2,13.1-0.6l208.4-226.9C345.8,576.6,345.5,570.8,341.8,567.3z"/>
					<path class="st10" d="M119.5,817.3L119.5,817.3c5.1,0,9.3-4.2,9.3-9.3V366.3c0-5.1-4.2-9.3-9.3-9.3l0,0c-5.1,0-9.3,4.2-9.3,9.3
						V808C110.2,813.1,114.4,817.3,119.5,817.3z"/>
					<path class="st10" d="M311.2,803.4L311.2,803.4c5.1,0,9.3-4.2,9.3-9.3V374.6c0-5.1-4.2-9.3-9.3-9.3l0,0c-5.1,0-9.3,4.2-9.3,9.3
						v419.6C302,799.3,306.1,803.4,311.2,803.4z"/>
					<path class="st10" d="M390.6,568.3L390.6,568.3c5.1,0,9.3-4.2,9.3-9.3V375.7c0-5.1-4.2-9.3-9.3-9.3l0,0c-5.1,0-9.3,4.2-9.3,9.3
						V559C381.3,564.2,385.5,568.3,390.6,568.3z"/>
					<path class="st10" d="M213.4,803.4L213.4,803.4c5.1,0,9.3-4.2,9.3-9.3V375.6c0-5.1-4.2-9.3-9.3-9.3l0,0c-5.1,0-9.3,4.2-9.3,9.3
						v418.5C204.1,799.3,208.3,803.4,213.4,803.4z"/>
					<path class="st10" d="M880.5,582.7L880.5,582.7c5.1,0,9.3-4.2,9.3-9.3V132.6c0-5.1-4.2-9.3-9.3-9.3l0,0c-5.1,0-9.3,4.2-9.3,9.3
						v440.8C871.3,578.6,875.4,582.7,880.5,582.7z"/>
					<path class="st10" d="M566.4,803.4L566.4,803.4c5.1,0,9.3-4.2,9.3-9.3v-415c0-5.1-4.2-9.3-9.3-9.3l0,0c-5.1,0-9.3,4.2-9.3,9.3
						v415C557.1,799.3,561.3,803.4,566.4,803.4z"/>
					<path class="st10" d="M471.4,803.4L471.4,803.4c5.1,0,9.3-4.2,9.3-9.3V372.7c0-5.1-4.2-9.3-9.3-9.3l0,0c-5.1,0-9.3,4.2-9.3,9.3
						v421.5C462.2,799.3,466.3,803.4,471.4,803.4z"/>
					<path class="st10" d="M672.1,808v-7.5c0-5.1-4.2-9.3-9.3-9.3H120.2c-5.1,0-9.3,4.2-9.3,9.3v7.5c0,5.1,4.2,9.3,9.3,9.3h542.6
						C667.9,817.2,672.1,813.1,672.1,808z"/>
					<path class="st10" d="M886.2,567.3l-2.7-2.4c-3.7-3.4-9.6-3.2-13.1,0.6L656.5,798.3c-3.4,3.7-3.2,9.6,0.6,13.1l2.7,2.4
						c3.7,3.4,9.6,3.2,13.1-0.6l213.9-232.8C890.2,576.6,889.9,570.8,886.2,567.3z"/>
					<path class="st10" d="M715.8,752.4L715.8,752.4c5.1,0,9.3-4.2,9.3-9.3v-423c0-5.1-4.2-9.3-9.3-9.3l0,0c-5.1,0-9.3,4.2-9.3,9.3
						v423.1C706.6,748.3,710.7,752.4,715.8,752.4z"/>
					<path class="st10" d="M768.5,694.7L768.5,694.7c5.1,0,9.3-4.2,9.3-9.3V263c0-5.1-4.2-9.3-9.3-9.3l0,0c-5.1,0-9.3,4.2-9.3,9.3
						v422.4C759.2,690.5,763.4,694.7,768.5,694.7z"/>
					<path class="st10" d="M822.1,639.1L822.1,639.1c5.1,0,9.3-4.2,9.3-9.3V206.1c0-5.1-4.2-9.3-9.3-9.3l0,0c-5.1,0-9.3,4.2-9.3,9.3
						v423.7C812.8,634.9,817,639.1,822.1,639.1z"/>
					<path class="st10" d="M664.6,817.3L664.6,817.3c5.1,0,9.3-4.2,9.3-9.3V376c0-5.1-4.2-9.3-9.3-9.3l0,0c-5.1,0-9.3,4.2-9.3,9.3
						v432C655.4,813.1,659.5,817.3,664.6,817.3z"/>
					<g>
						<path class="st10" d="M888.6,139.3v-7.5c0-5.1-4.2-9.3-9.3-9.3H336.7c-5.1,0-9.3,4.2-9.3,9.3v7.5c0,5.1,4.2,9.3,9.3,9.3h542.6
							C884.4,148.5,888.6,144.4,888.6,139.3z"/>
						<path class="st10" d="M672.1,373.7v-7.5c0-5.1-4.2-9.3-9.3-9.3H120.2c-5.1,0-9.3,4.2-9.3,9.3v7.5c0,5.1,4.2,9.3,9.3,9.3h542.6
							C667.9,383,672.1,378.8,672.1,373.7z"/>
						<path class="st10" d="M886.2,133.1l-2.7-2.4c-3.7-3.4-9.6-3.2-13.1,0.6L656.5,364c-3.4,3.7-3.2,9.6,0.6,13.1l2.7,2.4
							c3.7,3.4,9.6,3.2,13.1-0.6l213.9-232.8C890.2,142.4,889.9,136.5,886.2,133.1z"/>
						<path class="st10" d="M343.6,127.6l-2.7-2.4c-3.7-3.4-9.6-3.2-13.1,0.6l-215,234c-3.4,3.7-3.2,9.6,0.6,13.1l2.7,2.4
							c3.7,3.4,9.6,3.2,13.1-0.6l215.1-234.1C347.6,136.9,347.4,131,343.6,127.6z"/>
						<polygon class="st11" points="882.1,123.4 335.6,123.4 117,357.4 663.5,357.4 						"/>
					</g>
					<path class="st10" d="M303.5,566.1L303.5,566.1c0,5.1,4.2,9.3,9.3,9.3H472c5.1,0,9.3-4.2,9.3-9.3l0,0c0-5.1-4.2-9.3-9.3-9.3
						H312.7C307.7,556.8,303.5,561,303.5,566.1z"/>
				</g>
			</g>
		</g>
	</g>
	<path class="st12" d="M202.3,918.6l35.5-12.7c0,0-38-7.6-33-7.6s53.2-27.9,53.2-27.9l71,10.1l-58.3,12.7l-5.1,38
		C265.7,931.3,225.2,913.5,202.3,918.6z"/>
	<path class="st12" d="M859.2,752.5l-37.6,29.2l23,20.9l50.1-14.6l-23-6.3l27.1-58.4C898.9,723.3,863.4,737.9,859.2,752.5z"/>
</g>
<g id="Calque_19" class="st0">
	
		<image style="display:inline;overflow:visible;enable-background:new    ;" width="2560" height="1600" xlink:href="DA3B3B43F30D3AE3.png"  transform="matrix(1.2393 0 0 1.2393 -115.5855 -477.4501)">
	</image>
</g>
<g id="cabane">
</g>
</svg>
