<?xml version="1.0" encoding="utf-8"?>
<!-- Generator: Adobe Illustrator 20.1.0, SVG Export Plug-In . SVG Version: 6.00 Build 0)  -->
<svg version="1.1" id="Calque_1" xmlns="http://www.w3.org/2000/svg" xmlns:xlink="http://www.w3.org/1999/xlink" x="0px" y="0px"
	 viewBox="0 0 719.3 476.9" style="enable-background:new 0 0 719.3 476.9;" xml:space="preserve">
<style type="text/css">
	.st0{fill:none;}
	.st1{fill:#158C2F;}
	.st2{fill:#86BC25;}
	.st3{fill:#13A538;}
	.st4{fill:none;stroke:#000000;stroke-width:3;stroke-miterlimit:10;}
	.st5{fill:#6D4C03;stroke:#000000;stroke-miterlimit:10;}
	.st6{fill:#704F0D;stroke:#000000;stroke-width:0.1;stroke-miterlimit:10;}
	.st7{fill:#895C02;stroke:#000000;stroke-width:0.1;stroke-miterlimit:10;}
	.st8{fill:#9E6C08;stroke:#000000;stroke-width:0.1;stroke-miterlimit:10;}
	.st9{fill:none;stroke:#000000;stroke-width:0.2;stroke-miterlimit:10;}
	.st10{fill:#513A02;stroke:#000000;stroke-miterlimit:10;}
	.st11{fill:none;stroke:#000000;stroke-miterlimit:10;}
	.st12{fill:#513A02;stroke:#000000;stroke-width:3;stroke-miterlimit:10;}
</style>
<symbol  id="Herbe_3" viewBox="-17.5 -30.3 35 60.4">
	<g>
		<g>
			<path class="st0" d="M-7.8,30.1c3.3-4.7,7.2-9.1,10-14.4C9.3,2.7,8-11.7,4.4-25.9"/>
			<path class="st1" d="M-7.8,30.1C-5,26-2.6,22,0,17.7c2.6-4.3,5-8.6,5.9-13.6c1.8-9.8-1-22.7-3.5-32.3c-0.3-1.1,2.5,0.8,2.8,1.9
				C6.1-22.3,9.6-9.4,7,3.5C4.8,13.8-1.8,21.7-7.8,30.1C-7.8,30.1-7.9,30.1-7.8,30.1L-7.8,30.1z"/>
		</g>
		<g>
			<path class="st0" d="M-3.4-25.4c5.3,24.6-13.5,11.7-13.9,38"/>
			<path class="st2" d="M-2.2-25.5c1.4,7,1.7,13.7-4.2,18.5c-2.2,1.8-4.7,2.8-6.5,5.1c-3.2,4-3.9,9.4-4.1,14.4
				c-0.2,4.4-0.6,4.4-0.5,0c0-4.4,0.5-8.9,2.4-13C-13.9-3-11.9-5-9.9-7c1.8-1.8,3.9-3.1,5.1-5.4c2-3.8,1-8.9,0.2-12.9
				C-4.8-26.8-4.2-28.7-2.2-25.5L-2.2-25.5z"/>
		</g>
		<g>
			<path class="st0" d="M-6.8-26.7C-9-12.8-12,7.7-6.1,20.4"/>
			<path class="st3" d="M-6.2-24.9C-7.4-17.2-8.3-11.2-9-3.4C-9.6,4.5-9.2,13-6,20.3c0.1,0.2-0.2,0.3-0.3,0.1
				C-9.6,13.2-9.9,5.1-10-2.7c0-8.1,1.3-16.2,2.6-24.2c0.1-0.9,2.1-0.7,2,0.1L-6.2-24.9z"/>
		</g>
		<g>
			<path class="st0" d="M10.6-26.1c-5.9,16.3,4.3,24,6.8,29.2"/>
			<path class="st3" d="M11.2-25.8C9.1-19.6,8.7-13,11.4-6.9c1.6,3.6,4.4,6.5,6.1,10c0.1,0.2-0.2,0.3-0.3,0.1
				c-1.9-3.8-5.1-6.9-6.9-10.8c-3-6.1-3.2-11.4-1-17.7C9.6-26.2,11.5-26.6,11.2-25.8L11.2-25.8z"/>
		</g>
		<g>
			<path class="st0" d="M-0.5-28.7c-2.2,13.7,8.4,18,1.4,41"/>
			<path class="st3" d="M1-28c-0.9,6.1,0.3,10.7,1.6,16.5C4.4-3.4,3,6.8,0.6,14.6c-0.1,0.2,0.1-2.1,0.1-2.3
				C3.1,4.1,3.8-3.9,1.2-12.1c-1.7-5.5-2.6-10.3-1.7-16.1c0.1-0.9,0.4-2.8,0.3-2L1-28z"/>
		</g>
	</g>
</symbol>
<g>
	<g>
		<line class="st4" x1="171.5" y1="76.3" x2="326.1" y2="45.4"/>
		<line class="st4" x1="322.1" y1="78.3" x2="175.6" y2="104.9"/>
		<path class="st4" d="M151.7,70.5L38.5,158.6c0,11.4-2.9,20.4,0,30.4s3.5,31.5,2.9,37.4s-2,24.8-2,24.8"/>
		<path class="st4" d="M153.9,103.3l-120.1,97c0.3,7.2-4.4,3.4,0,18.1s4.6,19,2.3,23.6"/>
		<g>
			<path class="st5" d="M5.9,136.8c16.2-10.1,62.7-0.8,47,9.3S-10.4,146.9,5.9,136.8z"/>
			<path class="st6" d="M16.1,137.8c8.8-5.4,33.8-0.5,25.3,5S7.3,143.3,16.1,137.8z"/>
			<path class="st7" d="M21.4,138.8c5.3-3.3,20.4-0.3,15.3,3C31.6,145.1,16.1,142.1,21.4,138.8z"/>
			<path class="st8" d="M25.4,139.7c2.3-1.4,8.8-0.1,6.6,1.3C29.8,142.4,23.1,141.1,25.4,139.7z"/>
			<path class="st9" d="M11,137.3c12.7-7.4,48.9-0.6,36.7,6.8S-1.7,144.7,11,137.3z"/>
			<path class="st10" d="M2.6,141.5c6.4,3,36.4,17.3,53.5,0c0,40.8,0,125.6,0,125.6s-21.1,22.3-53.4-0.9
				C2.6,226.1,2.6,167.2,2.6,141.5z"/>
			<g>
				<path d="M14,172.6c0,0,0,1.6-0.1,4.3c0,2.8,0,6.7,0.1,11.4c0,1.2,0.1,2.4,0.2,3.7c0.1,1.3,0.4,2.5,0.8,3.8
					c0.4,1.3,0.9,2.6,1.2,4c0.4,1.4,0.6,2.9,0.7,4.4c0.2,3-0.3,6.1-1,9.2c-0.7,3-1.3,6.1-1.8,9.2c-1.1,6.2-1.9,12.5-1.9,18.3
					c0,0.7,0,1.5,0,2.2c0,0.7,0.1,1.4,0.1,2.1c0.1,1.4,0.2,2.8,0.3,4.2c0.2,2.7,0.4,5.3,0.5,7.6c0.3,4.7,0.6,8.7,0.7,11.4
					c0.2,2.8,0.3,4.3,0.3,4.3s-0.2-1.6-0.4-4.3c-0.3-2.7-0.6-6.7-1.1-11.4c-0.2-2.4-0.4-4.9-0.7-7.6c-0.1-1.4-0.3-2.7-0.4-4.2
					c-0.1-1.4-0.2-2.9-0.2-4.4c-0.1-6,0.6-12.3,1.7-18.5c0.6-3.1,1.2-6.2,1.9-9.2c0.7-3,1.2-6,1.1-8.9c-0.1-1.5-0.3-2.9-0.6-4.2
					c-0.3-1.4-0.8-2.7-1.1-4c-0.4-1.3-0.7-2.7-0.8-3.9c-0.1-1.3-0.2-2.5-0.2-3.7c-0.1-4.7,0.1-8.7,0.2-11.5
					C13.9,174.2,14,172.6,14,172.6z"/>
			</g>
			<g>
				<path d="M25.6,150.5c0,0-0.3,1.6-0.8,4.5c-0.3,1.4-0.5,3.2-0.8,5.1c-0.3,2-0.6,4.2-0.7,6.7c-0.1,2.5,0.3,5.1,1,7.8
					c0.4,1.4,0.8,2.8,1.2,4.2c0.2,0.7,0.4,1.4,0.6,2.2c0.1,0.4,0.2,0.7,0.2,1.1c0.1,0.4,0.1,0.8,0.2,1.2c0.4,3.1,0.3,6.4,0.2,9.6
					c-0.1,3.3-0.4,6.6-0.5,9.8c0,3.3-0.3,6.6-0.5,9.9c-0.2,3.2-0.5,6.4-0.6,9.5c-0.1,3.1-0.3,6.1-0.1,8.9c0.3,2.8,0.3,5.6,0.2,8
					c-0.2,5-0.5,9.1-0.6,12c0,1.4,0,2.6,0,3.4c0.1,0.8,0.1,1.2,0.1,1.2s0-0.4-0.1-1.2c-0.1-0.8-0.2-1.9-0.2-3.4
					c-0.1-2.9,0.1-7,0.2-12c0-2.5,0-5.1-0.3-8c-0.2-2.9-0.1-5.9,0-9c0.1-3.1,0.3-6.3,0.5-9.5c0.2-3.3,0.4-6.5,0.4-9.8
					c0.1-3.3,0.4-6.6,0.5-9.9c0.1-3.2,0.2-6.4-0.1-9.5l-0.1-1.1c-0.1-0.4-0.2-0.8-0.2-1.1c-0.2-0.7-0.4-1.5-0.5-2.2
					c-0.4-1.4-0.8-2.9-1.1-4.2c-0.7-2.8-1-5.5-0.9-8c0.1-2.5,0.5-4.7,0.9-6.7c0.4-2,0.7-3.7,1-5.1C25.2,152.1,25.6,150.5,25.6,150.5
					z"/>
			</g>
			<path d="M49.4,149c2.6,16.4,1.7,10.9,2.3,23.6"/>
			<path class="st11" d="M54.6,237.1c1.4,6.3,2.6,2.9,0,9.3c-2.6,6.3-4.3,9.7-2.9,16.4"/>
		</g>
		<line class="st12" x1="32.5" y1="172.6" x2="93.7" y2="326.5"/>
		<line class="st12" x1="33.6" y1="230.2" x2="92.5" y2="387"/>
		<g>
			<path class="st5" d="M70.2,274c19.3-12,74.4-1,55.8,11S50.9,286,70.2,274z"/>
			<path class="st6" d="M82.4,275.2c10.4-6.5,40.1-0.5,30.1,5.9S72,281.6,82.4,275.2z"/>
			<path class="st7" d="M88.6,276.4c6.3-3.9,24.2-0.3,18.2,3.6S82.4,280.3,88.6,276.4z"/>
			<path class="st8" d="M93.4,277.4c2.7-1.7,10.5-0.1,7.8,1.5C98.7,280.6,90.7,279.1,93.4,277.4z"/>
			<path class="st9" d="M76.3,274.6c15.1-8.8,58.1-0.7,43.6,8.1C105.4,291.5,61.3,283.4,76.3,274.6z"/>
			<path class="st10" d="M66.3,279.5c7.6,3.6,43.2,20.5,63.5,0c0,48.5,0,149.1,0,149.1s-25.1,26.4-63.5-1.1
				C66.3,380,66.3,310,66.3,279.5z"/>
			<g>
				<path d="M79.9,316.5c0,0,0,1.9-0.1,5.2c0,3.3-0.1,8,0.1,13.6c0,1.4,0.1,2.9,0.3,4.3c0.2,1.5,0.5,3,1,4.5c0.5,1.5,1,3.1,1.5,4.8
					c0.4,1.7,0.7,3.4,0.8,5.2c0.2,3.6-0.4,7.2-1.2,10.9c-0.8,3.6-1.5,7.3-2.2,11c-1.3,7.4-2.2,14.8-2.2,21.8c0,0.9,0,1.7,0,2.6
					c0,0.9,0.1,1.7,0.1,2.5c0.1,1.7,0.2,3.3,0.4,4.9c0.2,3.2,0.4,6.3,0.6,9.1c0.4,5.6,0.7,10.3,0.9,13.6c0.2,3.3,0.3,5.1,0.3,5.1
					s-0.2-1.9-0.5-5.1c-0.3-3.3-0.7-7.9-1.3-13.5c-0.3-2.8-0.5-5.8-0.8-9c-0.1-1.6-0.3-3.3-0.4-4.9c0-0.8-0.1-1.7-0.1-2.6
					c0-0.9,0-1.7-0.1-2.6c-0.1-7.1,0.8-14.6,2.1-22c0.7-3.7,1.4-7.4,2.2-11c0.8-3.6,1.4-7.2,1.2-10.6c-0.1-1.7-0.3-3.4-0.7-5
					c-0.4-1.6-0.9-3.2-1.4-4.7c-0.4-1.5-0.8-3.2-0.9-4.7c-0.1-1.5-0.2-3-0.2-4.4c-0.1-5.6,0.1-10.3,0.2-13.6
					C79.7,318.4,79.9,316.5,79.9,316.5z"/>
			</g>
			<g>
				<path d="M93.7,290.2c0,0-0.4,1.9-1,5.3c-0.3,1.7-0.7,3.7-1,6.1c-0.3,2.4-0.7,5-0.8,8c-0.1,2.9,0.3,6.1,1.2,9.3
					c0.4,1.6,0.9,3.3,1.4,5c0.2,0.9,0.5,1.7,0.7,2.6c0.1,0.4,0.2,0.9,0.3,1.3c0.1,0.5,0.1,0.9,0.2,1.4c0.4,3.7,0.3,7.5,0.2,11.4
					c-0.1,3.9-0.4,7.8-0.6,11.7c0,3.9-0.3,7.9-0.6,11.7c-0.3,3.9-0.5,7.6-0.7,11.3c-0.2,3.7-0.3,7.2-0.2,10.6
					c0.3,3.3,0.3,6.6,0.2,9.5c-0.2,5.9-0.6,10.8-0.6,14.2c0,1.7,0,3.1,0,4c0.1,0.9,0.1,1.4,0.1,1.4s-0.1-0.5-0.2-1.4
					c-0.1-0.9-0.2-2.3-0.2-4c-0.1-3.4,0.1-8.3,0.3-14.2c0-3,0-6.1-0.4-9.5c-0.2-3.4-0.1-7,0-10.6c0.2-3.7,0.4-7.5,0.7-11.3
					c0.2-3.9,0.5-7.7,0.5-11.7c0.2-3.9,0.5-7.8,0.6-11.7c0.2-3.8,0.3-7.6-0.1-11.3c-0.1-0.4-0.1-0.9-0.2-1.3
					c-0.1-0.4-0.2-0.9-0.3-1.3c-0.2-0.9-0.4-1.7-0.6-2.6c-0.4-1.7-0.9-3.4-1.3-5c-0.8-3.3-1.2-6.5-1.1-9.5c0.1-3,0.6-5.6,1-8
					c0.4-2.4,0.8-4.4,1.2-6.1C93.2,292.1,93.7,290.2,93.7,290.2z"/>
			</g>
			<g>
				<path d="M113.3,316.5c0,0,0,0.4,0,1.2c0,0.8,0,2,0,3.5c-0.1,1.5-0.2,3.3-0.3,5.4c-0.2,2.1-0.3,4.5-0.5,7
					c-0.2,2.6-0.3,5.4-0.3,8.3c0.1,2.9,0.5,6,1.2,9.1c0.2,0.8,0.4,1.6,0.6,2.4c0.2,0.8,0.4,1.6,0.6,2.4c0.4,1.6,0.6,3.3,0.9,5
					c0.5,3.4,0.9,6.8,1.2,10.3c0.6,6.9,0.8,13.8,0.7,20.3c0,1.6-0.1,3.2-0.2,4.8c-0.1,1.6-0.3,3.1-0.4,4.6c-0.3,3-0.5,5.8-0.8,8.3
					c-0.5,5.2-0.9,9.5-1.2,12.5c-0.3,3-0.5,4.7-0.5,4.7s0.1-1.7,0.3-4.7c0.2-3,0.5-7.3,0.8-12.5c0.2-2.6,0.4-5.4,0.6-8.3
					c0.2-3,0.5-6.1,0.5-9.3c0-6.5-0.3-13.4-0.8-20.2c-0.3-3.4-0.6-6.9-1.1-10.2c-0.3-1.7-0.5-3.3-0.9-4.9c-0.2-0.8-0.3-1.6-0.6-2.4
					c-0.2-0.8-0.4-1.6-0.6-2.4c-0.8-3.2-1.1-6.4-1.1-9.3c0-3,0.2-5.8,0.4-8.4c0.2-2.6,0.5-4.9,0.7-7c0.2-2.1,0.4-3.9,0.5-5.4
					c0.1-1.5,0.2-2.7,0.2-3.5C113.3,316.9,113.3,316.5,113.3,316.5z"/>
			</g>
			<g>
				<path d="M105,371.5c0,0,0,0.2,0,0.6c0,0.4,0.1,0.9,0,1.6c0,0.7-0.2,1.6-0.5,2.5c-0.3,0.9-0.9,1.9-1.1,3
					c-0.3,1.1-0.4,2.4-0.2,3.7c0.1,1.3,0.4,2.7,0.7,4.2c0.7,2.9,1.6,5.9,2.5,9c0.9,3.1,1.7,6.2,2.3,9.1c0.3,1.5,0.6,2.9,0.7,4.3
					c0.2,1.4,0.3,2.7,0.3,3.9c0,1.2-0.1,2.3-0.3,3.3c-0.1,0.5-0.2,0.9-0.3,1.3c-0.1,0.4-0.3,0.8-0.4,1.1c-0.3,0.6-0.5,1.1-0.7,1.5
					c-0.2,0.3-0.3,0.5-0.3,0.5s0.1-0.2,0.2-0.5c0.2-0.3,0.3-0.9,0.6-1.5c0.1-0.3,0.2-0.7,0.3-1.1c0.1-0.4,0.2-0.8,0.2-1.3
					c0.1-1,0.2-2,0.1-3.2c0-1.2-0.2-2.4-0.4-3.8c-0.2-1.3-0.5-2.7-0.9-4.2c-0.7-2.9-1.5-6-2.4-9c-0.9-3.1-1.8-6.1-2.4-9.1
					c-0.3-1.5-0.5-2.9-0.6-4.3c-0.1-1.4,0-2.7,0.4-3.9c0.4-1.2,1-2.1,1.3-3c0.4-0.9,0.6-1.7,0.6-2.4c0.1-0.7,0.1-1.2,0.1-1.6
					C105,371.7,105,371.5,105,371.5z"/>
			</g>
			<path d="M121.9,288.5c3.1,19.5,2.1,13,2.8,28"/>
			<path class="st11" d="M128.1,393c1.7,7.5,3.1,3.5,0,11s-5.2,11.5-3.4,19.5"/>
		</g>
		<g>
			<path class="st5" d="M142.9,43.4c11.8-7.4,45.6-0.6,34.2,6.7S131.1,50.8,142.9,43.4z"/>
			<path class="st6" d="M150.3,44.2c6.4-4,24.6-0.3,18.4,3.6S144,48.1,150.3,44.2z"/>
			<path class="st7" d="M154.2,44.9c3.8-2.4,14.8-0.2,11.1,2.2C161.6,49.5,150.3,47.3,154.2,44.9z"/>
			<path class="st8" d="M157.1,45.5c1.7-1,6.4-0.1,4.8,0.9S155.5,46.5,157.1,45.5z"/>
			<path class="st9" d="M146.6,43.8c9.2-5.4,35.6-0.5,26.7,5C164.4,54.1,137.4,49.2,146.6,43.8z"/>
			<path class="st10" d="M140.5,46.8c4.7,2.2,26.5,12.6,38.9,0c0,29.7,0,91.3,0,91.3s-15.4,16.2-38.9-0.7
				C140.5,108.4,140.5,65.5,140.5,46.8z"/>
			<g>
				<path d="M148.8,69.5c0,0,0,1.1,0,3.2c0,2,0,4.9,0.1,8.3c0.1,1.7,0.2,3.6,0.8,5.4c0.3,0.9,0.6,1.9,0.9,2.9c0.3,1,0.4,2.1,0.5,3.2
					c0.1,2.2-0.2,4.5-0.7,6.7c-0.5,2.2-0.9,4.5-1.3,6.7c-0.8,4.5-1.4,9-1.4,13.3c0,2.1,0.2,4.2,0.3,6.2c0.1,2,0.3,3.8,0.4,5.6
					c0.2,3.4,0.4,6.3,0.5,8.3c0.1,2,0.2,3.2,0.2,3.2s-0.1-1.1-0.3-3.1c-0.2-2-0.5-4.9-0.9-8.3c-0.2-1.7-0.3-3.6-0.5-5.5
					c-0.2-1.9-0.4-4.1-0.4-6.2c0-4.3,0.5-9,1.3-13.5c0.4-2.3,0.9-4.5,1.4-6.7c0.5-2.2,0.9-4.4,0.8-6.5c-0.1-2.1-0.7-4-1.2-6
					c-0.6-1.9-0.6-3.9-0.7-5.6c0-3.5,0.1-6.3,0.2-8.3C148.7,70.6,148.8,69.5,148.8,69.5z"/>
			</g>
			<g>
				<path d="M157.2,53.3c0,0-0.2,1.2-0.6,3.3c-0.2,1-0.4,2.3-0.6,3.7c-0.2,1.4-0.4,3.1-0.5,4.9c-0.1,1.8,0.2,3.7,0.8,5.7
					c0.3,1,0.6,2,0.9,3.1c0.1,0.5,0.3,1,0.4,1.6l0.2,0.8l0.1,0.9c0.5,4.6,0,9.4-0.2,14.2c0,2.4-0.2,4.8-0.4,7.2
					c-0.2,2.4-0.3,4.7-0.5,6.9c-0.1,2.2-0.2,4.4-0.1,6.4c0.2,2,0.2,4.1,0.1,5.9c-0.2,3.6-0.4,6.6-0.5,8.7c0,1.1,0,1.9,0,2.4
					c0,0.6,0,0.9,0,0.9s0-0.3-0.1-0.9c-0.1-0.6-0.1-1.4-0.1-2.4c-0.1-2.1,0-5.1,0.1-8.7c0-1.8,0-3.7-0.3-5.8c-0.2-2.1-0.1-4.3,0-6.5
					c0.1-2.3,0.2-4.6,0.4-6.9c0.1-2.4,0.3-4.7,0.3-7.2c0.1-2.4,0.3-4.8,0.4-7.2c0.1-2.4,0.2-4.7-0.1-6.9l-0.1-0.8l-0.2-0.8
					c-0.1-0.5-0.3-1.1-0.4-1.6c-0.3-1.1-0.5-2.1-0.8-3.1c-0.5-2-0.7-4-0.6-5.9c0.1-1.8,0.4-3.5,0.7-4.9c0.3-1.4,0.5-2.7,0.8-3.7
					C156.9,54.5,157.2,53.3,157.2,53.3z"/>
			</g>
			<g>
				<path d="M169.3,69.5c0,0,0,0.3,0,0.8c0,0.5,0,1.2,0,2.2c0,1.9-0.2,4.5-0.5,7.7c-0.2,3.1-0.3,6.9,0.7,10.7c0.5,1.9,1,4,1.3,6
					c0.3,2.1,0.6,4.2,0.7,6.3c0.3,4.2,0.5,8.5,0.4,12.5c0,2-0.2,3.9-0.4,5.7c-0.2,1.8-0.3,3.5-0.5,5.1c-0.3,3.2-0.6,5.8-0.8,7.6
					c-0.2,1.8-0.3,2.9-0.3,2.9s0-1.1,0.1-2.9c0.1-1.9,0.2-4.5,0.4-7.7c0.1-1.6,0.2-3.3,0.3-5.1c0.1-1.8,0.3-3.7,0.3-5.7
					c0-4-0.2-8.2-0.5-12.4c-0.2-2.1-0.4-4.2-0.7-6.3c-0.3-2.1-0.7-4-1.2-5.9c-1-4-0.7-7.8-0.4-10.9c0.2-1.6,0.3-3,0.5-4.3
					c0.1-1.3,0.3-2.4,0.3-3.3C169.2,70.5,169.3,69.5,169.3,69.5z"/>
			</g>
			<g>
				<path d="M164.2,103.2c0,0,0,0.1,0,0.4c0,0.2,0.1,0.6,0,1c0,0.4-0.1,1-0.3,1.6c-0.2,0.6-0.5,1.2-0.7,1.9
					c-0.2,0.7-0.2,1.4-0.1,2.2c0.1,0.8,0.3,1.7,0.5,2.5c0.4,1.8,1,3.6,1.5,5.5c0.5,1.9,1,3.8,1.4,5.6c0.4,1.8,0.6,3.5,0.6,5
					c0,0.7-0.1,1.4-0.2,2c-0.1,0.6-0.3,1.1-0.5,1.5c-0.2,0.4-0.3,0.7-0.4,0.9c-0.1,0.2-0.2,0.3-0.2,0.3s0.2-0.5,0.4-1.3
					c0.1-0.4,0.2-0.9,0.3-1.5c0.1-0.6,0.1-1.2,0-2c0-0.7-0.1-1.5-0.3-2.3c-0.2-0.8-0.4-1.7-0.6-2.5c-0.4-1.8-1-3.6-1.5-5.5
					c-0.3-0.9-0.5-1.9-0.8-2.8c-0.3-0.9-0.5-1.9-0.7-2.8c-0.2-0.9-0.3-1.8-0.3-2.7c-0.1-0.9,0-1.7,0.3-2.4c0.2-0.7,0.6-1.3,0.9-1.8
					c0.2-0.5,0.4-1,0.4-1.4c0.1-0.4,0.1-0.8,0.1-1C164.2,103.3,164.2,103.2,164.2,103.2z"/>
			</g>
			<path d="M174.6,52.3c1.9,11.9,1.3,8,1.7,17.2"/>
			<path class="st11" d="M178.4,116.3c1,4.6,1.9,2.1,0,6.7s-3.2,7.1-2.1,11.9"/>
		</g>
		<g>
			<path class="st5" d="M313.2,11.6c11.8-7.4,45.6-0.6,34.2,6.7S301.4,19,313.2,11.6z"/>
			<path class="st6" d="M320.6,12.3c6.4-4,24.6-0.3,18.4,3.6S314.3,16.3,320.6,12.3z"/>
			<path class="st7" d="M324.5,13.1c3.8-2.4,14.8-0.2,11.1,2.2S320.6,15.5,324.5,13.1z"/>
			<path class="st8" d="M327.4,13.7c1.7-1,6.4-0.1,4.8,0.9C330.6,15.7,325.7,14.7,327.4,13.7z"/>
			<path class="st9" d="M316.9,12c9.2-5.4,35.6-0.5,26.7,5S307.7,17.4,316.9,12z"/>
			<path class="st10" d="M310.8,15c4.7,2.2,26.5,12.6,38.9,0c0,29.7,0,91.3,0,91.3s-15.4,16.2-38.9-0.7
				C310.8,76.6,310.8,33.7,310.8,15z"/>
			<g>
				<path d="M319.1,37.7c0,0,0,1.1,0,3.2c0,2,0,4.9,0.1,8.3c0.1,1.7,0.2,3.6,0.8,5.4c0.3,0.9,0.6,1.9,0.9,2.9c0.3,1,0.4,2.1,0.5,3.2
					c0.1,2.2-0.2,4.5-0.7,6.7c-0.5,2.2-0.9,4.5-1.3,6.7c-0.8,4.5-1.4,9-1.4,13.3c0,2.1,0.2,4.2,0.3,6.2c0.1,2,0.3,3.8,0.4,5.6
					c0.2,3.4,0.4,6.3,0.5,8.3c0.1,2,0.2,3.2,0.2,3.2s-0.1-1.1-0.3-3.1c-0.2-2-0.5-4.9-0.9-8.3c-0.2-1.7-0.3-3.6-0.5-5.5
					c-0.2-1.9-0.4-4.1-0.4-6.2c0-4.3,0.5-9,1.3-13.5c0.4-2.3,0.9-4.5,1.4-6.7c0.5-2.2,0.9-4.4,0.8-6.5c-0.1-2.1-0.7-4-1.2-6
					c-0.6-1.9-0.6-3.9-0.7-5.6c0-3.5,0.1-6.3,0.2-8.3C319,38.8,319.1,37.7,319.1,37.7z"/>
			</g>
			<g>
				<path d="M327.5,21.5c0,0-0.2,1.2-0.6,3.3c-0.2,1-0.4,2.3-0.6,3.7c-0.2,1.4-0.4,3.1-0.5,4.9c-0.1,1.8,0.2,3.7,0.8,5.7
					c0.3,1,0.6,2,0.9,3.1c0.1,0.5,0.3,1,0.4,1.6l0.2,0.8l0.1,0.9c0.5,4.6,0,9.4-0.2,14.2c0,2.4-0.2,4.8-0.4,7.2
					c-0.2,2.4-0.3,4.7-0.5,6.9c-0.1,2.2-0.2,4.4-0.1,6.4c0.2,2,0.2,4.1,0.1,5.9c-0.2,3.6-0.4,6.6-0.5,8.7c0,1.1,0,1.9,0,2.4
					c0,0.6,0,0.9,0,0.9s0-0.3-0.1-0.9c-0.1-0.6-0.1-1.4-0.1-2.4c-0.1-2.1,0-5.1,0.1-8.7c0-1.8,0-3.7-0.3-5.8c-0.2-2.1-0.1-4.3,0-6.5
					c0.1-2.3,0.2-4.6,0.4-6.9c0.1-2.4,0.3-4.7,0.3-7.2c0.1-2.4,0.3-4.8,0.4-7.2c0.1-2.4,0.2-4.7-0.1-6.9l-0.1-0.8l-0.2-0.8
					c-0.1-0.5-0.3-1.1-0.4-1.6c-0.3-1.1-0.5-2.1-0.8-3.1c-0.5-2-0.7-4-0.6-5.9c0.1-1.8,0.4-3.5,0.7-4.9c0.3-1.4,0.5-2.7,0.8-3.7
					C327.2,22.7,327.5,21.5,327.5,21.5z"/>
			</g>
			<g>
				<path d="M339.6,37.7c0,0,0,0.3,0,0.8c0,0.5,0,1.2,0,2.2c0,1.9-0.2,4.5-0.5,7.7c-0.2,3.1-0.3,6.9,0.7,10.7c0.5,1.9,1,4,1.3,6
					c0.3,2.1,0.6,4.2,0.7,6.3c0.3,4.2,0.5,8.5,0.4,12.5c0,2-0.2,3.9-0.4,5.7c-0.2,1.8-0.3,3.5-0.5,5.1c-0.3,3.2-0.6,5.8-0.8,7.6
					c-0.2,1.8-0.3,2.9-0.3,2.9s0-1.1,0.1-2.9c0.1-1.9,0.2-4.5,0.4-7.7c0.1-1.6,0.2-3.3,0.3-5.1c0.1-1.8,0.3-3.7,0.3-5.7
					c0-4-0.2-8.2-0.5-12.4c-0.2-2.1-0.4-4.2-0.7-6.3c-0.3-2.1-0.7-4-1.2-5.9c-1-4-0.7-7.8-0.4-10.9c0.2-1.6,0.3-3,0.5-4.3
					c0.1-1.3,0.3-2.4,0.3-3.3C339.5,38.7,339.6,37.7,339.6,37.7z"/>
			</g>
			<g>
				<path d="M334.5,71.4c0,0,0,0.1,0,0.4c0,0.2,0.1,0.6,0,1c0,0.4-0.1,1-0.3,1.6c-0.2,0.6-0.5,1.2-0.7,1.9c-0.2,0.7-0.2,1.4-0.1,2.2
					c0.1,0.8,0.3,1.7,0.5,2.5c0.4,1.8,1,3.6,1.5,5.5c0.5,1.9,1,3.8,1.4,5.6c0.4,1.8,0.6,3.5,0.6,5c0,0.7-0.1,1.4-0.2,2
					c-0.1,0.6-0.3,1.1-0.5,1.5c-0.2,0.4-0.3,0.7-0.4,0.9c-0.1,0.2-0.2,0.3-0.2,0.3s0.2-0.5,0.4-1.3c0.1-0.4,0.2-0.9,0.3-1.5
					c0.1-0.6,0.1-1.2,0-2c0-0.7-0.1-1.5-0.3-2.3c-0.2-0.8-0.4-1.7-0.6-2.5c-0.4-1.8-1-3.6-1.5-5.5c-0.3-0.9-0.5-1.9-0.8-2.8
					c-0.3-0.9-0.5-1.9-0.7-2.8c-0.2-0.9-0.3-1.8-0.3-2.7c-0.1-0.9,0-1.7,0.3-2.4c0.2-0.7,0.6-1.3,0.9-1.8c0.2-0.5,0.4-1,0.4-1.4
					c0.1-0.4,0.1-0.8,0.1-1C334.5,71.5,334.5,71.4,334.5,71.4z"/>
			</g>
			<path d="M344.9,20.5c1.9,11.9,1.3,8,1.7,17.2"/>
			<path class="st11" d="M348.7,84.5c1,4.6,1.9,2.1,0,6.7s-3.2,7.1-2.1,11.9"/>
		</g>
	</g>
	<g>
		<line class="st4" x1="341.8" y1="46.9" x2="464.5" y2="75.4"/>
		<line class="st4" x1="340.3" y1="80" x2="460.4" y2="110.2"/>
		<g>
			<path class="st5" d="M458.6,35.3c11.8-7.4,45.6-0.6,34.2,6.7S446.7,42.6,458.6,35.3z"/>
			<path class="st6" d="M466,36c6.4-4,24.6-0.3,18.4,3.6S459.6,40,466,36z"/>
			<path class="st7" d="M469.8,36.7c3.8-2.4,14.8-0.2,11.1,2.2C477.3,41.3,466,39.1,469.8,36.7z"/>
			<path class="st8" d="M472.8,37.3c1.7-1,6.4-0.1,4.8,0.9C476,39.3,471.1,38.4,472.8,37.3z"/>
			<path class="st9" d="M462.3,35.6c9.2-5.4,35.6-0.5,26.7,5S453.1,41,462.3,35.6z"/>
			<path class="st10" d="M456.1,38.6c4.7,2.2,26.5,12.6,38.9,0c0,29.7,0,91.3,0,91.3s-15.4,16.2-38.9-0.7
				C456.1,100.2,456.1,57.3,456.1,38.6z"/>
			<g>
				<path d="M464.5,61.3c0,0,0,1.1,0,3.2c0,2,0,4.9,0.1,8.3c0.1,1.7,0.2,3.6,0.8,5.4c0.3,0.9,0.6,1.9,0.9,2.9c0.3,1,0.4,2.1,0.5,3.2
					c0.1,2.2-0.2,4.5-0.7,6.7c-0.5,2.2-0.9,4.5-1.3,6.7c-0.8,4.5-1.4,9-1.4,13.3c0,2.1,0.2,4.2,0.3,6.2c0.1,2,0.3,3.8,0.4,5.6
					c0.2,3.4,0.4,6.3,0.5,8.3c0.1,2,0.2,3.2,0.2,3.2s-0.1-1.1-0.3-3.1c-0.2-2-0.5-4.9-0.9-8.3c-0.2-1.7-0.3-3.6-0.5-5.5
					c-0.2-1.9-0.4-4.1-0.4-6.2c0-4.3,0.5-9,1.3-13.5c0.4-2.3,0.9-4.5,1.4-6.7c0.5-2.2,0.9-4.4,0.8-6.5c-0.1-2.1-0.7-4-1.2-6
					c-0.6-1.9-0.6-3.9-0.7-5.6c0-3.5,0.1-6.3,0.2-8.3C464.4,62.5,464.5,61.3,464.5,61.3z"/>
			</g>
			<g>
				<path d="M472.9,45.2c0,0-0.2,1.2-0.6,3.3c-0.2,1-0.4,2.3-0.6,3.7c-0.2,1.4-0.4,3.1-0.5,4.9c-0.1,1.8,0.2,3.7,0.8,5.7
					c0.3,1,0.6,2,0.9,3.1c0.1,0.5,0.3,1,0.4,1.6l0.2,0.8l0.1,0.9c0.5,4.6,0,9.4-0.2,14.2c0,2.4-0.2,4.8-0.4,7.2
					c-0.2,2.4-0.3,4.7-0.5,6.9c-0.1,2.2-0.2,4.4-0.1,6.4c0.2,2,0.2,4.1,0.1,5.9c-0.2,3.6-0.4,6.6-0.5,8.7c0,1.1,0,1.9,0,2.4
					c0,0.6,0,0.9,0,0.9s0-0.3-0.1-0.9c-0.1-0.6-0.1-1.4-0.1-2.4c-0.1-2.1,0-5.1,0.1-8.7c0-1.8,0-3.7-0.3-5.8c-0.2-2.1-0.1-4.3,0-6.5
					c0.1-2.3,0.2-4.6,0.4-6.9c0.1-2.4,0.3-4.7,0.3-7.2c0.1-2.4,0.3-4.8,0.4-7.2c0.1-2.4,0.2-4.7-0.1-6.9l-0.1-0.8l-0.2-0.8
					c-0.1-0.5-0.3-1.1-0.4-1.6c-0.3-1.1-0.5-2.1-0.8-3.1c-0.5-2-0.7-4-0.6-5.9c0.1-1.8,0.4-3.5,0.7-4.9c0.3-1.4,0.5-2.7,0.8-3.7
					C472.6,46.4,472.9,45.2,472.9,45.2z"/>
			</g>
			<g>
				<path d="M485,61.3c0,0,0,0.3,0,0.8c0,0.5,0,1.2,0,2.2c0,1.9-0.2,4.5-0.5,7.7c-0.2,3.1-0.3,6.9,0.7,10.7c0.5,1.9,1,4,1.3,6
					c0.3,2.1,0.6,4.2,0.7,6.3c0.3,4.2,0.5,8.5,0.4,12.5c0,2-0.2,3.9-0.4,5.7c-0.2,1.8-0.3,3.5-0.5,5.1c-0.3,3.2-0.6,5.8-0.8,7.6
					c-0.2,1.8-0.3,2.9-0.3,2.9s0-1.1,0.1-2.9c0.1-1.9,0.2-4.5,0.4-7.7c0.1-1.6,0.2-3.3,0.3-5.1c0.1-1.8,0.3-3.7,0.3-5.7
					c0-4-0.2-8.2-0.5-12.4c-0.2-2.1-0.4-4.2-0.7-6.3c-0.3-2.1-0.7-4-1.2-5.9c-1-4-0.7-7.8-0.4-10.9c0.2-1.6,0.3-3,0.5-4.3
					c0.1-1.3,0.3-2.4,0.3-3.3C484.9,62.4,485,61.3,485,61.3z"/>
			</g>
			<g>
				<path d="M479.9,95c0,0,0,0.1,0,0.4c0,0.2,0.1,0.6,0,1c0,0.4-0.1,1-0.3,1.6c-0.2,0.6-0.5,1.2-0.7,1.9c-0.2,0.7-0.2,1.4-0.1,2.2
					c0.1,0.8,0.3,1.7,0.5,2.5c0.4,1.8,1,3.6,1.5,5.5c0.5,1.9,1,3.8,1.4,5.6c0.4,1.8,0.6,3.5,0.6,5c0,0.7-0.1,1.4-0.2,2
					c-0.1,0.6-0.3,1.1-0.5,1.5c-0.2,0.4-0.3,0.7-0.4,0.9c-0.1,0.2-0.2,0.3-0.2,0.3s0.2-0.5,0.4-1.3c0.1-0.4,0.2-0.9,0.3-1.5
					c0.1-0.6,0.1-1.2,0-2c0-0.7-0.1-1.5-0.3-2.3c-0.2-0.8-0.4-1.7-0.6-2.5c-0.4-1.8-1-3.6-1.5-5.5c-0.3-0.9-0.5-1.9-0.8-2.8
					c-0.3-0.9-0.5-1.9-0.7-2.8c-0.2-0.9-0.3-1.8-0.3-2.7c-0.1-0.9,0-1.7,0.3-2.4c0.2-0.7,0.6-1.3,0.9-1.8c0.2-0.5,0.4-1,0.4-1.4
					c0.1-0.4,0.1-0.8,0.1-1C479.9,95.1,479.9,95,479.9,95z"/>
			</g>
			<path d="M490.2,44.2c1.9,11.9,1.3,8,1.7,17.2"/>
			<path class="st11" d="M494,108.2c1,4.6,1.9,2.1,0,6.7s-3.2,7.1-2.1,11.9"/>
		</g>
		<line class="st4" x1="487.2" y1="78.3" x2="578.4" y2="139.1"/>
		<line class="st4" x1="487.2" y1="113.3" x2="574.3" y2="177.9"/>
		<g>
			<path class="st5" d="M555.5,82.7c16.2-10.1,62.7-0.8,47,9.3C586.9,102.1,539.3,92.9,555.5,82.7z"/>
			<path class="st6" d="M565.7,83.7c8.8-5.4,33.8-0.5,25.3,5C582.6,94.2,557,89.2,565.7,83.7z"/>
			<path class="st7" d="M571,84.7c5.3-3.3,20.4-0.3,15.3,3C581.2,91,565.7,88,571,84.7z"/>
			<path class="st8" d="M575.1,85.6c2.3-1.4,8.8-0.1,6.6,1.3S572.8,87,575.1,85.6z"/>
			<path class="st9" d="M560.7,83.2c12.7-7.4,48.9-0.6,36.7,6.8C585.1,97.5,548,90.6,560.7,83.2z"/>
			<path class="st10" d="M552.2,87.4c6.4,3,36.4,17.3,53.5,0c0,40.8,0,125.6,0,125.6s-21.1,22.3-53.4-0.9
				C552.2,172,552.2,113.1,552.2,87.4z"/>
			<g>
				<path d="M563.7,118.5c0,0,0,1.6-0.1,4.3c0,2.8,0,6.7,0.1,11.4c0,1.2,0.1,2.4,0.2,3.7c0.1,1.3,0.4,2.5,0.8,3.8
					c0.4,1.3,0.9,2.6,1.2,4c0.4,1.4,0.6,2.9,0.7,4.4c0.2,3-0.3,6.1-1,9.2c-0.7,3-1.3,6.1-1.8,9.2c-1.1,6.2-1.9,12.5-1.9,18.3
					c0,0.7,0,1.5,0,2.2c0,0.7,0.1,1.4,0.1,2.1c0.1,1.4,0.2,2.8,0.3,4.2c0.2,2.7,0.4,5.3,0.5,7.6c0.3,4.7,0.6,8.7,0.7,11.4
					c0.2,2.8,0.3,4.3,0.3,4.3s-0.2-1.6-0.4-4.3c-0.3-2.7-0.6-6.7-1.1-11.4c-0.2-2.4-0.4-4.9-0.7-7.6c-0.1-1.4-0.3-2.7-0.4-4.2
					c-0.1-1.4-0.2-2.9-0.2-4.4c-0.1-6,0.6-12.3,1.7-18.5c0.6-3.1,1.2-6.2,1.9-9.2c0.7-3,1.2-6,1.1-8.9c-0.1-1.5-0.3-2.9-0.6-4.2
					c-0.3-1.4-0.8-2.7-1.1-4c-0.4-1.3-0.7-2.7-0.8-3.9c-0.1-1.3-0.2-2.5-0.2-3.7c-0.1-4.7,0.1-8.7,0.2-11.5
					C563.5,120.1,563.7,118.5,563.7,118.5z"/>
			</g>
			<g>
				<path d="M575.3,96.4c0,0-0.3,1.6-0.8,4.5c-0.3,1.4-0.5,3.2-0.8,5.1c-0.3,2-0.6,4.2-0.7,6.7c-0.1,2.5,0.3,5.1,1,7.8
					c0.4,1.4,0.8,2.8,1.2,4.2c0.2,0.7,0.4,1.4,0.6,2.2c0.1,0.4,0.2,0.7,0.2,1.1c0.1,0.4,0.1,0.8,0.2,1.2c0.4,3.1,0.3,6.4,0.2,9.6
					c-0.1,3.3-0.4,6.6-0.5,9.8c0,3.3-0.3,6.6-0.5,9.9c-0.2,3.2-0.5,6.4-0.6,9.5c-0.1,3.1-0.3,6.1-0.1,8.9c0.3,2.8,0.3,5.6,0.2,8
					c-0.2,5-0.5,9.1-0.6,12c0,1.4,0,2.6,0,3.4c0.1,0.8,0.1,1.2,0.1,1.2s0-0.4-0.1-1.2c-0.1-0.8-0.2-1.9-0.2-3.4
					c-0.1-2.9,0.1-7,0.2-12c0-2.5,0-5.1-0.3-8c-0.2-2.9-0.1-5.9,0-9c0.1-3.1,0.3-6.3,0.5-9.5c0.2-3.3,0.4-6.5,0.4-9.8
					c0.1-3.3,0.4-6.6,0.5-9.9c0.1-3.2,0.2-6.4-0.1-9.5l-0.1-1.1c-0.1-0.4-0.2-0.8-0.2-1.1c-0.2-0.7-0.4-1.5-0.5-2.2
					c-0.4-1.4-0.8-2.9-1.1-4.2c-0.7-2.8-1-5.5-0.9-8c0.1-2.5,0.5-4.7,0.9-6.7c0.4-2,0.7-3.7,1-5.1C574.8,98,575.3,96.4,575.3,96.4z"
					/>
			</g>
			<g>
				<path d="M591.8,118.5c0,0,0,0.4,0,1c0,0.7,0,1.7,0,3c0,1.3-0.1,2.8-0.2,4.6c-0.1,1.8-0.3,3.8-0.4,5.9c-0.2,2.2-0.3,4.5-0.2,7
					c0.1,2.5,0.4,5.1,1.1,7.7c0.2,0.7,0.3,1.3,0.5,2c0.2,0.7,0.4,1.3,0.5,2c0.3,1.4,0.5,2.8,0.8,4.2c0.4,2.8,0.7,5.7,1,8.7
					c0.5,5.8,0.7,11.7,0.6,17.1c0,2.7-0.3,5.4-0.5,7.9c-0.2,2.5-0.4,4.8-0.6,7c-0.4,4.3-0.8,8-1,10.5c-0.3,2.5-0.4,4-0.4,4
					s0.1-1.5,0.2-4c0.2-2.5,0.4-6.2,0.7-10.5c0.1-2.2,0.3-4.5,0.5-7c0.2-2.5,0.4-5.1,0.4-7.8c0-5.4-0.2-11.3-0.7-17
					c-0.2-2.9-0.5-5.8-0.9-8.6c-0.4-2.8-1-5.5-1.7-8.2c-0.7-2.7-0.9-5.4-0.9-7.9c0-2.5,0.2-4.9,0.4-7.1c0.2-2.2,0.4-4.2,0.6-5.9
					c0.2-1.8,0.3-3.3,0.4-4.6c0.1-1.3,0.1-2.3,0.2-2.9C591.8,118.9,591.8,118.5,591.8,118.5z"/>
			</g>
			<g>
				<path d="M584.8,164.9c0,0,0,0.2,0,0.5c0,0.3,0.1,0.8,0,1.4c0,0.6-0.1,1.3-0.4,2.1c-0.3,0.8-0.7,1.6-0.9,2.5
					c-0.2,0.9-0.3,2-0.1,3.1c0.1,1.1,0.4,2.3,0.6,3.5c0.6,2.4,1.4,5,2.1,7.5c0.4,1.3,0.7,2.6,1,3.9c0.3,1.3,0.6,2.6,0.9,3.8
					c0.3,1.2,0.5,2.4,0.6,3.6c0.1,1.2,0.2,2.3,0.2,3.3c0,1-0.1,2-0.3,2.8c-0.1,0.4-0.2,0.8-0.3,1.1c-0.1,0.3-0.2,0.6-0.3,0.9
					c-0.2,0.5-0.4,1-0.6,1.2c-0.1,0.3-0.2,0.4-0.2,0.4s0.1-0.2,0.2-0.4c0.1-0.3,0.3-0.7,0.5-1.3c0.1-0.3,0.2-0.6,0.2-0.9
					c0.1-0.3,0.1-0.7,0.2-1.1c0.1-0.8,0.1-1.7,0.1-2.7c0-1-0.2-2.1-0.4-3.2c-0.2-1.1-0.5-2.3-0.7-3.5c-0.3-1.2-0.6-2.5-1-3.7
					c-0.4-1.3-0.7-2.6-1.1-3.8c-0.4-1.3-0.7-2.6-1.1-3.9c-0.4-1.3-0.6-2.6-0.9-3.8c-0.2-1.2-0.4-2.5-0.5-3.6c-0.1-1.2,0-2.3,0.3-3.3
					c0.3-1,0.8-1.8,1.1-2.5c0.3-0.7,0.5-1.4,0.6-2c0.1-0.6,0.1-1,0.1-1.3C584.8,165,584.8,164.9,584.8,164.9z"/>
			</g>
			<path d="M599,95c2.6,16.4,1.7,10.9,2.3,23.6"/>
			<path class="st11" d="M604.3,183c1.4,6.3,2.6,2.9,0,9.3c-2.6,6.3-4.3,9.7-2.9,16.4"/>
		</g>
		<line class="st4" x1="585.8" y1="139.1" x2="681.7" y2="230.2"/>
		<line class="st4" x1="587.3" y1="185.6" x2="675.4" y2="270.7"/>
		<g>
			<path class="st5" d="M656.6,181.3c17.8-11.1,68.7-0.9,51.6,10.2S638.8,192.4,656.6,181.3z"/>
			<path class="st6" d="M667.8,182.4c9.6-6,37-0.5,27.8,5.5S658.2,188.4,667.8,182.4z"/>
			<path class="st7" d="M673.6,183.5c5.8-3.6,22.4-0.3,16.8,3.3S667.8,187.1,673.6,183.5z"/>
			<path class="st8" d="M678.1,184.4c2.5-1.6,9.7-0.1,7.2,1.4C682.9,187.4,675.6,186,678.1,184.4z"/>
			<path class="st9" d="M662.2,181.8c13.9-8.2,53.7-0.7,40.3,7.5S648.3,190,662.2,181.8z"/>
			<path class="st10" d="M653,186.4c7,3.3,39.9,18.9,58.7,0c0,44.8,0,137.7,0,137.7s-23.2,24.4-58.6-1
				C653,279.2,653,214.6,653,186.4z"/>
			<g>
				<path d="M665.5,220.6c0,0,0,1.7-0.1,4.8c0,3-0.1,7.4,0.1,12.5c0,1.3,0.1,2.6,0.3,4c0.1,1.4,0.5,2.8,0.9,4.2
					c0.4,1.4,0.9,2.9,1.3,4.4c0.4,1.5,0.6,3.2,0.7,4.8c0.2,3.3-0.4,6.7-1.1,10c-0.7,3.3-1.4,6.7-2,10.1c-1.2,6.8-2.1,13.7-2,20.1
					c0,0.8,0,1.6,0,2.4c0,0.8,0.1,1.6,0.1,2.4c0.1,1.6,0.2,3.1,0.3,4.6c0.2,3,0.4,5.8,0.6,8.4c0.3,5.2,0.6,9.5,0.8,12.5
					c0.2,3,0.3,4.8,0.3,4.8s-0.2-1.7-0.5-4.7c-0.3-3-0.7-7.3-1.2-12.5c-0.2-2.6-0.5-5.4-0.8-8.4c-0.1-1.5-0.3-3-0.4-4.6
					c0-0.8-0.1-1.6-0.1-2.4c0-0.8,0-1.6-0.1-2.4c-0.1-6.5,0.7-13.5,1.9-20.3c0.6-3.4,1.3-6.8,2.1-10.1c0.8-3.3,1.3-6.6,1.1-9.8
					c-0.1-1.6-0.3-3.1-0.7-4.6c-0.4-1.5-0.8-2.9-1.2-4.4c-0.4-1.4-0.7-2.9-0.8-4.3c-0.1-1.4-0.2-2.8-0.2-4.1
					c-0.1-5.2,0.1-9.5,0.2-12.6C665.4,222.3,665.5,220.6,665.5,220.6z"/>
			</g>
			<g>
				<path d="M678.3,196.3c0,0-0.4,1.8-0.9,4.9c-0.3,1.6-0.6,3.5-0.9,5.6c-0.3,2.2-0.7,4.7-0.8,7.3c-0.1,2.7,0.3,5.6,1.1,8.6
					c0.4,1.5,0.8,3,1.3,4.6c0.2,0.8,0.4,1.6,0.6,2.4c0.1,0.4,0.2,0.8,0.3,1.2c0.1,0.4,0.1,0.9,0.2,1.3c0.4,3.4,0.3,7,0.2,10.5
					c-0.1,3.6-0.4,7.2-0.5,10.8c0,3.6-0.3,7.3-0.5,10.8c-0.2,3.6-0.5,7.1-0.7,10.5c-0.1,3.4-0.3,6.7-0.1,9.7
					c0.3,3.1,0.3,6.1,0.2,8.8c-0.2,5.4-0.6,10-0.6,13.1c0,1.6,0,2.8,0,3.7c0.1,0.8,0.1,1.3,0.1,1.3s0-0.5-0.1-1.3
					c-0.1-0.8-0.2-2.1-0.2-3.7c-0.1-3.2,0.1-7.7,0.2-13.1c0-2.7,0-5.6-0.4-8.7c-0.2-3.1-0.1-6.4,0-9.8c0.1-3.4,0.4-6.9,0.6-10.5
					c0.2-3.6,0.5-7.1,0.5-10.8c0.1-3.6,0.4-7.3,0.6-10.8c0.2-3.6,0.2-7.1-0.1-10.4c-0.1-0.4-0.1-0.8-0.2-1.2
					c-0.1-0.4-0.2-0.8-0.2-1.2c-0.2-0.8-0.4-1.6-0.6-2.4c-0.4-1.6-0.8-3.1-1.2-4.6c-0.8-3-1.1-6-1-8.8c0.1-2.7,0.6-5.2,0.9-7.4
					c0.4-2.2,0.8-4.1,1.1-5.6C677.8,198,678.3,196.3,678.3,196.3z"/>
			</g>
			<g>
				<path d="M696.4,220.6c0,0,0,0.4,0,1.1c0,0.7,0,1.8,0,3.2c-0.1,1.4-0.1,3.1-0.3,5c-0.1,1.9-0.3,4.1-0.5,6.5
					c-0.2,2.4-0.3,5-0.2,7.7c0.1,2.7,0.4,5.6,1.2,8.4c0.2,0.7,0.4,1.5,0.6,2.2c0.2,0.7,0.4,1.5,0.5,2.2c0.3,1.5,0.6,3.1,0.8,4.6
					c0.5,3.1,0.8,6.3,1.1,9.5c0.5,6.4,0.7,12.8,0.7,18.8c0,3-0.3,5.9-0.6,8.6c-0.2,2.7-0.5,5.3-0.7,7.7c-0.5,4.8-0.8,8.7-1.1,11.5
					c-0.3,2.8-0.4,4.4-0.4,4.4s0.1-1.6,0.3-4.4c0.2-2.8,0.4-6.8,0.7-11.6c0.2-2.4,0.3-5,0.5-7.7c0.2-2.7,0.4-5.6,0.4-8.6
					c0-6-0.2-12.3-0.8-18.7c-0.3-3.2-0.6-6.3-1-9.4c-0.2-1.5-0.5-3.1-0.8-4.6c-0.1-0.7-0.3-1.5-0.5-2.2c-0.2-0.7-0.4-1.5-0.6-2.2
					c-0.7-2.9-1-5.9-1-8.6c0-2.8,0.2-5.4,0.4-7.8c0.2-2.4,0.5-4.6,0.7-6.5c0.2-1.9,0.4-3.6,0.5-5c0.1-1.4,0.2-2.5,0.2-3.2
					C696.4,221,696.4,220.6,696.4,220.6z"/>
			</g>
			<g>
				<path d="M688.8,271.4c0,0,0,0.2,0,0.5c0,0.3,0.1,0.8,0,1.5c0,0.7-0.2,1.4-0.4,2.3c-0.3,0.9-0.8,1.8-1,2.8
					c-0.3,1-0.3,2.2-0.2,3.4c0.1,1.2,0.4,2.5,0.7,3.9c0.6,2.7,1.5,5.5,2.3,8.3c0.8,2.8,1.5,5.7,2.1,8.4c0.3,1.4,0.5,2.7,0.7,3.9
					c0.2,1.3,0.3,2.5,0.3,3.6c0,1.1-0.1,2.1-0.3,3c-0.1,0.4-0.2,0.9-0.3,1.2c-0.1,0.4-0.3,0.7-0.4,1c-0.3,0.6-0.5,1.1-0.6,1.4
					c-0.2,0.3-0.2,0.5-0.2,0.5s0.1-0.2,0.2-0.5c0.1-0.3,0.3-0.8,0.5-1.4c0.1-0.3,0.2-0.6,0.3-1c0.1-0.4,0.2-0.8,0.2-1.2
					c0.1-0.9,0.1-1.9,0.1-3c0-1.1-0.2-2.3-0.4-3.5c-0.2-1.2-0.5-2.5-0.8-3.9c-0.6-2.7-1.4-5.5-2.2-8.3c-0.8-2.8-1.6-5.7-2.2-8.4
					c-0.3-1.4-0.5-2.7-0.5-4c-0.1-1.3,0-2.5,0.4-3.6c0.3-1.1,0.9-2,1.2-2.8c0.3-0.8,0.5-1.6,0.6-2.2c0.1-0.6,0.1-1.1,0.1-1.5
					C688.8,271.6,688.8,271.4,688.8,271.4z"/>
			</g>
			<path d="M704.4,194.7c2.9,18,1.9,12,2.5,25.9"/>
			<path class="st11" d="M710.1,291.2c1.5,6.9,2.9,3.2,0,10.2c-2.9,6.9-4.8,10.7-3.2,18"/>
		</g>
		<line class="st4" x1="685.8" y1="237.1" x2="561.6" y2="346.9"/>
		<line class="st4" x1="685.8" y1="295.8" x2="563.9" y2="408.2"/>
		<g>
			<path class="st5" d="M524.5,290c20.4-12.7,78.5-1.1,58.9,11.6C563.7,314.3,504.1,302.7,524.5,290z"/>
			<path class="st6" d="M537.3,291.2c11-6.8,42.3-0.6,31.7,6.3S526.3,298.1,537.3,291.2z"/>
			<path class="st7" d="M543.9,292.5c6.6-4.1,25.6-0.3,19.2,3.8S537.3,296.6,543.9,292.5z"/>
			<path class="st8" d="M549,293.6c2.9-1.8,11-0.1,8.3,1.6C554.5,297,546.1,295.3,549,293.6z"/>
			<path class="st9" d="M530.9,290.6c15.9-9.3,61.3-0.8,46,8.5C561.5,308.4,515,299.9,530.9,290.6z"/>
			<path class="st10" d="M520.3,295.8c8,3.8,45.6,21.6,67,0c0,51.2,0,157.3,0,157.3s-26.5,27.9-67-1.2
				C520.3,401.9,520.3,328,520.3,295.8z"/>
			<g>
				<path d="M534.7,334.8c0,0,0,2-0.1,5.4c0,3.5-0.1,8.4,0.1,14.3c0.1,1.5,0.1,3,0.3,4.6c0.2,1.6,0.5,3.2,1,4.8
					c0.5,1.6,1.1,3.3,1.5,5c0.5,1.7,0.7,3.6,0.8,5.5c0.2,3.8-0.4,7.6-1.3,11.4c-0.8,3.8-1.6,7.7-2.3,11.6c-1.4,7.8-2.3,15.6-2.3,23
					c0,0.9,0,1.8,0,2.7c0,0.9,0.1,1.8,0.1,2.7c0.1,1.8,0.3,3.5,0.4,5.2c0.2,3.4,0.5,6.6,0.7,9.6c0.4,5.9,0.7,10.9,1,14.3
					c0.2,3.5,0.3,5.4,0.3,5.4s-0.2-2-0.5-5.4c-0.3-3.4-0.8-8.4-1.3-14.3c-0.3-3-0.5-6.2-0.9-9.5c-0.2-1.7-0.3-3.4-0.5-5.2
					c0-0.9-0.1-1.8-0.2-2.7c0-0.9,0-1.8-0.1-2.8c-0.1-7.5,0.8-15.4,2.2-23.2c0.7-3.9,1.5-7.8,2.4-11.6c0.9-3.8,1.5-7.5,1.3-11.2
					c-0.1-1.8-0.3-3.6-0.8-5.3c-0.4-1.7-1-3.4-1.4-5c-0.5-1.6-0.8-3.3-1-4.9c-0.1-1.6-0.2-3.2-0.2-4.7c-0.1-5.9,0.1-10.9,0.2-14.3
					C534.5,336.8,534.7,334.8,534.7,334.8z"/>
			</g>
			<g>
				<path d="M549.2,307.1c0,0-0.4,2-1.1,5.6c-0.3,1.8-0.7,3.9-1.1,6.4c-0.4,2.5-0.8,5.3-0.9,8.4c-0.1,3.1,0.3,6.4,1.3,9.8
					c0.4,1.7,1,3.5,1.5,5.3c0.2,0.9,0.5,1.8,0.7,2.8c0.1,0.5,0.2,0.9,0.3,1.4c0.1,0.5,0.1,1,0.2,1.5c0.4,3.9,0.4,7.9,0.2,12
					c-0.2,4.1-0.5,8.2-0.6,12.3c0,4.1-0.3,8.3-0.6,12.4c-0.3,4.1-0.6,8.1-0.8,11.9c-0.2,3.9-0.4,7.6-0.2,11.1
					c0.4,3.5,0.3,7,0.2,10.1c-0.2,6.2-0.6,11.4-0.7,15c0,1.8,0,3.2,0.1,4.2c0.1,1,0.1,1.5,0.1,1.5s-0.1-0.5-0.2-1.5
					c-0.1-1-0.2-2.4-0.2-4.2c-0.1-3.6,0.1-8.8,0.3-15c0-3.1,0-6.4-0.4-10c-0.3-3.6-0.1-7.3,0-11.2c0.2-3.9,0.4-7.9,0.7-12
					c0.3-4.1,0.5-8.2,0.5-12.3c0.2-4.2,0.5-8.3,0.7-12.3c0.2-4.1,0.3-8.1-0.1-11.9c-0.1-0.5-0.1-0.9-0.2-1.4
					c-0.1-0.5-0.2-0.9-0.3-1.4c-0.2-0.9-0.5-1.8-0.7-2.7c-0.5-1.8-1-3.6-1.4-5.3c-0.9-3.5-1.3-6.9-1.1-10c0.2-3.1,0.6-5.9,1.1-8.4
					c0.4-2.5,0.9-4.6,1.2-6.4C548.7,309.1,549.2,307.1,549.2,307.1z"/>
			</g>
			<g>
				<path d="M569.9,334.8c0,0,0,0.5,0,1.3c0,0.9,0,2.1-0.1,3.7c-0.1,1.6-0.2,3.5-0.3,5.7c-0.2,2.2-0.4,4.7-0.6,7.4
					c-0.2,2.7-0.4,5.7-0.3,8.8c0.1,3.1,0.5,6.4,1.3,9.7c0.2,0.8,0.4,1.7,0.6,2.5c0.2,0.8,0.4,1.7,0.6,2.6c0.4,1.7,0.7,3.5,1,5.3
					c0.6,3.6,0.9,7.2,1.3,10.8c0.6,7.3,0.8,14.6,0.8,21.4c0,1.7-0.1,3.4-0.2,5.1c-0.1,1.6-0.3,3.2-0.4,4.8c-0.3,3.1-0.5,6.1-0.8,8.8
					c-0.5,5.4-0.9,10-1.2,13.2c-0.3,3.2-0.5,5-0.5,5s0.1-1.8,0.3-5c0.2-3.2,0.5-7.7,0.9-13.2c0.2-2.7,0.4-5.7,0.6-8.8
					c0.2-3.1,0.5-6.4,0.5-9.8c0-6.8-0.3-14.1-0.9-21.4c-0.3-3.6-0.6-7.2-1.2-10.8c-0.3-1.8-0.5-3.5-0.9-5.2
					c-0.2-0.9-0.4-1.7-0.6-2.5c-0.2-0.8-0.4-1.7-0.6-2.5c-0.8-3.4-1.2-6.7-1.2-9.9c0-3.2,0.2-6.1,0.4-8.8c0.2-2.7,0.5-5.2,0.8-7.4
					c0.2-2.2,0.4-4.1,0.5-5.7c0.1-1.6,0.2-2.8,0.2-3.7C569.9,335.3,569.9,334.8,569.9,334.8z"/>
			</g>
			<g>
				<path d="M561.2,392.9c0,0,0,0.2,0,0.6c0,0.4,0.1,1,0,1.7c0,0.7-0.2,1.6-0.5,2.6c-0.3,1-0.9,2-1.2,3.2c-0.3,1.2-0.4,2.5-0.2,3.9
					c0.1,1.4,0.4,2.9,0.7,4.4c0.7,3,1.7,6.2,2.6,9.5c0.9,3.2,1.8,6.5,2.4,9.6c0.3,1.5,0.6,3.1,0.8,4.5c0.2,1.4,0.3,2.8,0.3,4.1
					c0,1.3-0.1,2.4-0.3,3.5c-0.1,0.5-0.2,1-0.3,1.4c-0.1,0.4-0.3,0.8-0.4,1.2c-0.3,0.7-0.5,1.2-0.7,1.6c-0.2,0.3-0.3,0.5-0.3,0.5
					s0.1-0.2,0.2-0.6c0.2-0.4,0.3-0.9,0.6-1.6c0.1-0.4,0.2-0.7,0.3-1.2c0.1-0.4,0.2-0.9,0.2-1.4c0.1-1,0.2-2.1,0.1-3.4
					c-0.1-1.2-0.2-2.6-0.5-4c-0.2-1.4-0.6-2.9-0.9-4.4c-0.7-3.1-1.6-6.3-2.5-9.5c-0.9-3.2-1.9-6.5-2.5-9.6c-0.3-1.6-0.6-3.1-0.6-4.5
					c-0.1-1.5,0-2.9,0.4-4.1c0.4-1.3,1-2.2,1.4-3.2c0.4-0.9,0.6-1.8,0.7-2.5c0.1-0.7,0.1-1.3,0.1-1.7
					C561.2,393.1,561.2,392.9,561.2,392.9z"/>
			</g>
			<path d="M579,305.3c3.3,20.6,2.2,13.7,2.9,29.5"/>
			<path class="st11" d="M585.5,415.6c1.8,7.9,3.3,3.7,0,11.6c-3.3,7.9-5.4,12.2-3.6,20.6"/>
		</g>
	</g>
</g>
<use xlink:href="#Herbe_3"  width="35" height="60.4" x="-17.5" y="-30.3" transform="matrix(1 0 0 -1 545.8707 439.8906)" style="overflow:visible;"/>
<use xlink:href="#Herbe_3"  width="35" height="60.4" x="-17.5" y="-30.3" transform="matrix(1.4194 0 0 -1.4194 575.6284 424.9586)" style="overflow:visible;"/>
<use xlink:href="#Herbe_3"  width="35" height="60.4" x="-17.5" y="-30.3" transform="matrix(1 0 0 -1 557.3971 446.6029)" style="overflow:visible;"/>
<use xlink:href="#Herbe_3"  width="35" height="60.4" x="-17.5" y="-30.3" transform="matrix(1 0 0 -1 665.848 311.4691)" style="overflow:visible;"/>
<use xlink:href="#Herbe_3"  width="35" height="60.4" x="-17.5" y="-30.3" transform="matrix(1 0 0 -1 704.355 314.5585)" style="overflow:visible;"/>
<use xlink:href="#Herbe_3"  width="35" height="60.4" x="-17.5" y="-30.3" transform="matrix(1 0 0 -1 565.8434 196.157)" style="overflow:visible;"/>
<use xlink:href="#Herbe_3"  width="35" height="60.4" x="-17.5" y="-30.3" transform="matrix(0.616 0 0 -0.616 23.3766 261.1043)" style="overflow:visible;"/>
<use xlink:href="#Herbe_3"  width="35" height="60.4" x="-17.5" y="-30.3" transform="matrix(1 0 0 -1 32.4657 249.4605)" style="overflow:visible;"/>
<use xlink:href="#Herbe_3"  width="35" height="60.4" x="-17.5" y="-30.3" transform="matrix(1 0 0 -1 66.266 407.3105)" style="overflow:visible;"/>
<use xlink:href="#Herbe_3"  width="35" height="60.4" x="-17.5" y="-30.3" transform="matrix(1 0 0 -1 81.896 416.0387)" style="overflow:visible;"/>
<use xlink:href="#Herbe_3"  width="35" height="60.4" x="-17.5" y="-30.3" transform="matrix(0.7172 0 0 -0.7172 147.293 124.4755)" style="overflow:visible;"/>
<use xlink:href="#Herbe_3"  width="35" height="60.4" x="-17.5" y="-30.3" transform="matrix(0.9311 0 0 -0.9311 323.2862 90.4077)" style="overflow:visible;"/>
<use xlink:href="#Herbe_3"  width="35" height="60.4" x="-17.5" y="-30.3" transform="matrix(0.3958 0 0 -0.3958 339.1973 105.1094)" style="overflow:visible;"/>
<use xlink:href="#Herbe_3"  width="35" height="60.4" x="-17.5" y="-30.3" transform="matrix(0.6104 0 0 -0.6104 480.3879 125.0497)" style="overflow:visible;"/>
<use xlink:href="#Herbe_3"  width="35" height="60.4" x="-17.5" y="-30.3" transform="matrix(0.6104 0 0 -0.6104 456.1399 116.0489)" style="overflow:visible;"/>
</svg>
